<?xml version="1.0" encoding="utf-8" standalone="no"?>
<!DOCTYPE svg PUBLIC "-//W3C//DTD SVG 1.1//EN"
  "http://www.w3.org/Graphics/SVG/1.1/DTD/svg11.dtd">
<!-- Created with matplotlib (https://matplotlib.org/) -->
<svg height="279.489375pt" version="1.1" viewBox="0 0 280.424219 279.489375" width="280.424219pt" xmlns="http://www.w3.org/2000/svg" xmlns:xlink="http://www.w3.org/1999/xlink">
 <defs>
  <style type="text/css">
*{stroke-linecap:butt;stroke-linejoin:round;}
  </style>
 </defs>
 <g id="figure_1">
  <g id="patch_1">
   <path d="M 0 279.489375 
L 280.424219 279.489375 
L 280.424219 0 
L 0 0 
z
" style="fill:#ffffff;"/>
  </g>
  <g id="axes_1">
   <g id="patch_2">
    <path d="M 44.348438 109.49875 
L 257.935938 109.49875 
L 257.935938 21.94875 
L 44.348438 21.94875 
z
" style="fill:#ffffff;"/>
   </g>
   <g id="patch_3">
    <path clip-path="url(#p3a93c66ac2)" d="M 54.05696 109.49875 
L 56.998937 109.49875 
L 56.998937 26.117798 
L 54.05696 26.117798 
z
"/>
   </g>
   <g id="patch_4">
    <path clip-path="url(#p3a93c66ac2)" d="M 56.998937 109.49875 
L 59.940913 109.49875 
L 59.940913 77.413178 
L 56.998937 77.413178 
z
"/>
   </g>
   <g id="patch_5">
    <path clip-path="url(#p3a93c66ac2)" d="M 59.940913 109.49875 
L 62.88289 109.49875 
L 62.88289 64.329741 
L 59.940913 64.329741 
z
"/>
   </g>
   <g id="patch_6">
    <path clip-path="url(#p3a93c66ac2)" d="M 62.88289 109.49875 
L 65.824867 109.49875 
L 65.824867 67.237171 
L 62.88289 67.237171 
z
"/>
   </g>
   <g id="patch_7">
    <path clip-path="url(#p3a93c66ac2)" d="M 65.824867 109.49875 
L 68.766843 109.49875 
L 68.766843 69.729255 
L 65.824867 69.729255 
z
"/>
   </g>
   <g id="patch_8">
    <path clip-path="url(#p3a93c66ac2)" d="M 68.766843 109.49875 
L 71.70882 109.49875 
L 71.70882 75.959463 
L 68.766843 75.959463 
z
"/>
   </g>
   <g id="patch_9">
    <path clip-path="url(#p3a93c66ac2)" d="M 71.70882 109.49875 
L 74.650796 109.49875 
L 74.650796 75.959463 
L 71.70882 75.959463 
z
"/>
   </g>
   <g id="patch_10">
    <path clip-path="url(#p3a93c66ac2)" d="M 74.650796 109.49875 
L 77.592773 109.49875 
L 77.592773 84.681754 
L 74.650796 84.681754 
z
"/>
   </g>
   <g id="patch_11">
    <path clip-path="url(#p3a93c66ac2)" d="M 77.592773 109.49875 
L 80.534749 109.49875 
L 80.534749 92.573351 
L 77.592773 92.573351 
z
"/>
   </g>
   <g id="patch_12">
    <path clip-path="url(#p3a93c66ac2)" d="M 80.534749 109.49875 
L 83.476726 109.49875 
L 83.476726 92.261841 
L 80.534749 92.261841 
z
"/>
   </g>
   <g id="patch_13">
    <path clip-path="url(#p3a93c66ac2)" d="M 83.476726 109.49875 
L 86.418703 109.49875 
L 86.418703 95.792292 
L 83.476726 95.792292 
z
"/>
   </g>
   <g id="patch_14">
    <path clip-path="url(#p3a93c66ac2)" d="M 86.418703 109.49875 
L 89.360679 109.49875 
L 89.360679 99.322743 
L 86.418703 99.322743 
z
"/>
   </g>
   <g id="patch_15">
    <path clip-path="url(#p3a93c66ac2)" d="M 89.360679 109.49875 
L 92.302656 109.49875 
L 92.302656 99.42658 
L 89.360679 99.42658 
z
"/>
   </g>
   <g id="patch_16">
    <path clip-path="url(#p3a93c66ac2)" d="M 92.302656 109.49875 
L 95.244632 109.49875 
L 95.244632 98.492049 
L 92.302656 98.492049 
z
"/>
   </g>
   <g id="patch_17">
    <path clip-path="url(#p3a93c66ac2)" d="M 95.244632 109.49875 
L 98.186609 109.49875 
L 98.186609 99.634254 
L 95.244632 99.634254 
z
"/>
   </g>
   <g id="patch_18">
    <path clip-path="url(#p3a93c66ac2)" d="M 98.186609 109.49875 
L 101.128586 109.49875 
L 101.128586 99.634254 
L 98.186609 99.634254 
z
"/>
   </g>
   <g id="patch_19">
    <path clip-path="url(#p3a93c66ac2)" d="M 101.128586 109.49875 
L 104.070562 109.49875 
L 104.070562 99.738091 
L 101.128586 99.738091 
z
"/>
   </g>
   <g id="patch_20">
    <path clip-path="url(#p3a93c66ac2)" d="M 104.070562 109.49875 
L 107.012539 109.49875 
L 107.012539 98.180539 
L 104.070562 98.180539 
z
"/>
   </g>
   <g id="patch_21">
    <path clip-path="url(#p3a93c66ac2)" d="M 107.012539 109.49875 
L 109.954515 109.49875 
L 109.954515 99.945764 
L 107.012539 99.945764 
z
"/>
   </g>
   <g id="patch_22">
    <path clip-path="url(#p3a93c66ac2)" d="M 109.954515 109.49875 
L 112.896492 109.49875 
L 112.896492 100.257275 
L 109.954515 100.257275 
z
"/>
   </g>
   <g id="patch_23">
    <path clip-path="url(#p3a93c66ac2)" d="M 112.896492 109.49875 
L 115.838468 109.49875 
L 115.838468 100.464948 
L 112.896492 100.464948 
z
"/>
   </g>
   <g id="patch_24">
    <path clip-path="url(#p3a93c66ac2)" d="M 115.838468 109.49875 
L 118.780445 109.49875 
L 118.780445 100.880295 
L 115.838468 100.880295 
z
"/>
   </g>
   <g id="patch_25">
    <path clip-path="url(#p3a93c66ac2)" d="M 118.780445 109.49875 
L 121.722422 109.49875 
L 121.722422 99.11507 
L 118.780445 99.11507 
z
"/>
   </g>
   <g id="patch_26">
    <path clip-path="url(#p3a93c66ac2)" d="M 121.722422 109.49875 
L 124.664398 109.49875 
L 124.664398 101.71099 
L 121.722422 101.71099 
z
"/>
   </g>
   <g id="patch_27">
    <path clip-path="url(#p3a93c66ac2)" d="M 124.664398 109.49875 
L 127.606375 109.49875 
L 127.606375 102.126337 
L 124.664398 102.126337 
z
"/>
   </g>
   <g id="patch_28">
    <path clip-path="url(#p3a93c66ac2)" d="M 127.606375 109.49875 
L 130.548351 109.49875 
L 130.548351 103.268542 
L 127.606375 103.268542 
z
"/>
   </g>
   <g id="patch_29">
    <path clip-path="url(#p3a93c66ac2)" d="M 130.548351 109.49875 
L 133.490328 109.49875 
L 133.490328 103.164705 
L 130.548351 103.164705 
z
"/>
   </g>
   <g id="patch_30">
    <path clip-path="url(#p3a93c66ac2)" d="M 133.490328 109.49875 
L 136.432305 109.49875 
L 136.432305 103.268542 
L 133.490328 103.268542 
z
"/>
   </g>
   <g id="patch_31">
    <path clip-path="url(#p3a93c66ac2)" d="M 136.432305 109.49875 
L 139.374281 109.49875 
L 139.374281 103.268542 
L 136.432305 103.268542 
z
"/>
   </g>
   <g id="patch_32">
    <path clip-path="url(#p3a93c66ac2)" d="M 139.374281 109.49875 
L 142.316258 109.49875 
L 142.316258 105.968299 
L 139.374281 105.968299 
z
"/>
   </g>
   <g id="patch_33">
    <path clip-path="url(#p3a93c66ac2)" d="M 142.316258 109.49875 
L 145.258234 109.49875 
L 145.258234 104.30691 
L 142.316258 104.30691 
z
"/>
   </g>
   <g id="patch_34">
    <path clip-path="url(#p3a93c66ac2)" d="M 145.258234 109.49875 
L 148.200211 109.49875 
L 148.200211 105.241441 
L 145.258234 105.241441 
z
"/>
   </g>
   <g id="patch_35">
    <path clip-path="url(#p3a93c66ac2)" d="M 148.200211 109.49875 
L 151.142188 109.49875 
L 151.142188 105.968299 
L 148.200211 105.968299 
z
"/>
   </g>
   <g id="patch_36">
    <path clip-path="url(#p3a93c66ac2)" d="M 151.142188 109.49875 
L 154.084164 109.49875 
L 154.084164 105.552952 
L 151.142188 105.552952 
z
"/>
   </g>
   <g id="patch_37">
    <path clip-path="url(#p3a93c66ac2)" d="M 154.084164 109.49875 
L 157.026141 109.49875 
L 157.026141 106.59132 
L 154.084164 106.59132 
z
"/>
   </g>
   <g id="patch_38">
    <path clip-path="url(#p3a93c66ac2)" d="M 157.026141 109.49875 
L 159.968117 109.49875 
L 159.968117 107.110504 
L 157.026141 107.110504 
z
"/>
   </g>
   <g id="patch_39">
    <path clip-path="url(#p3a93c66ac2)" d="M 159.968117 109.49875 
L 162.910094 109.49875 
L 162.910094 107.525851 
L 159.968117 107.525851 
z
"/>
   </g>
   <g id="patch_40">
    <path clip-path="url(#p3a93c66ac2)" d="M 162.910094 109.49875 
L 165.85207 109.49875 
L 165.85207 107.629688 
L 162.910094 107.629688 
z
"/>
   </g>
   <g id="patch_41">
    <path clip-path="url(#p3a93c66ac2)" d="M 165.85207 109.49875 
L 168.794047 109.49875 
L 168.794047 108.356545 
L 165.85207 108.356545 
z
"/>
   </g>
   <g id="patch_42">
    <path clip-path="url(#p3a93c66ac2)" d="M 168.794047 109.49875 
L 171.736024 109.49875 
L 171.736024 108.771892 
L 168.794047 108.771892 
z
"/>
   </g>
   <g id="patch_43">
    <path clip-path="url(#p3a93c66ac2)" d="M 171.736024 109.49875 
L 174.678 109.49875 
L 174.678 107.733524 
L 171.736024 107.733524 
z
"/>
   </g>
   <g id="patch_44">
    <path clip-path="url(#p3a93c66ac2)" d="M 174.678 109.49875 
L 177.619977 109.49875 
L 177.619977 108.668056 
L 174.678 108.668056 
z
"/>
   </g>
   <g id="patch_45">
    <path clip-path="url(#p3a93c66ac2)" d="M 177.619977 109.49875 
L 180.561953 109.49875 
L 180.561953 108.252708 
L 177.619977 108.252708 
z
"/>
   </g>
   <g id="patch_46">
    <path clip-path="url(#p3a93c66ac2)" d="M 180.561953 109.49875 
L 183.50393 109.49875 
L 183.50393 108.771892 
L 180.561953 108.771892 
z
"/>
   </g>
   <g id="patch_47">
    <path clip-path="url(#p3a93c66ac2)" d="M 183.50393 109.49875 
L 186.445907 109.49875 
L 186.445907 109.083403 
L 183.50393 109.083403 
z
"/>
   </g>
   <g id="patch_48">
    <path clip-path="url(#p3a93c66ac2)" d="M 186.445907 109.49875 
L 189.387883 109.49875 
L 189.387883 108.356545 
L 186.445907 108.356545 
z
"/>
   </g>
   <g id="patch_49">
    <path clip-path="url(#p3a93c66ac2)" d="M 189.387883 109.49875 
L 192.32986 109.49875 
L 192.32986 109.083403 
L 189.387883 109.083403 
z
"/>
   </g>
   <g id="patch_50">
    <path clip-path="url(#p3a93c66ac2)" d="M 192.32986 109.49875 
L 195.271836 109.49875 
L 195.271836 109.291076 
L 192.32986 109.291076 
z
"/>
   </g>
   <g id="patch_51">
    <path clip-path="url(#p3a93c66ac2)" d="M 195.271836 109.49875 
L 198.213813 109.49875 
L 198.213813 109.394913 
L 195.271836 109.394913 
z
"/>
   </g>
   <g id="patch_52">
    <path clip-path="url(#p3a93c66ac2)" d="M 198.213813 109.49875 
L 201.155789 109.49875 
L 201.155789 109.18724 
L 198.213813 109.18724 
z
"/>
   </g>
   <g id="patch_53">
    <path clip-path="url(#p3a93c66ac2)" d="M 201.155789 109.49875 
L 204.097766 109.49875 
L 204.097766 109.394913 
L 201.155789 109.394913 
z
"/>
   </g>
   <g id="patch_54">
    <path clip-path="url(#p3a93c66ac2)" d="M 204.097766 109.49875 
L 207.039743 109.49875 
L 207.039743 109.394913 
L 204.097766 109.394913 
z
"/>
   </g>
   <g id="patch_55">
    <path clip-path="url(#p3a93c66ac2)" d="M 207.039743 109.49875 
L 209.981719 109.49875 
L 209.981719 109.291076 
L 207.039743 109.291076 
z
"/>
   </g>
   <g id="patch_56">
    <path clip-path="url(#p3a93c66ac2)" d="M 209.981719 109.49875 
L 212.923696 109.49875 
L 212.923696 109.394913 
L 209.981719 109.394913 
z
"/>
   </g>
   <g id="patch_57">
    <path clip-path="url(#p3a93c66ac2)" d="M 212.923696 109.49875 
L 215.865672 109.49875 
L 215.865672 109.394913 
L 212.923696 109.394913 
z
"/>
   </g>
   <g id="patch_58">
    <path clip-path="url(#p3a93c66ac2)" d="M 215.865672 109.49875 
L 218.807649 109.49875 
L 218.807649 109.394913 
L 215.865672 109.394913 
z
"/>
   </g>
   <g id="patch_59">
    <path clip-path="url(#p3a93c66ac2)" d="M 218.807649 109.49875 
L 221.749626 109.49875 
L 221.749626 109.291076 
L 218.807649 109.291076 
z
"/>
   </g>
   <g id="patch_60">
    <path clip-path="url(#p3a93c66ac2)" d="M 221.749626 109.49875 
L 224.691602 109.49875 
L 224.691602 109.49875 
L 221.749626 109.49875 
z
"/>
   </g>
   <g id="patch_61">
    <path clip-path="url(#p3a93c66ac2)" d="M 224.691602 109.49875 
L 227.633579 109.49875 
L 227.633579 109.49875 
L 224.691602 109.49875 
z
"/>
   </g>
   <g id="patch_62">
    <path clip-path="url(#p3a93c66ac2)" d="M 227.633579 109.49875 
L 230.575555 109.49875 
L 230.575555 109.49875 
L 227.633579 109.49875 
z
"/>
   </g>
   <g id="patch_63">
    <path clip-path="url(#p3a93c66ac2)" d="M 230.575555 109.49875 
L 233.517532 109.49875 
L 233.517532 109.49875 
L 230.575555 109.49875 
z
"/>
   </g>
   <g id="patch_64">
    <path clip-path="url(#p3a93c66ac2)" d="M 233.517532 109.49875 
L 236.459508 109.49875 
L 236.459508 109.49875 
L 233.517532 109.49875 
z
"/>
   </g>
   <g id="patch_65">
    <path clip-path="url(#p3a93c66ac2)" d="M 236.459508 109.49875 
L 239.401485 109.49875 
L 239.401485 109.49875 
L 236.459508 109.49875 
z
"/>
   </g>
   <g id="patch_66">
    <path clip-path="url(#p3a93c66ac2)" d="M 239.401485 109.49875 
L 242.343462 109.49875 
L 242.343462 109.49875 
L 239.401485 109.49875 
z
"/>
   </g>
   <g id="patch_67">
    <path clip-path="url(#p3a93c66ac2)" d="M 242.343462 109.49875 
L 245.285438 109.49875 
L 245.285438 109.49875 
L 242.343462 109.49875 
z
"/>
   </g>
   <g id="patch_68">
    <path clip-path="url(#p3a93c66ac2)" d="M 245.285438 109.49875 
L 248.227415 109.49875 
L 248.227415 109.394913 
L 245.285438 109.394913 
z
"/>
   </g>
   <g id="matplotlib.axis_1">
    <g id="xtick_1">
     <g id="line2d_1">
      <defs>
       <path d="M 0 0 
L 0 3.5 
" id="m0c60c239fb" style="stroke:#000000;stroke-width:0.8;"/>
      </defs>
      <g>
       <use style="stroke:#000000;stroke-width:0.8;" x="54.05696" xlink:href="#m0c60c239fb" y="109.49875"/>
      </g>
     </g>
     <g id="text_1">
      <!-- 0 -->
      <defs>
       <path d="M 27.5 72.296875 
C 20.90625 72.296875 14.90625 69.296875 11.203125 64.40625 
C 6.59375 58 4.296875 48.40625 4.296875 35 
C 4.296875 10.59375 12.296875 -2.296875 27.5 -2.296875 
C 42.5 -2.296875 50.703125 10.59375 50.703125 34.40625 
C 50.703125 48.40625 48.5 57.796875 43.796875 64.40625 
C 40.09375 69.40625 34.203125 72.296875 27.5 72.296875 
z
M 27.5 64.5 
C 37 64.5 41.703125 54.796875 41.703125 35.203125 
C 41.703125 14.59375 37.09375 5 27.296875 5 
C 18 5 13.296875 15 13.296875 34.90625 
C 13.296875 54.796875 18 64.5 27.5 64.5 
z
" id="NimbusSans-Regular-48"/>
      </defs>
      <g transform="translate(51.277273 123.789375)scale(0.1 -0.1)">
       <use xlink:href="#NimbusSans-Regular-48"/>
      </g>
     </g>
    </g>
    <g id="xtick_2">
     <g id="line2d_2">
      <g>
       <use style="stroke:#000000;stroke-width:0.8;" x="112.896492" xlink:href="#m0c60c239fb" y="109.49875"/>
      </g>
     </g>
     <g id="text_2">
      <!-- 20 -->
      <defs>
       <path d="M 50.59375 8.703125 
L 13.296875 8.703125 
C 14.203125 14.703125 17.40625 18.5 26.09375 23.796875 
L 36.09375 29.40625 
C 46 34.90625 51.09375 42.296875 51.09375 51.203125 
C 51.09375 57.203125 48.703125 62.796875 44.5 66.703125 
C 40.296875 70.5 35.09375 72.296875 28.40625 72.296875 
C 19.40625 72.296875 12.703125 69.09375 8.796875 62.90625 
C 6.296875 59.09375 5.203125 54.59375 5 47.296875 
L 13.796875 47.296875 
C 14.09375 52.203125 14.703125 55.09375 15.90625 57.5 
C 18.203125 61.90625 22.796875 64.59375 28.09375 64.59375 
C 36.09375 64.59375 42.09375 58.796875 42.09375 51 
C 42.09375 45.203125 38.796875 40.203125 32.5 36.59375 
L 23.296875 31.203125 
C 8.5 22.703125 4.203125 15.90625 3.40625 0.09375 
L 50.59375 0.09375 
z
" id="NimbusSans-Regular-50"/>
      </defs>
      <g transform="translate(107.337117 123.789375)scale(0.1 -0.1)">
       <use xlink:href="#NimbusSans-Regular-50"/>
       <use x="55.599991" xlink:href="#NimbusSans-Regular-48"/>
      </g>
     </g>
    </g>
    <g id="xtick_3">
     <g id="line2d_3">
      <g>
       <use style="stroke:#000000;stroke-width:0.8;" x="171.736024" xlink:href="#m0c60c239fb" y="109.49875"/>
      </g>
     </g>
     <g id="text_3">
      <!-- 40 -->
      <defs>
       <path d="M 32.703125 17.5 
L 32.703125 0 
L 41.5 0 
L 41.5 17.5 
L 52 17.5 
L 52 25.40625 
L 41.5 25.40625 
L 41.5 72.296875 
L 35 72.296875 
L 2.796875 26.796875 
L 2.796875 17.5 
z
M 32.703125 25.40625 
L 10.5 25.40625 
L 32.703125 57.296875 
z
" id="NimbusSans-Regular-52"/>
      </defs>
      <g transform="translate(166.176649 123.789375)scale(0.1 -0.1)">
       <use xlink:href="#NimbusSans-Regular-52"/>
       <use x="55.599991" xlink:href="#NimbusSans-Regular-48"/>
      </g>
     </g>
    </g>
    <g id="xtick_4">
     <g id="line2d_4">
      <g>
       <use style="stroke:#000000;stroke-width:0.8;" x="230.575555" xlink:href="#m0c60c239fb" y="109.49875"/>
      </g>
     </g>
     <g id="text_4">
      <!-- 60 -->
      <defs>
       <path d="M 49.796875 53.5 
C 48.09375 65.296875 40.5 72.296875 29.703125 72.296875 
C 21.90625 72.296875 14.90625 68.5 10.703125 62 
C 6.203125 54.90625 4.296875 46.09375 4.296875 33 
C 4.296875 20.796875 6 13.09375 10.296875 6.703125 
C 14.09375 0.796875 20.296875 -2.296875 28.09375 -2.296875 
C 41.59375 -2.296875 51.296875 7.796875 51.296875 21.90625 
C 51.296875 35.203125 42.296875 44.59375 29.59375 44.59375 
C 22.59375 44.59375 17.09375 42 13.296875 36.703125 
C 13.40625 54.59375 19 64.5 29.09375 64.5 
C 35.296875 64.5 39.59375 60.5 41 53.5 
z
M 28.5 36.796875 
C 37 36.796875 42.296875 30.796875 42.296875 21.203125 
C 42.296875 12.09375 36.296875 5.5 28.203125 5.5 
C 20 5.5 13.796875 12.40625 13.796875 21.59375 
C 13.796875 30.59375 19.796875 36.796875 28.5 36.796875 
z
" id="NimbusSans-Regular-54"/>
      </defs>
      <g transform="translate(225.01618 123.789375)scale(0.1 -0.1)">
       <use xlink:href="#NimbusSans-Regular-54"/>
       <use x="55.599991" xlink:href="#NimbusSans-Regular-48"/>
      </g>
     </g>
    </g>
    <g id="text_5">
     <!-- Num mols -->
     <defs>
      <path d="M 64.59375 72.90625 
L 55.796875 72.90625 
L 55.796875 13.296875 
L 17.703125 72.90625 
L 7.59375 72.90625 
L 7.59375 0 
L 16.40625 0 
L 16.40625 59.09375 
L 54.09375 0 
L 64.59375 0 
z
" id="NimbusSans-Regular-78"/>
      <path d="M 48.203125 0 
L 48.203125 52.40625 
L 39.90625 52.40625 
L 39.90625 22.703125 
C 39.90625 12 34.296875 5 25.59375 5 
C 19 5 14.796875 9 14.796875 15.296875 
L 14.796875 52.40625 
L 6.5 52.40625 
L 6.5 12 
C 6.5 3.296875 13 -2.296875 23.203125 -2.296875 
C 30.90625 -2.296875 35.796875 0.40625 40.703125 7.296875 
L 40.703125 0 
z
" id="NimbusSans-Regular-117"/>
      <path d="M 7 52.40625 
L 7 0 
L 15.40625 0 
L 15.40625 32.90625 
C 15.40625 40.5 20.90625 46.59375 27.703125 46.59375 
C 33.90625 46.59375 37.40625 42.796875 37.40625 36.09375 
L 37.40625 0 
L 45.796875 0 
L 45.796875 32.90625 
C 45.796875 40.5 51.296875 46.59375 58.09375 46.59375 
C 64.203125 46.59375 67.796875 42.703125 67.796875 36.09375 
L 67.796875 0 
L 76.203125 0 
L 76.203125 39.296875 
C 76.203125 48.703125 70.796875 53.90625 61 53.90625 
C 54 53.90625 49.796875 51.796875 44.90625 45.90625 
C 41.796875 51.5 37.59375 53.90625 30.796875 53.90625 
C 23.796875 53.90625 19.09375 51.296875 14.703125 45 
L 14.703125 52.40625 
z
" id="NimbusSans-Regular-109"/>
      <path id="NimbusSans-Regular-32"/>
      <path d="M 27.203125 53.90625 
C 12.40625 53.90625 3.59375 43.40625 3.59375 25.796875 
C 3.59375 8.09375 12.40625 -2.296875 27.296875 -2.296875 
C 42.09375 -2.296875 51 8.203125 51 25.40625 
C 51 43.59375 42.40625 53.90625 27.203125 53.90625 
z
M 27.296875 46.203125 
C 36.703125 46.203125 42.296875 38.5 42.296875 25.5 
C 42.296875 13.09375 36.5 5.40625 27.296875 5.40625 
C 18 5.40625 12.296875 13.09375 12.296875 25.796875 
C 12.296875 38.5 18 46.203125 27.296875 46.203125 
z
" id="NimbusSans-Regular-111"/>
      <path d="M 15.203125 72.90625 
L 6.796875 72.90625 
L 6.796875 0 
L 15.203125 0 
z
" id="NimbusSans-Regular-108"/>
      <path d="M 43.796875 37.796875 
C 43.703125 48.09375 36.90625 53.90625 24.796875 53.90625 
C 12.59375 53.90625 4.703125 47.59375 4.703125 37.90625 
C 4.703125 29.703125 8.90625 25.796875 21.296875 22.796875 
L 29.09375 20.90625 
C 34.90625 19.5 37.203125 17.40625 37.203125 13.703125 
C 37.203125 8.703125 32.296875 5.40625 25 5.40625 
C 20.5 5.40625 16.703125 6.703125 14.59375 8.90625 
C 13.296875 10.40625 12.703125 11.90625 12.203125 15.59375 
L 3.40625 15.59375 
C 3.796875 3.5 10.59375 -2.296875 24.296875 -2.296875 
C 37.5 -2.296875 45.90625 4.203125 45.90625 14.296875 
C 45.90625 22.09375 41.5 26.40625 31.09375 28.90625 
L 23.09375 30.796875 
C 16.296875 32.40625 13.40625 34.59375 13.40625 38.296875 
C 13.40625 43.203125 17.703125 46.203125 24.5 46.203125 
C 31.203125 46.203125 34.796875 43.296875 35 37.796875 
z
" id="NimbusSans-Regular-115"/>
     </defs>
     <g transform="translate(128.642969 137.259687)scale(0.1 -0.1)">
      <use xlink:href="#NimbusSans-Regular-78"/>
      <use x="72.199982" xlink:href="#NimbusSans-Regular-117"/>
      <use x="127.799973" xlink:href="#NimbusSans-Regular-109"/>
      <use x="211.09996" xlink:href="#NimbusSans-Regular-32"/>
      <use x="238.899948" xlink:href="#NimbusSans-Regular-109"/>
      <use x="322.199936" xlink:href="#NimbusSans-Regular-111"/>
      <use x="377.799927" xlink:href="#NimbusSans-Regular-108"/>
      <use x="399.999924" xlink:href="#NimbusSans-Regular-115"/>
     </g>
    </g>
   </g>
   <g id="matplotlib.axis_2">
    <g id="ytick_1">
     <g id="line2d_5">
      <defs>
       <path d="M 0 0 
L -3.5 0 
" id="m7746604b35" style="stroke:#000000;stroke-width:0.8;"/>
      </defs>
      <g>
       <use style="stroke:#000000;stroke-width:0.8;" x="44.348438" xlink:href="#m7746604b35" y="109.49875"/>
      </g>
     </g>
     <g id="text_6">
      <!-- 0 -->
      <g transform="translate(31.789063 113.144062)scale(0.1 -0.1)">
       <use xlink:href="#NimbusSans-Regular-48"/>
      </g>
     </g>
    </g>
    <g id="ytick_2">
     <g id="line2d_6">
      <g>
       <use style="stroke:#000000;stroke-width:0.8;" x="44.348438" xlink:href="#m7746604b35" y="83.539549"/>
      </g>
     </g>
     <g id="text_7">
      <!-- 250 -->
      <defs>
       <path d="M 47.59375 70.90625 
L 11 70.90625 
L 5.703125 32.296875 
L 13.796875 32.296875 
C 17.90625 37.203125 21.296875 38.90625 26.90625 38.90625 
C 36.40625 38.90625 42.296875 32.40625 42.296875 21.90625 
C 42.296875 11.703125 36.40625 5.5 26.796875 5.5 
C 19.09375 5.5 14.40625 9.40625 12.296875 17.40625 
L 3.5 17.40625 
C 4.703125 11.59375 5.703125 8.796875 7.796875 6.203125 
C 11.796875 0.796875 19 -2.296875 27 -2.296875 
C 41.296875 -2.296875 51.296875 8.09375 51.296875 23.09375 
C 51.296875 37.09375 42 46.703125 28.40625 46.703125 
C 23.40625 46.703125 19.40625 45.40625 15.296875 42.40625 
L 18.09375 62.203125 
L 47.59375 62.203125 
z
" id="NimbusSans-Regular-53"/>
      </defs>
      <g transform="translate(20.670313 87.184862)scale(0.1 -0.1)">
       <use xlink:href="#NimbusSans-Regular-50"/>
       <use x="55.599991" xlink:href="#NimbusSans-Regular-53"/>
       <use x="111.199982" xlink:href="#NimbusSans-Regular-48"/>
      </g>
     </g>
    </g>
    <g id="ytick_3">
     <g id="line2d_7">
      <g>
       <use style="stroke:#000000;stroke-width:0.8;" x="44.348438" xlink:href="#m7746604b35" y="57.580349"/>
      </g>
     </g>
     <g id="text_8">
      <!-- 500 -->
      <g transform="translate(20.670313 61.225661)scale(0.1 -0.1)">
       <use xlink:href="#NimbusSans-Regular-53"/>
       <use x="55.599991" xlink:href="#NimbusSans-Regular-48"/>
       <use x="111.199982" xlink:href="#NimbusSans-Regular-48"/>
      </g>
     </g>
    </g>
    <g id="ytick_4">
     <g id="line2d_8">
      <g>
       <use style="stroke:#000000;stroke-width:0.8;" x="44.348438" xlink:href="#m7746604b35" y="31.621148"/>
      </g>
     </g>
     <g id="text_9">
      <!-- 750 -->
      <defs>
       <path d="M 52 70.90625 
L 4.59375 70.90625 
L 4.59375 62.203125 
L 42.90625 62.203125 
C 26 38.09375 19.09375 23.296875 13.796875 0 
L 23.203125 0 
C 27.09375 22.703125 36 42.203125 52 63.5 
z
" id="NimbusSans-Regular-55"/>
      </defs>
      <g transform="translate(20.670313 35.266461)scale(0.1 -0.1)">
       <use xlink:href="#NimbusSans-Regular-55"/>
       <use x="55.599991" xlink:href="#NimbusSans-Regular-53"/>
       <use x="111.199982" xlink:href="#NimbusSans-Regular-48"/>
      </g>
     </g>
    </g>
    <g id="text_10">
     <!-- Num cells -->
     <defs>
      <path d="M 47.09375 34.796875 
C 46.703125 39.90625 45.59375 43.203125 43.59375 46.09375 
C 40 51 33.703125 53.90625 26.40625 53.90625 
C 12.203125 53.90625 3.09375 42.703125 3.09375 25.296875 
C 3.09375 8.40625 12.09375 -2.296875 26.296875 -2.296875 
C 38.796875 -2.296875 46.703125 5.203125 47.703125 18 
L 39.296875 18 
C 37.90625 9.59375 33.59375 5.40625 26.5 5.40625 
C 17.296875 5.40625 11.796875 12.90625 11.796875 25.296875 
C 11.796875 38.40625 17.203125 46.203125 26.296875 46.203125 
C 33.296875 46.203125 37.703125 42.09375 38.703125 34.796875 
z
" id="NimbusSans-Regular-99"/>
      <path d="M 51.296875 23.40625 
C 51.296875 31.40625 50.703125 36.203125 49.203125 40.09375 
C 45.796875 48.703125 37.796875 53.90625 28 53.90625 
C 13.40625 53.90625 4 42.796875 4 25.5 
C 4 8.203125 13 -2.296875 27.796875 -2.296875 
C 39.796875 -2.296875 48.09375 4.5 50.203125 15.90625 
L 41.796875 15.90625 
C 39.5 9 34.796875 5.40625 28.09375 5.40625 
C 22.796875 5.40625 18.296875 7.796875 15.5 12.203125 
C 13.5 15.203125 12.796875 18.203125 12.703125 23.40625 
z
M 12.90625 30.203125 
C 13.59375 39.90625 19.5 46.203125 27.90625 46.203125 
C 36.40625 46.203125 42.296875 39.59375 42.296875 30.203125 
z
" id="NimbusSans-Regular-101"/>
     </defs>
     <g transform="translate(14.490625 87.668281)rotate(-90)scale(0.1 -0.1)">
      <use xlink:href="#NimbusSans-Regular-78"/>
      <use x="72.199982" xlink:href="#NimbusSans-Regular-117"/>
      <use x="127.799973" xlink:href="#NimbusSans-Regular-109"/>
      <use x="211.09996" xlink:href="#NimbusSans-Regular-32"/>
      <use x="238.899948" xlink:href="#NimbusSans-Regular-99"/>
      <use x="288.899933" xlink:href="#NimbusSans-Regular-101"/>
      <use x="344.499924" xlink:href="#NimbusSans-Regular-108"/>
      <use x="366.699921" xlink:href="#NimbusSans-Regular-108"/>
      <use x="388.899918" xlink:href="#NimbusSans-Regular-115"/>
     </g>
    </g>
   </g>
   <g id="patch_69">
    <path d="M 44.348438 109.49875 
L 44.348438 21.94875 
" style="fill:none;stroke:#000000;stroke-linecap:square;stroke-linejoin:miter;stroke-width:0.8;"/>
   </g>
   <g id="patch_70">
    <path d="M 257.935938 109.49875 
L 257.935938 21.94875 
" style="fill:none;stroke:#000000;stroke-linecap:square;stroke-linejoin:miter;stroke-width:0.8;"/>
   </g>
   <g id="patch_71">
    <path d="M 44.348438 109.49875 
L 257.935938 109.49875 
" style="fill:none;stroke:#000000;stroke-linecap:square;stroke-linejoin:miter;stroke-width:0.8;"/>
   </g>
   <g id="patch_72">
    <path d="M 44.348438 21.94875 
L 257.935938 21.94875 
" style="fill:none;stroke:#000000;stroke-linecap:square;stroke-linejoin:miter;stroke-width:0.8;"/>
   </g>
   <g id="text_11">
    <!-- RPS4Y1 -->
    <defs>
     <path d="M 18.59375 31.40625 
L 42.59375 31.40625 
C 50.90625 31.40625 54.59375 27.40625 54.59375 18.40625 
L 54.5 11.90625 
C 54.5 7.40625 55.296875 3 56.59375 0 
L 67.90625 0 
L 67.90625 2.296875 
C 64.40625 4.703125 63.703125 7.296875 63.5 17 
C 63.40625 29 61.5 32.59375 53.59375 36 
C 61.796875 40.09375 65.09375 45 65.09375 53.40625 
C 65.09375 66 57.296875 72.90625 42.90625 72.90625 
L 9.296875 72.90625 
L 9.296875 0 
L 18.59375 0 
z
M 18.59375 39.59375 
L 18.59375 64.703125 
L 41.09375 64.703125 
C 46.296875 64.703125 49.296875 63.90625 51.59375 61.90625 
C 54.09375 59.796875 55.40625 56.5 55.40625 52.203125 
C 55.40625 43.5 51 39.59375 41.09375 39.59375 
z
" id="NimbusSans-Regular-82"/>
     <path d="M 18.40625 30.90625 
L 41.296875 30.90625 
C 47 30.90625 51.5 32.59375 55.40625 36.09375 
C 59.796875 40.09375 61.703125 44.796875 61.703125 51.5 
C 61.703125 65.203125 53.59375 72.90625 39.203125 72.90625 
L 9.09375 72.90625 
L 9.09375 0 
L 18.40625 0 
z
M 18.40625 39.09375 
L 18.40625 64.703125 
L 37.796875 64.703125 
C 46.703125 64.703125 52 59.90625 52 51.90625 
C 52 43.90625 46.703125 39.09375 37.796875 39.09375 
z
" id="NimbusSans-Regular-80"/>
     <path d="M 59.59375 51.5 
C 59.59375 56.5 59.296875 57.90625 57.703125 61.296875 
C 53.703125 69.703125 45.203125 74.09375 32.90625 74.09375 
C 16.90625 74.09375 7 65.90625 7 52.703125 
C 7 43.796875 11.703125 38.203125 21.296875 35.703125 
L 39.40625 30.90625 
C 48.703125 28.5 52.796875 24.796875 52.796875 19.09375 
C 52.796875 15.203125 50.703125 11.203125 47.59375 9 
C 44.703125 6.90625 40.09375 5.90625 34.203125 5.90625 
C 26.203125 5.90625 20.90625 7.796875 17.40625 12 
C 14.703125 15.203125 13.5 18.703125 13.59375 23.203125 
L 4.796875 23.203125 
C 4.90625 16.5 6.203125 12.09375 9.09375 8.09375 
C 14.09375 1.203125 22.5 -2.296875 33.59375 -2.296875 
C 42.296875 -2.296875 49.40625 -0.296875 54.09375 3.296875 
C 59 7.203125 62.09375 13.703125 62.09375 20 
C 62.09375 29 56.5 35.59375 46.59375 38.296875 
L 28.296875 43.203125 
C 19.5 45.59375 16.296875 48.40625 16.296875 54 
C 16.296875 61.40625 22.796875 66.296875 32.59375 66.296875 
C 44.203125 66.296875 50.703125 61.09375 50.796875 51.5 
z
" id="NimbusSans-Regular-83"/>
     <path d="M 38.703125 28.59375 
L 66.09375 72.90625 
L 55 72.90625 
L 34.203125 37.40625 
L 12.796875 72.90625 
L 1.296875 72.90625 
L 29.40625 28.59375 
L 29.40625 0 
L 38.703125 0 
z
" id="NimbusSans-Regular-89"/>
     <path d="M 25.90625 51.5 
L 25.90625 0 
L 34.703125 0 
L 34.703125 72.296875 
L 28.90625 72.296875 
C 25.796875 61.203125 23.796875 59.703125 10.203125 57.90625 
L 10.203125 51.5 
z
" id="NimbusSans-Regular-49"/>
    </defs>
    <g transform="translate(128.132188 15.94875)scale(0.12 -0.12)">
     <use xlink:href="#NimbusSans-Regular-82"/>
     <use x="72.199982" xlink:href="#NimbusSans-Regular-80"/>
     <use x="138.899979" xlink:href="#NimbusSans-Regular-83"/>
     <use x="205.599976" xlink:href="#NimbusSans-Regular-52"/>
     <use x="261.199966" xlink:href="#NimbusSans-Regular-89"/>
     <use x="327.899963" xlink:href="#NimbusSans-Regular-49"/>
    </g>
   </g>
  </g>
  <g id="axes_2">
   <g id="patch_73">
    <path d="M 44.348438 242.34875 
L 257.935938 242.34875 
L 257.935938 154.79875 
L 44.348438 154.79875 
z
" style="fill:#ffffff;"/>
   </g>
   <g id="matplotlib.axis_3">
    <g id="xtick_5">
     <g id="line2d_9">
      <g>
       <use style="stroke:#000000;stroke-width:0.8;" x="44.348438" xlink:href="#m0c60c239fb" y="242.34875"/>
      </g>
     </g>
     <g id="text_12">
      <!-- 0.0000 -->
      <defs>
       <path d="M 19.09375 10.40625 
L 8.703125 10.40625 
L 8.703125 0 
L 19.09375 0 
z
" id="NimbusSans-Regular-46"/>
      </defs>
      <g transform="translate(29.060156 256.639375)scale(0.1 -0.1)">
       <use xlink:href="#NimbusSans-Regular-48"/>
       <use x="55.599991" xlink:href="#NimbusSans-Regular-46"/>
       <use x="83.399979" xlink:href="#NimbusSans-Regular-48"/>
       <use x="138.999969" xlink:href="#NimbusSans-Regular-48"/>
       <use x="194.59996" xlink:href="#NimbusSans-Regular-48"/>
       <use x="250.199951" xlink:href="#NimbusSans-Regular-48"/>
      </g>
     </g>
    </g>
    <g id="xtick_6">
     <g id="line2d_10">
      <g>
       <use style="stroke:#000000;stroke-width:0.8;" x="151.142188" xlink:href="#m0c60c239fb" y="242.34875"/>
      </g>
     </g>
     <g id="text_13">
      <!-- 0.0001 -->
      <g transform="translate(135.853906 256.639375)scale(0.1 -0.1)">
       <use xlink:href="#NimbusSans-Regular-48"/>
       <use x="55.599991" xlink:href="#NimbusSans-Regular-46"/>
       <use x="83.399979" xlink:href="#NimbusSans-Regular-48"/>
       <use x="138.999969" xlink:href="#NimbusSans-Regular-48"/>
       <use x="194.59996" xlink:href="#NimbusSans-Regular-48"/>
       <use x="250.199951" xlink:href="#NimbusSans-Regular-49"/>
      </g>
     </g>
    </g>
    <g id="xtick_7">
     <g id="line2d_11">
      <g>
       <use style="stroke:#000000;stroke-width:0.8;" x="257.935938" xlink:href="#m0c60c239fb" y="242.34875"/>
      </g>
     </g>
     <g id="text_14">
      <!-- 0.0002 -->
      <g transform="translate(242.647656 256.639375)scale(0.1 -0.1)">
       <use xlink:href="#NimbusSans-Regular-48"/>
       <use x="55.599991" xlink:href="#NimbusSans-Regular-46"/>
       <use x="83.399979" xlink:href="#NimbusSans-Regular-48"/>
       <use x="138.999969" xlink:href="#NimbusSans-Regular-48"/>
       <use x="194.59996" xlink:href="#NimbusSans-Regular-48"/>
       <use x="250.199951" xlink:href="#NimbusSans-Regular-50"/>
      </g>
     </g>
    </g>
    <g id="text_15">
     <!-- Latent gene expression -->
     <defs>
      <path d="M 17.296875 72.90625 
L 8 72.90625 
L 8 0 
L 53.296875 0 
L 53.296875 8.203125 
L 17.296875 8.203125 
z
" id="NimbusSans-Regular-76"/>
      <path d="M 53.5 4.90625 
C 52.59375 4.703125 52.203125 4.703125 51.703125 4.703125 
C 48.796875 4.703125 47.203125 6.203125 47.203125 8.796875 
L 47.203125 39.59375 
C 47.203125 48.90625 40.40625 53.90625 27.5 53.90625 
C 19.796875 53.90625 13.703125 51.703125 10.09375 47.796875 
C 7.703125 45.09375 6.703125 42.09375 6.5 36.90625 
L 14.90625 36.90625 
C 15.59375 43.296875 19.40625 46.203125 27.203125 46.203125 
C 34.796875 46.203125 38.90625 43.40625 38.90625 38.40625 
L 38.90625 36.203125 
C 38.796875 32.59375 37 31.296875 30.203125 30.40625 
C 18.40625 28.90625 16.59375 28.5 13.40625 27.203125 
C 7.296875 24.59375 4.203125 20 4.203125 13.203125 
C 4.203125 3.703125 10.796875 -2.296875 21.40625 -2.296875 
C 28 -2.296875 33.296875 0 39.203125 5.40625 
C 39.796875 0 42.40625 -2.296875 47.796875 -2.296875 
C 49.59375 -2.296875 50.703125 -2.09375 53.5 -1.40625 
z
M 38.90625 16.5 
C 38.90625 13.703125 38.09375 12 35.59375 9.703125 
C 32.203125 6.59375 28.09375 5 23.203125 5 
C 16.703125 5 12.90625 8.09375 12.90625 13.40625 
C 12.90625 18.90625 16.5 21.703125 25.5 23 
C 34.40625 24.203125 36.09375 24.59375 38.90625 25.90625 
z
" id="NimbusSans-Regular-97"/>
      <path d="M 25.40625 52.40625 
L 16.796875 52.40625 
L 16.796875 66.796875 
L 8.5 66.796875 
L 8.5 52.40625 
L 1.40625 52.40625 
L 1.40625 45.59375 
L 8.5 45.59375 
L 8.5 6 
C 8.5 0.59375 12.09375 -2.296875 18.59375 -2.296875 
C 20.796875 -2.296875 22.59375 -2.09375 25.40625 -1.59375 
L 25.40625 5.40625 
C 24.203125 5.09375 23.09375 5 21.40625 5 
C 17.796875 5 16.796875 6 16.796875 9.703125 
L 16.796875 45.59375 
L 25.40625 45.59375 
z
" id="NimbusSans-Regular-116"/>
      <path d="M 7 52.40625 
L 7 0 
L 15.40625 0 
L 15.40625 28.90625 
C 15.40625 39.59375 21 46.59375 29.59375 46.59375 
C 36.203125 46.59375 40.40625 42.59375 40.40625 36.296875 
L 40.40625 0 
L 48.703125 0 
L 48.703125 39.59375 
C 48.703125 48.296875 42.203125 53.90625 32.09375 53.90625 
C 24.296875 53.90625 19.296875 50.90625 14.703125 43.59375 
L 14.703125 52.40625 
z
" id="NimbusSans-Regular-110"/>
      <path d="M 40.40625 52.40625 
L 40.40625 44.796875 
C 36.203125 51.09375 31.59375 53.90625 25 53.90625 
C 12.296875 53.90625 3.5 42.09375 3.5 25.296875 
C 3.5 16.5 5.59375 10.09375 10.09375 4.796875 
C 14 0.203125 19 -2.296875 24.40625 -2.296875 
C 30.703125 -2.296875 35.203125 0.5 39.59375 7.09375 
L 39.59375 4.40625 
C 39.59375 -9.59375 35.703125 -14.796875 25.296875 -14.796875 
C 18.203125 -14.796875 14.5 -12 13.703125 -6 
L 5.203125 -6 
C 6 -15.703125 13.703125 -21.796875 25.09375 -21.796875 
C 32.796875 -21.796875 39.203125 -19.296875 42.59375 -15.09375 
C 46.59375 -10.203125 48.09375 -3.703125 48.09375 8.59375 
L 48.09375 52.40625 
z
M 25.796875 46.203125 
C 34.59375 46.203125 39.59375 38.796875 39.59375 25.5 
C 39.59375 12.796875 34.5 5.40625 25.796875 5.40625 
C 17.203125 5.40625 12.203125 12.90625 12.203125 25.796875 
C 12.203125 38.59375 17.203125 46.203125 25.796875 46.203125 
z
" id="NimbusSans-Regular-103"/>
      <path d="M 29.203125 27.09375 
L 46.796875 52.40625 
L 37.40625 52.40625 
L 24.796875 33.40625 
L 12.203125 52.40625 
L 2.703125 52.40625 
L 20.203125 26.703125 
L 1.703125 0 
L 11.203125 0 
L 24.5 20.09375 
L 37.59375 0 
L 47.296875 0 
z
" id="NimbusSans-Regular-120"/>
      <path d="M 5.40625 -21.796875 
L 13.796875 -21.796875 
L 13.796875 5.5 
C 18.203125 0.09375 23.09375 -2.296875 29.90625 -2.296875 
C 43.5 -2.296875 52.296875 8.59375 52.296875 25.296875 
C 52.296875 42.90625 43.703125 53.90625 29.796875 53.90625 
C 22.703125 53.90625 17 50.703125 13.09375 44.5 
L 13.09375 52.40625 
L 5.40625 52.40625 
z
M 28.40625 46.09375 
C 37.59375 46.09375 43.59375 38 43.59375 25.5 
C 43.59375 13.59375 37.5 5.5 28.40625 5.5 
C 19.5 5.5 13.796875 13.5 13.796875 25.796875 
C 13.796875 38.09375 19.5 46.09375 28.40625 46.09375 
z
" id="NimbusSans-Regular-112"/>
      <path d="M 6.90625 52.40625 
L 6.90625 0 
L 15.296875 0 
L 15.296875 27.203125 
C 15.40625 39.796875 20.59375 45.40625 32.09375 45.09375 
L 32.09375 53.59375 
C 30.703125 53.796875 29.90625 53.90625 28.90625 53.90625 
C 23.5 53.90625 19.40625 50.703125 14.59375 42.90625 
L 14.59375 52.40625 
z
" id="NimbusSans-Regular-114"/>
      <path d="M 15 52.40625 
L 6.703125 52.40625 
L 6.703125 0 
L 15 0 
z
M 15 72.90625 
L 6.59375 72.90625 
L 6.59375 62.40625 
L 15 62.40625 
z
" id="NimbusSans-Regular-105"/>
     </defs>
     <g transform="translate(99.171875 270.109688)scale(0.1 -0.1)">
      <use xlink:href="#NimbusSans-Regular-76"/>
      <use x="55.599991" xlink:href="#NimbusSans-Regular-97"/>
      <use x="111.199982" xlink:href="#NimbusSans-Regular-116"/>
      <use x="138.999969" xlink:href="#NimbusSans-Regular-101"/>
      <use x="194.59996" xlink:href="#NimbusSans-Regular-110"/>
      <use x="250.199951" xlink:href="#NimbusSans-Regular-116"/>
      <use x="277.999939" xlink:href="#NimbusSans-Regular-32"/>
      <use x="305.799927" xlink:href="#NimbusSans-Regular-103"/>
      <use x="361.399918" xlink:href="#NimbusSans-Regular-101"/>
      <use x="416.999908" xlink:href="#NimbusSans-Regular-110"/>
      <use x="472.599899" xlink:href="#NimbusSans-Regular-101"/>
      <use x="528.19989" xlink:href="#NimbusSans-Regular-32"/>
      <use x="555.999878" xlink:href="#NimbusSans-Regular-101"/>
      <use x="611.599869" xlink:href="#NimbusSans-Regular-120"/>
      <use x="661.599854" xlink:href="#NimbusSans-Regular-112"/>
      <use x="717.199844" xlink:href="#NimbusSans-Regular-114"/>
      <use x="750.499832" xlink:href="#NimbusSans-Regular-101"/>
      <use x="806.099823" xlink:href="#NimbusSans-Regular-115"/>
      <use x="856.099808" xlink:href="#NimbusSans-Regular-115"/>
      <use x="906.099792" xlink:href="#NimbusSans-Regular-105"/>
      <use x="928.299789" xlink:href="#NimbusSans-Regular-111"/>
      <use x="983.89978" xlink:href="#NimbusSans-Regular-110"/>
     </g>
    </g>
   </g>
   <g id="matplotlib.axis_4">
    <g id="ytick_5">
     <g id="line2d_12">
      <g>
       <use style="stroke:#000000;stroke-width:0.8;" x="44.348438" xlink:href="#m7746604b35" y="238.369205"/>
      </g>
     </g>
     <g id="text_16">
      <!-- 0.0 -->
      <g transform="translate(23.45 242.014517)scale(0.1 -0.1)">
       <use xlink:href="#NimbusSans-Regular-48"/>
       <use x="55.599991" xlink:href="#NimbusSans-Regular-46"/>
       <use x="83.399979" xlink:href="#NimbusSans-Regular-48"/>
      </g>
     </g>
    </g>
    <g id="ytick_6">
     <g id="line2d_13">
      <g>
       <use style="stroke:#000000;stroke-width:0.8;" x="44.348438" xlink:href="#m7746604b35" y="198.57375"/>
      </g>
     </g>
     <g id="text_17">
      <!-- 0.5 -->
      <g transform="translate(23.45 202.219063)scale(0.1 -0.1)">
       <use xlink:href="#NimbusSans-Regular-48"/>
       <use x="55.599991" xlink:href="#NimbusSans-Regular-46"/>
       <use x="83.399979" xlink:href="#NimbusSans-Regular-53"/>
      </g>
     </g>
    </g>
    <g id="ytick_7">
     <g id="line2d_14">
      <g>
       <use style="stroke:#000000;stroke-width:0.8;" x="44.348438" xlink:href="#m7746604b35" y="158.778295"/>
      </g>
     </g>
     <g id="text_18">
      <!-- 1.0 -->
      <g transform="translate(23.45 162.423608)scale(0.1 -0.1)">
       <use xlink:href="#NimbusSans-Regular-49"/>
       <use x="55.599991" xlink:href="#NimbusSans-Regular-46"/>
       <use x="83.399979" xlink:href="#NimbusSans-Regular-48"/>
      </g>
     </g>
    </g>
    <g id="text_19">
     <!-- CDF -->
     <defs>
      <path d="M 66.203125 50.296875 
C 63.296875 66.296875 54.09375 74.09375 38.09375 74.09375 
C 28.296875 74.09375 20.40625 71 15 65 
C 8.40625 57.796875 4.796875 47.40625 4.796875 35.59375 
C 4.796875 23.59375 8.5 13.296875 15.296875 6.203125 
C 21 0.40625 28.203125 -2.296875 37.703125 -2.296875 
C 55.5 -2.296875 65.5 7.296875 67.703125 26.59375 
L 58.09375 26.59375 
C 57.296875 21.59375 56.296875 18.203125 54.796875 15.296875 
C 51.796875 9.296875 45.59375 5.90625 37.796875 5.90625 
C 23.296875 5.90625 14.09375 17.5 14.09375 35.703125 
C 14.09375 54.40625 22.796875 65.90625 37 65.90625 
C 42.90625 65.90625 48.40625 64.203125 51.40625 61.296875 
C 54.09375 58.796875 55.59375 55.796875 56.703125 50.296875 
z
" id="NimbusSans-Regular-67"/>
      <path d="M 8.90625 0 
L 37 0 
C 55.40625 0 66.703125 13.796875 66.703125 36.5 
C 66.703125 59.09375 55.5 72.90625 37 72.90625 
L 8.90625 72.90625 
z
M 18.203125 8.203125 
L 18.203125 64.703125 
L 35.40625 64.703125 
C 49.796875 64.703125 57.40625 55 57.40625 36.40625 
C 57.40625 17.90625 49.796875 8.203125 35.40625 8.203125 
z
" id="NimbusSans-Regular-68"/>
      <path d="M 18.296875 33.203125 
L 53.09375 33.203125 
L 53.09375 41.40625 
L 18.296875 41.40625 
L 18.296875 64.703125 
L 57.90625 64.703125 
L 57.90625 72.90625 
L 9 72.90625 
L 9 0 
L 18.296875 0 
z
" id="NimbusSans-Regular-70"/>
     </defs>
     <g transform="translate(17.270313 208.84875)rotate(-90)scale(0.1 -0.1)">
      <use xlink:href="#NimbusSans-Regular-67"/>
      <use x="72.199982" xlink:href="#NimbusSans-Regular-68"/>
      <use x="144.399963" xlink:href="#NimbusSans-Regular-70"/>
     </g>
    </g>
   </g>
   <g id="line2d_15">
    <path clip-path="url(#p7368290b21)" d="M 44.348438 238.369204 
L 58.028594 238.343668 
L 59.080914 238.241197 
L 60.133233 237.877279 
L 61.185553 236.864914 
L 62.237873 234.592992 
L 63.290193 230.377987 
L 64.342512 223.779046 
L 65.394832 214.907779 
L 68.551791 183.833333 
L 69.604111 175.569565 
L 70.656431 169.316302 
L 71.70875 164.981958 
L 72.76107 162.211669 
L 73.81339 160.569217 
L 74.865709 159.661115 
L 75.918029 159.190654 
L 76.970349 158.961287 
L 79.074988 158.809512 
L 86.441226 158.778313 
L 281.424219 158.778295 
L 281.424219 158.778295 
" style="fill:none;stroke:#0000ff;stroke-linecap:square;stroke-opacity:0.2;"/>
   </g>
   <g id="line2d_16">
    <path clip-path="url(#p7368290b21)" d="M 44.348438 238.369204 
L 66.447152 238.368964 
L 67.499471 236.686716 
L 68.551791 186.542042 
L 69.604111 159.023825 
L 70.656431 158.778316 
L 281.424219 158.778295 
L 281.424219 158.778295 
" style="fill:none;stroke:#0000ff;stroke-linecap:square;stroke-opacity:0.2;"/>
   </g>
   <g id="line2d_17">
    <path clip-path="url(#p7368290b21)" d="M 44.348438 238.310253 
L 64.342512 238.223149 
L 69.604111 237.947483 
L 72.76107 237.596552 
L 75.918029 237.038546 
L 79.074988 236.217995 
L 82.231948 235.086273 
L 85.388907 233.606677 
L 88.545866 231.757967 
L 91.702825 229.536125 
L 94.859784 226.954355 
L 98.016743 224.041594 
L 101.173703 220.839908 
L 105.382981 216.212281 
L 110.64458 210.048628 
L 123.272417 195.090048 
L 127.481696 190.461509 
L 131.690974 186.150018 
L 135.900253 182.202828 
L 139.057213 179.497649 
L 142.214172 177.016009 
L 145.371131 174.756748 
L 148.52809 172.714603 
L 151.685049 170.881079 
L 154.842008 169.245245 
L 159.051287 167.349652 
L 163.260566 165.750266 
L 167.469845 164.413195 
L 171.679124 163.304983 
L 176.940723 162.193285 
L 182.202321 161.332876 
L 188.516239 160.562675 
L 195.882478 159.936659 
L 204.301035 159.4738 
L 214.824233 159.137776 
L 229.556709 158.915784 
L 254.812382 158.802585 
L 281.424219 158.781848 
L 281.424219 158.781848 
" style="fill:none;stroke:#ff0000;stroke-linecap:square;stroke-opacity:0.2;"/>
   </g>
   <g id="line2d_18">
    <path clip-path="url(#p7368290b21)" d="M 44.348438 238.3692 
L 45.400757 238.227269 
L 46.453077 237.634085 
L 47.505397 236.51853 
L 48.557716 234.899766 
L 49.610036 232.83306 
L 50.662356 230.388499 
L 52.766995 224.660087 
L 55.923954 214.964092 
L 60.133233 202.032652 
L 62.237873 196.108452 
L 64.342512 190.707641 
L 66.447152 185.875827 
L 68.551791 181.618409 
L 70.656431 177.913981 
L 72.76107 174.724567 
L 74.865709 172.003141 
L 76.970349 169.698955 
L 79.074988 167.761154 
L 81.179628 166.14111 
L 83.284267 164.793806 
L 85.388907 163.678557 
L 87.493546 162.759262 
L 90.650505 161.67987 
L 93.807464 160.88258 
L 96.964424 160.297542 
L 101.173703 159.756199 
L 106.435301 159.337183 
L 113.801539 159.030133 
L 124.324736 158.857099 
L 146.423451 158.784731 
L 281.424219 158.778295 
L 281.424219 158.778295 
" style="fill:none;stroke:#0000ff;stroke-linecap:square;stroke-opacity:0.2;"/>
   </g>
   <g id="line2d_19">
    <path clip-path="url(#p7368290b21)" d="M 44.348438 238.369204 
L 62.237873 238.369196 
L 63.290193 237.094652 
L 64.342512 175.666141 
L 65.394832 158.789129 
L 76.970349 158.778295 
L 281.424219 158.778295 
L 281.424219 158.778295 
" style="fill:none;stroke:#0000ff;stroke-linecap:square;stroke-opacity:0.2;"/>
   </g>
   <g id="line2d_20">
    <path clip-path="url(#p7368290b21)" d="M 44.348438 238.369205 
L 64.342512 238.278486 
L 68.551791 238.056015 
L 71.70875 237.706313 
L 74.865709 237.119474 
L 78.022669 236.221123 
L 80.127308 235.415861 
L 82.231948 234.426565 
L 84.336587 233.241606 
L 86.441226 231.854131 
L 88.545866 230.262386 
L 90.650505 228.469752 
L 93.807464 225.423548 
L 96.964424 221.991492 
L 100.121383 218.237991 
L 104.330662 212.867014 
L 120.115458 192.131481 
L 124.324736 187.173899 
L 127.481696 183.742257 
L 130.638655 180.579763 
L 133.795614 177.696637 
L 136.952573 175.094472 
L 140.109532 172.767772 
L 143.266491 170.705487 
L 146.423451 168.892471 
L 149.58041 167.310791 
L 152.737369 165.940854 
L 155.894328 164.762353 
L 160.103607 163.453857 
L 164.312886 162.403572 
L 168.522165 161.568877 
L 173.783763 160.771044 
L 179.045362 160.187058 
L 185.35928 159.696021 
L 193.777838 159.286572 
L 204.301035 159.01435 
L 220.085831 158.849215 
L 252.707743 158.783318 
L 281.424219 158.778719 
L 281.424219 158.778719 
" style="fill:none;stroke:#ff0000;stroke-linecap:square;stroke-opacity:0.2;"/>
   </g>
   <g id="line2d_21">
    <path clip-path="url(#p7368290b21)" d="M 44.348438 238.369204 
L 59.080914 238.334753 
L 60.133233 238.229758 
L 61.185553 237.911416 
L 62.237873 237.116388 
L 63.290193 235.444297 
L 64.342512 232.427129 
L 65.394832 227.682062 
L 66.447152 221.089814 
L 67.499471 212.905051 
L 70.656431 185.600187 
L 71.70875 178.011647 
L 72.76107 171.907625 
L 73.81339 167.319276 
L 74.865709 164.080647 
L 75.918029 161.924889 
L 76.970349 160.566395 
L 78.022669 159.75308 
L 79.074988 159.28901 
L 80.127308 159.035909 
L 82.231948 158.837189 
L 87.493546 158.779142 
L 281.424219 158.778295 
L 281.424219 158.778295 
" style="fill:none;stroke:#0000ff;stroke-linecap:square;stroke-opacity:0.2;"/>
   </g>
   <g id="line2d_22">
    <path clip-path="url(#p7368290b21)" d="M 44.348438 238.3692 
L 65.394832 238.369173 
L 66.447152 237.615843 
L 67.499471 192.464516 
L 68.551791 159.090872 
L 69.604111 158.778313 
L 281.424219 158.778295 
L 281.424219 158.778295 
" style="fill:none;stroke:#0000ff;stroke-linecap:square;stroke-opacity:0.2;"/>
   </g>
   <g id="line2d_23">
    <path clip-path="url(#p7368290b21)" d="M 44.348438 238.369204 
L 61.185553 238.266175 
L 65.394832 238.005115 
L 68.551791 237.600879 
L 71.70875 236.936647 
L 73.81339 236.314769 
L 75.918029 235.528786 
L 78.022669 234.564751 
L 80.127308 233.412976 
L 82.231948 232.06843 
L 84.336587 230.530869 
L 87.493546 227.873516 
L 90.650505 224.825676 
L 93.807464 221.43824 
L 98.016743 216.505495 
L 103.278342 209.914964 
L 113.801539 196.586169 
L 118.010818 191.59595 
L 122.220097 186.953336 
L 126.429376 182.717621 
L 129.586335 179.827716 
L 132.743294 177.189273 
L 135.900253 174.800464 
L 139.057213 172.654437 
L 142.214172 170.740474 
L 145.371131 169.04504 
L 148.52809 167.552723 
L 152.737369 165.850344 
L 156.946648 164.439658 
L 161.155927 163.281367 
L 165.365206 162.338383 
L 170.626804 161.41103 
L 175.888403 160.708966 
L 182.202321 160.095286 
L 189.568559 159.610135 
L 199.039437 159.23036 
L 211.667273 158.972876 
L 231.661348 158.826521 
L 279.015736 158.779705 
L 281.424219 158.779465 
L 281.424219 158.779465 
" style="fill:none;stroke:#ff0000;stroke-linecap:square;stroke-opacity:0.2;"/>
   </g>
   <g id="line2d_24">
    <path clip-path="url(#p7368290b21)" d="M 44.348438 238.369204 
L 64.342512 238.369198 
L 65.394832 237.868909 
L 66.447152 193.717825 
L 67.499471 159.038139 
L 68.551791 158.778303 
L 281.424219 158.778295 
L 281.424219 158.778295 
" style="fill:none;stroke:#0000ff;stroke-linecap:square;stroke-opacity:0.2;"/>
   </g>
   <g id="line2d_25">
    <path clip-path="url(#p7368290b21)" d="M 44.348438 238.369204 
L 65.394832 238.274696 
L 69.604111 238.05368 
L 72.76107 237.711279 
L 75.918029 237.140723 
L 79.074988 236.270437 
L 81.179628 235.491289 
L 83.284267 234.534184 
L 85.388907 233.387244 
L 87.493546 232.043049 
L 89.598186 230.498984 
L 91.702825 228.757345 
L 94.859784 225.791088 
L 98.016743 222.439089 
L 101.173703 218.761312 
L 105.382981 213.477874 
L 112.749219 203.725246 
L 119.063138 195.484158 
L 123.272417 190.318256 
L 127.481696 185.539111 
L 130.638655 182.249555 
L 133.795614 179.230881 
L 136.952573 176.489398 
L 140.109532 174.023628 
L 143.266491 171.825798 
L 146.423451 169.8833 
L 149.58041 168.180047 
L 152.737369 166.697676 
L 155.894328 165.416579 
L 160.103607 163.986981 
L 164.312886 162.833184 
L 168.522165 161.911492 
L 173.783763 161.025769 
L 179.045362 160.373812 
L 185.35928 159.822538 
L 192.725518 159.404793 
L 202.196396 159.095516 
L 215.876552 158.892107 
L 240.079906 158.795031 
L 281.424219 158.778794 
L 281.424219 158.778794 
" style="fill:none;stroke:#ff0000;stroke-linecap:square;stroke-opacity:0.2;"/>
   </g>
   <g id="line2d_26">
    <path clip-path="url(#p7368290b21)" d="M 44.348438 238.369204 
L 52.766995 238.315458 
L 53.819315 238.166939 
L 54.871635 237.766845 
L 55.923954 236.882374 
L 56.976274 235.220792 
L 58.028594 232.496935 
L 59.080914 228.51953 
L 60.133233 223.261409 
L 61.185553 216.885302 
L 66.447152 181.417265 
L 67.499471 176.033516 
L 68.551791 171.597163 
L 69.604111 168.071104 
L 70.656431 165.359811 
L 71.70875 163.337568 
L 72.76107 161.871093 
L 73.81339 160.834991 
L 74.865709 160.120455 
L 75.918029 159.638661 
L 78.022669 159.114626 
L 80.127308 158.901993 
L 84.336587 158.792555 
L 105.382981 158.778295 
L 281.424219 158.778295 
L 281.424219 158.778295 
" style="fill:none;stroke:#0000ff;stroke-linecap:square;stroke-opacity:0.2;"/>
   </g>
   <g id="line2d_27">
    <path clip-path="url(#p7368290b21)" d="M 44.348438 238.369204 
L 47.505397 238.301056 
L 50.662356 237.973828 
L 52.766995 237.566732 
L 54.871635 236.997322 
L 56.976274 236.264895 
L 60.133233 234.871258 
L 63.290193 233.150099 
L 66.447152 231.139855 
L 69.604111 228.883627 
L 73.81339 225.569206 
L 79.074988 221.076121 
L 87.493546 213.488431 
L 96.964424 204.978915 
L 103.278342 199.588307 
L 108.539941 195.359098 
L 113.801539 191.407745 
L 119.063138 187.754061 
L 124.324736 184.405563 
L 129.586335 181.36039 
L 134.847934 178.609759 
L 140.109532 176.140009 
L 145.371131 173.934237 
L 150.632729 171.973605 
L 155.894328 170.238344 
L 161.155927 168.708514 
L 167.469845 167.11641 
L 173.783763 165.759765 
L 181.150001 164.434712 
L 188.516239 163.346219 
L 196.934797 162.343201 
L 206.405675 161.464088 
L 216.928872 160.729746 
L 228.504389 160.144449 
L 243.236865 159.639969 
L 261.1263 159.2661 
L 281.424219 159.031394 
L 281.424219 159.031394 
" style="fill:none;stroke:#ff0000;stroke-linecap:square;stroke-opacity:0.2;"/>
   </g>
   <g id="line2d_28">
    <path clip-path="url(#p7368290b21)" d="M 44.348438 238.369191 
L 46.453077 238.23779 
L 47.505397 237.86293 
L 48.557716 237.108269 
L 49.610036 235.894788 
L 50.662356 234.1908 
L 51.714676 232.005091 
L 52.766995 229.377149 
L 54.871635 223.0476 
L 56.976274 215.787048 
L 62.237873 197.158901 
L 64.342512 190.516742 
L 66.447152 184.63485 
L 68.551791 179.566773 
L 70.656431 175.297468 
L 72.76107 171.768634 
L 74.865709 168.898595 
L 76.970349 166.596644 
L 79.074988 164.772589 
L 81.179628 163.342536 
L 83.284267 162.231908 
L 85.388907 161.376583 
L 87.493546 160.72283 
L 90.650505 160.026012 
L 93.807464 159.571182 
L 98.016743 159.205756 
L 104.330662 158.943406 
L 113.801539 158.816184 
L 140.109532 158.778816 
L 281.424219 158.778295 
L 281.424219 158.778295 
" style="fill:none;stroke:#0000ff;stroke-linecap:square;stroke-opacity:0.2;"/>
   </g>
   <g id="line2d_29">
    <path clip-path="url(#p7368290b21)" d="M 44.348438 238.369204 
L 74.865709 238.282379 
L 79.074988 238.056524 
L 82.231948 237.672641 
L 84.336587 237.253918 
L 86.441226 236.660826 
L 88.545866 235.854231 
L 90.650505 234.796928 
L 92.755145 233.456634 
L 94.859784 231.808795 
L 96.964424 229.838884 
L 99.069063 227.543976 
L 101.173703 224.933432 
L 103.278342 222.028689 
L 106.435301 217.193531 
L 109.59226 211.917807 
L 115.906179 200.754608 
L 121.167777 191.673154 
L 124.324736 186.629936 
L 127.481696 182.016761 
L 130.638655 177.894001 
L 132.743294 175.43227 
L 134.847934 173.201365 
L 136.952573 171.196951 
L 139.057213 169.410753 
L 141.161852 167.831452 
L 143.266491 166.445518 
L 146.423451 164.696208 
L 149.58041 163.294911 
L 152.737369 162.188457 
L 155.894328 161.326589 
L 159.051287 160.663785 
L 163.260566 160.021692 
L 168.522165 159.500894 
L 174.836083 159.1437 
L 183.254641 158.918668 
L 197.987117 158.801731 
L 246.393824 158.778325 
L 281.424219 158.778296 
L 281.424219 158.778296 
" style="fill:none;stroke:#ff0000;stroke-linecap:square;stroke-opacity:0.2;"/>
   </g>
   <g id="line2d_30">
    <path clip-path="url(#p7368290b21)" d="M 44.348438 238.369204 
L 60.133233 238.346883 
L 61.185553 238.245235 
L 62.237873 237.85105 
L 63.290193 236.679313 
L 64.342512 233.932461 
L 65.394832 228.730136 
L 66.447152 220.603928 
L 67.499471 209.946677 
L 69.604111 186.510411 
L 70.656431 176.773178 
L 71.70875 169.497722 
L 72.76107 164.647918 
L 73.81339 161.739618 
L 74.865709 160.158955 
L 75.918029 159.375109 
L 76.970349 159.0183 
L 79.074988 158.809972 
L 85.388907 158.778313 
L 281.424219 158.778295 
L 281.424219 158.778295 
" style="fill:none;stroke:#0000ff;stroke-linecap:square;stroke-opacity:0.2;"/>
   </g>
   <g id="line2d_31">
    <path clip-path="url(#p7368290b21)" d="M 44.348438 238.369204 
L 54.871635 238.293088 
L 59.080914 238.049595 
L 62.237873 237.665813 
L 65.394832 237.044448 
L 68.551791 236.137809 
L 71.70875 234.913072 
L 74.865709 233.354039 
L 78.022669 231.460883 
L 81.179628 229.248477 
L 84.336587 226.743881 
L 87.493546 223.983425 
L 91.702825 219.979073 
L 96.964424 214.608581 
L 114.853859 195.928577 
L 120.115458 190.930028 
L 124.324736 187.217731 
L 128.534015 183.786264 
L 132.743294 180.647294 
L 136.952573 177.802858 
L 141.161852 175.247337 
L 145.371131 172.969298 
L 149.58041 170.95314 
L 153.789689 169.180505 
L 157.998968 167.631454 
L 162.208246 166.285405 
L 167.469845 164.85716 
L 172.731444 163.675636 
L 177.993042 162.704977 
L 184.306961 161.772954 
L 191.673199 160.94491 
L 200.091756 160.26137 
L 209.562634 159.736253 
L 221.138151 159.332094 
L 235.870627 159.048676 
L 257.969341 158.867337 
L 281.424219 158.804649 
L 281.424219 158.804649 
" style="fill:none;stroke:#ff0000;stroke-linecap:square;stroke-opacity:0.2;"/>
   </g>
   <g id="line2d_32">
    <path clip-path="url(#p7368290b21)" d="M 44.348438 238.369204 
L 59.080914 238.275359 
L 60.133233 238.085099 
L 61.185553 237.633042 
L 62.237873 236.703109 
L 63.290193 235.019181 
L 64.342512 232.297463 
L 65.394832 228.324499 
L 66.447152 223.034025 
L 67.499471 216.551716 
L 69.604111 201.384283 
L 71.70875 186.339165 
L 72.76107 179.866372 
L 73.81339 174.394155 
L 74.865709 169.978057 
L 75.918029 166.565323 
L 76.970349 164.03252 
L 78.022669 162.222582 
L 79.074988 160.974305 
L 80.127308 160.141631 
L 81.179628 159.603358 
L 82.231948 159.265549 
L 84.336587 158.936869 
L 87.493546 158.803414 
L 99.069063 158.778303 
L 281.424219 158.778295 
L 281.424219 158.778295 
" style="fill:none;stroke:#0000ff;stroke-linecap:square;stroke-opacity:0.2;"/>
   </g>
   <g id="line2d_33">
    <path clip-path="url(#p7368290b21)" d="M 44.348438 238.369204 
L 55.923954 238.27695 
L 60.133233 238.034866 
L 63.290193 237.679275 
L 66.447152 237.12503 
L 69.604111 236.335777 
L 72.76107 235.285653 
L 75.918029 233.960405 
L 79.074988 232.357297 
L 82.231948 230.484148 
L 85.388907 228.357825 
L 88.545866 226.002439 
L 92.755145 222.5571 
L 98.016743 217.872738 
L 104.330662 211.911909 
L 118.010818 198.896867 
L 123.272417 194.193902 
L 128.534015 189.783851 
L 133.795614 185.713831 
L 138.004893 182.720869 
L 142.214172 179.967909 
L 146.423451 177.454344 
L 150.632729 175.174859 
L 154.842008 173.120517 
L 159.051287 171.279724 
L 163.260566 169.639071 
L 168.522165 167.847523 
L 173.783763 166.316582 
L 179.045362 165.016925 
L 184.306961 163.92029 
L 190.620879 162.835103 
L 196.934797 161.962434 
L 204.301035 161.164047 
L 212.719593 160.480928 
L 222.190471 159.933135 
L 233.765988 159.488705 
L 248.498464 159.154906 
L 269.544858 158.926276 
L 281.424219 158.864568 
L 281.424219 158.864568 
" style="fill:none;stroke:#ff0000;stroke-linecap:square;stroke-opacity:0.2;"/>
   </g>
   <g id="line2d_34">
    <path clip-path="url(#p7368290b21)" d="M 44.348438 238.369204 
L 79.074988 238.264402 
L 83.284267 238.037596 
L 86.441226 237.679324 
L 89.598186 237.062444 
L 91.702825 236.457545 
L 93.807464 235.661892 
L 95.912104 234.64668 
L 98.016743 233.387014 
L 100.121383 231.863781 
L 102.226022 230.065192 
L 104.330662 227.987883 
L 106.435301 225.637465 
L 108.539941 223.028502 
L 111.6969 218.682563 
L 114.853859 213.91533 
L 119.063138 207.135486 
L 127.481696 193.407335 
L 131.690974 187.068791 
L 134.847934 182.728824 
L 138.004893 178.804601 
L 141.161852 175.322965 
L 144.318811 172.288293 
L 147.47577 169.68679 
L 150.632729 167.491146 
L 153.789689 165.665037 
L 156.946648 164.167128 
L 160.103607 162.954369 
L 163.260566 161.984523 
L 166.417525 161.217946 
L 170.626804 160.450566 
L 174.836083 159.908 
L 180.097682 159.456922 
L 186.4116 159.136769 
L 195.882478 158.909185 
L 211.667273 158.799977 
L 266.387899 158.778313 
L 281.424219 158.778298 
L 281.424219 158.778298 
" style="fill:none;stroke:#ff0000;stroke-linecap:square;stroke-opacity:0.2;"/>
   </g>
   <g id="line2d_35">
    <path clip-path="url(#p7368290b21)" d="M 44.348438 238.369204 
L 67.499471 238.28016 
L 68.551791 217.9744 
L 69.604111 162.492314 
L 70.656431 158.78144 
L 108.539941 158.778295 
L 281.424219 158.778295 
L 281.424219 158.778295 
" style="fill:none;stroke:#0000ff;stroke-linecap:square;stroke-opacity:0.2;"/>
   </g>
   <g id="line2d_36">
    <path clip-path="url(#p7368290b21)" d="M 44.348438 238.369204 
L 53.819315 238.294998 
L 54.871635 238.151559 
L 55.923954 237.828478 
L 56.976274 237.196781 
L 58.028594 236.099563 
L 59.080914 234.375955 
L 60.133233 231.892306 
L 61.185553 228.57194 
L 62.237873 224.415202 
L 63.290193 219.504804 
L 65.394832 208.095142 
L 68.551791 190.296794 
L 70.656431 180.195487 
L 71.70875 175.998461 
L 72.76107 172.406644 
L 73.81339 169.401444 
L 74.865709 166.939269 
L 75.918029 164.961036 
L 76.970349 163.400354 
L 78.022669 162.189925 
L 79.074988 161.266046 
L 80.127308 160.571401 
L 81.179628 160.056451 
L 83.284267 159.407684 
L 85.388907 159.076413 
L 88.545866 158.86929 
L 94.859784 158.78521 
L 143.266491 158.778295 
L 281.424219 158.778295 
L 281.424219 158.778295 
" style="fill:none;stroke:#0000ff;stroke-linecap:square;stroke-opacity:0.2;"/>
   </g>
   <g id="line2d_37">
    <path clip-path="url(#p7368290b21)" d="M 44.348438 238.369204 
L 61.185553 238.360468 
L 62.237873 208.015758 
L 63.290193 158.900341 
L 64.342512 158.778295 
L 281.424219 158.778295 
L 281.424219 158.778295 
" style="fill:none;stroke:#0000ff;stroke-linecap:square;stroke-opacity:0.2;"/>
   </g>
   <g id="line2d_38">
    <path clip-path="url(#p7368290b21)" d="M 44.348438 238.369204 
L 55.923954 238.27347 
L 60.133233 237.996901 
L 63.290193 237.573553 
L 66.447152 236.897883 
L 69.604111 235.920942 
L 72.76107 234.60952 
L 75.918029 232.948079 
L 79.074988 230.938525 
L 82.231948 228.598421 
L 85.388907 225.958263 
L 88.545866 223.058289 
L 92.755145 218.868835 
L 98.016743 213.281523 
L 112.749219 197.351903 
L 118.010818 192.089719 
L 122.220097 188.170424 
L 126.429376 184.543722 
L 130.638655 181.226472 
L 134.847934 178.223868 
L 139.057213 175.531747 
L 143.266491 173.138794 
L 147.47577 171.028531 
L 151.685049 169.181039 
L 155.894328 167.574396 
L 160.103607 166.185829 
L 165.365206 164.722223 
L 170.626804 163.521191 
L 175.888403 162.543076 
L 182.202321 161.613422 
L 188.516239 160.899378 
L 195.882478 160.278698 
L 205.353355 159.729036 
L 216.928872 159.314342 
L 231.661348 159.031258 
L 253.760062 158.857159 
L 281.424219 158.795658 
L 281.424219 158.795658 
" style="fill:none;stroke:#ff0000;stroke-linecap:square;stroke-opacity:0.2;"/>
   </g>
   <g id="line2d_39">
    <path clip-path="url(#p7368290b21)" d="M 44.348438 238.369204 
L 103.278342 238.286935 
L 105.382981 238.105849 
L 107.487621 237.640108 
L 108.539941 237.216258 
L 109.59226 236.603623 
L 110.64458 235.747465 
L 111.6969 234.589408 
L 112.749219 233.071763 
L 113.801539 231.142925 
L 114.853859 228.763306 
L 115.906179 225.911045 
L 116.958498 222.586688 
L 119.063138 214.650786 
L 121.167777 205.457022 
L 125.377056 186.553728 
L 127.481696 178.447962 
L 128.534015 174.97017 
L 129.586335 171.911778 
L 130.638655 169.274724 
L 131.690974 167.044288 
L 132.743294 165.192863 
L 133.795614 163.68396 
L 134.847934 162.476027 
L 135.900253 161.525794 
L 136.952573 160.790945 
L 138.004893 160.232071 
L 140.109532 159.505991 
L 142.214172 159.123379 
L 145.371131 158.880464 
L 150.632729 158.788777 
L 181.150001 158.778295 
L 281.424219 158.778295 
L 281.424219 158.778295 
" style="fill:none;stroke:#ff0000;stroke-linecap:square;stroke-opacity:0.2;"/>
   </g>
   <g id="line2d_40">
    <path clip-path="url(#p7368290b21)" d="M 44.348438 238.3692 
L 54.871635 238.307733 
L 55.923954 238.150802 
L 56.976274 237.737369 
L 58.028594 236.828514 
L 59.080914 235.115548 
L 60.133233 232.287425 
L 61.185553 228.125806 
L 62.237873 222.589961 
L 63.290193 215.854825 
L 67.499471 185.39298 
L 68.551791 179.068657 
L 69.604111 173.774865 
L 70.656431 169.535592 
L 71.70875 166.276343 
L 72.76107 163.863101 
L 73.81339 162.137477 
L 74.865709 160.942853 
L 75.918029 160.140395 
L 76.970349 159.616325 
L 78.022669 159.28296 
L 80.127308 158.950632 
L 83.284267 158.808306 
L 93.807464 158.77833 
L 281.424219 158.778295 
L 281.424219 158.778295 
" style="fill:none;stroke:#0000ff;stroke-linecap:square;stroke-opacity:0.2;"/>
   </g>
   <g id="line2d_41">
    <path clip-path="url(#p7368290b21)" d="M 44.348438 235.59662 
L 52.766995 235.522477 
L 56.976274 235.273709 
L 60.133233 234.89493 
L 63.290193 234.303444 
L 66.447152 233.468908 
L 69.604111 232.3739 
L 72.76107 231.013342 
L 75.918029 229.393052 
L 79.074988 227.527861 
L 82.231948 225.43959 
L 86.441226 222.35511 
L 90.650505 218.993941 
L 95.912104 214.518561 
L 107.487621 204.257184 
L 114.853859 197.883009 
L 121.167777 192.732119 
L 126.429376 188.733581 
L 131.690974 185.038251 
L 136.952573 181.663273 
L 142.214172 178.613005 
L 147.47577 175.881866 
L 152.737369 173.456913 
L 157.998968 171.320081 
L 163.260566 169.450044 
L 168.522165 167.82372 
L 173.783763 166.41744 
L 180.097682 164.987503 
L 186.4116 163.802245 
L 192.725518 162.825998 
L 200.091756 161.908434 
L 208.510314 161.097419 
L 217.981192 160.421566 
L 228.504389 159.889945 
L 242.184545 159.43951 
L 259.021661 159.121718 
L 281.424219 158.918666 
L 281.424219 158.918666 
" style="fill:none;stroke:#ff0000;stroke-linecap:square;stroke-opacity:0.2;"/>
   </g>
   <g id="line2d_42">
    <path clip-path="url(#p7368290b21)" d="M 44.348438 238.369204 
L 54.871635 238.270517 
L 55.923954 238.015139 
L 56.976274 237.348361 
L 58.028594 235.914239 
L 59.080914 233.298555 
L 60.133233 229.158927 
L 61.185553 223.367823 
L 62.237873 216.097332 
L 66.447152 183.029521 
L 67.499471 176.519407 
L 68.551791 171.281389 
L 69.604111 167.27953 
L 70.656431 164.363882 
L 71.70875 162.330459 
L 72.76107 160.96841 
L 73.81339 160.089545 
L 74.865709 159.541808 
L 75.918029 159.211302 
L 78.022669 158.907675 
L 81.179628 158.796198 
L 95.912104 158.778296 
L 281.424219 158.778295 
L 281.424219 158.778295 
" style="fill:none;stroke:#0000ff;stroke-linecap:square;stroke-opacity:0.2;"/>
   </g>
   <g id="line2d_43">
    <path clip-path="url(#p7368290b21)" d="M 44.348438 238.369204 
L 48.557716 238.306796 
L 51.714676 238.03327 
L 53.819315 237.672466 
L 55.923954 237.141609 
L 58.028594 236.427895 
L 60.133233 235.526424 
L 62.237873 234.438765 
L 64.342512 233.171619 
L 67.499471 230.958432 
L 70.656431 228.413069 
L 73.81339 225.590799 
L 78.022669 221.498137 
L 83.284267 216.043108 
L 98.016743 200.561428 
L 103.278342 195.440882 
L 107.487621 191.608027 
L 111.6969 188.036772 
L 115.906179 184.740093 
L 120.115458 181.721768 
L 124.324736 178.978392 
L 128.534015 176.501149 
L 132.743294 174.277328 
L 136.952573 172.29159 
L 141.161852 170.526994 
L 145.371131 168.965816 
L 150.632729 167.273195 
L 155.894328 165.83641 
L 161.155927 164.623137 
L 167.469845 163.420309 
L 173.783763 162.449929 
L 181.150001 161.557825 
L 189.568559 160.788889 
L 199.039437 160.16576 
L 210.614954 159.652505 
L 224.29511 159.279354 
L 243.236865 159.006332 
L 271.649498 158.846243 
L 281.424219 158.822789 
L 281.424219 158.822789 
" style="fill:none;stroke:#ff0000;stroke-linecap:square;stroke-opacity:0.2;"/>
   </g>
   <g id="line2d_44">
    <path clip-path="url(#p7368290b21)" d="M 44.348438 238.3692 
L 63.290193 238.369198 
L 64.342512 237.993628 
L 65.394832 192.128514 
L 66.447152 158.920866 
L 67.499471 158.778297 
L 281.424219 158.778295 
L 281.424219 158.778295 
" style="fill:none;stroke:#0000ff;stroke-linecap:square;stroke-opacity:0.2;"/>
   </g>
   <g id="line2d_45">
    <path clip-path="url(#p7368290b21)" d="M 44.348438 238.3692 
L 60.133233 238.349339 
L 61.185553 238.240062 
L 62.237873 237.76561 
L 63.290193 236.252982 
L 64.342512 232.593419 
L 65.394832 225.684575 
L 66.447152 215.260382 
L 69.604111 177.986531 
L 70.656431 169.630979 
L 71.70875 164.290272 
L 72.76107 161.301844 
L 73.81339 159.823735 
L 74.865709 159.17188 
L 75.918029 158.913559 
L 78.022669 158.790667 
L 91.702825 158.778295 
L 281.424219 158.778295 
L 281.424219 158.778295 
" style="fill:none;stroke:#0000ff;stroke-linecap:square;stroke-opacity:0.2;"/>
   </g>
   <g id="line2d_46">
    <path clip-path="url(#p7368290b21)" d="M 44.348438 238.36919 
L 63.290193 238.369189 
L 64.342512 237.646839 
L 65.394832 179.274261 
L 66.447152 158.792732 
L 74.865709 158.778295 
L 281.424219 158.778295 
L 281.424219 158.778295 
" style="fill:none;stroke:#0000ff;stroke-linecap:square;stroke-opacity:0.2;"/>
   </g>
   <g id="line2d_47">
    <path clip-path="url(#p7368290b21)" d="M 44.348438 238.3692 
L 59.080914 238.274227 
L 60.133233 238.134104 
L 61.185553 237.848366 
L 62.237873 237.321828 
L 63.290193 236.434692 
L 64.342512 235.054589 
L 65.394832 233.055667 
L 66.447152 230.341026 
L 67.499471 226.86327 
L 68.551791 222.638156 
L 70.656431 212.33448 
L 75.918029 184.158507 
L 76.970349 179.504343 
L 78.022669 175.416231 
L 79.074988 171.91336 
L 80.127308 168.981135 
L 81.179628 166.579893 
L 82.231948 164.65377 
L 83.284267 163.138677 
L 84.336587 161.968747 
L 85.388907 161.081042 
L 86.441226 160.41859 
L 87.493546 159.931983 
L 89.598186 159.328718 
L 91.702825 159.029251 
L 94.859784 158.849752 
L 102.226022 158.781073 
L 211.667273 158.778295 
L 281.424219 158.778295 
L 281.424219 158.778295 
" style="fill:none;stroke:#0000ff;stroke-linecap:square;stroke-opacity:0.2;"/>
   </g>
   <g id="line2d_48">
    <path clip-path="url(#p7368290b21)" d="M 44.348438 237.47553 
L 53.819315 237.436254 
L 54.871635 237.292782 
L 55.923954 236.833219 
L 56.976274 235.680041 
L 58.028594 233.322406 
L 59.080914 229.273221 
L 60.133233 223.287587 
L 61.185553 215.521474 
L 65.394832 180.23634 
L 66.447152 173.745511 
L 67.499471 168.764002 
L 68.551791 165.163258 
L 69.604111 162.699253 
L 70.656431 161.095718 
L 71.70875 160.099307 
L 72.76107 159.50603 
L 73.81339 159.166479 
L 75.918029 158.87928 
L 80.127308 158.783285 
L 123.272417 158.778295 
L 281.424219 158.778295 
L 281.424219 158.778295 
" style="fill:none;stroke:#0000ff;stroke-linecap:square;stroke-opacity:0.2;"/>
   </g>
   <g id="line2d_49">
    <path clip-path="url(#p7368290b21)" d="M 44.348438 238.369204 
L 74.865709 238.286744 
L 79.074988 238.068623 
L 82.231948 237.694596 
L 84.336587 237.284413 
L 86.441226 236.701138 
L 88.545866 235.905131 
L 90.650505 234.858492 
L 92.755145 233.528113 
L 94.859784 231.888564 
L 96.964424 229.924493 
L 99.069063 227.632276 
L 101.173703 225.020786 
L 103.278342 222.111224 
L 106.435301 217.261724 
L 109.59226 211.96428 
L 115.906179 200.744891 
L 121.167777 191.616793 
L 124.324736 186.550594 
L 127.481696 181.919971 
L 130.638655 177.785854 
L 132.743294 175.319903 
L 134.847934 173.087274 
L 136.952573 171.083383 
L 139.057213 169.299658 
L 141.161852 167.724448 
L 143.266491 166.343888 
L 146.423451 164.60433 
L 149.58041 163.213933 
L 152.737369 162.118689 
L 155.894328 161.267702 
L 159.051287 160.615006 
L 163.260566 159.984741 
L 168.522165 159.475768 
L 174.836083 159.12866 
L 183.254641 158.911627 
L 197.987117 158.80016 
L 248.498464 158.778314 
L 281.424219 158.778296 
L 281.424219 158.778296 
" style="fill:none;stroke:#ff0000;stroke-linecap:square;stroke-opacity:0.2;"/>
   </g>
   <g id="line2d_50">
    <path clip-path="url(#p7368290b21)" d="M 44.348438 238.369204 
L 69.604111 238.267263 
L 74.865709 238.02009 
L 79.074988 237.599954 
L 82.231948 237.093269 
L 85.388907 236.377304 
L 88.545866 235.415259 
L 91.702825 234.177175 
L 94.859784 232.642408 
L 98.016743 230.801228 
L 101.173703 228.655473 
L 104.330662 226.218304 
L 107.487621 223.513185 
L 111.6969 219.546165 
L 115.906179 215.254626 
L 122.220097 208.441951 
L 133.795614 195.862046 
L 139.057213 190.51677 
L 143.266491 186.530827 
L 147.47577 182.846506 
L 151.685049 179.48735 
L 155.894328 176.463118 
L 160.103607 173.772037 
L 164.312886 171.403211 
L 168.522165 169.33895 
L 172.731444 167.556909 
L 176.940723 166.031946 
L 181.150001 164.737655 
L 185.35928 163.647586 
L 190.620879 162.533338 
L 195.882478 161.651761 
L 202.196396 160.842604 
L 209.562634 160.164413 
L 217.981192 159.644248 
L 228.504389 159.249263 
L 242.184545 158.985047 
L 263.23094 158.833118 
L 281.424219 158.794837 
L 281.424219 158.794837 
" style="fill:none;stroke:#ff0000;stroke-linecap:square;stroke-opacity:0.2;"/>
   </g>
   <g id="line2d_51">
    <path clip-path="url(#p7368290b21)" d="M 44.348438 238.369204 
L 62.237873 238.358194 
L 63.290193 215.176838 
L 64.342512 159.387199 
L 65.394832 158.7783 
L 281.424219 158.778295 
L 281.424219 158.778295 
" style="fill:none;stroke:#0000ff;stroke-linecap:square;stroke-opacity:0.2;"/>
   </g>
   <g id="line2d_52">
    <path clip-path="url(#p7368290b21)" d="M 44.348438 238.369204 
L 60.133233 238.369119 
L 61.185553 229.711958 
L 62.237873 160.101982 
L 63.290193 158.778299 
L 281.424219 158.778295 
L 281.424219 158.778295 
" style="fill:none;stroke:#0000ff;stroke-linecap:square;stroke-opacity:0.2;"/>
   </g>
   <g id="line2d_53">
    <path clip-path="url(#p7368290b21)" d="M 44.348438 238.369204 
L 66.447152 238.276879 
L 69.604111 238.060425 
L 71.70875 237.760644 
L 73.81339 237.265417 
L 75.918029 236.504701 
L 78.022669 235.407655 
L 80.127308 233.910708 
L 82.231948 231.965476 
L 84.336587 229.545221 
L 86.441226 226.648876 
L 88.545866 223.30215 
L 90.650505 219.555758 
L 93.807464 213.347552 
L 99.069063 202.188861 
L 103.278342 193.370928 
L 106.435301 187.235503 
L 109.59226 181.711738 
L 111.6969 178.421222 
L 113.801539 175.460466 
L 115.906179 172.829907 
L 118.010818 170.520381 
L 120.115458 168.515344 
L 122.220097 166.79301 
L 124.324736 165.328284 
L 126.429376 164.094418 
L 128.534015 163.064354 
L 131.690974 161.844182 
L 134.847934 160.941571 
L 138.004893 160.285034 
L 142.214172 159.691051 
L 146.423451 159.320083 
L 152.737369 159.017485 
L 162.208246 158.843627 
L 182.202321 158.781629 
L 281.424219 158.778295 
L 281.424219 158.778295 
" style="fill:none;stroke:#ff0000;stroke-linecap:square;stroke-opacity:0.2;"/>
   </g>
   <g id="line2d_54">
    <path clip-path="url(#p7368290b21)" d="M 44.348438 238.369204 
L 59.080914 238.336417 
L 60.133233 238.164784 
L 61.185553 237.461113 
L 62.237873 235.357797 
L 63.290193 230.608247 
L 64.342512 222.259808 
L 65.394832 210.543382 
L 67.499471 184.349997 
L 68.551791 174.068889 
L 69.604111 166.976119 
L 70.656431 162.728287 
L 71.70875 160.495177 
L 72.76107 159.454491 
L 73.81339 159.020769 
L 75.918029 158.802282 
L 83.284267 158.778296 
L 281.424219 158.778295 
L 281.424219 158.778295 
" style="fill:none;stroke:#0000ff;stroke-linecap:square;stroke-opacity:0.2;"/>
   </g>
   <g id="line2d_55">
    <path clip-path="url(#p7368290b21)" d="M 44.348438 238.369204 
L 52.766995 238.282453 
L 55.923954 238.076951 
L 59.080914 237.662835 
L 62.237873 236.973484 
L 65.394832 235.960164 
L 67.499471 235.090078 
L 70.656431 233.485561 
L 73.81339 231.528195 
L 76.970349 229.239825 
L 80.127308 226.654735 
L 83.284267 223.815857 
L 87.493546 219.719359 
L 92.755145 214.265418 
L 107.487621 198.730423 
L 112.749219 193.579546 
L 116.958498 189.727285 
L 121.167777 186.145266 
L 125.377056 182.84942 
L 129.586335 179.845364 
L 133.795614 177.13045 
L 138.004893 174.695674 
L 142.214172 172.527385 
L 146.423451 170.608748 
L 150.632729 168.92097 
L 154.842008 167.444287 
L 160.103607 165.864911 
L 165.365206 164.546215 
L 170.626804 163.452365 
L 176.940723 162.390445 
L 183.254641 161.554581 
L 190.620879 160.807582 
L 199.039437 160.185711 
L 209.562634 159.659758 
L 222.190471 159.274139 
L 239.027586 159.003868 
L 264.283259 158.844984 
L 281.424219 158.80685 
L 281.424219 158.80685 
" style="fill:none;stroke:#ff0000;stroke-linecap:square;stroke-opacity:0.2;"/>
   </g>
   <g id="line2d_56">
    <path clip-path="url(#p7368290b21)" d="M 44.348438 238.369204 
L 52.766995 238.330301 
L 53.819315 238.216637 
L 54.871635 237.898137 
L 55.923954 237.168725 
L 56.976274 235.753943 
L 58.028594 233.366145 
L 59.080914 229.785122 
L 60.133233 224.933084 
L 61.185553 218.913799 
L 63.290193 204.588888 
L 65.394832 189.956342 
L 66.447152 183.448457 
L 67.499471 177.782872 
L 68.551791 173.045693 
L 69.604111 169.228164 
L 70.656431 166.254024 
L 71.70875 164.007933 
L 72.76107 162.359706 
L 73.81339 161.181962 
L 74.865709 160.360943 
L 75.918029 159.80162 
L 76.970349 159.428677 
L 79.074988 159.028651 
L 82.231948 158.831924 
L 89.598186 158.779264 
L 281.424219 158.778295 
L 281.424219 158.778295 
" style="fill:none;stroke:#0000ff;stroke-linecap:square;stroke-opacity:0.2;"/>
   </g>
   <g id="line2d_57">
    <path clip-path="url(#p7368290b21)" d="M 44.348438 238.369204 
L 67.499471 238.270236 
L 70.656431 238.001946 
L 72.76107 237.60598 
L 74.865709 236.925842 
L 76.970349 235.852167 
L 78.022669 235.133677 
L 79.074988 234.277613 
L 80.127308 233.273608 
L 82.231948 230.791556 
L 84.336587 227.654518 
L 86.441226 223.877767 
L 88.545866 219.525624 
L 90.650505 214.705324 
L 93.807464 206.905529 
L 99.069063 193.684007 
L 102.226022 186.38358 
L 104.330662 181.990179 
L 106.435301 178.041692 
L 108.539941 174.562826 
L 110.64458 171.554075 
L 112.749219 168.996746 
L 114.853859 166.858278 
L 116.958498 165.097289 
L 119.063138 163.667953 
L 121.167777 162.523525 
L 123.272417 161.618952 
L 125.377056 160.912639 
L 128.534015 160.145078 
L 131.690974 159.636881 
L 135.900253 159.227439 
L 141.161852 158.969945 
L 149.58041 158.823272 
L 170.626804 158.779111 
L 281.424219 158.778295 
L 281.424219 158.778295 
" style="fill:none;stroke:#ff0000;stroke-linecap:square;stroke-opacity:0.2;"/>
   </g>
   <g id="line2d_58">
    <path clip-path="url(#p7368290b21)" d="M 44.348438 238.369204 
L 67.499471 238.369194 
L 68.551791 238.149744 
L 69.604111 213.043989 
L 70.656431 161.853956 
L 71.70875 158.781441 
L 109.59226 158.778295 
L 281.424219 158.778295 
L 281.424219 158.778295 
" style="fill:none;stroke:#0000ff;stroke-linecap:square;stroke-opacity:0.2;"/>
   </g>
   <g id="line2d_59">
    <path clip-path="url(#p7368290b21)" d="M 44.348438 238.369204 
L 63.290193 238.363738 
L 64.342512 223.675542 
L 65.394832 160.98002 
L 66.447152 158.778435 
L 281.424219 158.778295 
L 281.424219 158.778295 
" style="fill:none;stroke:#000000;stroke-linecap:square;stroke-opacity:0.2;"/>
   </g>
   <g id="line2d_60">
    <path clip-path="url(#p7368290b21)" d="M 44.348438 238.369204 
L 73.81339 238.26021 
L 78.022669 238.03222 
L 81.179628 237.683094 
L 84.336587 237.097984 
L 86.441226 236.535776 
L 88.545866 235.807314 
L 90.650505 234.890169 
L 92.755145 233.76526 
L 94.859784 232.418066 
L 96.964424 230.839595 
L 99.069063 229.027022 
L 101.173703 226.98398 
L 104.330662 223.51086 
L 107.487621 219.6015 
L 110.64458 215.338807 
L 114.853859 209.27968 
L 126.429376 192.360281 
L 130.638655 186.764771 
L 133.795614 182.915265 
L 136.952573 179.40188 
L 140.109532 176.241644 
L 143.266491 173.437481 
L 146.423451 170.980774 
L 149.58041 168.854047 
L 152.737369 167.033552 
L 155.894328 165.491599 
L 159.051287 164.198546 
L 162.208246 163.124401 
L 165.365206 162.240036 
L 169.574484 161.309074 
L 173.783763 160.60862 
L 179.045362 159.981635 
L 185.35928 159.491541 
L 192.725518 159.156084 
L 203.248716 158.924268 
L 220.085831 158.807348 
L 270.597178 158.77843 
L 281.424219 158.778335 
L 281.424219 158.778335 
" style="fill:none;stroke:#ff0000;stroke-linecap:square;stroke-opacity:0.2;"/>
   </g>
   <g id="line2d_61">
    <path clip-path="url(#p7368290b21)" d="M 44.348438 238.3692 
L 55.923954 238.281341 
L 56.976274 238.120414 
L 58.028594 237.762424 
L 59.080914 237.064715 
L 60.133233 235.851102 
L 61.185553 233.938769 
L 62.237873 231.175577 
L 63.290193 227.477348 
L 64.342512 222.853889 
L 65.394832 217.416168 
L 67.499471 204.952596 
L 69.604111 192.16351 
L 71.70875 180.954858 
L 72.76107 176.3062 
L 73.81339 172.362327 
L 74.865709 169.107999 
L 75.918029 166.491191 
L 76.970349 164.43719 
L 78.022669 162.860949 
L 79.074988 161.676684 
L 80.127308 160.804446 
L 81.179628 160.173939 
L 82.231948 159.726147 
L 84.336587 159.198346 
L 86.441226 158.955433 
L 90.650505 158.805872 
L 103.278342 158.77834 
L 281.424219 158.778295 
L 281.424219 158.778295 
" style="fill:none;stroke:#0000ff;stroke-linecap:square;stroke-opacity:0.2;"/>
   </g>
   <g id="line2d_62">
    <path clip-path="url(#p7368290b21)" d="M 44.348438 238.369203 
L 64.342512 238.366482 
L 65.394832 229.544275 
L 66.447152 164.658888 
L 67.499471 158.780482 
L 121.167777 158.778295 
L 281.424219 158.778295 
L 281.424219 158.778295 
" style="fill:none;stroke:#0000ff;stroke-linecap:square;stroke-opacity:0.2;"/>
   </g>
   <g id="line2d_63">
    <path clip-path="url(#p7368290b21)" d="M 44.348438 238.369204 
L 71.70875 238.275038 
L 75.918029 238.006442 
L 79.074988 237.537349 
L 81.179628 237.021168 
L 83.284267 236.288644 
L 85.388907 235.294254 
L 87.493546 233.997156 
L 89.598186 232.365046 
L 91.702825 230.377424 
L 93.807464 228.027891 
L 95.912104 225.325246 
L 98.016743 222.293316 
L 101.173703 217.213261 
L 104.330662 211.650866 
L 116.958498 188.692067 
L 120.115458 183.674191 
L 123.272417 179.177517 
L 125.377056 176.491482 
L 127.481696 174.059413 
L 129.586335 171.878126 
L 131.690974 169.939353 
L 133.795614 168.230885 
L 135.900253 166.737652 
L 138.004893 165.4427 
L 141.161852 163.832629 
L 144.318811 162.566832 
L 147.47577 161.586401 
L 150.632729 160.837544 
L 154.842008 160.118692 
L 159.051287 159.635987 
L 164.312886 159.258211 
L 171.679124 158.98305 
L 183.254641 158.827746 
L 209.562634 158.779732 
L 281.424219 158.778295 
L 281.424219 158.778295 
" style="fill:none;stroke:#ff0000;stroke-linecap:square;stroke-opacity:0.2;"/>
   </g>
   <g id="line2d_64">
    <path clip-path="url(#p7368290b21)" d="M 44.348438 237.495684 
L 59.080914 237.490393 
L 60.133233 237.379947 
L 61.185553 236.30572 
L 62.237873 231.06249 
L 63.290193 217.202302 
L 65.394832 176.436702 
L 66.447152 164.827246 
L 67.499471 160.273941 
L 68.551791 159.047981 
L 69.604111 158.814319 
L 73.81339 158.778296 
L 281.424219 158.778295 
L 281.424219 158.778295 
" style="fill:none;stroke:#0000ff;stroke-linecap:square;stroke-opacity:0.2;"/>
   </g>
   <g id="line2d_65">
    <path clip-path="url(#p7368290b21)" d="M 44.348438 238.369204 
L 82.231948 238.264971 
L 86.441226 238.006044 
L 89.598186 237.56843 
L 91.702825 237.090662 
L 93.807464 236.412354 
L 95.912104 235.487251 
L 98.016743 234.271287 
L 100.121383 232.726496 
L 102.226022 230.824775 
L 104.330662 228.551032 
L 106.435301 225.905339 
L 108.539941 222.903844 
L 110.64458 219.578362 
L 113.801539 214.086118 
L 118.010818 206.142636 
L 125.377056 192.063706 
L 128.534015 186.50199 
L 131.690974 181.444414 
L 133.795614 178.397 
L 135.900253 175.625428 
L 138.004893 173.133656 
L 140.109532 170.917996 
L 142.214172 168.968509 
L 144.318811 167.270434 
L 146.423451 165.805571 
L 148.52809 164.553545 
L 150.632729 163.492903 
L 153.789689 162.21364 
L 156.946648 161.24646 
L 160.103607 160.527748 
L 164.312886 159.861907 
L 168.522165 159.434974 
L 173.783763 159.119385 
L 181.150001 158.907931 
L 193.777838 158.800124 
L 237.975266 158.778312 
L 281.424219 158.778295 
L 281.424219 158.778295 
" style="fill:none;stroke:#ff0000;stroke-linecap:square;stroke-opacity:0.2;"/>
   </g>
   <g id="line2d_66">
    <path clip-path="url(#p7368290b21)" d="M 44.348438 238.3692 
L 52.766995 238.308529 
L 53.819315 238.119099 
L 54.871635 237.577131 
L 55.923954 236.337957 
L 56.976274 233.982543 
L 58.028594 230.147253 
L 59.080914 224.671558 
L 60.133233 217.68929 
L 64.342512 184.918255 
L 65.394832 178.237422 
L 66.447152 172.768651 
L 67.499471 168.507985 
L 68.551791 165.334512 
L 69.604111 163.065943 
L 70.656431 161.504201 
L 71.70875 160.465692 
L 72.76107 159.79687 
L 73.81339 159.378717 
L 75.918029 158.973607 
L 79.074988 158.809563 
L 88.545866 158.778351 
L 281.424219 158.778295 
L 281.424219 158.778295 
" style="fill:none;stroke:#0000ff;stroke-linecap:square;stroke-opacity:0.2;"/>
   </g>
   <g id="line2d_67">
    <path clip-path="url(#p7368290b21)" d="M 44.348438 238.369204 
L 58.028594 238.320627 
L 59.080914 238.194675 
L 60.133233 237.850277 
L 61.185553 237.058549 
L 62.237873 235.495684 
L 63.290193 232.799797 
L 64.342512 228.676064 
L 65.394832 223.0126 
L 66.447152 215.954618 
L 70.656431 183.508194 
L 71.70875 176.967451 
L 72.76107 171.652519 
L 73.81339 167.556428 
L 74.865709 164.551222 
L 75.918029 162.445136 
L 76.970349 161.030988 
L 78.022669 160.118719 
L 79.074988 159.551904 
L 80.127308 159.211937 
L 82.231948 158.903783 
L 85.388907 158.794485 
L 101.173703 158.778295 
L 281.424219 158.778295 
L 281.424219 158.778295 
" style="fill:none;stroke:#0000ff;stroke-linecap:square;stroke-opacity:0.2;"/>
   </g>
   <g id="patch_74">
    <path d="M 44.348438 242.34875 
L 44.348438 154.79875 
" style="fill:none;stroke:#000000;stroke-linecap:square;stroke-linejoin:miter;stroke-width:0.8;"/>
   </g>
   <g id="patch_75">
    <path d="M 257.935938 242.34875 
L 257.935938 154.79875 
" style="fill:none;stroke:#000000;stroke-linecap:square;stroke-linejoin:miter;stroke-width:0.8;"/>
   </g>
   <g id="patch_76">
    <path d="M 44.348438 242.34875 
L 257.935938 242.34875 
" style="fill:none;stroke:#000000;stroke-linecap:square;stroke-linejoin:miter;stroke-width:0.8;"/>
   </g>
   <g id="patch_77">
    <path d="M 44.348438 154.79875 
L 257.935938 154.79875 
" style="fill:none;stroke:#000000;stroke-linecap:square;stroke-linejoin:miter;stroke-width:0.8;"/>
   </g>
   <g id="legend_1">
    <g id="text_20">
     <!-- Sex -->
     <g transform="translate(209.652344 202.228437)scale(0.1 -0.1)">
      <use xlink:href="#NimbusSans-Regular-83"/>
      <use x="66.699997" xlink:href="#NimbusSans-Regular-101"/>
      <use x="122.299988" xlink:href="#NimbusSans-Regular-120"/>
     </g>
    </g>
    <g id="line2d_68">
     <path d="M 187.598438 213.19875 
L 207.598438 213.19875 
" style="fill:none;stroke:#ff0000;stroke-linecap:square;stroke-width:1.5;"/>
    </g>
    <g id="line2d_69"/>
    <g id="text_21">
     <!-- Male -->
     <defs>
      <path d="M 46.796875 0 
L 67.296875 61.09375 
L 67.296875 0 
L 76.09375 0 
L 76.09375 72.90625 
L 63.203125 72.90625 
L 42 9.40625 
L 20.40625 72.90625 
L 7.5 72.90625 
L 7.5 0 
L 16.296875 0 
L 16.296875 61.09375 
L 37 0 
z
" id="NimbusSans-Regular-77"/>
     </defs>
     <g transform="translate(215.598438 216.69875)scale(0.1 -0.1)">
      <use xlink:href="#NimbusSans-Regular-77"/>
      <use x="83.299988" xlink:href="#NimbusSans-Regular-97"/>
      <use x="138.899979" xlink:href="#NimbusSans-Regular-108"/>
      <use x="161.099976" xlink:href="#NimbusSans-Regular-101"/>
     </g>
    </g>
    <g id="line2d_70">
     <path d="M 187.598438 227.669062 
L 207.598438 227.669062 
" style="fill:none;stroke:#0000ff;stroke-linecap:square;stroke-width:1.5;"/>
    </g>
    <g id="line2d_71"/>
    <g id="text_22">
     <!-- Female -->
     <g transform="translate(215.598438 231.169062)scale(0.1 -0.1)">
      <use xlink:href="#NimbusSans-Regular-70"/>
      <use x="61.099991" xlink:href="#NimbusSans-Regular-101"/>
      <use x="116.699982" xlink:href="#NimbusSans-Regular-109"/>
      <use x="199.999969" xlink:href="#NimbusSans-Regular-97"/>
      <use x="255.59996" xlink:href="#NimbusSans-Regular-108"/>
      <use x="277.799957" xlink:href="#NimbusSans-Regular-101"/>
     </g>
    </g>
   </g>
  </g>
 </g>
 <defs>
  <clipPath id="p3a93c66ac2">
   <rect height="87.55" width="213.5875" x="44.348438" y="21.94875"/>
  </clipPath>
  <clipPath id="p7368290b21">
   <rect height="87.55" width="213.5875" x="44.348438" y="154.79875"/>
  </clipPath>
 </defs>
</svg>
