<?xml version="1.0" encoding="utf-8" standalone="no"?>
<!DOCTYPE svg PUBLIC "-//W3C//DTD SVG 1.1//EN"
  "http://www.w3.org/Graphics/SVG/1.1/DTD/svg11.dtd">
<!-- Created with matplotlib (https://matplotlib.org/) -->
<svg height="279.489375pt" version="1.1" viewBox="0 0 280.323438 279.489375" width="280.323438pt" xmlns="http://www.w3.org/2000/svg" xmlns:xlink="http://www.w3.org/1999/xlink">
 <defs>
  <style type="text/css">
*{stroke-linecap:butt;stroke-linejoin:round;}
  </style>
 </defs>
 <g id="figure_1">
  <g id="patch_1">
   <path d="M 0 279.489375 
L 280.323438 279.489375 
L 280.323438 0 
L 0 0 
z
" style="fill:none;"/>
  </g>
  <g id="axes_1">
   <g id="patch_2">
    <path d="M 44.348438 109.49875 
L 269.623438 109.49875 
L 269.623438 21.94875 
L 44.348438 21.94875 
z
" style="fill:#ffffff;"/>
   </g>
   <g id="patch_3">
    <path clip-path="url(#p31f6724a41)" d="M 54.58821 109.49875 
L 58.212909 109.49875 
L 58.212909 104.775348 
L 54.58821 104.775348 
z
"/>
   </g>
   <g id="patch_4">
    <path clip-path="url(#p31f6724a41)" d="M 58.212909 109.49875 
L 61.837607 109.49875 
L 61.837607 97.498755 
L 58.212909 97.498755 
z
"/>
   </g>
   <g id="patch_5">
    <path clip-path="url(#p31f6724a41)" d="M 61.837607 109.49875 
L 65.462305 109.49875 
L 65.462305 87.030675 
L 61.837607 87.030675 
z
"/>
   </g>
   <g id="patch_6">
    <path clip-path="url(#p31f6724a41)" d="M 65.462305 109.49875 
L 69.087003 109.49875 
L 69.087003 80.137061 
L 65.462305 80.137061 
z
"/>
   </g>
   <g id="patch_7">
    <path clip-path="url(#p31f6724a41)" d="M 69.087003 109.49875 
L 72.711702 109.49875 
L 72.711702 68.009407 
L 69.087003 68.009407 
z
"/>
   </g>
   <g id="patch_8">
    <path clip-path="url(#p31f6724a41)" d="M 72.711702 109.49875 
L 76.3364 109.49875 
L 76.3364 62.903027 
L 72.711702 62.903027 
z
"/>
   </g>
   <g id="patch_9">
    <path clip-path="url(#p31f6724a41)" d="M 76.3364 109.49875 
L 79.961098 109.49875 
L 79.961098 52.434946 
L 76.3364 52.434946 
z
"/>
   </g>
   <g id="patch_10">
    <path clip-path="url(#p31f6724a41)" d="M 79.961098 109.49875 
L 83.585797 109.49875 
L 83.585797 42.988142 
L 79.961098 42.988142 
z
"/>
   </g>
   <g id="patch_11">
    <path clip-path="url(#p31f6724a41)" d="M 83.585797 109.49875 
L 87.210495 109.49875 
L 87.210495 42.988142 
L 83.585797 42.988142 
z
"/>
   </g>
   <g id="patch_12">
    <path clip-path="url(#p31f6724a41)" d="M 87.210495 109.49875 
L 90.835193 109.49875 
L 90.835193 43.881759 
L 87.210495 43.881759 
z
"/>
   </g>
   <g id="patch_13">
    <path clip-path="url(#p31f6724a41)" d="M 90.835193 109.49875 
L 94.459892 109.49875 
L 94.459892 44.264737 
L 90.835193 44.264737 
z
"/>
   </g>
   <g id="patch_14">
    <path clip-path="url(#p31f6724a41)" d="M 94.459892 109.49875 
L 98.08459 109.49875 
L 98.08459 41.711547 
L 94.459892 41.711547 
z
"/>
   </g>
   <g id="patch_15">
    <path clip-path="url(#p31f6724a41)" d="M 98.08459 109.49875 
L 101.709288 109.49875 
L 101.709288 41.328568 
L 98.08459 41.328568 
z
"/>
   </g>
   <g id="patch_16">
    <path clip-path="url(#p31f6724a41)" d="M 101.709288 109.49875 
L 105.333987 109.49875 
L 105.333987 44.903035 
L 101.709288 44.903035 
z
"/>
   </g>
   <g id="patch_17">
    <path clip-path="url(#p31f6724a41)" d="M 105.333987 109.49875 
L 108.958685 109.49875 
L 108.958685 46.17963 
L 105.333987 46.17963 
z
"/>
   </g>
   <g id="patch_18">
    <path clip-path="url(#p31f6724a41)" d="M 108.958685 109.49875 
L 112.583383 109.49875 
L 112.583383 47.456225 
L 108.958685 47.456225 
z
"/>
   </g>
   <g id="patch_19">
    <path clip-path="url(#p31f6724a41)" d="M 112.583383 109.49875 
L 116.208082 109.49875 
L 116.208082 45.030694 
L 112.583383 45.030694 
z
"/>
   </g>
   <g id="patch_20">
    <path clip-path="url(#p31f6724a41)" d="M 116.208082 109.49875 
L 119.83278 109.49875 
L 119.83278 52.179627 
L 116.208082 52.179627 
z
"/>
   </g>
   <g id="patch_21">
    <path clip-path="url(#p31f6724a41)" d="M 119.83278 109.49875 
L 123.457478 109.49875 
L 123.457478 59.32856 
L 119.83278 59.32856 
z
"/>
   </g>
   <g id="patch_22">
    <path clip-path="url(#p31f6724a41)" d="M 123.457478 109.49875 
L 127.082176 109.49875 
L 127.082176 62.264729 
L 123.457478 62.264729 
z
"/>
   </g>
   <g id="patch_23">
    <path clip-path="url(#p31f6724a41)" d="M 127.082176 109.49875 
L 130.706875 109.49875 
L 130.706875 64.179622 
L 127.082176 64.179622 
z
"/>
   </g>
   <g id="patch_24">
    <path clip-path="url(#p31f6724a41)" d="M 130.706875 109.49875 
L 134.331573 109.49875 
L 134.331573 67.498769 
L 130.706875 67.498769 
z
"/>
   </g>
   <g id="patch_25">
    <path clip-path="url(#p31f6724a41)" d="M 134.331573 109.49875 
L 137.956271 109.49875 
L 137.956271 74.647702 
L 134.331573 74.647702 
z
"/>
   </g>
   <g id="patch_26">
    <path clip-path="url(#p31f6724a41)" d="M 137.956271 109.49875 
L 141.58097 109.49875 
L 141.58097 85.115782 
L 137.956271 85.115782 
z
"/>
   </g>
   <g id="patch_27">
    <path clip-path="url(#p31f6724a41)" d="M 141.58097 109.49875 
L 145.205668 109.49875 
L 145.205668 85.75408 
L 141.58097 85.75408 
z
"/>
   </g>
   <g id="patch_28">
    <path clip-path="url(#p31f6724a41)" d="M 145.205668 109.49875 
L 148.830366 109.49875 
L 148.830366 87.541313 
L 145.205668 87.541313 
z
"/>
   </g>
   <g id="patch_29">
    <path clip-path="url(#p31f6724a41)" d="M 148.830366 109.49875 
L 152.455065 109.49875 
L 152.455065 92.009396 
L 148.830366 92.009396 
z
"/>
   </g>
   <g id="patch_30">
    <path clip-path="url(#p31f6724a41)" d="M 152.455065 109.49875 
L 156.079763 109.49875 
L 156.079763 96.732798 
L 152.455065 96.732798 
z
"/>
   </g>
   <g id="patch_31">
    <path clip-path="url(#p31f6724a41)" d="M 156.079763 109.49875 
L 159.704461 109.49875 
L 159.704461 97.371096 
L 156.079763 97.371096 
z
"/>
   </g>
   <g id="patch_32">
    <path clip-path="url(#p31f6724a41)" d="M 159.704461 109.49875 
L 163.32916 109.49875 
L 163.32916 100.817903 
L 159.704461 100.817903 
z
"/>
   </g>
   <g id="patch_33">
    <path clip-path="url(#p31f6724a41)" d="M 163.32916 109.49875 
L 166.953858 109.49875 
L 166.953858 101.4562 
L 163.32916 101.4562 
z
"/>
   </g>
   <g id="patch_34">
    <path clip-path="url(#p31f6724a41)" d="M 166.953858 109.49875 
L 170.578556 109.49875 
L 170.578556 104.13705 
L 166.953858 104.13705 
z
"/>
   </g>
   <g id="patch_35">
    <path clip-path="url(#p31f6724a41)" d="M 170.578556 109.49875 
L 174.203254 109.49875 
L 174.203254 104.009391 
L 170.578556 104.009391 
z
"/>
   </g>
   <g id="patch_36">
    <path clip-path="url(#p31f6724a41)" d="M 174.203254 109.49875 
L 177.827953 109.49875 
L 177.827953 106.179603 
L 174.203254 106.179603 
z
"/>
   </g>
   <g id="patch_37">
    <path clip-path="url(#p31f6724a41)" d="M 177.827953 109.49875 
L 181.452651 109.49875 
L 181.452651 105.541305 
L 177.827953 105.541305 
z
"/>
   </g>
   <g id="patch_38">
    <path clip-path="url(#p31f6724a41)" d="M 181.452651 109.49875 
L 185.077349 109.49875 
L 185.077349 106.434922 
L 181.452651 106.434922 
z
"/>
   </g>
   <g id="patch_39">
    <path clip-path="url(#p31f6724a41)" d="M 185.077349 109.49875 
L 188.702048 109.49875 
L 188.702048 107.966836 
L 185.077349 107.966836 
z
"/>
   </g>
   <g id="patch_40">
    <path clip-path="url(#p31f6724a41)" d="M 188.702048 109.49875 
L 192.326746 109.49875 
L 192.326746 108.094495 
L 188.702048 108.094495 
z
"/>
   </g>
   <g id="patch_41">
    <path clip-path="url(#p31f6724a41)" d="M 192.326746 109.49875 
L 195.951444 109.49875 
L 195.951444 108.732793 
L 192.326746 108.732793 
z
"/>
   </g>
   <g id="patch_42">
    <path clip-path="url(#p31f6724a41)" d="M 195.951444 109.49875 
L 199.576143 109.49875 
L 199.576143 108.605133 
L 195.951444 108.605133 
z
"/>
   </g>
   <g id="patch_43">
    <path clip-path="url(#p31f6724a41)" d="M 199.576143 109.49875 
L 203.200841 109.49875 
L 203.200841 108.860452 
L 199.576143 108.860452 
z
"/>
   </g>
   <g id="patch_44">
    <path clip-path="url(#p31f6724a41)" d="M 203.200841 109.49875 
L 206.825539 109.49875 
L 206.825539 109.115771 
L 203.200841 109.115771 
z
"/>
   </g>
   <g id="patch_45">
    <path clip-path="url(#p31f6724a41)" d="M 206.825539 109.49875 
L 210.450238 109.49875 
L 210.450238 108.860452 
L 206.825539 108.860452 
z
"/>
   </g>
   <g id="patch_46">
    <path clip-path="url(#p31f6724a41)" d="M 210.450238 109.49875 
L 214.074936 109.49875 
L 214.074936 109.115771 
L 210.450238 109.115771 
z
"/>
   </g>
   <g id="patch_47">
    <path clip-path="url(#p31f6724a41)" d="M 214.074936 109.49875 
L 217.699634 109.49875 
L 217.699634 109.243431 
L 214.074936 109.243431 
z
"/>
   </g>
   <g id="patch_48">
    <path clip-path="url(#p31f6724a41)" d="M 217.699634 109.49875 
L 221.324333 109.49875 
L 221.324333 109.243431 
L 217.699634 109.243431 
z
"/>
   </g>
   <g id="patch_49">
    <path clip-path="url(#p31f6724a41)" d="M 221.324333 109.49875 
L 224.949031 109.49875 
L 224.949031 109.243431 
L 221.324333 109.243431 
z
"/>
   </g>
   <g id="patch_50">
    <path clip-path="url(#p31f6724a41)" d="M 224.949031 109.49875 
L 228.573729 109.49875 
L 228.573729 109.49875 
L 224.949031 109.49875 
z
"/>
   </g>
   <g id="patch_51">
    <path clip-path="url(#p31f6724a41)" d="M 228.573729 109.49875 
L 232.198427 109.49875 
L 232.198427 109.37109 
L 228.573729 109.37109 
z
"/>
   </g>
   <g id="patch_52">
    <path clip-path="url(#p31f6724a41)" d="M 232.198427 109.49875 
L 235.823126 109.49875 
L 235.823126 109.37109 
L 232.198427 109.37109 
z
"/>
   </g>
   <g id="patch_53">
    <path clip-path="url(#p31f6724a41)" d="M 235.823126 109.49875 
L 239.447824 109.49875 
L 239.447824 109.49875 
L 235.823126 109.49875 
z
"/>
   </g>
   <g id="patch_54">
    <path clip-path="url(#p31f6724a41)" d="M 239.447824 109.49875 
L 243.072522 109.49875 
L 243.072522 109.243431 
L 239.447824 109.243431 
z
"/>
   </g>
   <g id="patch_55">
    <path clip-path="url(#p31f6724a41)" d="M 243.072522 109.49875 
L 246.697221 109.49875 
L 246.697221 109.49875 
L 243.072522 109.49875 
z
"/>
   </g>
   <g id="patch_56">
    <path clip-path="url(#p31f6724a41)" d="M 246.697221 109.49875 
L 250.321919 109.49875 
L 250.321919 109.49875 
L 246.697221 109.49875 
z
"/>
   </g>
   <g id="patch_57">
    <path clip-path="url(#p31f6724a41)" d="M 250.321919 109.49875 
L 253.946617 109.49875 
L 253.946617 109.49875 
L 250.321919 109.49875 
z
"/>
   </g>
   <g id="patch_58">
    <path clip-path="url(#p31f6724a41)" d="M 253.946617 109.49875 
L 257.571316 109.49875 
L 257.571316 109.37109 
L 253.946617 109.37109 
z
"/>
   </g>
   <g id="matplotlib.axis_1">
    <g id="xtick_1">
     <g id="line2d_1">
      <defs>
       <path d="M 0 0 
L 0 3.5 
" id="m57f88a681b" style="stroke:#000000;stroke-width:0.8;"/>
      </defs>
      <g>
       <use style="stroke:#000000;stroke-width:0.8;" x="54.58821" xlink:href="#m57f88a681b" y="109.49875"/>
      </g>
     </g>
     <g id="text_1">
      <!-- 0 -->
      <defs>
       <path d="M 27.5 72.296875 
C 20.90625 72.296875 14.90625 69.296875 11.203125 64.40625 
C 6.59375 58 4.296875 48.40625 4.296875 35 
C 4.296875 10.59375 12.296875 -2.296875 27.5 -2.296875 
C 42.5 -2.296875 50.703125 10.59375 50.703125 34.40625 
C 50.703125 48.40625 48.5 57.796875 43.796875 64.40625 
C 40.09375 69.40625 34.203125 72.296875 27.5 72.296875 
z
M 27.5 64.5 
C 37 64.5 41.703125 54.796875 41.703125 35.203125 
C 41.703125 14.59375 37.09375 5 27.296875 5 
C 18 5 13.296875 15 13.296875 34.90625 
C 13.296875 54.796875 18 64.5 27.5 64.5 
z
" id="NimbusSans-Regular-48"/>
      </defs>
      <g transform="translate(51.808523 123.789375)scale(0.1 -0.1)">
       <use xlink:href="#NimbusSans-Regular-48"/>
      </g>
     </g>
    </g>
    <g id="xtick_2">
     <g id="line2d_2">
      <g>
       <use style="stroke:#000000;stroke-width:0.8;" x="90.835193" xlink:href="#m57f88a681b" y="109.49875"/>
      </g>
     </g>
     <g id="text_2">
      <!-- 10 -->
      <defs>
       <path d="M 25.90625 51.5 
L 25.90625 0 
L 34.703125 0 
L 34.703125 72.296875 
L 28.90625 72.296875 
C 25.796875 61.203125 23.796875 59.703125 10.203125 57.90625 
L 10.203125 51.5 
z
" id="NimbusSans-Regular-49"/>
      </defs>
      <g transform="translate(85.275818 123.789375)scale(0.1 -0.1)">
       <use xlink:href="#NimbusSans-Regular-49"/>
       <use x="55.599991" xlink:href="#NimbusSans-Regular-48"/>
      </g>
     </g>
    </g>
    <g id="xtick_3">
     <g id="line2d_3">
      <g>
       <use style="stroke:#000000;stroke-width:0.8;" x="127.082176" xlink:href="#m57f88a681b" y="109.49875"/>
      </g>
     </g>
     <g id="text_3">
      <!-- 20 -->
      <defs>
       <path d="M 50.59375 8.703125 
L 13.296875 8.703125 
C 14.203125 14.703125 17.40625 18.5 26.09375 23.796875 
L 36.09375 29.40625 
C 46 34.90625 51.09375 42.296875 51.09375 51.203125 
C 51.09375 57.203125 48.703125 62.796875 44.5 66.703125 
C 40.296875 70.5 35.09375 72.296875 28.40625 72.296875 
C 19.40625 72.296875 12.703125 69.09375 8.796875 62.90625 
C 6.296875 59.09375 5.203125 54.59375 5 47.296875 
L 13.796875 47.296875 
C 14.09375 52.203125 14.703125 55.09375 15.90625 57.5 
C 18.203125 61.90625 22.796875 64.59375 28.09375 64.59375 
C 36.09375 64.59375 42.09375 58.796875 42.09375 51 
C 42.09375 45.203125 38.796875 40.203125 32.5 36.59375 
L 23.296875 31.203125 
C 8.5 22.703125 4.203125 15.90625 3.40625 0.09375 
L 50.59375 0.09375 
z
" id="NimbusSans-Regular-50"/>
      </defs>
      <g transform="translate(121.522801 123.789375)scale(0.1 -0.1)">
       <use xlink:href="#NimbusSans-Regular-50"/>
       <use x="55.599991" xlink:href="#NimbusSans-Regular-48"/>
      </g>
     </g>
    </g>
    <g id="xtick_4">
     <g id="line2d_4">
      <g>
       <use style="stroke:#000000;stroke-width:0.8;" x="163.32916" xlink:href="#m57f88a681b" y="109.49875"/>
      </g>
     </g>
     <g id="text_4">
      <!-- 30 -->
      <defs>
       <path d="M 22.09375 33.296875 
L 23.203125 33.296875 
L 26.90625 33.296875 
C 36.5 33.296875 41.59375 28.796875 41.59375 20.09375 
C 41.59375 11 36.09375 5.5 27 5.5 
C 17.296875 5.5 12.59375 10.40625 12 21 
L 3.203125 21 
C 3.59375 15.203125 4.59375 11.40625 6.296875 8.203125 
C 10 1.203125 16.90625 -2.296875 26.59375 -2.296875 
C 41.203125 -2.296875 50.59375 6.5 50.59375 20.203125 
C 50.59375 29.40625 47.09375 34.40625 38.59375 37.40625 
C 45.203125 40.09375 48.5 45.09375 48.5 52.40625 
C 48.5 64.796875 40.40625 72.296875 26.90625 72.296875 
C 12.59375 72.296875 5 64.296875 4.703125 49 
L 13.5 49 
C 13.59375 53.40625 14 55.90625 15.09375 58.09375 
C 17.09375 62.203125 21.5 64.59375 27 64.59375 
C 34.796875 64.59375 39.5 59.90625 39.5 52.09375 
C 39.5 47 37.703125 43.90625 33.796875 42.203125 
C 31.40625 41.203125 28.203125 40.796875 22.09375 40.703125 
z
" id="NimbusSans-Regular-51"/>
      </defs>
      <g transform="translate(157.769785 123.789375)scale(0.1 -0.1)">
       <use xlink:href="#NimbusSans-Regular-51"/>
       <use x="55.599991" xlink:href="#NimbusSans-Regular-48"/>
      </g>
     </g>
    </g>
    <g id="xtick_5">
     <g id="line2d_5">
      <g>
       <use style="stroke:#000000;stroke-width:0.8;" x="199.576143" xlink:href="#m57f88a681b" y="109.49875"/>
      </g>
     </g>
     <g id="text_5">
      <!-- 40 -->
      <defs>
       <path d="M 32.703125 17.5 
L 32.703125 0 
L 41.5 0 
L 41.5 17.5 
L 52 17.5 
L 52 25.40625 
L 41.5 25.40625 
L 41.5 72.296875 
L 35 72.296875 
L 2.796875 26.796875 
L 2.796875 17.5 
z
M 32.703125 25.40625 
L 10.5 25.40625 
L 32.703125 57.296875 
z
" id="NimbusSans-Regular-52"/>
      </defs>
      <g transform="translate(194.016768 123.789375)scale(0.1 -0.1)">
       <use xlink:href="#NimbusSans-Regular-52"/>
       <use x="55.599991" xlink:href="#NimbusSans-Regular-48"/>
      </g>
     </g>
    </g>
    <g id="xtick_6">
     <g id="line2d_6">
      <g>
       <use style="stroke:#000000;stroke-width:0.8;" x="235.823126" xlink:href="#m57f88a681b" y="109.49875"/>
      </g>
     </g>
     <g id="text_6">
      <!-- 50 -->
      <defs>
       <path d="M 47.59375 70.90625 
L 11 70.90625 
L 5.703125 32.296875 
L 13.796875 32.296875 
C 17.90625 37.203125 21.296875 38.90625 26.90625 38.90625 
C 36.40625 38.90625 42.296875 32.40625 42.296875 21.90625 
C 42.296875 11.703125 36.40625 5.5 26.796875 5.5 
C 19.09375 5.5 14.40625 9.40625 12.296875 17.40625 
L 3.5 17.40625 
C 4.703125 11.59375 5.703125 8.796875 7.796875 6.203125 
C 11.796875 0.796875 19 -2.296875 27 -2.296875 
C 41.296875 -2.296875 51.296875 8.09375 51.296875 23.09375 
C 51.296875 37.09375 42 46.703125 28.40625 46.703125 
C 23.40625 46.703125 19.40625 45.40625 15.296875 42.40625 
L 18.09375 62.203125 
L 47.59375 62.203125 
z
" id="NimbusSans-Regular-53"/>
      </defs>
      <g transform="translate(230.263751 123.789375)scale(0.1 -0.1)">
       <use xlink:href="#NimbusSans-Regular-53"/>
       <use x="55.599991" xlink:href="#NimbusSans-Regular-48"/>
      </g>
     </g>
    </g>
    <g id="text_7">
     <!-- Number of molecules -->
     <defs>
      <path d="M 64.59375 72.90625 
L 55.796875 72.90625 
L 55.796875 13.296875 
L 17.703125 72.90625 
L 7.59375 72.90625 
L 7.59375 0 
L 16.40625 0 
L 16.40625 59.09375 
L 54.09375 0 
L 64.59375 0 
z
" id="NimbusSans-Regular-78"/>
      <path d="M 48.203125 0 
L 48.203125 52.40625 
L 39.90625 52.40625 
L 39.90625 22.703125 
C 39.90625 12 34.296875 5 25.59375 5 
C 19 5 14.796875 9 14.796875 15.296875 
L 14.796875 52.40625 
L 6.5 52.40625 
L 6.5 12 
C 6.5 3.296875 13 -2.296875 23.203125 -2.296875 
C 30.90625 -2.296875 35.796875 0.40625 40.703125 7.296875 
L 40.703125 0 
z
" id="NimbusSans-Regular-117"/>
      <path d="M 7 52.40625 
L 7 0 
L 15.40625 0 
L 15.40625 32.90625 
C 15.40625 40.5 20.90625 46.59375 27.703125 46.59375 
C 33.90625 46.59375 37.40625 42.796875 37.40625 36.09375 
L 37.40625 0 
L 45.796875 0 
L 45.796875 32.90625 
C 45.796875 40.5 51.296875 46.59375 58.09375 46.59375 
C 64.203125 46.59375 67.796875 42.703125 67.796875 36.09375 
L 67.796875 0 
L 76.203125 0 
L 76.203125 39.296875 
C 76.203125 48.703125 70.796875 53.90625 61 53.90625 
C 54 53.90625 49.796875 51.796875 44.90625 45.90625 
C 41.796875 51.5 37.59375 53.90625 30.796875 53.90625 
C 23.796875 53.90625 19.09375 51.296875 14.703125 45 
L 14.703125 52.40625 
z
" id="NimbusSans-Regular-109"/>
      <path d="M 5.40625 72.90625 
L 5.40625 0 
L 12.90625 0 
L 12.90625 6.703125 
C 16.90625 0.59375 22.203125 -2.296875 29.5 -2.296875 
C 43.296875 -2.296875 52.296875 9 52.296875 26.40625 
C 52.296875 43.40625 43.796875 53.90625 29.90625 53.90625 
C 22.703125 53.90625 17.59375 51.203125 13.703125 45.296875 
L 13.703125 72.90625 
z
M 28.296875 46.09375 
C 37.59375 46.09375 43.59375 38 43.59375 25.5 
C 43.59375 13.59375 37.40625 5.5 28.296875 5.5 
C 19.40625 5.5 13.703125 13.5 13.703125 25.796875 
C 13.703125 38.09375 19.40625 46.09375 28.296875 46.09375 
z
" id="NimbusSans-Regular-98"/>
      <path d="M 51.296875 23.40625 
C 51.296875 31.40625 50.703125 36.203125 49.203125 40.09375 
C 45.796875 48.703125 37.796875 53.90625 28 53.90625 
C 13.40625 53.90625 4 42.796875 4 25.5 
C 4 8.203125 13 -2.296875 27.796875 -2.296875 
C 39.796875 -2.296875 48.09375 4.5 50.203125 15.90625 
L 41.796875 15.90625 
C 39.5 9 34.796875 5.40625 28.09375 5.40625 
C 22.796875 5.40625 18.296875 7.796875 15.5 12.203125 
C 13.5 15.203125 12.796875 18.203125 12.703125 23.40625 
z
M 12.90625 30.203125 
C 13.59375 39.90625 19.5 46.203125 27.90625 46.203125 
C 36.40625 46.203125 42.296875 39.59375 42.296875 30.203125 
z
" id="NimbusSans-Regular-101"/>
      <path d="M 6.90625 52.40625 
L 6.90625 0 
L 15.296875 0 
L 15.296875 27.203125 
C 15.40625 39.796875 20.59375 45.40625 32.09375 45.09375 
L 32.09375 53.59375 
C 30.703125 53.796875 29.90625 53.90625 28.90625 53.90625 
C 23.5 53.90625 19.40625 50.703125 14.59375 42.90625 
L 14.59375 52.40625 
z
" id="NimbusSans-Regular-114"/>
      <path id="NimbusSans-Regular-32"/>
      <path d="M 27.203125 53.90625 
C 12.40625 53.90625 3.59375 43.40625 3.59375 25.796875 
C 3.59375 8.09375 12.40625 -2.296875 27.296875 -2.296875 
C 42.09375 -2.296875 51 8.203125 51 25.40625 
C 51 43.59375 42.40625 53.90625 27.203125 53.90625 
z
M 27.296875 46.203125 
C 36.703125 46.203125 42.296875 38.5 42.296875 25.5 
C 42.296875 13.09375 36.5 5.40625 27.296875 5.40625 
C 18 5.40625 12.296875 13.09375 12.296875 25.796875 
C 12.296875 38.5 18 46.203125 27.296875 46.203125 
z
" id="NimbusSans-Regular-111"/>
      <path d="M 25.796875 52.40625 
L 17.09375 52.40625 
L 17.09375 60.59375 
C 17.09375 64.09375 19 65.90625 22.90625 65.90625 
C 23.59375 65.90625 23.90625 65.90625 25.796875 65.796875 
L 25.796875 72.703125 
C 23.90625 73.09375 22.796875 73.203125 21.09375 73.203125 
C 13.40625 73.203125 8.796875 68.796875 8.796875 61.296875 
L 8.796875 52.40625 
L 1.796875 52.40625 
L 1.796875 45.59375 
L 8.796875 45.59375 
L 8.796875 0 
L 17.09375 0 
L 17.09375 45.59375 
L 25.796875 45.59375 
z
" id="NimbusSans-Regular-102"/>
      <path d="M 15.203125 72.90625 
L 6.796875 72.90625 
L 6.796875 0 
L 15.203125 0 
z
" id="NimbusSans-Regular-108"/>
      <path d="M 47.09375 34.796875 
C 46.703125 39.90625 45.59375 43.203125 43.59375 46.09375 
C 40 51 33.703125 53.90625 26.40625 53.90625 
C 12.203125 53.90625 3.09375 42.703125 3.09375 25.296875 
C 3.09375 8.40625 12.09375 -2.296875 26.296875 -2.296875 
C 38.796875 -2.296875 46.703125 5.203125 47.703125 18 
L 39.296875 18 
C 37.90625 9.59375 33.59375 5.40625 26.5 5.40625 
C 17.296875 5.40625 11.796875 12.90625 11.796875 25.296875 
C 11.796875 38.40625 17.203125 46.203125 26.296875 46.203125 
C 33.296875 46.203125 37.703125 42.09375 38.703125 34.796875 
z
" id="NimbusSans-Regular-99"/>
      <path d="M 43.796875 37.796875 
C 43.703125 48.09375 36.90625 53.90625 24.796875 53.90625 
C 12.59375 53.90625 4.703125 47.59375 4.703125 37.90625 
C 4.703125 29.703125 8.90625 25.796875 21.296875 22.796875 
L 29.09375 20.90625 
C 34.90625 19.5 37.203125 17.40625 37.203125 13.703125 
C 37.203125 8.703125 32.296875 5.40625 25 5.40625 
C 20.5 5.40625 16.703125 6.703125 14.59375 8.90625 
C 13.296875 10.40625 12.703125 11.90625 12.203125 15.59375 
L 3.40625 15.59375 
C 3.796875 3.5 10.59375 -2.296875 24.296875 -2.296875 
C 37.5 -2.296875 45.90625 4.203125 45.90625 14.296875 
C 45.90625 22.09375 41.5 26.40625 31.09375 28.90625 
L 23.09375 30.796875 
C 16.296875 32.40625 13.40625 34.59375 13.40625 38.296875 
C 13.40625 43.203125 17.703125 46.203125 24.5 46.203125 
C 31.203125 46.203125 34.796875 43.296875 35 37.796875 
z
" id="NimbusSans-Regular-115"/>
     </defs>
     <g transform="translate(109.753906 137.259687)scale(0.1 -0.1)">
      <use xlink:href="#NimbusSans-Regular-78"/>
      <use x="72.199982" xlink:href="#NimbusSans-Regular-117"/>
      <use x="127.799973" xlink:href="#NimbusSans-Regular-109"/>
      <use x="211.09996" xlink:href="#NimbusSans-Regular-98"/>
      <use x="266.699951" xlink:href="#NimbusSans-Regular-101"/>
      <use x="322.299942" xlink:href="#NimbusSans-Regular-114"/>
      <use x="355.59993" xlink:href="#NimbusSans-Regular-32"/>
      <use x="383.399918" xlink:href="#NimbusSans-Regular-111"/>
      <use x="438.999908" xlink:href="#NimbusSans-Regular-102"/>
      <use x="466.799896" xlink:href="#NimbusSans-Regular-32"/>
      <use x="494.599884" xlink:href="#NimbusSans-Regular-109"/>
      <use x="577.899872" xlink:href="#NimbusSans-Regular-111"/>
      <use x="633.499863" xlink:href="#NimbusSans-Regular-108"/>
      <use x="655.69986" xlink:href="#NimbusSans-Regular-101"/>
      <use x="711.29985" xlink:href="#NimbusSans-Regular-99"/>
      <use x="761.299835" xlink:href="#NimbusSans-Regular-117"/>
      <use x="816.899826" xlink:href="#NimbusSans-Regular-108"/>
      <use x="839.099823" xlink:href="#NimbusSans-Regular-101"/>
      <use x="894.699814" xlink:href="#NimbusSans-Regular-115"/>
     </g>
    </g>
   </g>
   <g id="matplotlib.axis_2">
    <g id="ytick_1">
     <g id="line2d_7">
      <defs>
       <path d="M 0 0 
L -3.5 0 
" id="md2ddb45f22" style="stroke:#000000;stroke-width:0.8;"/>
      </defs>
      <g>
       <use style="stroke:#000000;stroke-width:0.8;" x="44.348438" xlink:href="#md2ddb45f22" y="109.49875"/>
      </g>
     </g>
     <g id="text_8">
      <!-- 0 -->
      <g transform="translate(31.789063 113.144062)scale(0.1 -0.1)">
       <use xlink:href="#NimbusSans-Regular-48"/>
      </g>
     </g>
    </g>
    <g id="ytick_2">
     <g id="line2d_8">
      <g>
       <use style="stroke:#000000;stroke-width:0.8;" x="44.348438" xlink:href="#md2ddb45f22" y="83.966847"/>
      </g>
     </g>
     <g id="text_9">
      <!-- 200 -->
      <g transform="translate(20.670313 87.612159)scale(0.1 -0.1)">
       <use xlink:href="#NimbusSans-Regular-50"/>
       <use x="55.599991" xlink:href="#NimbusSans-Regular-48"/>
       <use x="111.199982" xlink:href="#NimbusSans-Regular-48"/>
      </g>
     </g>
    </g>
    <g id="ytick_3">
     <g id="line2d_9">
      <g>
       <use style="stroke:#000000;stroke-width:0.8;" x="44.348438" xlink:href="#md2ddb45f22" y="58.434944"/>
      </g>
     </g>
     <g id="text_10">
      <!-- 400 -->
      <g transform="translate(20.670313 62.080256)scale(0.1 -0.1)">
       <use xlink:href="#NimbusSans-Regular-52"/>
       <use x="55.599991" xlink:href="#NimbusSans-Regular-48"/>
       <use x="111.199982" xlink:href="#NimbusSans-Regular-48"/>
      </g>
     </g>
    </g>
    <g id="ytick_4">
     <g id="line2d_10">
      <g>
       <use style="stroke:#000000;stroke-width:0.8;" x="44.348438" xlink:href="#md2ddb45f22" y="32.90304"/>
      </g>
     </g>
     <g id="text_11">
      <!-- 600 -->
      <defs>
       <path d="M 49.796875 53.5 
C 48.09375 65.296875 40.5 72.296875 29.703125 72.296875 
C 21.90625 72.296875 14.90625 68.5 10.703125 62 
C 6.203125 54.90625 4.296875 46.09375 4.296875 33 
C 4.296875 20.796875 6 13.09375 10.296875 6.703125 
C 14.09375 0.796875 20.296875 -2.296875 28.09375 -2.296875 
C 41.59375 -2.296875 51.296875 7.796875 51.296875 21.90625 
C 51.296875 35.203125 42.296875 44.59375 29.59375 44.59375 
C 22.59375 44.59375 17.09375 42 13.296875 36.703125 
C 13.40625 54.59375 19 64.5 29.09375 64.5 
C 35.296875 64.5 39.59375 60.5 41 53.5 
z
M 28.5 36.796875 
C 37 36.796875 42.296875 30.796875 42.296875 21.203125 
C 42.296875 12.09375 36.296875 5.5 28.203125 5.5 
C 20 5.5 13.796875 12.40625 13.796875 21.59375 
C 13.796875 30.59375 19.796875 36.796875 28.5 36.796875 
z
" id="NimbusSans-Regular-54"/>
      </defs>
      <g transform="translate(20.670313 36.548353)scale(0.1 -0.1)">
       <use xlink:href="#NimbusSans-Regular-54"/>
       <use x="55.599991" xlink:href="#NimbusSans-Regular-48"/>
       <use x="111.199982" xlink:href="#NimbusSans-Regular-48"/>
      </g>
     </g>
    </g>
    <g id="text_12">
     <!-- Number of cells -->
     <g transform="translate(14.490625 100.451875)rotate(-90)scale(0.1 -0.1)">
      <use xlink:href="#NimbusSans-Regular-78"/>
      <use x="72.199982" xlink:href="#NimbusSans-Regular-117"/>
      <use x="127.799973" xlink:href="#NimbusSans-Regular-109"/>
      <use x="211.09996" xlink:href="#NimbusSans-Regular-98"/>
      <use x="266.699951" xlink:href="#NimbusSans-Regular-101"/>
      <use x="322.299942" xlink:href="#NimbusSans-Regular-114"/>
      <use x="355.59993" xlink:href="#NimbusSans-Regular-32"/>
      <use x="383.399918" xlink:href="#NimbusSans-Regular-111"/>
      <use x="438.999908" xlink:href="#NimbusSans-Regular-102"/>
      <use x="466.799896" xlink:href="#NimbusSans-Regular-32"/>
      <use x="494.599884" xlink:href="#NimbusSans-Regular-99"/>
      <use x="544.599869" xlink:href="#NimbusSans-Regular-101"/>
      <use x="600.19986" xlink:href="#NimbusSans-Regular-108"/>
      <use x="622.399857" xlink:href="#NimbusSans-Regular-108"/>
      <use x="644.599854" xlink:href="#NimbusSans-Regular-115"/>
     </g>
    </g>
   </g>
   <g id="line2d_11">
    <path clip-path="url(#p31f6724a41)" d="M 56.400559 108.334366 
L 60.025258 104.658805 
L 63.649956 97.820256 
L 67.274654 88.059369 
L 70.899353 76.305303 
L 74.524051 63.832296 
L 78.148749 51.930017 
L 81.773448 41.665876 
L 85.398146 33.761678 
L 89.022844 28.569877 
L 92.647542 26.117798 
L 96.272241 26.186753 
L 99.896939 28.399958 
L 103.521637 32.302438 
L 107.146336 37.424506 
L 110.771034 43.326452 
L 114.395732 49.625792 
L 118.020431 56.010246 
L 121.645129 62.240191 
L 125.269827 68.144094 
L 128.894526 73.609885 
L 132.519224 78.574501 
L 136.143922 83.01319 
L 139.768621 86.929561 
L 143.393319 90.346942 
L 147.018017 93.30126 
L 150.642715 95.835458 
L 154.267414 97.99531 
L 157.892112 99.82645 
L 161.51681 101.372387 
L 165.141509 102.673286 
L 168.766207 103.765342 
L 172.390905 104.680552 
L 176.015604 105.446783 
L 179.640302 106.088012 
L 183.265 106.624666 
L 186.889699 107.074014 
L 190.514397 107.450566 
L 194.139095 107.766454 
L 197.763793 108.031785 
L 201.388492 108.25496 
L 205.01319 108.442954 
L 208.637888 108.601546 
L 212.262587 108.735532 
L 215.887285 108.848892 
L 219.511983 108.944931 
L 223.136682 109.026398 
L 226.76138 109.095586 
L 230.386078 109.15441 
L 234.010777 109.20447 
L 237.635475 109.247109 
L 241.260173 109.283458 
L 244.884872 109.314465 
L 248.50957 109.340933 
L 252.134268 109.363539 
L 255.758966 109.382858 
L 259.383665 109.399374 
" style="fill:none;stroke:#1b9e77;stroke-linecap:square;"/>
   </g>
   <g id="line2d_12">
    <path clip-path="url(#p31f6724a41)" d="M 56.400559 107.307982 
L 60.025258 104.732147 
L 63.649956 97.967098 
L 67.274654 88.279838 
L 70.899353 76.578905 
L 74.524051 64.125994 
L 78.148749 52.20839 
L 81.773448 41.899374 
L 85.398146 33.931238 
L 89.022844 28.667989 
L 92.647542 26.147003 
L 96.272241 26.156818 
L 99.896939 28.324719 
L 103.521637 32.197009 
L 107.146336 37.303172 
L 110.771034 43.201338 
L 114.395732 49.506217 
L 118.020431 55.902621 
L 121.645129 62.148269 
L 125.269827 68.069433 
L 128.894526 73.552375 
L 132.519224 78.532888 
L 136.143922 82.985531 
L 139.768621 86.913594 
L 143.393319 90.340355 
L 147.018017 93.301875 
L 150.642715 95.84134 
L 154.267414 98.004822 
L 157.892112 99.838262 
L 161.51681 101.385458 
L 165.141509 102.686837 
L 168.766207 103.77881 
L 172.390905 104.693554 
L 176.015604 105.459075 
L 179.640302 106.099456 
L 183.265 106.6352 
L 186.889699 107.083631 
L 190.514397 107.459292 
L 194.139095 107.774338 
L 197.763793 108.038888 
L 201.388492 108.261348 
L 205.01319 108.448691 
L 208.637888 108.606696 
L 212.262587 108.740155 
L 215.887285 108.853041 
L 219.511983 108.948654 
L 223.136682 109.02974 
L 226.76138 109.098586 
L 230.386078 109.157102 
L 234.010777 109.206885 
L 237.635475 109.249276 
L 241.260173 109.285401 
L 244.884872 109.316206 
L 248.50957 109.342492 
L 252.134268 109.364935 
L 255.758966 109.384106 
L 259.383665 109.40049 
" style="fill:none;stroke:#d95f02;stroke-linecap:square;"/>
   </g>
   <g id="line2d_13">
    <path clip-path="url(#p31f6724a41)" d="M 56.400559 107.1536 
L 60.025258 101.598482 
L 63.649956 93.306795 
L 67.274654 83.334256 
L 70.899353 72.821409 
L 74.524051 62.757535 
L 78.148749 53.840077 
L 81.773448 46.443781 
L 85.398146 40.691318 
L 89.022844 36.564199 
L 92.647542 33.993789 
L 96.272241 32.907099 
L 99.896939 33.23314 
L 103.521637 34.888437 
L 107.146336 37.758915 
L 110.771034 41.688575 
L 114.395732 46.478864 
L 118.020431 51.898148 
L 121.645129 57.698269 
L 125.269827 63.63415 
L 128.894526 69.482523 
L 132.519224 75.0567 
L 136.143922 80.215606 
L 139.768621 84.866667 
L 143.393319 88.963259 
L 147.018017 92.498169 
L 150.642715 95.494778 
L 154.267414 97.997584 
L 157.892112 100.063333 
L 161.51681 101.753562 
L 165.141509 103.128968 
L 168.766207 104.245606 
L 172.390905 105.15274 
L 176.015604 105.891985 
L 179.640302 106.497401 
L 183.265 106.996171 
L 186.889699 107.409586 
L 190.514397 107.754126 
L 194.139095 108.042492 
L 197.763793 108.284512 
L 201.388492 108.487879 
L 205.01319 108.658728 
L 208.637888 108.802056 
L 212.262587 108.922024 
L 215.887285 109.022161 
L 219.511983 109.105498 
L 223.136682 109.17465 
L 226.76138 109.231884 
L 230.386078 109.279152 
L 234.010777 109.318125 
L 237.635475 109.350225 
L 241.260173 109.37665 
L 244.884872 109.3984 
L 248.50957 109.416305 
L 252.134268 109.431049 
L 255.758966 109.443192 
L 259.383665 109.453193 
" style="fill:none;stroke:#7570b3;stroke-linecap:square;"/>
   </g>
   <g id="line2d_14">
    <path clip-path="url(#p31f6724a41)" d="M 56.400559 107.148287 
L 60.025258 101.472479 
L 63.649956 92.891777 
L 67.274654 82.711725 
L 70.899353 72.268556 
L 74.524051 62.520139 
L 78.148749 53.984945 
L 81.773448 46.867908 
L 85.398146 41.218076 
L 89.022844 37.037791 
L 92.647542 34.328305 
L 96.272241 33.090034 
L 99.896939 33.302534 
L 103.521637 34.903088 
L 107.146336 37.77386 
L 110.771034 41.740646 
L 114.395732 46.582149 
L 118.020431 52.046768 
L 121.645129 57.873149 
L 125.269827 63.810821 
L 128.894526 69.637836 
L 132.519224 75.173336 
L 136.143922 80.284132 
L 139.768621 84.885487 
L 143.393319 88.937143 
L 147.018017 92.436075 
L 150.642715 95.4076 
L 154.267414 97.896233 
L 157.892112 99.957367 
L 161.51681 101.650421 
L 165.141509 103.03372 
L 168.766207 104.161092 
L 172.390905 105.079951 
L 176.015604 105.830558 
L 179.640302 106.446109 
L 183.265 106.953358 
L 186.889699 107.373503 
L 190.514397 107.723162 
L 194.139095 108.015306 
L 197.763793 108.260081 
L 201.388492 108.465497 
L 205.01319 108.637956 
L 208.637888 108.782665 
L 212.262587 108.903928 
L 215.887285 109.005357 
L 219.511983 109.090016 
L 223.136682 109.160523 
L 226.76138 109.219122 
L 230.386078 109.267735 
L 234.010777 109.308002 
L 237.635475 109.341317 
L 241.260173 109.368856 
L 244.884872 109.391608 
L 248.50957 109.410401 
L 252.134268 109.425919 
L 255.758966 109.438733 
L 259.383665 109.449312 
" style="fill:none;stroke:#e7298a;stroke-linecap:square;"/>
   </g>
   <g id="line2d_15">
    <path clip-path="url(#p31f6724a41)" d="M 56.400559 107.073608 
L 60.025258 101.609607 
L 63.649956 93.434127 
L 67.274654 83.407343 
L 70.899353 72.715952 
L 74.524051 62.47614 
L 78.148749 53.45472 
L 81.773448 46.048476 
L 85.398146 40.396909 
L 89.022844 36.488982 
L 92.647542 34.223974 
L 96.272241 33.448885 
L 99.896939 33.993668 
L 103.521637 35.701827 
L 107.146336 38.443417 
L 110.771034 42.105527 
L 114.395732 46.568705 
L 118.020431 51.684435 
L 121.645129 57.265747 
L 125.269827 63.094741 
L 128.894526 68.94297 
L 132.519224 74.596604 
L 136.143922 79.87851 
L 139.768621 84.662163 
L 143.393319 88.875853 
L 147.018017 92.49845 
L 150.642715 95.549562 
L 154.267414 98.077191 
L 157.892112 100.145544 
L 161.51681 101.824709 
L 165.141509 103.183023 
L 168.766207 104.282231 
L 172.390905 105.175061 
L 176.015604 105.904622 
L 179.640302 106.505009 
L 183.265 107.002551 
L 186.889699 107.417305 
L 190.514397 107.764509 
L 194.139095 108.055835 
L 197.763793 108.300399 
L 201.388492 108.505503 
L 205.01319 108.677156 
L 208.637888 108.82042 
L 212.262587 108.939635 
L 215.887285 109.038547 
L 219.511983 109.120397 
L 223.136682 109.18798 
L 226.76138 109.243688 
L 230.386078 109.28955 
L 234.010777 109.327274 
L 237.635475 109.358287 
L 241.260173 109.383769 
L 244.884872 109.404699 
L 248.50957 109.421878 
L 252.134268 109.435969 
L 255.758966 109.447514 
L 259.383665 109.456962 
" style="fill:none;stroke:#66a61e;stroke-linecap:square;"/>
   </g>
   <g id="patch_59">
    <path d="M 44.348438 109.49875 
L 44.348438 21.94875 
" style="fill:none;stroke:#000000;stroke-linecap:square;stroke-linejoin:miter;stroke-width:0.8;"/>
   </g>
   <g id="patch_60">
    <path d="M 269.623438 109.49875 
L 269.623438 21.94875 
" style="fill:none;stroke:#000000;stroke-linecap:square;stroke-linejoin:miter;stroke-width:0.8;"/>
   </g>
   <g id="patch_61">
    <path d="M 44.348438 109.49875 
L 269.623438 109.49875 
" style="fill:none;stroke:#000000;stroke-linecap:square;stroke-linejoin:miter;stroke-width:0.8;"/>
   </g>
   <g id="patch_62">
    <path d="M 44.348438 21.94875 
L 269.623438 21.94875 
" style="fill:none;stroke:#000000;stroke-linecap:square;stroke-linejoin:miter;stroke-width:0.8;"/>
   </g>
   <g id="text_13">
    <!-- RPL34 -->
    <defs>
     <path d="M 18.59375 31.40625 
L 42.59375 31.40625 
C 50.90625 31.40625 54.59375 27.40625 54.59375 18.40625 
L 54.5 11.90625 
C 54.5 7.40625 55.296875 3 56.59375 0 
L 67.90625 0 
L 67.90625 2.296875 
C 64.40625 4.703125 63.703125 7.296875 63.5 17 
C 63.40625 29 61.5 32.59375 53.59375 36 
C 61.796875 40.09375 65.09375 45 65.09375 53.40625 
C 65.09375 66 57.296875 72.90625 42.90625 72.90625 
L 9.296875 72.90625 
L 9.296875 0 
L 18.59375 0 
z
M 18.59375 39.59375 
L 18.59375 64.703125 
L 41.09375 64.703125 
C 46.296875 64.703125 49.296875 63.90625 51.59375 61.90625 
C 54.09375 59.796875 55.40625 56.5 55.40625 52.203125 
C 55.40625 43.5 51 39.59375 41.09375 39.59375 
z
" id="NimbusSans-Regular-82"/>
     <path d="M 18.40625 30.90625 
L 41.296875 30.90625 
C 47 30.90625 51.5 32.59375 55.40625 36.09375 
C 59.796875 40.09375 61.703125 44.796875 61.703125 51.5 
C 61.703125 65.203125 53.59375 72.90625 39.203125 72.90625 
L 9.09375 72.90625 
L 9.09375 0 
L 18.40625 0 
z
M 18.40625 39.09375 
L 18.40625 64.703125 
L 37.796875 64.703125 
C 46.703125 64.703125 52 59.90625 52 51.90625 
C 52 43.90625 46.703125 39.09375 37.796875 39.09375 
z
" id="NimbusSans-Regular-80"/>
     <path d="M 17.296875 72.90625 
L 8 72.90625 
L 8 0 
L 53.296875 0 
L 53.296875 8.203125 
L 17.296875 8.203125 
z
" id="NimbusSans-Regular-76"/>
    </defs>
    <g transform="translate(138.644688 15.94875)scale(0.12 -0.12)">
     <use xlink:href="#NimbusSans-Regular-82"/>
     <use x="72.199982" xlink:href="#NimbusSans-Regular-80"/>
     <use x="138.899979" xlink:href="#NimbusSans-Regular-76"/>
     <use x="194.499969" xlink:href="#NimbusSans-Regular-51"/>
     <use x="250.09996" xlink:href="#NimbusSans-Regular-52"/>
    </g>
   </g>
   <g id="legend_1">
    <g id="line2d_16">
     <path d="M 190.395313 34.739375 
L 210.395313 34.739375 
" style="fill:none;stroke:#1b9e77;stroke-linecap:square;"/>
    </g>
    <g id="line2d_17"/>
    <g id="text_14">
     <!-- Gamma -->
     <defs>
      <path d="M 70.90625 38.5 
L 40.5 38.5 
L 40.5 30.296875 
L 62.703125 30.296875 
L 62.703125 28.296875 
C 62.703125 15.296875 53.09375 5.90625 39.796875 5.90625 
C 32.40625 5.90625 25.703125 8.59375 21.40625 13.296875 
C 16.59375 18.5 13.703125 27.203125 13.703125 36.203125 
C 13.703125 54.09375 23.90625 65.90625 39.296875 65.90625 
C 50.40625 65.90625 58.40625 60.203125 60.40625 50.796875 
L 69.90625 50.796875 
C 67.296875 65.59375 56.09375 74.09375 39.40625 74.09375 
C 30.5 74.09375 23.296875 71.796875 17.59375 67.09375 
C 9.09375 60.09375 4.40625 48.796875 4.40625 35.703125 
C 4.40625 13.296875 18.09375 -2.296875 37.796875 -2.296875 
C 47.703125 -2.296875 55.5 1.40625 62.703125 9.296875 
L 65 -0.40625 
L 70.90625 -0.40625 
z
" id="NimbusSans-Regular-71"/>
      <path d="M 53.5 4.90625 
C 52.59375 4.703125 52.203125 4.703125 51.703125 4.703125 
C 48.796875 4.703125 47.203125 6.203125 47.203125 8.796875 
L 47.203125 39.59375 
C 47.203125 48.90625 40.40625 53.90625 27.5 53.90625 
C 19.796875 53.90625 13.703125 51.703125 10.09375 47.796875 
C 7.703125 45.09375 6.703125 42.09375 6.5 36.90625 
L 14.90625 36.90625 
C 15.59375 43.296875 19.40625 46.203125 27.203125 46.203125 
C 34.796875 46.203125 38.90625 43.40625 38.90625 38.40625 
L 38.90625 36.203125 
C 38.796875 32.59375 37 31.296875 30.203125 30.40625 
C 18.40625 28.90625 16.59375 28.5 13.40625 27.203125 
C 7.296875 24.59375 4.203125 20 4.203125 13.203125 
C 4.203125 3.703125 10.796875 -2.296875 21.40625 -2.296875 
C 28 -2.296875 33.296875 0 39.203125 5.40625 
C 39.796875 0 42.40625 -2.296875 47.796875 -2.296875 
C 49.59375 -2.296875 50.703125 -2.09375 53.5 -1.40625 
z
M 38.90625 16.5 
C 38.90625 13.703125 38.09375 12 35.59375 9.703125 
C 32.203125 6.59375 28.09375 5 23.203125 5 
C 16.703125 5 12.90625 8.09375 12.90625 13.40625 
C 12.90625 18.90625 16.5 21.703125 25.5 23 
C 34.40625 24.203125 36.09375 24.59375 38.90625 25.90625 
z
" id="NimbusSans-Regular-97"/>
     </defs>
     <g transform="translate(218.395313 38.239375)scale(0.1 -0.1)">
      <use xlink:href="#NimbusSans-Regular-71"/>
      <use x="77.799988" xlink:href="#NimbusSans-Regular-97"/>
      <use x="133.399979" xlink:href="#NimbusSans-Regular-109"/>
      <use x="216.699966" xlink:href="#NimbusSans-Regular-109"/>
      <use x="299.999954" xlink:href="#NimbusSans-Regular-97"/>
     </g>
    </g>
    <g id="line2d_18">
     <path d="M 190.395313 49.209687 
L 210.395313 49.209687 
" style="fill:none;stroke:#d95f02;stroke-linecap:square;"/>
    </g>
    <g id="line2d_19"/>
    <g id="text_15">
     <!-- ZIG -->
     <defs>
      <path d="M 58.09375 72.90625 
L 5.59375 72.90625 
L 5.59375 64.703125 
L 46.59375 64.703125 
L 2.796875 8.203125 
L 2.796875 0 
L 58.296875 0 
L 58.296875 8.203125 
L 14.5 8.203125 
L 58.09375 64.5 
z
" id="NimbusSans-Regular-90"/>
      <path d="M 19.40625 72.90625 
L 10 72.90625 
L 10 0 
L 19.40625 0 
z
" id="NimbusSans-Regular-73"/>
     </defs>
     <g transform="translate(218.395313 52.709687)scale(0.1 -0.1)">
      <use xlink:href="#NimbusSans-Regular-90"/>
      <use x="61.099991" xlink:href="#NimbusSans-Regular-73"/>
      <use x="88.899979" xlink:href="#NimbusSans-Regular-71"/>
     </g>
    </g>
    <g id="line2d_20">
     <path d="M 190.395313 63.68 
L 210.395313 63.68 
" style="fill:none;stroke:#7570b3;stroke-linecap:square;"/>
    </g>
    <g id="line2d_21"/>
    <g id="text_16">
     <!-- Unimodal -->
     <defs>
      <path d="M 55.203125 72.90625 
L 55.203125 21.703125 
C 55.203125 11.90625 48.09375 5.90625 36.40625 5.90625 
C 31 5.90625 26.59375 7.203125 23.09375 9.703125 
C 19.5 12.5 17.796875 16.203125 17.796875 21.703125 
L 17.796875 72.90625 
L 8.5 72.90625 
L 8.5 21.703125 
C 8.5 6.90625 19.09375 -2.296875 36.40625 -2.296875 
C 53.5 -2.296875 64.5 7.09375 64.5 21.703125 
L 64.5 72.90625 
z
" id="NimbusSans-Regular-85"/>
      <path d="M 7 52.40625 
L 7 0 
L 15.40625 0 
L 15.40625 28.90625 
C 15.40625 39.59375 21 46.59375 29.59375 46.59375 
C 36.203125 46.59375 40.40625 42.59375 40.40625 36.296875 
L 40.40625 0 
L 48.703125 0 
L 48.703125 39.59375 
C 48.703125 48.296875 42.203125 53.90625 32.09375 53.90625 
C 24.296875 53.90625 19.296875 50.90625 14.703125 43.59375 
L 14.703125 52.40625 
z
" id="NimbusSans-Regular-110"/>
      <path d="M 15 52.40625 
L 6.703125 52.40625 
L 6.703125 0 
L 15 0 
z
M 15 72.90625 
L 6.59375 72.90625 
L 6.59375 62.40625 
L 15 62.40625 
z
" id="NimbusSans-Regular-105"/>
      <path d="M 49.5 72.90625 
L 41.203125 72.90625 
L 41.203125 45.796875 
C 37.703125 51.09375 32.09375 53.90625 25.09375 53.90625 
C 11.5 53.90625 2.59375 43 2.59375 26.296875 
C 2.59375 8.59375 11.203125 -2.296875 25.40625 -2.296875 
C 32.59375 -2.296875 37.59375 0.40625 42.09375 6.90625 
L 42.09375 0 
L 49.5 0 
z
M 26.5 46.09375 
C 35.5 46.09375 41.203125 38.203125 41.203125 25.59375 
C 41.203125 13.5 35.40625 5.5 26.59375 5.5 
C 17.40625 5.5 11.296875 13.59375 11.296875 25.796875 
C 11.296875 38 17.40625 46.09375 26.5 46.09375 
z
" id="NimbusSans-Regular-100"/>
     </defs>
     <g transform="translate(218.395313 67.18)scale(0.1 -0.1)">
      <use xlink:href="#NimbusSans-Regular-85"/>
      <use x="72.199982" xlink:href="#NimbusSans-Regular-110"/>
      <use x="127.799973" xlink:href="#NimbusSans-Regular-105"/>
      <use x="149.999969" xlink:href="#NimbusSans-Regular-109"/>
      <use x="233.299957" xlink:href="#NimbusSans-Regular-111"/>
      <use x="288.899948" xlink:href="#NimbusSans-Regular-100"/>
      <use x="344.499939" xlink:href="#NimbusSans-Regular-97"/>
      <use x="400.09993" xlink:href="#NimbusSans-Regular-108"/>
     </g>
    </g>
    <g id="line2d_22">
     <path d="M 190.395313 78.150312 
L 210.395313 78.150312 
" style="fill:none;stroke:#e7298a;stroke-linecap:square;"/>
    </g>
    <g id="line2d_23"/>
    <g id="text_17">
     <!-- ZIEF -->
     <defs>
      <path d="M 18.296875 33.203125 
L 58 33.203125 
L 58 41.40625 
L 18.296875 41.40625 
L 18.296875 64.703125 
L 59.5 64.703125 
L 59.5 72.90625 
L 9 72.90625 
L 9 0 
L 61.296875 0 
L 61.296875 8.203125 
L 18.296875 8.203125 
z
" id="NimbusSans-Regular-69"/>
      <path d="M 18.296875 33.203125 
L 53.09375 33.203125 
L 53.09375 41.40625 
L 18.296875 41.40625 
L 18.296875 64.703125 
L 57.90625 64.703125 
L 57.90625 72.90625 
L 9 72.90625 
L 9 0 
L 18.296875 0 
z
" id="NimbusSans-Regular-70"/>
     </defs>
     <g transform="translate(218.395313 81.650312)scale(0.1 -0.1)">
      <use xlink:href="#NimbusSans-Regular-90"/>
      <use x="61.099991" xlink:href="#NimbusSans-Regular-73"/>
      <use x="88.899979" xlink:href="#NimbusSans-Regular-69"/>
      <use x="155.599976" xlink:href="#NimbusSans-Regular-70"/>
     </g>
    </g>
    <g id="line2d_24">
     <path d="M 190.395313 92.620625 
L 210.395313 92.620625 
" style="fill:none;stroke:#66a61e;stroke-linecap:square;"/>
    </g>
    <g id="line2d_25"/>
    <g id="text_18">
     <!-- NPMLE -->
     <defs>
      <path d="M 46.796875 0 
L 67.296875 61.09375 
L 67.296875 0 
L 76.09375 0 
L 76.09375 72.90625 
L 63.203125 72.90625 
L 42 9.40625 
L 20.40625 72.90625 
L 7.5 72.90625 
L 7.5 0 
L 16.296875 0 
L 16.296875 61.09375 
L 37 0 
z
" id="NimbusSans-Regular-77"/>
     </defs>
     <g transform="translate(218.395313 96.120625)scale(0.1 -0.1)">
      <use xlink:href="#NimbusSans-Regular-78"/>
      <use x="72.199982" xlink:href="#NimbusSans-Regular-80"/>
      <use x="138.899979" xlink:href="#NimbusSans-Regular-77"/>
      <use x="222.199966" xlink:href="#NimbusSans-Regular-76"/>
      <use x="277.799957" xlink:href="#NimbusSans-Regular-69"/>
     </g>
    </g>
   </g>
  </g>
  <g id="axes_2">
   <g id="patch_63">
    <path d="M 44.348438 242.34875 
L 269.623438 242.34875 
L 269.623438 154.79875 
L 44.348438 154.79875 
z
" style="fill:#ffffff;"/>
   </g>
   <g id="matplotlib.axis_3">
    <g id="xtick_7">
     <g id="line2d_26">
      <g>
       <use style="stroke:#000000;stroke-width:0.8;" x="54.58821" xlink:href="#m57f88a681b" y="242.34875"/>
      </g>
     </g>
     <g id="text_19">
      <!-- 0.000 -->
      <defs>
       <path d="M 19.09375 10.40625 
L 8.703125 10.40625 
L 8.703125 0 
L 19.09375 0 
z
" id="NimbusSans-Regular-46"/>
      </defs>
      <g transform="translate(42.079616 256.639375)scale(0.1 -0.1)">
       <use xlink:href="#NimbusSans-Regular-48"/>
       <use x="55.599991" xlink:href="#NimbusSans-Regular-46"/>
       <use x="83.399979" xlink:href="#NimbusSans-Regular-48"/>
       <use x="138.999969" xlink:href="#NimbusSans-Regular-48"/>
       <use x="194.59996" xlink:href="#NimbusSans-Regular-48"/>
      </g>
     </g>
    </g>
    <g id="xtick_8">
     <g id="line2d_27">
      <g>
       <use style="stroke:#000000;stroke-width:0.8;" x="92.317834" xlink:href="#m57f88a681b" y="242.34875"/>
      </g>
     </g>
     <g id="text_20">
      <!-- 0.005 -->
      <g transform="translate(79.809241 256.639375)scale(0.1 -0.1)">
       <use xlink:href="#NimbusSans-Regular-48"/>
       <use x="55.599991" xlink:href="#NimbusSans-Regular-46"/>
       <use x="83.399979" xlink:href="#NimbusSans-Regular-48"/>
       <use x="138.999969" xlink:href="#NimbusSans-Regular-48"/>
       <use x="194.59996" xlink:href="#NimbusSans-Regular-53"/>
      </g>
     </g>
    </g>
    <g id="xtick_9">
     <g id="line2d_28">
      <g>
       <use style="stroke:#000000;stroke-width:0.8;" x="130.047458" xlink:href="#m57f88a681b" y="242.34875"/>
      </g>
     </g>
     <g id="text_21">
      <!-- 0.010 -->
      <g transform="translate(117.538865 256.639375)scale(0.1 -0.1)">
       <use xlink:href="#NimbusSans-Regular-48"/>
       <use x="55.599991" xlink:href="#NimbusSans-Regular-46"/>
       <use x="83.399979" xlink:href="#NimbusSans-Regular-48"/>
       <use x="138.999969" xlink:href="#NimbusSans-Regular-49"/>
       <use x="194.59996" xlink:href="#NimbusSans-Regular-48"/>
      </g>
     </g>
    </g>
    <g id="xtick_10">
     <g id="line2d_29">
      <g>
       <use style="stroke:#000000;stroke-width:0.8;" x="167.777083" xlink:href="#m57f88a681b" y="242.34875"/>
      </g>
     </g>
     <g id="text_22">
      <!-- 0.015 -->
      <g transform="translate(155.268489 256.639375)scale(0.1 -0.1)">
       <use xlink:href="#NimbusSans-Regular-48"/>
       <use x="55.599991" xlink:href="#NimbusSans-Regular-46"/>
       <use x="83.399979" xlink:href="#NimbusSans-Regular-48"/>
       <use x="138.999969" xlink:href="#NimbusSans-Regular-49"/>
       <use x="194.59996" xlink:href="#NimbusSans-Regular-53"/>
      </g>
     </g>
    </g>
    <g id="xtick_11">
     <g id="line2d_30">
      <g>
       <use style="stroke:#000000;stroke-width:0.8;" x="205.506707" xlink:href="#m57f88a681b" y="242.34875"/>
      </g>
     </g>
     <g id="text_23">
      <!-- 0.020 -->
      <g transform="translate(192.998113 256.639375)scale(0.1 -0.1)">
       <use xlink:href="#NimbusSans-Regular-48"/>
       <use x="55.599991" xlink:href="#NimbusSans-Regular-46"/>
       <use x="83.399979" xlink:href="#NimbusSans-Regular-48"/>
       <use x="138.999969" xlink:href="#NimbusSans-Regular-50"/>
       <use x="194.59996" xlink:href="#NimbusSans-Regular-48"/>
      </g>
     </g>
    </g>
    <g id="xtick_12">
     <g id="line2d_31">
      <g>
       <use style="stroke:#000000;stroke-width:0.8;" x="243.236331" xlink:href="#m57f88a681b" y="242.34875"/>
      </g>
     </g>
     <g id="text_24">
      <!-- 0.025 -->
      <g transform="translate(230.727737 256.639375)scale(0.1 -0.1)">
       <use xlink:href="#NimbusSans-Regular-48"/>
       <use x="55.599991" xlink:href="#NimbusSans-Regular-46"/>
       <use x="83.399979" xlink:href="#NimbusSans-Regular-48"/>
       <use x="138.999969" xlink:href="#NimbusSans-Regular-50"/>
       <use x="194.59996" xlink:href="#NimbusSans-Regular-53"/>
      </g>
     </g>
    </g>
    <g id="text_25">
     <!-- Latent gene expression -->
     <defs>
      <path d="M 25.40625 52.40625 
L 16.796875 52.40625 
L 16.796875 66.796875 
L 8.5 66.796875 
L 8.5 52.40625 
L 1.40625 52.40625 
L 1.40625 45.59375 
L 8.5 45.59375 
L 8.5 6 
C 8.5 0.59375 12.09375 -2.296875 18.59375 -2.296875 
C 20.796875 -2.296875 22.59375 -2.09375 25.40625 -1.59375 
L 25.40625 5.40625 
C 24.203125 5.09375 23.09375 5 21.40625 5 
C 17.796875 5 16.796875 6 16.796875 9.703125 
L 16.796875 45.59375 
L 25.40625 45.59375 
z
" id="NimbusSans-Regular-116"/>
      <path d="M 40.40625 52.40625 
L 40.40625 44.796875 
C 36.203125 51.09375 31.59375 53.90625 25 53.90625 
C 12.296875 53.90625 3.5 42.09375 3.5 25.296875 
C 3.5 16.5 5.59375 10.09375 10.09375 4.796875 
C 14 0.203125 19 -2.296875 24.40625 -2.296875 
C 30.703125 -2.296875 35.203125 0.5 39.59375 7.09375 
L 39.59375 4.40625 
C 39.59375 -9.59375 35.703125 -14.796875 25.296875 -14.796875 
C 18.203125 -14.796875 14.5 -12 13.703125 -6 
L 5.203125 -6 
C 6 -15.703125 13.703125 -21.796875 25.09375 -21.796875 
C 32.796875 -21.796875 39.203125 -19.296875 42.59375 -15.09375 
C 46.59375 -10.203125 48.09375 -3.703125 48.09375 8.59375 
L 48.09375 52.40625 
z
M 25.796875 46.203125 
C 34.59375 46.203125 39.59375 38.796875 39.59375 25.5 
C 39.59375 12.796875 34.5 5.40625 25.796875 5.40625 
C 17.203125 5.40625 12.203125 12.90625 12.203125 25.796875 
C 12.203125 38.59375 17.203125 46.203125 25.796875 46.203125 
z
" id="NimbusSans-Regular-103"/>
      <path d="M 29.203125 27.09375 
L 46.796875 52.40625 
L 37.40625 52.40625 
L 24.796875 33.40625 
L 12.203125 52.40625 
L 2.703125 52.40625 
L 20.203125 26.703125 
L 1.703125 0 
L 11.203125 0 
L 24.5 20.09375 
L 37.59375 0 
L 47.296875 0 
z
" id="NimbusSans-Regular-120"/>
      <path d="M 5.40625 -21.796875 
L 13.796875 -21.796875 
L 13.796875 5.5 
C 18.203125 0.09375 23.09375 -2.296875 29.90625 -2.296875 
C 43.5 -2.296875 52.296875 8.59375 52.296875 25.296875 
C 52.296875 42.90625 43.703125 53.90625 29.796875 53.90625 
C 22.703125 53.90625 17 50.703125 13.09375 44.5 
L 13.09375 52.40625 
L 5.40625 52.40625 
z
M 28.40625 46.09375 
C 37.59375 46.09375 43.59375 38 43.59375 25.5 
C 43.59375 13.59375 37.5 5.5 28.40625 5.5 
C 19.5 5.5 13.796875 13.5 13.796875 25.796875 
C 13.796875 38.09375 19.5 46.09375 28.40625 46.09375 
z
" id="NimbusSans-Regular-112"/>
     </defs>
     <g transform="translate(105.015625 270.109688)scale(0.1 -0.1)">
      <use xlink:href="#NimbusSans-Regular-76"/>
      <use x="55.599991" xlink:href="#NimbusSans-Regular-97"/>
      <use x="111.199982" xlink:href="#NimbusSans-Regular-116"/>
      <use x="138.999969" xlink:href="#NimbusSans-Regular-101"/>
      <use x="194.59996" xlink:href="#NimbusSans-Regular-110"/>
      <use x="250.199951" xlink:href="#NimbusSans-Regular-116"/>
      <use x="277.999939" xlink:href="#NimbusSans-Regular-32"/>
      <use x="305.799927" xlink:href="#NimbusSans-Regular-103"/>
      <use x="361.399918" xlink:href="#NimbusSans-Regular-101"/>
      <use x="416.999908" xlink:href="#NimbusSans-Regular-110"/>
      <use x="472.599899" xlink:href="#NimbusSans-Regular-101"/>
      <use x="528.19989" xlink:href="#NimbusSans-Regular-32"/>
      <use x="555.999878" xlink:href="#NimbusSans-Regular-101"/>
      <use x="611.599869" xlink:href="#NimbusSans-Regular-120"/>
      <use x="661.599854" xlink:href="#NimbusSans-Regular-112"/>
      <use x="717.199844" xlink:href="#NimbusSans-Regular-114"/>
      <use x="750.499832" xlink:href="#NimbusSans-Regular-101"/>
      <use x="806.099823" xlink:href="#NimbusSans-Regular-115"/>
      <use x="856.099808" xlink:href="#NimbusSans-Regular-115"/>
      <use x="906.099792" xlink:href="#NimbusSans-Regular-105"/>
      <use x="928.299789" xlink:href="#NimbusSans-Regular-111"/>
      <use x="983.89978" xlink:href="#NimbusSans-Regular-110"/>
     </g>
    </g>
   </g>
   <g id="matplotlib.axis_4">
    <g id="ytick_5">
     <g id="line2d_32">
      <g>
       <use style="stroke:#000000;stroke-width:0.8;" x="44.348438" xlink:href="#md2ddb45f22" y="238.369205"/>
      </g>
     </g>
     <g id="text_26">
      <!-- 0.0 -->
      <g transform="translate(23.45 242.014517)scale(0.1 -0.1)">
       <use xlink:href="#NimbusSans-Regular-48"/>
       <use x="55.599991" xlink:href="#NimbusSans-Regular-46"/>
       <use x="83.399979" xlink:href="#NimbusSans-Regular-48"/>
      </g>
     </g>
    </g>
    <g id="ytick_6">
     <g id="line2d_33">
      <g>
       <use style="stroke:#000000;stroke-width:0.8;" x="44.348438" xlink:href="#md2ddb45f22" y="198.57375"/>
      </g>
     </g>
     <g id="text_27">
      <!-- 0.5 -->
      <g transform="translate(23.45 202.219063)scale(0.1 -0.1)">
       <use xlink:href="#NimbusSans-Regular-48"/>
       <use x="55.599991" xlink:href="#NimbusSans-Regular-46"/>
       <use x="83.399979" xlink:href="#NimbusSans-Regular-53"/>
      </g>
     </g>
    </g>
    <g id="ytick_7">
     <g id="line2d_34">
      <g>
       <use style="stroke:#000000;stroke-width:0.8;" x="44.348438" xlink:href="#md2ddb45f22" y="158.778295"/>
      </g>
     </g>
     <g id="text_28">
      <!-- 1.0 -->
      <g transform="translate(23.45 162.423608)scale(0.1 -0.1)">
       <use xlink:href="#NimbusSans-Regular-49"/>
       <use x="55.599991" xlink:href="#NimbusSans-Regular-46"/>
       <use x="83.399979" xlink:href="#NimbusSans-Regular-48"/>
      </g>
     </g>
    </g>
    <g id="text_29">
     <!-- CDF -->
     <defs>
      <path d="M 66.203125 50.296875 
C 63.296875 66.296875 54.09375 74.09375 38.09375 74.09375 
C 28.296875 74.09375 20.40625 71 15 65 
C 8.40625 57.796875 4.796875 47.40625 4.796875 35.59375 
C 4.796875 23.59375 8.5 13.296875 15.296875 6.203125 
C 21 0.40625 28.203125 -2.296875 37.703125 -2.296875 
C 55.5 -2.296875 65.5 7.296875 67.703125 26.59375 
L 58.09375 26.59375 
C 57.296875 21.59375 56.296875 18.203125 54.796875 15.296875 
C 51.796875 9.296875 45.59375 5.90625 37.796875 5.90625 
C 23.296875 5.90625 14.09375 17.5 14.09375 35.703125 
C 14.09375 54.40625 22.796875 65.90625 37 65.90625 
C 42.90625 65.90625 48.40625 64.203125 51.40625 61.296875 
C 54.09375 58.796875 55.59375 55.796875 56.703125 50.296875 
z
" id="NimbusSans-Regular-67"/>
      <path d="M 8.90625 0 
L 37 0 
C 55.40625 0 66.703125 13.796875 66.703125 36.5 
C 66.703125 59.09375 55.5 72.90625 37 72.90625 
L 8.90625 72.90625 
z
M 18.203125 8.203125 
L 18.203125 64.703125 
L 35.40625 64.703125 
C 49.796875 64.703125 57.40625 55 57.40625 36.40625 
C 57.40625 17.90625 49.796875 8.203125 35.40625 8.203125 
z
" id="NimbusSans-Regular-68"/>
     </defs>
     <g transform="translate(17.270313 208.84875)rotate(-90)scale(0.1 -0.1)">
      <use xlink:href="#NimbusSans-Regular-67"/>
      <use x="72.199982" xlink:href="#NimbusSans-Regular-68"/>
      <use x="144.399963" xlink:href="#NimbusSans-Regular-70"/>
     </g>
    </g>
   </g>
   <g id="line2d_35">
    <path clip-path="url(#pa48d826b0a)" d="M 54.58821 238.369205 
L 80.418268 238.25881 
L 84.928278 238.001785 
L 88.413285 237.58281 
L 91.283292 237.019888 
L 93.948298 236.2686 
L 96.408303 235.342458 
L 98.868309 234.164149 
L 101.123314 232.844518 
L 103.583319 231.131902 
L 106.043324 229.131334 
L 108.50333 226.849399 
L 111.168336 224.078763 
L 114.243343 220.537569 
L 117.72835 216.157986 
L 122.23836 210.091946 
L 135.358389 192.179626 
L 139.253398 187.355389 
L 142.738406 183.375812 
L 146.018413 179.954592 
L 149.29842 176.863092 
L 152.373427 174.266651 
L 155.448434 171.956346 
L 158.523441 169.920151 
L 161.598448 168.141568 
L 164.878455 166.506339 
L 168.158462 165.11616 
L 171.64347 163.877768 
L 175.333478 162.800163 
L 179.433487 161.842211 
L 183.943497 161.02814 
L 188.863508 160.36733 
L 194.603521 159.823278 
L 201.573536 159.39517 
L 210.388556 159.086819 
L 222.893584 158.888637 
L 245.033633 158.794271 
L 259.383665 158.782573 
L 259.383665 158.782573 
" style="fill:none;stroke:#1b9e77;stroke-linecap:square;"/>
   </g>
   <g id="line2d_36">
    <path clip-path="url(#pa48d826b0a)" d="M 54.58821 238.305236 
L 80.623268 238.195725 
L 85.133278 237.940262 
L 88.618286 237.522995 
L 91.488292 236.961464 
L 94.153298 236.211034 
L 96.613304 235.28491 
L 99.073309 234.105479 
L 101.328314 232.78351 
L 103.583319 231.220802 
L 106.043324 229.238062 
L 108.50333 226.971001 
L 111.168336 224.212334 
L 114.038342 220.924982 
L 117.318349 216.832366 
L 121.418359 211.35147 
L 136.998393 190.143311 
L 140.688401 185.690329 
L 144.173409 181.833287 
L 147.453416 178.538816 
L 150.528423 175.754838 
L 153.60343 173.264268 
L 156.678437 171.058418 
L 159.753444 169.123067 
L 162.82845 167.440046 
L 166.108458 165.8996 
L 169.593465 164.521711 
L 173.283474 163.318059 
L 177.178482 162.291916 
L 181.483492 161.401422 
L 186.198502 160.663196 
L 191.528514 160.059693 
L 197.883528 159.574257 
L 205.673546 159.212642 
L 216.128569 158.964371 
L 232.528605 158.824154 
L 259.383665 158.782255 
L 259.383665 158.782255 
" style="fill:none;stroke:#d95f02;stroke-linecap:square;"/>
   </g>
   <g id="line2d_37">
    <path clip-path="url(#pa48d826b0a)" d="M 54.58821 238.369205 
L 69.553243 238.258437 
L 86.978282 236.829357 
L 131.873382 208.629282 
L 133.923386 205.444384 
L 163.853453 158.778295 
L 259.383665 158.778295 
L 259.383665 158.778295 
" style="fill:none;stroke:#7570b3;stroke-linecap:square;"/>
   </g>
   <g id="line2d_38">
    <path clip-path="url(#pa48d826b0a)" d="M 54.58821 238.368659 
L 70.373245 238.25588 
L 75.703257 237.91782 
L 77.753262 237.641168 
L 80.213267 237.174351 
L 82.878273 236.45719 
L 85.95328 235.332221 
L 89.028287 233.923945 
L 92.718295 231.961987 
L 97.638306 229.120615 
L 106.043324 224.329572 
L 114.653344 219.447852 
L 118.753353 216.82312 
L 121.008358 215.199982 
L 123.468363 213.267446 
L 126.133369 210.939645 
L 129.003375 208.110265 
L 131.873382 204.905343 
L 134.743388 201.295413 
L 137.613395 197.273695 
L 140.893402 192.206551 
L 144.58341 186.064272 
L 151.963426 173.764 
L 154.628432 169.895281 
L 157.088438 166.802682 
L 159.958444 163.934759 
L 162.82845 161.847443 
L 165.698457 160.460093 
L 168.773464 159.589661 
L 172.053471 159.11913 
L 176.15348 158.876403 
L 180.868491 158.799332 
L 201.163536 158.778295 
L 259.383665 158.778295 
L 259.383665 158.778295 
" style="fill:none;stroke:#e7298a;stroke-linecap:square;"/>
   </g>
   <g id="line2d_39">
    <path clip-path="url(#pa48d826b0a)" d="M 54.58821 238.369205 
L 65.85196 238.369205 
L 67.899915 238.065127 
L 85.307528 238.065127 
L 86.331506 235.49892 
L 87.355483 232.457795 
L 106.811051 232.457795 
L 107.835028 229.414219 
L 108.859006 211.86735 
L 141.626278 211.86735 
L 142.650256 199.416814 
L 143.674233 179.487427 
L 153.914006 179.487427 
L 154.937983 165.899415 
L 155.96196 159.50421 
L 173.369574 159.50421 
L 174.393551 158.778295 
L 259.383665 158.778295 
L 259.383665 158.778295 
" style="fill:none;stroke:#66a61e;stroke-linecap:square;"/>
   </g>
   <g id="patch_64">
    <path d="M 44.348438 242.34875 
L 44.348438 154.79875 
" style="fill:none;stroke:#000000;stroke-linecap:square;stroke-linejoin:miter;stroke-width:0.8;"/>
   </g>
   <g id="patch_65">
    <path d="M 269.623438 242.34875 
L 269.623438 154.79875 
" style="fill:none;stroke:#000000;stroke-linecap:square;stroke-linejoin:miter;stroke-width:0.8;"/>
   </g>
   <g id="patch_66">
    <path d="M 44.348438 242.34875 
L 269.623438 242.34875 
" style="fill:none;stroke:#000000;stroke-linecap:square;stroke-linejoin:miter;stroke-width:0.8;"/>
   </g>
   <g id="patch_67">
    <path d="M 44.348438 154.79875 
L 269.623438 154.79875 
" style="fill:none;stroke:#000000;stroke-linecap:square;stroke-linejoin:miter;stroke-width:0.8;"/>
   </g>
   <g id="legend_2">
    <g id="line2d_40">
     <path d="M 190.395313 169.787813 
L 210.395313 169.787813 
" style="fill:none;stroke:#1b9e77;stroke-linecap:square;"/>
    </g>
    <g id="line2d_41"/>
    <g id="text_30">
     <!-- Gamma -->
     <g transform="translate(218.395313 173.287813)scale(0.1 -0.1)">
      <use xlink:href="#NimbusSans-Regular-71"/>
      <use x="77.799988" xlink:href="#NimbusSans-Regular-97"/>
      <use x="133.399979" xlink:href="#NimbusSans-Regular-109"/>
      <use x="216.699966" xlink:href="#NimbusSans-Regular-109"/>
      <use x="299.999954" xlink:href="#NimbusSans-Regular-97"/>
     </g>
    </g>
    <g id="line2d_42">
     <path d="M 190.395313 184.258125 
L 210.395313 184.258125 
" style="fill:none;stroke:#d95f02;stroke-linecap:square;"/>
    </g>
    <g id="line2d_43"/>
    <g id="text_31">
     <!-- ZIG -->
     <g transform="translate(218.395313 187.758125)scale(0.1 -0.1)">
      <use xlink:href="#NimbusSans-Regular-90"/>
      <use x="61.099991" xlink:href="#NimbusSans-Regular-73"/>
      <use x="88.899979" xlink:href="#NimbusSans-Regular-71"/>
     </g>
    </g>
    <g id="line2d_44">
     <path d="M 190.395313 198.728438 
L 210.395313 198.728438 
" style="fill:none;stroke:#7570b3;stroke-linecap:square;"/>
    </g>
    <g id="line2d_45"/>
    <g id="text_32">
     <!-- Unimodal -->
     <g transform="translate(218.395313 202.228438)scale(0.1 -0.1)">
      <use xlink:href="#NimbusSans-Regular-85"/>
      <use x="72.199982" xlink:href="#NimbusSans-Regular-110"/>
      <use x="127.799973" xlink:href="#NimbusSans-Regular-105"/>
      <use x="149.999969" xlink:href="#NimbusSans-Regular-109"/>
      <use x="233.299957" xlink:href="#NimbusSans-Regular-111"/>
      <use x="288.899948" xlink:href="#NimbusSans-Regular-100"/>
      <use x="344.499939" xlink:href="#NimbusSans-Regular-97"/>
      <use x="400.09993" xlink:href="#NimbusSans-Regular-108"/>
     </g>
    </g>
    <g id="line2d_46">
     <path d="M 190.395313 213.19875 
L 210.395313 213.19875 
" style="fill:none;stroke:#e7298a;stroke-linecap:square;"/>
    </g>
    <g id="line2d_47"/>
    <g id="text_33">
     <!-- ZIEF -->
     <g transform="translate(218.395313 216.69875)scale(0.1 -0.1)">
      <use xlink:href="#NimbusSans-Regular-90"/>
      <use x="61.099991" xlink:href="#NimbusSans-Regular-73"/>
      <use x="88.899979" xlink:href="#NimbusSans-Regular-69"/>
      <use x="155.599976" xlink:href="#NimbusSans-Regular-70"/>
     </g>
    </g>
    <g id="line2d_48">
     <path d="M 190.395313 227.669062 
L 210.395313 227.669062 
" style="fill:none;stroke:#66a61e;stroke-linecap:square;"/>
    </g>
    <g id="line2d_49"/>
    <g id="text_34">
     <!-- NPMLE -->
     <g transform="translate(218.395313 231.169062)scale(0.1 -0.1)">
      <use xlink:href="#NimbusSans-Regular-78"/>
      <use x="72.199982" xlink:href="#NimbusSans-Regular-80"/>
      <use x="138.899979" xlink:href="#NimbusSans-Regular-77"/>
      <use x="222.199966" xlink:href="#NimbusSans-Regular-76"/>
      <use x="277.799957" xlink:href="#NimbusSans-Regular-69"/>
     </g>
    </g>
   </g>
  </g>
 </g>
 <defs>
  <clipPath id="p31f6724a41">
   <rect height="87.55" width="225.275" x="44.348438" y="21.94875"/>
  </clipPath>
  <clipPath id="pa48d826b0a">
   <rect height="87.55" width="225.275" x="44.348438" y="154.79875"/>
  </clipPath>
 </defs>
</svg>
