<?xml version="1.0" encoding="utf-8" standalone="no"?>
<!DOCTYPE svg PUBLIC "-//W3C//DTD SVG 1.1//EN"
  "http://www.w3.org/Graphics/SVG/1.1/DTD/svg11.dtd">
<!-- Created with matplotlib (https://matplotlib.org/) -->
<svg height="279.489375pt" version="1.1" viewBox="0 0 282.836719 279.489375" width="282.836719pt" xmlns="http://www.w3.org/2000/svg" xmlns:xlink="http://www.w3.org/1999/xlink">
 <defs>
  <style type="text/css">
*{stroke-linecap:butt;stroke-linejoin:round;}
  </style>
 </defs>
 <g id="figure_1">
  <g id="patch_1">
   <path d="M 0 279.489375 
L 282.836719 279.489375 
L 282.836719 0 
L 0 0 
z
" style="fill:#ffffff;"/>
  </g>
  <g id="axes_1">
   <g id="patch_2">
    <path d="M 55.467188 110.74875 
L 138.142188 110.74875 
L 138.142188 21.94875 
L 55.467188 21.94875 
z
" style="fill:#ffffff;"/>
   </g>
   <g id="patch_3">
    <path clip-path="url(#p63231392f1)" d="M 59.225142 110.74875 
L 60.543723 110.74875 
L 60.543723 110.418624 
L 59.225142 110.418624 
z
" style="fill:#ff0000;opacity:0.5;"/>
   </g>
   <g id="patch_4">
    <path clip-path="url(#p63231392f1)" d="M 60.543723 110.74875 
L 61.862303 110.74875 
L 61.862303 109.572148 
L 60.543723 109.572148 
z
" style="fill:#ff0000;opacity:0.5;"/>
   </g>
   <g id="patch_5">
    <path clip-path="url(#p63231392f1)" d="M 61.862303 110.74875 
L 63.180884 110.74875 
L 63.180884 107.955379 
L 61.862303 107.955379 
z
" style="fill:#ff0000;opacity:0.5;"/>
   </g>
   <g id="patch_6">
    <path clip-path="url(#p63231392f1)" d="M 63.180884 110.74875 
L 64.499464 110.74875 
L 64.499464 106.372468 
L 63.180884 106.372468 
z
" style="fill:#ff0000;opacity:0.5;"/>
   </g>
   <g id="patch_7">
    <path clip-path="url(#p63231392f1)" d="M 64.499464 110.74875 
L 65.818045 110.74875 
L 65.818045 104.679516 
L 64.499464 104.679516 
z
" style="fill:#ff0000;opacity:0.5;"/>
   </g>
   <g id="patch_8">
    <path clip-path="url(#p63231392f1)" d="M 65.818045 110.74875 
L 67.136625 110.74875 
L 67.136625 103.088141 
L 65.818045 103.088141 
z
" style="fill:#ff0000;opacity:0.5;"/>
   </g>
   <g id="patch_9">
    <path clip-path="url(#p63231392f1)" d="M 67.136625 110.74875 
L 68.455206 110.74875 
L 68.455206 102.631044 
L 67.136625 102.631044 
z
" style="fill:#ff0000;opacity:0.5;"/>
   </g>
   <g id="patch_10">
    <path clip-path="url(#p63231392f1)" d="M 68.455206 110.74875 
L 69.773786 110.74875 
L 69.773786 102.94424 
L 68.455206 102.94424 
z
" style="fill:#ff0000;opacity:0.5;"/>
   </g>
   <g id="patch_11">
    <path clip-path="url(#p63231392f1)" d="M 69.773786 110.74875 
L 71.092367 110.74875 
L 71.092367 103.375943 
L 69.773786 103.375943 
z
" style="fill:#ff0000;opacity:0.5;"/>
   </g>
   <g id="patch_12">
    <path clip-path="url(#p63231392f1)" d="M 71.092367 110.74875 
L 72.410947 110.74875 
L 72.410947 104.044659 
L 71.092367 104.044659 
z
" style="fill:#ff0000;opacity:0.5;"/>
   </g>
   <g id="patch_13">
    <path clip-path="url(#p63231392f1)" d="M 72.410947 110.74875 
L 73.729528 110.74875 
L 73.729528 105.365162 
L 72.410947 105.365162 
z
" style="fill:#ff0000;opacity:0.5;"/>
   </g>
   <g id="patch_14">
    <path clip-path="url(#p63231392f1)" d="M 73.729528 110.74875 
L 75.048109 110.74875 
L 75.048109 106.059272 
L 73.729528 106.059272 
z
" style="fill:#ff0000;opacity:0.5;"/>
   </g>
   <g id="patch_15">
    <path clip-path="url(#p63231392f1)" d="M 75.048109 110.74875 
L 76.366689 110.74875 
L 76.366689 106.804171 
L 75.048109 106.804171 
z
" style="fill:#ff0000;opacity:0.5;"/>
   </g>
   <g id="patch_16">
    <path clip-path="url(#p63231392f1)" d="M 76.366689 110.74875 
L 77.68527 110.74875 
L 77.68527 107.642183 
L 76.366689 107.642183 
z
" style="fill:#ff0000;opacity:0.5;"/>
   </g>
   <g id="patch_17">
    <path clip-path="url(#p63231392f1)" d="M 77.68527 110.74875 
L 79.00385 110.74875 
L 79.00385 107.90459 
L 77.68527 107.90459 
z
" style="fill:#ff0000;opacity:0.5;"/>
   </g>
   <g id="patch_18">
    <path clip-path="url(#p63231392f1)" d="M 79.00385 110.74875 
L 80.322431 110.74875 
L 80.322431 108.666419 
L 79.00385 108.666419 
z
" style="fill:#ff0000;opacity:0.5;"/>
   </g>
   <g id="patch_19">
    <path clip-path="url(#p63231392f1)" d="M 80.322431 110.74875 
L 81.641011 110.74875 
L 81.641011 109.123516 
L 80.322431 109.123516 
z
" style="fill:#ff0000;opacity:0.5;"/>
   </g>
   <g id="patch_20">
    <path clip-path="url(#p63231392f1)" d="M 81.641011 110.74875 
L 82.959592 110.74875 
L 82.959592 109.292811 
L 81.641011 109.292811 
z
" style="fill:#ff0000;opacity:0.5;"/>
   </g>
   <g id="patch_21">
    <path clip-path="url(#p63231392f1)" d="M 82.959592 110.74875 
L 84.278172 110.74875 
L 84.278172 109.597542 
L 82.959592 109.597542 
z
" style="fill:#ff0000;opacity:0.5;"/>
   </g>
   <g id="patch_22">
    <path clip-path="url(#p63231392f1)" d="M 84.278172 110.74875 
L 85.596753 110.74875 
L 85.596753 109.817626 
L 84.278172 109.817626 
z
" style="fill:#ff0000;opacity:0.5;"/>
   </g>
   <g id="patch_23">
    <path clip-path="url(#p63231392f1)" d="M 85.596753 110.74875 
L 86.915333 110.74875 
L 86.915333 109.893809 
L 85.596753 109.893809 
z
" style="fill:#ff0000;opacity:0.5;"/>
   </g>
   <g id="patch_24">
    <path clip-path="url(#p63231392f1)" d="M 86.915333 110.74875 
L 88.233914 110.74875 
L 88.233914 110.173146 
L 86.915333 110.173146 
z
" style="fill:#ff0000;opacity:0.5;"/>
   </g>
   <g id="patch_25">
    <path clip-path="url(#p63231392f1)" d="M 88.233914 110.74875 
L 89.552495 110.74875 
L 89.552495 110.173146 
L 88.233914 110.173146 
z
" style="fill:#ff0000;opacity:0.5;"/>
   </g>
   <g id="patch_26">
    <path clip-path="url(#p63231392f1)" d="M 89.552495 110.74875 
L 90.871075 110.74875 
L 90.871075 110.249329 
L 89.552495 110.249329 
z
" style="fill:#ff0000;opacity:0.5;"/>
   </g>
   <g id="patch_27">
    <path clip-path="url(#p63231392f1)" d="M 90.871075 110.74875 
L 92.189656 110.74875 
L 92.189656 110.325512 
L 90.871075 110.325512 
z
" style="fill:#ff0000;opacity:0.5;"/>
   </g>
   <g id="patch_28">
    <path clip-path="url(#p63231392f1)" d="M 92.189656 110.74875 
L 93.508236 110.74875 
L 93.508236 110.333977 
L 92.189656 110.333977 
z
" style="fill:#ff0000;opacity:0.5;"/>
   </g>
   <g id="patch_29">
    <path clip-path="url(#p63231392f1)" d="M 93.508236 110.74875 
L 94.826817 110.74875 
L 94.826817 110.384765 
L 93.508236 110.384765 
z
" style="fill:#ff0000;opacity:0.5;"/>
   </g>
   <g id="patch_30">
    <path clip-path="url(#p63231392f1)" d="M 94.826817 110.74875 
L 96.145397 110.74875 
L 96.145397 110.579455 
L 94.826817 110.579455 
z
" style="fill:#ff0000;opacity:0.5;"/>
   </g>
   <g id="patch_31">
    <path clip-path="url(#p63231392f1)" d="M 96.145397 110.74875 
L 97.463978 110.74875 
L 97.463978 110.486342 
L 96.145397 110.486342 
z
" style="fill:#ff0000;opacity:0.5;"/>
   </g>
   <g id="patch_32">
    <path clip-path="url(#p63231392f1)" d="M 97.463978 110.74875 
L 98.782558 110.74875 
L 98.782558 110.528666 
L 97.463978 110.528666 
z
" style="fill:#ff0000;opacity:0.5;"/>
   </g>
   <g id="patch_33">
    <path clip-path="url(#p63231392f1)" d="M 98.782558 110.74875 
L 100.101139 110.74875 
L 100.101139 110.503272 
L 98.782558 110.503272 
z
" style="fill:#ff0000;opacity:0.5;"/>
   </g>
   <g id="patch_34">
    <path clip-path="url(#p63231392f1)" d="M 100.101139 110.74875 
L 101.419719 110.74875 
L 101.419719 110.562525 
L 100.101139 110.562525 
z
" style="fill:#ff0000;opacity:0.5;"/>
   </g>
   <g id="patch_35">
    <path clip-path="url(#p63231392f1)" d="M 101.419719 110.74875 
L 102.7383 110.74875 
L 102.7383 110.596384 
L 101.419719 110.596384 
z
" style="fill:#ff0000;opacity:0.5;"/>
   </g>
   <g id="patch_36">
    <path clip-path="url(#p63231392f1)" d="M 102.7383 110.74875 
L 104.05688 110.74875 
L 104.05688 110.621779 
L 102.7383 110.621779 
z
" style="fill:#ff0000;opacity:0.5;"/>
   </g>
   <g id="patch_37">
    <path clip-path="url(#p63231392f1)" d="M 104.05688 110.74875 
L 105.375461 110.74875 
L 105.375461 110.596384 
L 104.05688 110.596384 
z
" style="fill:#ff0000;opacity:0.5;"/>
   </g>
   <g id="patch_38">
    <path clip-path="url(#p63231392f1)" d="M 105.375461 110.74875 
L 106.694042 110.74875 
L 106.694042 110.655638 
L 105.375461 110.655638 
z
" style="fill:#ff0000;opacity:0.5;"/>
   </g>
   <g id="patch_39">
    <path clip-path="url(#p63231392f1)" d="M 106.694042 110.74875 
L 108.012622 110.74875 
L 108.012622 110.664102 
L 106.694042 110.664102 
z
" style="fill:#ff0000;opacity:0.5;"/>
   </g>
   <g id="patch_40">
    <path clip-path="url(#p63231392f1)" d="M 108.012622 110.74875 
L 109.331203 110.74875 
L 109.331203 110.672567 
L 108.012622 110.672567 
z
" style="fill:#ff0000;opacity:0.5;"/>
   </g>
   <g id="patch_41">
    <path clip-path="url(#p63231392f1)" d="M 109.331203 110.74875 
L 110.649783 110.74875 
L 110.649783 110.681032 
L 109.331203 110.681032 
z
" style="fill:#ff0000;opacity:0.5;"/>
   </g>
   <g id="patch_42">
    <path clip-path="url(#p63231392f1)" d="M 110.649783 110.74875 
L 111.968364 110.74875 
L 111.968364 110.681032 
L 110.649783 110.681032 
z
" style="fill:#ff0000;opacity:0.5;"/>
   </g>
   <g id="patch_43">
    <path clip-path="url(#p63231392f1)" d="M 111.968364 110.74875 
L 113.286944 110.74875 
L 113.286944 110.740285 
L 111.968364 110.740285 
z
" style="fill:#ff0000;opacity:0.5;"/>
   </g>
   <g id="patch_44">
    <path clip-path="url(#p63231392f1)" d="M 113.286944 110.74875 
L 114.605525 110.74875 
L 114.605525 110.714891 
L 113.286944 110.714891 
z
" style="fill:#ff0000;opacity:0.5;"/>
   </g>
   <g id="patch_45">
    <path clip-path="url(#p63231392f1)" d="M 114.605525 110.74875 
L 115.924105 110.74875 
L 115.924105 110.740285 
L 114.605525 110.740285 
z
" style="fill:#ff0000;opacity:0.5;"/>
   </g>
   <g id="patch_46">
    <path clip-path="url(#p63231392f1)" d="M 115.924105 110.74875 
L 117.242686 110.74875 
L 117.242686 110.723356 
L 115.924105 110.723356 
z
" style="fill:#ff0000;opacity:0.5;"/>
   </g>
   <g id="patch_47">
    <path clip-path="url(#p63231392f1)" d="M 117.242686 110.74875 
L 118.561266 110.74875 
L 118.561266 110.73182 
L 117.242686 110.73182 
z
" style="fill:#ff0000;opacity:0.5;"/>
   </g>
   <g id="patch_48">
    <path clip-path="url(#p63231392f1)" d="M 118.561266 110.74875 
L 119.879847 110.74875 
L 119.879847 110.73182 
L 118.561266 110.73182 
z
" style="fill:#ff0000;opacity:0.5;"/>
   </g>
   <g id="patch_49">
    <path clip-path="url(#p63231392f1)" d="M 119.879847 110.74875 
L 121.198428 110.74875 
L 121.198428 110.740285 
L 119.879847 110.740285 
z
" style="fill:#ff0000;opacity:0.5;"/>
   </g>
   <g id="patch_50">
    <path clip-path="url(#p63231392f1)" d="M 121.198428 110.74875 
L 122.517008 110.74875 
L 122.517008 110.740285 
L 121.198428 110.740285 
z
" style="fill:#ff0000;opacity:0.5;"/>
   </g>
   <g id="patch_51">
    <path clip-path="url(#p63231392f1)" d="M 122.517008 110.74875 
L 123.835589 110.74875 
L 123.835589 110.74875 
L 122.517008 110.74875 
z
" style="fill:#ff0000;opacity:0.5;"/>
   </g>
   <g id="patch_52">
    <path clip-path="url(#p63231392f1)" d="M 123.835589 110.74875 
L 125.154169 110.74875 
L 125.154169 110.74875 
L 123.835589 110.74875 
z
" style="fill:#ff0000;opacity:0.5;"/>
   </g>
   <g id="patch_53">
    <path clip-path="url(#p63231392f1)" d="M 125.154169 110.74875 
L 126.47275 110.74875 
L 126.47275 110.74875 
L 125.154169 110.74875 
z
" style="fill:#ff0000;opacity:0.5;"/>
   </g>
   <g id="patch_54">
    <path clip-path="url(#p63231392f1)" d="M 126.47275 110.74875 
L 127.79133 110.74875 
L 127.79133 110.74875 
L 126.47275 110.74875 
z
" style="fill:#ff0000;opacity:0.5;"/>
   </g>
   <g id="patch_55">
    <path clip-path="url(#p63231392f1)" d="M 127.79133 110.74875 
L 129.109911 110.74875 
L 129.109911 110.74875 
L 127.79133 110.74875 
z
" style="fill:#ff0000;opacity:0.5;"/>
   </g>
   <g id="patch_56">
    <path clip-path="url(#p63231392f1)" d="M 129.109911 110.74875 
L 130.428491 110.74875 
L 130.428491 110.74875 
L 129.109911 110.74875 
z
" style="fill:#ff0000;opacity:0.5;"/>
   </g>
   <g id="patch_57">
    <path clip-path="url(#p63231392f1)" d="M 130.428491 110.74875 
L 131.747072 110.74875 
L 131.747072 110.74875 
L 130.428491 110.74875 
z
" style="fill:#ff0000;opacity:0.5;"/>
   </g>
   <g id="patch_58">
    <path clip-path="url(#p63231392f1)" d="M 131.747072 110.74875 
L 133.065652 110.74875 
L 133.065652 110.74875 
L 131.747072 110.74875 
z
" style="fill:#ff0000;opacity:0.5;"/>
   </g>
   <g id="patch_59">
    <path clip-path="url(#p63231392f1)" d="M 133.065652 110.74875 
L 134.384233 110.74875 
L 134.384233 110.740285 
L 133.065652 110.740285 
z
" style="fill:#ff0000;opacity:0.5;"/>
   </g>
   <g id="patch_60">
    <path clip-path="url(#p63231392f1)" d="M 59.225142 110.74875 
L 60.543723 110.74875 
L 60.543723 26.177321 
L 59.225142 26.177321 
z
" style="opacity:0.5;"/>
   </g>
   <g id="patch_61">
    <path clip-path="url(#p63231392f1)" d="M 60.543723 110.74875 
L 61.862303 110.74875 
L 61.862303 109.479036 
L 60.543723 109.479036 
z
" style="opacity:0.5;"/>
   </g>
   <g id="patch_62">
    <path clip-path="url(#p63231392f1)" d="M 61.862303 110.74875 
L 63.180884 110.74875 
L 63.180884 110.384765 
L 61.862303 110.384765 
z
" style="opacity:0.5;"/>
   </g>
   <g id="patch_63">
    <path clip-path="url(#p63231392f1)" d="M 63.180884 110.74875 
L 64.499464 110.74875 
L 64.499464 110.647173 
L 63.180884 110.647173 
z
" style="opacity:0.5;"/>
   </g>
   <g id="patch_64">
    <path clip-path="url(#p63231392f1)" d="M 64.499464 110.74875 
L 65.818045 110.74875 
L 65.818045 110.73182 
L 64.499464 110.73182 
z
" style="opacity:0.5;"/>
   </g>
   <g id="patch_65">
    <path clip-path="url(#p63231392f1)" d="M 65.818045 110.74875 
L 67.136625 110.74875 
L 67.136625 110.714891 
L 65.818045 110.714891 
z
" style="opacity:0.5;"/>
   </g>
   <g id="patch_66">
    <path clip-path="url(#p63231392f1)" d="M 67.136625 110.74875 
L 68.455206 110.74875 
L 68.455206 110.723356 
L 67.136625 110.723356 
z
" style="opacity:0.5;"/>
   </g>
   <g id="patch_67">
    <path clip-path="url(#p63231392f1)" d="M 68.455206 110.74875 
L 69.773786 110.74875 
L 69.773786 110.714891 
L 68.455206 110.714891 
z
" style="opacity:0.5;"/>
   </g>
   <g id="matplotlib.axis_1">
    <g id="xtick_1">
     <g id="line2d_1">
      <defs>
       <path d="M 0 0 
L 0 3.5 
" id="mcf4e9422d3" style="stroke:#000000;stroke-width:0.8;"/>
      </defs>
      <g>
       <use style="stroke:#000000;stroke-width:0.8;" x="59.225142" xlink:href="#mcf4e9422d3" y="110.74875"/>
      </g>
     </g>
     <g id="text_1">
      <!-- 0 -->
      <defs>
       <path d="M 27.5 72.296875 
C 20.90625 72.296875 14.90625 69.296875 11.203125 64.40625 
C 6.59375 58 4.296875 48.40625 4.296875 35 
C 4.296875 10.59375 12.296875 -2.296875 27.5 -2.296875 
C 42.5 -2.296875 50.703125 10.59375 50.703125 34.40625 
C 50.703125 48.40625 48.5 57.796875 43.796875 64.40625 
C 40.09375 69.40625 34.203125 72.296875 27.5 72.296875 
z
M 27.5 64.5 
C 37 64.5 41.703125 54.796875 41.703125 35.203125 
C 41.703125 14.59375 37.09375 5 27.296875 5 
C 18 5 13.296875 15 13.296875 34.90625 
C 13.296875 54.796875 18 64.5 27.5 64.5 
z
" id="NimbusSans-Regular-48"/>
      </defs>
      <g transform="translate(56.445455 125.039375)scale(0.1 -0.1)">
       <use xlink:href="#NimbusSans-Regular-48"/>
      </g>
     </g>
    </g>
    <g id="xtick_2">
     <g id="line2d_2">
      <g>
       <use style="stroke:#000000;stroke-width:0.8;" x="125.154169" xlink:href="#mcf4e9422d3" y="110.74875"/>
      </g>
     </g>
     <g id="text_2">
      <!-- 50 -->
      <defs>
       <path d="M 47.59375 70.90625 
L 11 70.90625 
L 5.703125 32.296875 
L 13.796875 32.296875 
C 17.90625 37.203125 21.296875 38.90625 26.90625 38.90625 
C 36.40625 38.90625 42.296875 32.40625 42.296875 21.90625 
C 42.296875 11.703125 36.40625 5.5 26.796875 5.5 
C 19.09375 5.5 14.40625 9.40625 12.296875 17.40625 
L 3.5 17.40625 
C 4.703125 11.59375 5.703125 8.796875 7.796875 6.203125 
C 11.796875 0.796875 19 -2.296875 27 -2.296875 
C 41.296875 -2.296875 51.296875 8.09375 51.296875 23.09375 
C 51.296875 37.09375 42 46.703125 28.40625 46.703125 
C 23.40625 46.703125 19.40625 45.40625 15.296875 42.40625 
L 18.09375 62.203125 
L 47.59375 62.203125 
z
" id="NimbusSans-Regular-53"/>
      </defs>
      <g transform="translate(119.594794 125.039375)scale(0.1 -0.1)">
       <use xlink:href="#NimbusSans-Regular-53"/>
       <use x="55.599991" xlink:href="#NimbusSans-Regular-48"/>
      </g>
     </g>
    </g>
   </g>
   <g id="matplotlib.axis_2">
    <g id="ytick_1">
     <g id="line2d_3">
      <defs>
       <path d="M 0 0 
L -3.5 0 
" id="m92d14f64df" style="stroke:#000000;stroke-width:0.8;"/>
      </defs>
      <g>
       <use style="stroke:#000000;stroke-width:0.8;" x="55.467188" xlink:href="#m92d14f64df" y="110.74875"/>
      </g>
     </g>
     <g id="text_3">
      <!-- 0 -->
      <g transform="translate(42.907812 114.394062)scale(0.1 -0.1)">
       <use xlink:href="#NimbusSans-Regular-48"/>
      </g>
     </g>
    </g>
    <g id="ytick_2">
     <g id="line2d_4">
      <g>
       <use style="stroke:#000000;stroke-width:0.8;" x="55.467188" xlink:href="#m92d14f64df" y="68.424944"/>
      </g>
     </g>
     <g id="text_4">
      <!-- 5000 -->
      <g transform="translate(26.229688 72.070257)scale(0.1 -0.1)">
       <use xlink:href="#NimbusSans-Regular-53"/>
       <use x="55.599991" xlink:href="#NimbusSans-Regular-48"/>
       <use x="111.199982" xlink:href="#NimbusSans-Regular-48"/>
       <use x="166.799973" xlink:href="#NimbusSans-Regular-48"/>
      </g>
     </g>
    </g>
    <g id="ytick_3">
     <g id="line2d_5">
      <g>
       <use style="stroke:#000000;stroke-width:0.8;" x="55.467188" xlink:href="#m92d14f64df" y="26.101139"/>
      </g>
     </g>
     <g id="text_5">
      <!-- 10000 -->
      <defs>
       <path d="M 25.90625 51.5 
L 25.90625 0 
L 34.703125 0 
L 34.703125 72.296875 
L 28.90625 72.296875 
C 25.796875 61.203125 23.796875 59.703125 10.203125 57.90625 
L 10.203125 51.5 
z
" id="NimbusSans-Regular-49"/>
      </defs>
      <g transform="translate(20.670313 29.746451)scale(0.1 -0.1)">
       <use xlink:href="#NimbusSans-Regular-49"/>
       <use x="55.599991" xlink:href="#NimbusSans-Regular-48"/>
       <use x="111.199982" xlink:href="#NimbusSans-Regular-48"/>
       <use x="166.799973" xlink:href="#NimbusSans-Regular-48"/>
       <use x="222.399963" xlink:href="#NimbusSans-Regular-48"/>
      </g>
     </g>
    </g>
    <g id="text_6">
     <!-- Number of cells -->
     <defs>
      <path d="M 64.59375 72.90625 
L 55.796875 72.90625 
L 55.796875 13.296875 
L 17.703125 72.90625 
L 7.59375 72.90625 
L 7.59375 0 
L 16.40625 0 
L 16.40625 59.09375 
L 54.09375 0 
L 64.59375 0 
z
" id="NimbusSans-Regular-78"/>
      <path d="M 48.203125 0 
L 48.203125 52.40625 
L 39.90625 52.40625 
L 39.90625 22.703125 
C 39.90625 12 34.296875 5 25.59375 5 
C 19 5 14.796875 9 14.796875 15.296875 
L 14.796875 52.40625 
L 6.5 52.40625 
L 6.5 12 
C 6.5 3.296875 13 -2.296875 23.203125 -2.296875 
C 30.90625 -2.296875 35.796875 0.40625 40.703125 7.296875 
L 40.703125 0 
z
" id="NimbusSans-Regular-117"/>
      <path d="M 7 52.40625 
L 7 0 
L 15.40625 0 
L 15.40625 32.90625 
C 15.40625 40.5 20.90625 46.59375 27.703125 46.59375 
C 33.90625 46.59375 37.40625 42.796875 37.40625 36.09375 
L 37.40625 0 
L 45.796875 0 
L 45.796875 32.90625 
C 45.796875 40.5 51.296875 46.59375 58.09375 46.59375 
C 64.203125 46.59375 67.796875 42.703125 67.796875 36.09375 
L 67.796875 0 
L 76.203125 0 
L 76.203125 39.296875 
C 76.203125 48.703125 70.796875 53.90625 61 53.90625 
C 54 53.90625 49.796875 51.796875 44.90625 45.90625 
C 41.796875 51.5 37.59375 53.90625 30.796875 53.90625 
C 23.796875 53.90625 19.09375 51.296875 14.703125 45 
L 14.703125 52.40625 
z
" id="NimbusSans-Regular-109"/>
      <path d="M 5.40625 72.90625 
L 5.40625 0 
L 12.90625 0 
L 12.90625 6.703125 
C 16.90625 0.59375 22.203125 -2.296875 29.5 -2.296875 
C 43.296875 -2.296875 52.296875 9 52.296875 26.40625 
C 52.296875 43.40625 43.796875 53.90625 29.90625 53.90625 
C 22.703125 53.90625 17.59375 51.203125 13.703125 45.296875 
L 13.703125 72.90625 
z
M 28.296875 46.09375 
C 37.59375 46.09375 43.59375 38 43.59375 25.5 
C 43.59375 13.59375 37.40625 5.5 28.296875 5.5 
C 19.40625 5.5 13.703125 13.5 13.703125 25.796875 
C 13.703125 38.09375 19.40625 46.09375 28.296875 46.09375 
z
" id="NimbusSans-Regular-98"/>
      <path d="M 51.296875 23.40625 
C 51.296875 31.40625 50.703125 36.203125 49.203125 40.09375 
C 45.796875 48.703125 37.796875 53.90625 28 53.90625 
C 13.40625 53.90625 4 42.796875 4 25.5 
C 4 8.203125 13 -2.296875 27.796875 -2.296875 
C 39.796875 -2.296875 48.09375 4.5 50.203125 15.90625 
L 41.796875 15.90625 
C 39.5 9 34.796875 5.40625 28.09375 5.40625 
C 22.796875 5.40625 18.296875 7.796875 15.5 12.203125 
C 13.5 15.203125 12.796875 18.203125 12.703125 23.40625 
z
M 12.90625 30.203125 
C 13.59375 39.90625 19.5 46.203125 27.90625 46.203125 
C 36.40625 46.203125 42.296875 39.59375 42.296875 30.203125 
z
" id="NimbusSans-Regular-101"/>
      <path d="M 6.90625 52.40625 
L 6.90625 0 
L 15.296875 0 
L 15.296875 27.203125 
C 15.40625 39.796875 20.59375 45.40625 32.09375 45.09375 
L 32.09375 53.59375 
C 30.703125 53.796875 29.90625 53.90625 28.90625 53.90625 
C 23.5 53.90625 19.40625 50.703125 14.59375 42.90625 
L 14.59375 52.40625 
z
" id="NimbusSans-Regular-114"/>
      <path id="NimbusSans-Regular-32"/>
      <path d="M 27.203125 53.90625 
C 12.40625 53.90625 3.59375 43.40625 3.59375 25.796875 
C 3.59375 8.09375 12.40625 -2.296875 27.296875 -2.296875 
C 42.09375 -2.296875 51 8.203125 51 25.40625 
C 51 43.59375 42.40625 53.90625 27.203125 53.90625 
z
M 27.296875 46.203125 
C 36.703125 46.203125 42.296875 38.5 42.296875 25.5 
C 42.296875 13.09375 36.5 5.40625 27.296875 5.40625 
C 18 5.40625 12.296875 13.09375 12.296875 25.796875 
C 12.296875 38.5 18 46.203125 27.296875 46.203125 
z
" id="NimbusSans-Regular-111"/>
      <path d="M 25.796875 52.40625 
L 17.09375 52.40625 
L 17.09375 60.59375 
C 17.09375 64.09375 19 65.90625 22.90625 65.90625 
C 23.59375 65.90625 23.90625 65.90625 25.796875 65.796875 
L 25.796875 72.703125 
C 23.90625 73.09375 22.796875 73.203125 21.09375 73.203125 
C 13.40625 73.203125 8.796875 68.796875 8.796875 61.296875 
L 8.796875 52.40625 
L 1.796875 52.40625 
L 1.796875 45.59375 
L 8.796875 45.59375 
L 8.796875 0 
L 17.09375 0 
L 17.09375 45.59375 
L 25.796875 45.59375 
z
" id="NimbusSans-Regular-102"/>
      <path d="M 47.09375 34.796875 
C 46.703125 39.90625 45.59375 43.203125 43.59375 46.09375 
C 40 51 33.703125 53.90625 26.40625 53.90625 
C 12.203125 53.90625 3.09375 42.703125 3.09375 25.296875 
C 3.09375 8.40625 12.09375 -2.296875 26.296875 -2.296875 
C 38.796875 -2.296875 46.703125 5.203125 47.703125 18 
L 39.296875 18 
C 37.90625 9.59375 33.59375 5.40625 26.5 5.40625 
C 17.296875 5.40625 11.796875 12.90625 11.796875 25.296875 
C 11.796875 38.40625 17.203125 46.203125 26.296875 46.203125 
C 33.296875 46.203125 37.703125 42.09375 38.703125 34.796875 
z
" id="NimbusSans-Regular-99"/>
      <path d="M 15.203125 72.90625 
L 6.796875 72.90625 
L 6.796875 0 
L 15.203125 0 
z
" id="NimbusSans-Regular-108"/>
      <path d="M 43.796875 37.796875 
C 43.703125 48.09375 36.90625 53.90625 24.796875 53.90625 
C 12.59375 53.90625 4.703125 47.59375 4.703125 37.90625 
C 4.703125 29.703125 8.90625 25.796875 21.296875 22.796875 
L 29.09375 20.90625 
C 34.90625 19.5 37.203125 17.40625 37.203125 13.703125 
C 37.203125 8.703125 32.296875 5.40625 25 5.40625 
C 20.5 5.40625 16.703125 6.703125 14.59375 8.90625 
C 13.296875 10.40625 12.703125 11.90625 12.203125 15.59375 
L 3.40625 15.59375 
C 3.796875 3.5 10.59375 -2.296875 24.296875 -2.296875 
C 37.5 -2.296875 45.90625 4.203125 45.90625 14.296875 
C 45.90625 22.09375 41.5 26.40625 31.09375 28.90625 
L 23.09375 30.796875 
C 16.296875 32.40625 13.40625 34.59375 13.40625 38.296875 
C 13.40625 43.203125 17.703125 46.203125 24.5 46.203125 
C 31.203125 46.203125 34.796875 43.296875 35 37.796875 
z
" id="NimbusSans-Regular-115"/>
     </defs>
     <g transform="translate(14.490625 101.076875)rotate(-90)scale(0.1 -0.1)">
      <use xlink:href="#NimbusSans-Regular-78"/>
      <use x="72.199982" xlink:href="#NimbusSans-Regular-117"/>
      <use x="127.799973" xlink:href="#NimbusSans-Regular-109"/>
      <use x="211.09996" xlink:href="#NimbusSans-Regular-98"/>
      <use x="266.699951" xlink:href="#NimbusSans-Regular-101"/>
      <use x="322.299942" xlink:href="#NimbusSans-Regular-114"/>
      <use x="355.59993" xlink:href="#NimbusSans-Regular-32"/>
      <use x="383.399918" xlink:href="#NimbusSans-Regular-111"/>
      <use x="438.999908" xlink:href="#NimbusSans-Regular-102"/>
      <use x="466.799896" xlink:href="#NimbusSans-Regular-32"/>
      <use x="494.599884" xlink:href="#NimbusSans-Regular-99"/>
      <use x="544.599869" xlink:href="#NimbusSans-Regular-101"/>
      <use x="600.19986" xlink:href="#NimbusSans-Regular-108"/>
      <use x="622.399857" xlink:href="#NimbusSans-Regular-108"/>
      <use x="644.599854" xlink:href="#NimbusSans-Regular-115"/>
     </g>
    </g>
   </g>
   <g id="patch_68">
    <path d="M 55.467188 110.74875 
L 55.467188 21.94875 
" style="fill:none;stroke:#000000;stroke-linecap:square;stroke-linejoin:miter;stroke-width:0.8;"/>
   </g>
   <g id="patch_69">
    <path d="M 138.142188 110.74875 
L 138.142188 21.94875 
" style="fill:none;stroke:#000000;stroke-linecap:square;stroke-linejoin:miter;stroke-width:0.8;"/>
   </g>
   <g id="patch_70">
    <path d="M 55.467188 110.74875 
L 138.142188 110.74875 
" style="fill:none;stroke:#000000;stroke-linecap:square;stroke-linejoin:miter;stroke-width:0.8;"/>
   </g>
   <g id="patch_71">
    <path d="M 55.467188 21.94875 
L 138.142188 21.94875 
" style="fill:none;stroke:#000000;stroke-linecap:square;stroke-linejoin:miter;stroke-width:0.8;"/>
   </g>
   <g id="text_7">
    <!-- HLA-DRA -->
    <defs>
     <path d="M 55.09375 33.203125 
L 55.09375 0 
L 64.40625 0 
L 64.40625 72.90625 
L 55.09375 72.90625 
L 55.09375 41.40625 
L 17.59375 41.40625 
L 17.59375 72.90625 
L 8.296875 72.90625 
L 8.296875 0 
L 17.59375 0 
L 17.59375 33.203125 
z
" id="NimbusSans-Regular-72"/>
     <path d="M 17.296875 72.90625 
L 8 72.90625 
L 8 0 
L 53.296875 0 
L 53.296875 8.203125 
L 17.296875 8.203125 
z
" id="NimbusSans-Regular-76"/>
     <path d="M 47.40625 21.90625 
L 54.90625 0 
L 65.296875 0 
L 39.703125 72.90625 
L 27.703125 72.90625 
L 1.703125 0 
L 11.59375 0 
L 19.296875 21.90625 
z
M 44.796875 29.703125 
L 21.59375 29.703125 
L 33.59375 62.90625 
z
" id="NimbusSans-Regular-65"/>
     <path d="M 28.40625 31.203125 
L 4.59375 31.203125 
L 4.59375 24 
L 28.40625 24 
z
" id="NimbusSans-Regular-45"/>
     <path d="M 8.90625 0 
L 37 0 
C 55.40625 0 66.703125 13.796875 66.703125 36.5 
C 66.703125 59.09375 55.5 72.90625 37 72.90625 
L 8.90625 72.90625 
z
M 18.203125 8.203125 
L 18.203125 64.703125 
L 35.40625 64.703125 
C 49.796875 64.703125 57.40625 55 57.40625 36.40625 
C 57.40625 17.90625 49.796875 8.203125 35.40625 8.203125 
z
" id="NimbusSans-Regular-68"/>
     <path d="M 18.59375 31.40625 
L 42.59375 31.40625 
C 50.90625 31.40625 54.59375 27.40625 54.59375 18.40625 
L 54.5 11.90625 
C 54.5 7.40625 55.296875 3 56.59375 0 
L 67.90625 0 
L 67.90625 2.296875 
C 64.40625 4.703125 63.703125 7.296875 63.5 17 
C 63.40625 29 61.5 32.59375 53.59375 36 
C 61.796875 40.09375 65.09375 45 65.09375 53.40625 
C 65.09375 66 57.296875 72.90625 42.90625 72.90625 
L 9.296875 72.90625 
L 9.296875 0 
L 18.59375 0 
z
M 18.59375 39.59375 
L 18.59375 64.703125 
L 41.09375 64.703125 
C 46.296875 64.703125 49.296875 63.90625 51.59375 61.90625 
C 54.09375 59.796875 55.40625 56.5 55.40625 52.203125 
C 55.40625 43.5 51 39.59375 41.09375 39.59375 
z
" id="NimbusSans-Regular-82"/>
    </defs>
    <g transform="translate(70.470313 15.94875)scale(0.12 -0.12)">
     <use xlink:href="#NimbusSans-Regular-72"/>
     <use x="72.199982" xlink:href="#NimbusSans-Regular-76"/>
     <use x="127.799973" xlink:href="#NimbusSans-Regular-65"/>
     <use x="194.499969" xlink:href="#NimbusSans-Regular-45"/>
     <use x="227.799957" xlink:href="#NimbusSans-Regular-68"/>
     <use x="299.999939" xlink:href="#NimbusSans-Regular-82"/>
     <use x="372.199921" xlink:href="#NimbusSans-Regular-65"/>
    </g>
   </g>
   <g id="legend_1">
    <g id="patch_72">
     <path d="M 76.692188 38.239375 
L 96.692188 38.239375 
L 96.692188 31.239375 
L 76.692188 31.239375 
z
" style="fill:#ff0000;opacity:0.5;"/>
    </g>
    <g id="text_8">
     <!-- B cell -->
     <defs>
      <path d="M 7.90625 0 
L 40.796875 0 
C 47.703125 0 52.796875 1.90625 56.703125 6.09375 
C 60.296875 9.90625 62.296875 15.09375 62.296875 20.796875 
C 62.296875 29.59375 58.296875 34.90625 49 38.5 
C 55.703125 41.59375 59.09375 46.90625 59.09375 54.40625 
C 59.09375 59.796875 57.09375 64.40625 53.296875 67.796875 
C 49.40625 71.296875 44.5 72.90625 37.5 72.90625 
L 7.90625 72.90625 
z
M 17.203125 41.5 
L 17.203125 64.703125 
L 35.203125 64.703125 
C 40.40625 64.703125 43.296875 64 45.796875 62.09375 
C 48.40625 60.09375 49.796875 57.09375 49.796875 53.09375 
C 49.796875 49.09375 48.40625 46.09375 45.796875 44.09375 
C 43.296875 42.203125 40.40625 41.5 35.203125 41.5 
z
M 17.203125 8.203125 
L 17.203125 33.296875 
L 39.90625 33.296875 
C 48.09375 33.296875 53 28.59375 53 20.703125 
C 53 12.90625 48.09375 8.203125 39.90625 8.203125 
z
" id="NimbusSans-Regular-66"/>
     </defs>
     <g transform="translate(104.692188 38.239375)scale(0.1 -0.1)">
      <use xlink:href="#NimbusSans-Regular-66"/>
      <use x="66.699997" xlink:href="#NimbusSans-Regular-32"/>
      <use x="94.499985" xlink:href="#NimbusSans-Regular-99"/>
      <use x="144.499969" xlink:href="#NimbusSans-Regular-101"/>
      <use x="200.09996" xlink:href="#NimbusSans-Regular-108"/>
      <use x="222.299957" xlink:href="#NimbusSans-Regular-108"/>
     </g>
    </g>
    <g id="patch_73">
     <path d="M 76.692188 52.709687 
L 96.692188 52.709687 
L 96.692188 45.709687 
L 76.692188 45.709687 
z
" style="opacity:0.5;"/>
    </g>
    <g id="text_9">
     <!-- T cell -->
     <defs>
      <path d="M 35.40625 64.703125 
L 59.296875 64.703125 
L 59.296875 72.90625 
L 2.09375 72.90625 
L 2.09375 64.703125 
L 26.09375 64.703125 
L 26.09375 0 
L 35.40625 0 
z
" id="NimbusSans-Regular-84"/>
     </defs>
     <g transform="translate(104.692188 52.709687)scale(0.1 -0.1)">
      <use xlink:href="#NimbusSans-Regular-84"/>
      <use x="61.099991" xlink:href="#NimbusSans-Regular-32"/>
      <use x="88.899979" xlink:href="#NimbusSans-Regular-99"/>
      <use x="138.899963" xlink:href="#NimbusSans-Regular-101"/>
      <use x="194.499954" xlink:href="#NimbusSans-Regular-108"/>
      <use x="216.699951" xlink:href="#NimbusSans-Regular-108"/>
     </g>
    </g>
   </g>
  </g>
  <g id="axes_2">
   <g id="patch_74">
    <path d="M 187.067187 110.74875 
L 269.742188 110.74875 
L 269.742188 21.94875 
L 187.067187 21.94875 
z
" style="fill:#ffffff;"/>
   </g>
   <g id="patch_75">
    <path clip-path="url(#p441aa773bf)" d="M 190.825142 110.74875 
L 193.249629 110.74875 
L 193.249629 105.360995 
L 190.825142 105.360995 
z
" style="fill:#ff0000;opacity:0.5;"/>
   </g>
   <g id="patch_76">
    <path clip-path="url(#p441aa773bf)" d="M 193.249629 110.74875 
L 195.674116 110.74875 
L 195.674116 99.265757 
L 193.249629 99.265757 
z
" style="fill:#ff0000;opacity:0.5;"/>
   </g>
   <g id="patch_77">
    <path clip-path="url(#p441aa773bf)" d="M 195.674116 110.74875 
L 198.098602 110.74875 
L 198.098602 95.746482 
L 195.674116 95.746482 
z
" style="fill:#ff0000;opacity:0.5;"/>
   </g>
   <g id="patch_78">
    <path clip-path="url(#p441aa773bf)" d="M 198.098602 110.74875 
L 200.523089 110.74875 
L 200.523089 95.020859 
L 198.098602 95.020859 
z
" style="fill:#ff0000;opacity:0.5;"/>
   </g>
   <g id="patch_79">
    <path clip-path="url(#p441aa773bf)" d="M 200.523089 110.74875 
L 202.947576 110.74875 
L 202.947576 98.44036 
L 200.523089 98.44036 
z
" style="fill:#ff0000;opacity:0.5;"/>
   </g>
   <g id="patch_80">
    <path clip-path="url(#p441aa773bf)" d="M 202.947576 110.74875 
L 205.372063 110.74875 
L 205.372063 101.642174 
L 202.947576 101.642174 
z
" style="fill:#ff0000;opacity:0.5;"/>
   </g>
   <g id="patch_81">
    <path clip-path="url(#p441aa773bf)" d="M 205.372063 110.74875 
L 207.79655 110.74875 
L 207.79655 104.308841 
L 205.372063 104.308841 
z
" style="fill:#ff0000;opacity:0.5;"/>
   </g>
   <g id="patch_82">
    <path clip-path="url(#p441aa773bf)" d="M 207.79655 110.74875 
L 210.221036 110.74875 
L 210.221036 106.068478 
L 207.79655 106.068478 
z
" style="fill:#ff0000;opacity:0.5;"/>
   </g>
   <g id="patch_83">
    <path clip-path="url(#p441aa773bf)" d="M 210.221036 110.74875 
L 212.645523 110.74875 
L 212.645523 107.891607 
L 210.221036 107.891607 
z
" style="fill:#ff0000;opacity:0.5;"/>
   </g>
   <g id="patch_84">
    <path clip-path="url(#p441aa773bf)" d="M 212.645523 110.74875 
L 215.07001 110.74875 
L 215.07001 108.689793 
L 212.645523 108.689793 
z
" style="fill:#ff0000;opacity:0.5;"/>
   </g>
   <g id="patch_85">
    <path clip-path="url(#p441aa773bf)" d="M 215.07001 110.74875 
L 217.494497 110.74875 
L 217.494497 109.288433 
L 215.07001 109.288433 
z
" style="fill:#ff0000;opacity:0.5;"/>
   </g>
   <g id="patch_86">
    <path clip-path="url(#p441aa773bf)" d="M 217.494497 110.74875 
L 219.918984 110.74875 
L 219.918984 109.51519 
L 217.494497 109.51519 
z
" style="fill:#ff0000;opacity:0.5;"/>
   </g>
   <g id="patch_87">
    <path clip-path="url(#p441aa773bf)" d="M 219.918984 110.74875 
L 222.34347 110.74875 
L 222.34347 109.941494 
L 219.918984 109.941494 
z
" style="fill:#ff0000;opacity:0.5;"/>
   </g>
   <g id="patch_88">
    <path clip-path="url(#p441aa773bf)" d="M 222.34347 110.74875 
L 224.767957 110.74875 
L 224.767957 110.168251 
L 222.34347 110.168251 
z
" style="fill:#ff0000;opacity:0.5;"/>
   </g>
   <g id="patch_89">
    <path clip-path="url(#p441aa773bf)" d="M 224.767957 110.74875 
L 227.192444 110.74875 
L 227.192444 110.295235 
L 224.767957 110.295235 
z
" style="fill:#ff0000;opacity:0.5;"/>
   </g>
   <g id="patch_90">
    <path clip-path="url(#p441aa773bf)" d="M 227.192444 110.74875 
L 229.616931 110.74875 
L 229.616931 110.286165 
L 227.192444 110.286165 
z
" style="fill:#ff0000;opacity:0.5;"/>
   </g>
   <g id="patch_91">
    <path clip-path="url(#p441aa773bf)" d="M 229.616931 110.74875 
L 232.041418 110.74875 
L 232.041418 110.467571 
L 229.616931 110.467571 
z
" style="fill:#ff0000;opacity:0.5;"/>
   </g>
   <g id="patch_92">
    <path clip-path="url(#p441aa773bf)" d="M 232.041418 110.74875 
L 234.465905 110.74875 
L 234.465905 110.485711 
L 232.041418 110.485711 
z
" style="fill:#ff0000;opacity:0.5;"/>
   </g>
   <g id="patch_93">
    <path clip-path="url(#p441aa773bf)" d="M 234.465905 110.74875 
L 236.890391 110.74875 
L 236.890391 110.549204 
L 234.465905 110.549204 
z
" style="fill:#ff0000;opacity:0.5;"/>
   </g>
   <g id="patch_94">
    <path clip-path="url(#p441aa773bf)" d="M 236.890391 110.74875 
L 239.314878 110.74875 
L 239.314878 110.603625 
L 236.890391 110.603625 
z
" style="fill:#ff0000;opacity:0.5;"/>
   </g>
   <g id="patch_95">
    <path clip-path="url(#p441aa773bf)" d="M 239.314878 110.74875 
L 241.739365 110.74875 
L 241.739365 110.648977 
L 239.314878 110.648977 
z
" style="fill:#ff0000;opacity:0.5;"/>
   </g>
   <g id="patch_96">
    <path clip-path="url(#p441aa773bf)" d="M 241.739365 110.74875 
L 244.163852 110.74875 
L 244.163852 110.621766 
L 241.739365 110.621766 
z
" style="fill:#ff0000;opacity:0.5;"/>
   </g>
   <g id="patch_97">
    <path clip-path="url(#p441aa773bf)" d="M 244.163852 110.74875 
L 246.588339 110.74875 
L 246.588339 110.667117 
L 244.163852 110.667117 
z
" style="fill:#ff0000;opacity:0.5;"/>
   </g>
   <g id="patch_98">
    <path clip-path="url(#p441aa773bf)" d="M 246.588339 110.74875 
L 249.012825 110.74875 
L 249.012825 110.676188 
L 246.588339 110.676188 
z
" style="fill:#ff0000;opacity:0.5;"/>
   </g>
   <g id="patch_99">
    <path clip-path="url(#p441aa773bf)" d="M 249.012825 110.74875 
L 251.437312 110.74875 
L 251.437312 110.712469 
L 249.012825 110.712469 
z
" style="fill:#ff0000;opacity:0.5;"/>
   </g>
   <g id="patch_100">
    <path clip-path="url(#p441aa773bf)" d="M 251.437312 110.74875 
L 253.861799 110.74875 
L 253.861799 110.685258 
L 251.437312 110.685258 
z
" style="fill:#ff0000;opacity:0.5;"/>
   </g>
   <g id="patch_101">
    <path clip-path="url(#p441aa773bf)" d="M 253.861799 110.74875 
L 256.286286 110.74875 
L 256.286286 110.73968 
L 253.861799 110.73968 
z
" style="fill:#ff0000;opacity:0.5;"/>
   </g>
   <g id="patch_102">
    <path clip-path="url(#p441aa773bf)" d="M 256.286286 110.74875 
L 258.710773 110.74875 
L 258.710773 110.730609 
L 256.286286 110.730609 
z
" style="fill:#ff0000;opacity:0.5;"/>
   </g>
   <g id="patch_103">
    <path clip-path="url(#p441aa773bf)" d="M 258.710773 110.74875 
L 261.135259 110.74875 
L 261.135259 110.73968 
L 258.710773 110.73968 
z
" style="fill:#ff0000;opacity:0.5;"/>
   </g>
   <g id="patch_104">
    <path clip-path="url(#p441aa773bf)" d="M 261.135259 110.74875 
L 263.559746 110.74875 
L 263.559746 110.74875 
L 261.135259 110.74875 
z
" style="fill:#ff0000;opacity:0.5;"/>
   </g>
   <g id="patch_105">
    <path clip-path="url(#p441aa773bf)" d="M 263.559746 110.74875 
L 265.984233 110.74875 
L 265.984233 110.730609 
L 263.559746 110.730609 
z
" style="fill:#ff0000;opacity:0.5;"/>
   </g>
   <g id="patch_106">
    <path clip-path="url(#p441aa773bf)" d="M 190.825142 110.74875 
L 193.249629 110.74875 
L 193.249629 26.177321 
L 190.825142 26.177321 
z
" style="opacity:0.5;"/>
   </g>
   <g id="patch_107">
    <path clip-path="url(#p441aa773bf)" d="M 193.249629 110.74875 
L 195.674116 110.74875 
L 195.674116 104.354192 
L 193.249629 104.354192 
z
" style="opacity:0.5;"/>
   </g>
   <g id="patch_108">
    <path clip-path="url(#p441aa773bf)" d="M 195.674116 110.74875 
L 198.098602 110.74875 
L 198.098602 109.415417 
L 195.674116 109.415417 
z
" style="opacity:0.5;"/>
   </g>
   <g id="patch_109">
    <path clip-path="url(#p441aa773bf)" d="M 198.098602 110.74875 
L 200.523089 110.74875 
L 200.523089 110.503852 
L 198.098602 110.503852 
z
" style="opacity:0.5;"/>
   </g>
   <g id="patch_110">
    <path clip-path="url(#p441aa773bf)" d="M 200.523089 110.74875 
L 202.947576 110.74875 
L 202.947576 110.694328 
L 200.523089 110.694328 
z
" style="opacity:0.5;"/>
   </g>
   <g id="matplotlib.axis_3">
    <g id="xtick_3">
     <g id="line2d_6">
      <g>
       <use style="stroke:#000000;stroke-width:0.8;" x="190.825142" xlink:href="#mcf4e9422d3" y="110.74875"/>
      </g>
     </g>
     <g id="text_10">
      <!-- 0 -->
      <g transform="translate(188.045455 125.039375)scale(0.1 -0.1)">
       <use xlink:href="#NimbusSans-Regular-48"/>
      </g>
     </g>
    </g>
    <g id="xtick_4">
     <g id="line2d_7">
      <g>
       <use style="stroke:#000000;stroke-width:0.8;" x="239.314878" xlink:href="#mcf4e9422d3" y="110.74875"/>
      </g>
     </g>
     <g id="text_11">
      <!-- 20 -->
      <defs>
       <path d="M 50.59375 8.703125 
L 13.296875 8.703125 
C 14.203125 14.703125 17.40625 18.5 26.09375 23.796875 
L 36.09375 29.40625 
C 46 34.90625 51.09375 42.296875 51.09375 51.203125 
C 51.09375 57.203125 48.703125 62.796875 44.5 66.703125 
C 40.296875 70.5 35.09375 72.296875 28.40625 72.296875 
C 19.40625 72.296875 12.703125 69.09375 8.796875 62.90625 
C 6.296875 59.09375 5.203125 54.59375 5 47.296875 
L 13.796875 47.296875 
C 14.09375 52.203125 14.703125 55.09375 15.90625 57.5 
C 18.203125 61.90625 22.796875 64.59375 28.09375 64.59375 
C 36.09375 64.59375 42.09375 58.796875 42.09375 51 
C 42.09375 45.203125 38.796875 40.203125 32.5 36.59375 
L 23.296875 31.203125 
C 8.5 22.703125 4.203125 15.90625 3.40625 0.09375 
L 50.59375 0.09375 
z
" id="NimbusSans-Regular-50"/>
      </defs>
      <g transform="translate(233.755503 125.039375)scale(0.1 -0.1)">
       <use xlink:href="#NimbusSans-Regular-50"/>
       <use x="55.599991" xlink:href="#NimbusSans-Regular-48"/>
      </g>
     </g>
    </g>
   </g>
   <g id="matplotlib.axis_4">
    <g id="ytick_4">
     <g id="line2d_8">
      <g>
       <use style="stroke:#000000;stroke-width:0.8;" x="187.067187" xlink:href="#m92d14f64df" y="110.74875"/>
      </g>
     </g>
     <g id="text_12">
      <!-- 0 -->
      <g transform="translate(174.507812 114.394062)scale(0.1 -0.1)">
       <use xlink:href="#NimbusSans-Regular-48"/>
      </g>
     </g>
    </g>
    <g id="ytick_5">
     <g id="line2d_9">
      <g>
       <use style="stroke:#000000;stroke-width:0.8;" x="187.067187" xlink:href="#m92d14f64df" y="88.073013"/>
      </g>
     </g>
     <g id="text_13">
      <!-- 2500 -->
      <g transform="translate(157.829687 91.718326)scale(0.1 -0.1)">
       <use xlink:href="#NimbusSans-Regular-50"/>
       <use x="55.599991" xlink:href="#NimbusSans-Regular-53"/>
       <use x="111.199982" xlink:href="#NimbusSans-Regular-48"/>
       <use x="166.799973" xlink:href="#NimbusSans-Regular-48"/>
      </g>
     </g>
    </g>
    <g id="ytick_6">
     <g id="line2d_10">
      <g>
       <use style="stroke:#000000;stroke-width:0.8;" x="187.067187" xlink:href="#m92d14f64df" y="65.397276"/>
      </g>
     </g>
     <g id="text_14">
      <!-- 5000 -->
      <g transform="translate(157.829687 69.042589)scale(0.1 -0.1)">
       <use xlink:href="#NimbusSans-Regular-53"/>
       <use x="55.599991" xlink:href="#NimbusSans-Regular-48"/>
       <use x="111.199982" xlink:href="#NimbusSans-Regular-48"/>
       <use x="166.799973" xlink:href="#NimbusSans-Regular-48"/>
      </g>
     </g>
    </g>
    <g id="ytick_7">
     <g id="line2d_11">
      <g>
       <use style="stroke:#000000;stroke-width:0.8;" x="187.067187" xlink:href="#m92d14f64df" y="42.721539"/>
      </g>
     </g>
     <g id="text_15">
      <!-- 7500 -->
      <defs>
       <path d="M 52 70.90625 
L 4.59375 70.90625 
L 4.59375 62.203125 
L 42.90625 62.203125 
C 26 38.09375 19.09375 23.296875 13.796875 0 
L 23.203125 0 
C 27.09375 22.703125 36 42.203125 52 63.5 
z
" id="NimbusSans-Regular-55"/>
      </defs>
      <g transform="translate(157.829687 46.366852)scale(0.1 -0.1)">
       <use xlink:href="#NimbusSans-Regular-55"/>
       <use x="55.599991" xlink:href="#NimbusSans-Regular-53"/>
       <use x="111.199982" xlink:href="#NimbusSans-Regular-48"/>
       <use x="166.799973" xlink:href="#NimbusSans-Regular-48"/>
      </g>
     </g>
    </g>
   </g>
   <g id="patch_111">
    <path d="M 187.067187 110.74875 
L 187.067187 21.94875 
" style="fill:none;stroke:#000000;stroke-linecap:square;stroke-linejoin:miter;stroke-width:0.8;"/>
   </g>
   <g id="patch_112">
    <path d="M 269.742188 110.74875 
L 269.742188 21.94875 
" style="fill:none;stroke:#000000;stroke-linecap:square;stroke-linejoin:miter;stroke-width:0.8;"/>
   </g>
   <g id="patch_113">
    <path d="M 187.067187 110.74875 
L 269.742188 110.74875 
" style="fill:none;stroke:#000000;stroke-linecap:square;stroke-linejoin:miter;stroke-width:0.8;"/>
   </g>
   <g id="patch_114">
    <path d="M 187.067187 21.94875 
L 269.742188 21.94875 
" style="fill:none;stroke:#000000;stroke-linecap:square;stroke-linejoin:miter;stroke-width:0.8;"/>
   </g>
   <g id="text_16">
    <!-- HLA-DPA1 -->
    <defs>
     <path d="M 18.40625 30.90625 
L 41.296875 30.90625 
C 47 30.90625 51.5 32.59375 55.40625 36.09375 
C 59.796875 40.09375 61.703125 44.796875 61.703125 51.5 
C 61.703125 65.203125 53.59375 72.90625 39.203125 72.90625 
L 9.09375 72.90625 
L 9.09375 0 
L 18.40625 0 
z
M 18.40625 39.09375 
L 18.40625 64.703125 
L 37.796875 64.703125 
C 46.703125 64.703125 52 59.90625 52 51.90625 
C 52 43.90625 46.703125 39.09375 37.796875 39.09375 
z
" id="NimbusSans-Regular-80"/>
    </defs>
    <g transform="translate(199.064687 15.94875)scale(0.12 -0.12)">
     <use xlink:href="#NimbusSans-Regular-72"/>
     <use x="72.199982" xlink:href="#NimbusSans-Regular-76"/>
     <use x="127.799973" xlink:href="#NimbusSans-Regular-65"/>
     <use x="194.499969" xlink:href="#NimbusSans-Regular-45"/>
     <use x="227.799957" xlink:href="#NimbusSans-Regular-68"/>
     <use x="299.999939" xlink:href="#NimbusSans-Regular-80"/>
     <use x="366.699936" xlink:href="#NimbusSans-Regular-65"/>
     <use x="433.399933" xlink:href="#NimbusSans-Regular-49"/>
    </g>
   </g>
  </g>
  <g id="axes_3">
   <g id="patch_115">
    <path d="M 55.467188 242.34875 
L 138.142188 242.34875 
L 138.142188 153.54875 
L 55.467188 153.54875 
z
" style="fill:#ffffff;"/>
   </g>
   <g id="patch_116">
    <path clip-path="url(#p701a3cc98b)" d="M 59.225142 242.34875 
L 62.231506 242.34875 
L 62.231506 236.974117 
L 59.225142 236.974117 
z
" style="fill:#ff0000;opacity:0.5;"/>
   </g>
   <g id="patch_117">
    <path clip-path="url(#p701a3cc98b)" d="M 62.231506 242.34875 
L 65.237869 242.34875 
L 65.237869 230.413904 
L 62.231506 230.413904 
z
" style="fill:#ff0000;opacity:0.5;"/>
   </g>
   <g id="patch_118">
    <path clip-path="url(#p701a3cc98b)" d="M 65.237869 242.34875 
L 68.244233 242.34875 
L 68.244233 226.953764 
L 65.237869 226.953764 
z
" style="fill:#ff0000;opacity:0.5;"/>
   </g>
   <g id="patch_119">
    <path clip-path="url(#p701a3cc98b)" d="M 68.244233 242.34875 
L 71.250597 242.34875 
L 71.250597 227.103059 
L 68.244233 227.103059 
z
" style="fill:#ff0000;opacity:0.5;"/>
   </g>
   <g id="patch_120">
    <path clip-path="url(#p701a3cc98b)" d="M 71.250597 242.34875 
L 74.25696 242.34875 
L 74.25696 229.781594 
L 71.250597 229.781594 
z
" style="fill:#ff0000;opacity:0.5;"/>
   </g>
   <g id="patch_121">
    <path clip-path="url(#p701a3cc98b)" d="M 74.25696 242.34875 
L 77.263324 242.34875 
L 77.263324 232.908014 
L 74.25696 232.908014 
z
" style="fill:#ff0000;opacity:0.5;"/>
   </g>
   <g id="patch_122">
    <path clip-path="url(#p701a3cc98b)" d="M 77.263324 242.34875 
L 80.269688 242.34875 
L 80.269688 236.13982 
L 77.263324 236.13982 
z
" style="fill:#ff0000;opacity:0.5;"/>
   </g>
   <g id="patch_123">
    <path clip-path="url(#p701a3cc98b)" d="M 80.269688 242.34875 
L 83.276051 242.34875 
L 83.276051 238.37925 
L 80.269688 238.37925 
z
" style="fill:#ff0000;opacity:0.5;"/>
   </g>
   <g id="patch_124">
    <path clip-path="url(#p701a3cc98b)" d="M 83.276051 242.34875 
L 86.282415 242.34875 
L 86.282415 239.872203 
L 83.276051 239.872203 
z
" style="fill:#ff0000;opacity:0.5;"/>
   </g>
   <g id="patch_125">
    <path clip-path="url(#p701a3cc98b)" d="M 86.282415 242.34875 
L 89.288778 242.34875 
L 89.288778 240.653809 
L 86.282415 240.653809 
z
" style="fill:#ff0000;opacity:0.5;"/>
   </g>
   <g id="patch_126">
    <path clip-path="url(#p701a3cc98b)" d="M 89.288778 242.34875 
L 92.295142 242.34875 
L 92.295142 241.242208 
L 89.288778 241.242208 
z
" style="fill:#ff0000;opacity:0.5;"/>
   </g>
   <g id="patch_127">
    <path clip-path="url(#p701a3cc98b)" d="M 92.295142 242.34875 
L 95.301506 242.34875 
L 95.301506 241.400285 
L 92.295142 241.400285 
z
" style="fill:#ff0000;opacity:0.5;"/>
   </g>
   <g id="patch_128">
    <path clip-path="url(#p701a3cc98b)" d="M 95.301506 242.34875 
L 98.307869 242.34875 
L 98.307869 241.663748 
L 95.301506 241.663748 
z
" style="fill:#ff0000;opacity:0.5;"/>
   </g>
   <g id="patch_129">
    <path clip-path="url(#p701a3cc98b)" d="M 98.307869 242.34875 
L 101.314233 242.34875 
L 101.314233 241.892082 
L 98.307869 241.892082 
z
" style="fill:#ff0000;opacity:0.5;"/>
   </g>
   <g id="patch_130">
    <path clip-path="url(#p701a3cc98b)" d="M 101.314233 242.34875 
L 104.320597 242.34875 
L 104.320597 242.067723 
L 101.314233 242.067723 
z
" style="fill:#ff0000;opacity:0.5;"/>
   </g>
   <g id="patch_131">
    <path clip-path="url(#p701a3cc98b)" d="M 104.320597 242.34875 
L 107.32696 242.34875 
L 107.32696 242.058941 
L 104.320597 242.058941 
z
" style="fill:#ff0000;opacity:0.5;"/>
   </g>
   <g id="patch_132">
    <path clip-path="url(#p701a3cc98b)" d="M 107.32696 242.34875 
L 110.333324 242.34875 
L 110.333324 242.173108 
L 107.32696 242.173108 
z
" style="fill:#ff0000;opacity:0.5;"/>
   </g>
   <g id="patch_133">
    <path clip-path="url(#p701a3cc98b)" d="M 110.333324 242.34875 
L 113.339687 242.34875 
L 113.339687 242.225801 
L 110.333324 242.225801 
z
" style="fill:#ff0000;opacity:0.5;"/>
   </g>
   <g id="patch_134">
    <path clip-path="url(#p701a3cc98b)" d="M 113.339688 242.34875 
L 116.346051 242.34875 
L 116.346051 242.296058 
L 113.339688 242.296058 
z
" style="fill:#ff0000;opacity:0.5;"/>
   </g>
   <g id="patch_135">
    <path clip-path="url(#p701a3cc98b)" d="M 116.346051 242.34875 
L 119.352415 242.34875 
L 119.352415 242.287275 
L 116.346051 242.287275 
z
" style="fill:#ff0000;opacity:0.5;"/>
   </g>
   <g id="patch_136">
    <path clip-path="url(#p701a3cc98b)" d="M 119.352415 242.34875 
L 122.358778 242.34875 
L 122.358778 242.296058 
L 119.352415 242.296058 
z
" style="fill:#ff0000;opacity:0.5;"/>
   </g>
   <g id="patch_137">
    <path clip-path="url(#p701a3cc98b)" d="M 122.358778 242.34875 
L 125.365142 242.34875 
L 125.365142 242.339968 
L 122.358778 242.339968 
z
" style="fill:#ff0000;opacity:0.5;"/>
   </g>
   <g id="patch_138">
    <path clip-path="url(#p701a3cc98b)" d="M 125.365142 242.34875 
L 128.371506 242.34875 
L 128.371506 242.34875 
L 125.365142 242.34875 
z
" style="fill:#ff0000;opacity:0.5;"/>
   </g>
   <g id="patch_139">
    <path clip-path="url(#p701a3cc98b)" d="M 128.371506 242.34875 
L 131.377869 242.34875 
L 131.377869 242.339968 
L 128.371506 242.339968 
z
" style="fill:#ff0000;opacity:0.5;"/>
   </g>
   <g id="patch_140">
    <path clip-path="url(#p701a3cc98b)" d="M 131.377869 242.34875 
L 134.384233 242.34875 
L 134.384233 242.339968 
L 131.377869 242.339968 
z
" style="fill:#ff0000;opacity:0.5;"/>
   </g>
   <g id="patch_141">
    <path clip-path="url(#p701a3cc98b)" d="M 59.225142 242.34875 
L 62.231506 242.34875 
L 62.231506 157.777321 
L 59.225142 157.777321 
z
" style="opacity:0.5;"/>
   </g>
   <g id="patch_142">
    <path clip-path="url(#p701a3cc98b)" d="M 62.231506 242.34875 
L 65.237869 242.34875 
L 65.237869 238.054313 
L 62.231506 238.054313 
z
" style="opacity:0.5;"/>
   </g>
   <g id="patch_143">
    <path clip-path="url(#p701a3cc98b)" d="M 65.237869 242.34875 
L 68.244233 242.34875 
L 68.244233 241.690094 
L 65.237869 241.690094 
z
" style="opacity:0.5;"/>
   </g>
   <g id="patch_144">
    <path clip-path="url(#p701a3cc98b)" d="M 68.244233 242.34875 
L 71.250597 242.34875 
L 71.250597 242.269711 
L 68.244233 242.269711 
z
" style="opacity:0.5;"/>
   </g>
   <g id="patch_145">
    <path clip-path="url(#p701a3cc98b)" d="M 71.250597 242.34875 
L 74.25696 242.34875 
L 74.25696 242.296058 
L 71.250597 242.296058 
z
" style="opacity:0.5;"/>
   </g>
   <g id="matplotlib.axis_5">
    <g id="xtick_5">
     <g id="line2d_12">
      <g>
       <use style="stroke:#000000;stroke-width:0.8;" x="59.225142" xlink:href="#mcf4e9422d3" y="242.34875"/>
      </g>
     </g>
     <g id="text_17">
      <!-- 0 -->
      <g transform="translate(56.445455 256.639375)scale(0.1 -0.1)">
       <use xlink:href="#NimbusSans-Regular-48"/>
      </g>
     </g>
    </g>
    <g id="xtick_6">
     <g id="line2d_13">
      <g>
       <use style="stroke:#000000;stroke-width:0.8;" x="119.352415" xlink:href="#mcf4e9422d3" y="242.34875"/>
      </g>
     </g>
     <g id="text_18">
      <!-- 20 -->
      <g transform="translate(113.79304 256.639375)scale(0.1 -0.1)">
       <use xlink:href="#NimbusSans-Regular-50"/>
       <use x="55.599991" xlink:href="#NimbusSans-Regular-48"/>
      </g>
     </g>
    </g>
    <g id="text_19">
     <!-- Number of molecules -->
     <g transform="translate(49.572656 270.109688)scale(0.1 -0.1)">
      <use xlink:href="#NimbusSans-Regular-78"/>
      <use x="72.199982" xlink:href="#NimbusSans-Regular-117"/>
      <use x="127.799973" xlink:href="#NimbusSans-Regular-109"/>
      <use x="211.09996" xlink:href="#NimbusSans-Regular-98"/>
      <use x="266.699951" xlink:href="#NimbusSans-Regular-101"/>
      <use x="322.299942" xlink:href="#NimbusSans-Regular-114"/>
      <use x="355.59993" xlink:href="#NimbusSans-Regular-32"/>
      <use x="383.399918" xlink:href="#NimbusSans-Regular-111"/>
      <use x="438.999908" xlink:href="#NimbusSans-Regular-102"/>
      <use x="466.799896" xlink:href="#NimbusSans-Regular-32"/>
      <use x="494.599884" xlink:href="#NimbusSans-Regular-109"/>
      <use x="577.899872" xlink:href="#NimbusSans-Regular-111"/>
      <use x="633.499863" xlink:href="#NimbusSans-Regular-108"/>
      <use x="655.69986" xlink:href="#NimbusSans-Regular-101"/>
      <use x="711.29985" xlink:href="#NimbusSans-Regular-99"/>
      <use x="761.299835" xlink:href="#NimbusSans-Regular-117"/>
      <use x="816.899826" xlink:href="#NimbusSans-Regular-108"/>
      <use x="839.099823" xlink:href="#NimbusSans-Regular-101"/>
      <use x="894.699814" xlink:href="#NimbusSans-Regular-115"/>
     </g>
    </g>
   </g>
   <g id="matplotlib.axis_6">
    <g id="ytick_8">
     <g id="line2d_14">
      <g>
       <use style="stroke:#000000;stroke-width:0.8;" x="55.467188" xlink:href="#m92d14f64df" y="242.34875"/>
      </g>
     </g>
     <g id="text_20">
      <!-- 0 -->
      <g transform="translate(42.907812 245.994062)scale(0.1 -0.1)">
       <use xlink:href="#NimbusSans-Regular-48"/>
      </g>
     </g>
    </g>
    <g id="ytick_9">
     <g id="line2d_15">
      <g>
       <use style="stroke:#000000;stroke-width:0.8;" x="55.467188" xlink:href="#m92d14f64df" y="198.438351"/>
      </g>
     </g>
     <g id="text_21">
      <!-- 5000 -->
      <g transform="translate(26.229688 202.083663)scale(0.1 -0.1)">
       <use xlink:href="#NimbusSans-Regular-53"/>
       <use x="55.599991" xlink:href="#NimbusSans-Regular-48"/>
       <use x="111.199982" xlink:href="#NimbusSans-Regular-48"/>
       <use x="166.799973" xlink:href="#NimbusSans-Regular-48"/>
      </g>
     </g>
    </g>
    <g id="ytick_10">
     <g id="line2d_16">
      <g>
       <use style="stroke:#000000;stroke-width:0.8;" x="55.467188" xlink:href="#m92d14f64df" y="154.527952"/>
      </g>
     </g>
     <g id="text_22">
      <!-- 10000 -->
      <g transform="translate(20.670313 158.173264)scale(0.1 -0.1)">
       <use xlink:href="#NimbusSans-Regular-49"/>
       <use x="55.599991" xlink:href="#NimbusSans-Regular-48"/>
       <use x="111.199982" xlink:href="#NimbusSans-Regular-48"/>
       <use x="166.799973" xlink:href="#NimbusSans-Regular-48"/>
       <use x="222.399963" xlink:href="#NimbusSans-Regular-48"/>
      </g>
     </g>
    </g>
    <g id="text_23">
     <!-- Number of cells -->
     <g transform="translate(14.490625 232.676875)rotate(-90)scale(0.1 -0.1)">
      <use xlink:href="#NimbusSans-Regular-78"/>
      <use x="72.199982" xlink:href="#NimbusSans-Regular-117"/>
      <use x="127.799973" xlink:href="#NimbusSans-Regular-109"/>
      <use x="211.09996" xlink:href="#NimbusSans-Regular-98"/>
      <use x="266.699951" xlink:href="#NimbusSans-Regular-101"/>
      <use x="322.299942" xlink:href="#NimbusSans-Regular-114"/>
      <use x="355.59993" xlink:href="#NimbusSans-Regular-32"/>
      <use x="383.399918" xlink:href="#NimbusSans-Regular-111"/>
      <use x="438.999908" xlink:href="#NimbusSans-Regular-102"/>
      <use x="466.799896" xlink:href="#NimbusSans-Regular-32"/>
      <use x="494.599884" xlink:href="#NimbusSans-Regular-99"/>
      <use x="544.599869" xlink:href="#NimbusSans-Regular-101"/>
      <use x="600.19986" xlink:href="#NimbusSans-Regular-108"/>
      <use x="622.399857" xlink:href="#NimbusSans-Regular-108"/>
      <use x="644.599854" xlink:href="#NimbusSans-Regular-115"/>
     </g>
    </g>
   </g>
   <g id="patch_146">
    <path d="M 55.467188 242.34875 
L 55.467188 153.54875 
" style="fill:none;stroke:#000000;stroke-linecap:square;stroke-linejoin:miter;stroke-width:0.8;"/>
   </g>
   <g id="patch_147">
    <path d="M 138.142188 242.34875 
L 138.142188 153.54875 
" style="fill:none;stroke:#000000;stroke-linecap:square;stroke-linejoin:miter;stroke-width:0.8;"/>
   </g>
   <g id="patch_148">
    <path d="M 55.467188 242.34875 
L 138.142188 242.34875 
" style="fill:none;stroke:#000000;stroke-linecap:square;stroke-linejoin:miter;stroke-width:0.8;"/>
   </g>
   <g id="patch_149">
    <path d="M 55.467188 153.54875 
L 138.142188 153.54875 
" style="fill:none;stroke:#000000;stroke-linecap:square;stroke-linejoin:miter;stroke-width:0.8;"/>
   </g>
   <g id="text_24">
    <!-- CD79A -->
    <defs>
     <path d="M 66.203125 50.296875 
C 63.296875 66.296875 54.09375 74.09375 38.09375 74.09375 
C 28.296875 74.09375 20.40625 71 15 65 
C 8.40625 57.796875 4.796875 47.40625 4.796875 35.59375 
C 4.796875 23.59375 8.5 13.296875 15.296875 6.203125 
C 21 0.40625 28.203125 -2.296875 37.703125 -2.296875 
C 55.5 -2.296875 65.5 7.296875 67.703125 26.59375 
L 58.09375 26.59375 
C 57.296875 21.59375 56.296875 18.203125 54.796875 15.296875 
C 51.796875 9.296875 45.59375 5.90625 37.796875 5.90625 
C 23.296875 5.90625 14.09375 17.5 14.09375 35.703125 
C 14.09375 54.40625 22.796875 65.90625 37 65.90625 
C 42.90625 65.90625 48.40625 64.203125 51.40625 61.296875 
C 54.09375 58.796875 55.59375 55.796875 56.703125 50.296875 
z
" id="NimbusSans-Regular-67"/>
     <path d="M 5.296875 16.5 
C 7 4.703125 14.59375 -2.296875 25.40625 -2.296875 
C 33.296875 -2.296875 40.296875 1.5 44.5 8 
C 48.90625 15.09375 50.90625 23.90625 50.90625 37 
C 50.90625 49.203125 49.09375 56.90625 44.90625 63.296875 
C 41 69.203125 34.796875 72.296875 27 72.296875 
C 13.5 72.296875 3.796875 62.203125 3.796875 48.203125 
C 3.796875 34.90625 12.796875 25.5 25.59375 25.5 
C 32.296875 25.5 37.296875 27.90625 41.796875 33.40625 
C 41.703125 15.40625 36.09375 5.5 26 5.5 
C 19.796875 5.5 15.5 9.5 14.09375 16.5 
z
M 26.90625 64.59375 
C 35.09375 64.59375 41.296875 57.703125 41.296875 48.40625 
C 41.296875 39.5 35.296875 33.296875 26.59375 33.296875 
C 18.09375 33.296875 12.796875 39.296875 12.796875 48.90625 
C 12.796875 58 18.703125 64.59375 26.90625 64.59375 
z
" id="NimbusSans-Regular-57"/>
    </defs>
    <g transform="translate(77.466875 147.54875)scale(0.12 -0.12)">
     <use xlink:href="#NimbusSans-Regular-67"/>
     <use x="72.199982" xlink:href="#NimbusSans-Regular-68"/>
     <use x="144.399963" xlink:href="#NimbusSans-Regular-55"/>
     <use x="199.999954" xlink:href="#NimbusSans-Regular-57"/>
     <use x="255.599945" xlink:href="#NimbusSans-Regular-65"/>
    </g>
   </g>
  </g>
  <g id="axes_4">
   <g id="patch_150">
    <path d="M 187.067187 242.34875 
L 269.742188 242.34875 
L 269.742188 153.54875 
L 187.067187 153.54875 
z
" style="fill:#ffffff;"/>
   </g>
   <g id="patch_151">
    <path clip-path="url(#p8293c957f4)" d="M 190.825142 242.34875 
L 194.583097 242.34875 
L 194.583097 233.522037 
L 190.825142 233.522037 
z
" style="fill:#ff0000;opacity:0.5;"/>
   </g>
   <g id="patch_152">
    <path clip-path="url(#p8293c957f4)" d="M 194.583097 242.34875 
L 198.341051 242.34875 
L 198.341051 226.139226 
L 194.583097 226.139226 
z
" style="fill:#ff0000;opacity:0.5;"/>
   </g>
   <g id="patch_153">
    <path clip-path="url(#p8293c957f4)" d="M 198.341051 242.34875 
L 202.099006 242.34875 
L 202.099006 224.480457 
L 198.341051 224.480457 
z
" style="fill:#ff0000;opacity:0.5;"/>
   </g>
   <g id="patch_154">
    <path clip-path="url(#p8293c957f4)" d="M 202.099006 242.34875 
L 205.85696 242.34875 
L 205.85696 227.428425 
L 202.099006 227.428425 
z
" style="fill:#ff0000;opacity:0.5;"/>
   </g>
   <g id="patch_155">
    <path clip-path="url(#p8293c957f4)" d="M 205.85696 242.34875 
L 209.614915 242.34875 
L 209.614915 231.983593 
L 205.85696 231.983593 
z
" style="fill:#ff0000;opacity:0.5;"/>
   </g>
   <g id="patch_156">
    <path clip-path="url(#p8293c957f4)" d="M 209.614915 242.34875 
L 213.372869 242.34875 
L 213.372869 235.558971 
L 209.614915 235.558971 
z
" style="fill:#ff0000;opacity:0.5;"/>
   </g>
   <g id="patch_157">
    <path clip-path="url(#p8293c957f4)" d="M 213.372869 242.34875 
L 217.130824 242.34875 
L 217.130824 238.257693 
L 213.372869 238.257693 
z
" style="fill:#ff0000;opacity:0.5;"/>
   </g>
   <g id="patch_158">
    <path clip-path="url(#p8293c957f4)" d="M 217.130824 242.34875 
L 220.888778 242.34875 
L 220.888778 239.641433 
L 217.130824 239.641433 
z
" style="fill:#ff0000;opacity:0.5;"/>
   </g>
   <g id="patch_159">
    <path clip-path="url(#p8293c957f4)" d="M 220.888778 242.34875 
L 224.646733 242.34875 
L 224.646733 240.827496 
L 220.888778 240.827496 
z
" style="fill:#ff0000;opacity:0.5;"/>
   </g>
   <g id="patch_160">
    <path clip-path="url(#p8293c957f4)" d="M 224.646733 242.34875 
L 228.404687 242.34875 
L 228.404687 241.420527 
L 224.646733 241.420527 
z
" style="fill:#ff0000;opacity:0.5;"/>
   </g>
   <g id="patch_161">
    <path clip-path="url(#p8293c957f4)" d="M 228.404687 242.34875 
L 232.162642 242.34875 
L 232.162642 241.738529 
L 228.404687 241.738529 
z
" style="fill:#ff0000;opacity:0.5;"/>
   </g>
   <g id="patch_162">
    <path clip-path="url(#p8293c957f4)" d="M 232.162642 242.34875 
L 235.920597 242.34875 
L 235.920597 241.85026 
L 232.162642 241.85026 
z
" style="fill:#ff0000;opacity:0.5;"/>
   </g>
   <g id="patch_163">
    <path clip-path="url(#p8293c957f4)" d="M 235.920597 242.34875 
L 239.678551 242.34875 
L 239.678551 241.884639 
L 235.920597 241.884639 
z
" style="fill:#ff0000;opacity:0.5;"/>
   </g>
   <g id="patch_164">
    <path clip-path="url(#p8293c957f4)" d="M 239.678551 242.34875 
L 243.436506 242.34875 
L 243.436506 242.047937 
L 239.678551 242.047937 
z
" style="fill:#ff0000;opacity:0.5;"/>
   </g>
   <g id="patch_165">
    <path clip-path="url(#p8293c957f4)" d="M 243.436506 242.34875 
L 247.19446 242.34875 
L 247.19446 242.1081 
L 243.436506 242.1081 
z
" style="fill:#ff0000;opacity:0.5;"/>
   </g>
   <g id="patch_166">
    <path clip-path="url(#p8293c957f4)" d="M 247.19446 242.34875 
L 250.952415 242.34875 
L 250.952415 242.202641 
L 247.19446 242.202641 
z
" style="fill:#ff0000;opacity:0.5;"/>
   </g>
   <g id="patch_167">
    <path clip-path="url(#p8293c957f4)" d="M 250.952415 242.34875 
L 254.710369 242.34875 
L 254.710369 242.279993 
L 250.952415 242.279993 
z
" style="fill:#ff0000;opacity:0.5;"/>
   </g>
   <g id="patch_168">
    <path clip-path="url(#p8293c957f4)" d="M 254.710369 242.34875 
L 258.468324 242.34875 
L 258.468324 242.305777 
L 254.710369 242.305777 
z
" style="fill:#ff0000;opacity:0.5;"/>
   </g>
   <g id="patch_169">
    <path clip-path="url(#p8293c957f4)" d="M 258.468324 242.34875 
L 262.226278 242.34875 
L 262.226278 242.305777 
L 258.468324 242.305777 
z
" style="fill:#ff0000;opacity:0.5;"/>
   </g>
   <g id="patch_170">
    <path clip-path="url(#p8293c957f4)" d="M 262.226278 242.34875 
L 265.984233 242.34875 
L 265.984233 242.314371 
L 262.226278 242.314371 
z
" style="fill:#ff0000;opacity:0.5;"/>
   </g>
   <g id="patch_171">
    <path clip-path="url(#p8293c957f4)" d="M 190.825142 242.34875 
L 194.583097 242.34875 
L 194.583097 157.777321 
L 190.825142 157.777321 
z
" style="opacity:0.5;"/>
   </g>
   <g id="patch_172">
    <path clip-path="url(#p8293c957f4)" d="M 194.583097 242.34875 
L 198.341051 242.34875 
L 198.341051 239.177321 
L 194.583097 239.177321 
z
" style="opacity:0.5;"/>
   </g>
   <g id="matplotlib.axis_7">
    <g id="xtick_7">
     <g id="line2d_17">
      <g>
       <use style="stroke:#000000;stroke-width:0.8;" x="190.825142" xlink:href="#mcf4e9422d3" y="242.34875"/>
      </g>
     </g>
     <g id="text_25">
      <!-- 0 -->
      <g transform="translate(188.045455 256.639375)scale(0.1 -0.1)">
       <use xlink:href="#NimbusSans-Regular-48"/>
      </g>
     </g>
    </g>
    <g id="xtick_8">
     <g id="line2d_18">
      <g>
       <use style="stroke:#000000;stroke-width:0.8;" x="265.984233" xlink:href="#mcf4e9422d3" y="242.34875"/>
      </g>
     </g>
     <g id="text_26">
      <!-- 20 -->
      <g transform="translate(260.424858 256.639375)scale(0.1 -0.1)">
       <use xlink:href="#NimbusSans-Regular-50"/>
       <use x="55.599991" xlink:href="#NimbusSans-Regular-48"/>
      </g>
     </g>
    </g>
    <g id="text_27">
     <!-- Number of molecules -->
     <g transform="translate(181.172656 270.109688)scale(0.1 -0.1)">
      <use xlink:href="#NimbusSans-Regular-78"/>
      <use x="72.199982" xlink:href="#NimbusSans-Regular-117"/>
      <use x="127.799973" xlink:href="#NimbusSans-Regular-109"/>
      <use x="211.09996" xlink:href="#NimbusSans-Regular-98"/>
      <use x="266.699951" xlink:href="#NimbusSans-Regular-101"/>
      <use x="322.299942" xlink:href="#NimbusSans-Regular-114"/>
      <use x="355.59993" xlink:href="#NimbusSans-Regular-32"/>
      <use x="383.399918" xlink:href="#NimbusSans-Regular-111"/>
      <use x="438.999908" xlink:href="#NimbusSans-Regular-102"/>
      <use x="466.799896" xlink:href="#NimbusSans-Regular-32"/>
      <use x="494.599884" xlink:href="#NimbusSans-Regular-109"/>
      <use x="577.899872" xlink:href="#NimbusSans-Regular-111"/>
      <use x="633.499863" xlink:href="#NimbusSans-Regular-108"/>
      <use x="655.69986" xlink:href="#NimbusSans-Regular-101"/>
      <use x="711.29985" xlink:href="#NimbusSans-Regular-99"/>
      <use x="761.299835" xlink:href="#NimbusSans-Regular-117"/>
      <use x="816.899826" xlink:href="#NimbusSans-Regular-108"/>
      <use x="839.099823" xlink:href="#NimbusSans-Regular-101"/>
      <use x="894.699814" xlink:href="#NimbusSans-Regular-115"/>
     </g>
    </g>
   </g>
   <g id="matplotlib.axis_8">
    <g id="ytick_11">
     <g id="line2d_19">
      <g>
       <use style="stroke:#000000;stroke-width:0.8;" x="187.067187" xlink:href="#m92d14f64df" y="242.34875"/>
      </g>
     </g>
     <g id="text_28">
      <!-- 0 -->
      <g transform="translate(174.507812 245.994062)scale(0.1 -0.1)">
       <use xlink:href="#NimbusSans-Regular-48"/>
      </g>
     </g>
    </g>
    <g id="ytick_12">
     <g id="line2d_20">
      <g>
       <use style="stroke:#000000;stroke-width:0.8;" x="187.067187" xlink:href="#m92d14f64df" y="199.375463"/>
      </g>
     </g>
     <g id="text_29">
      <!-- 5000 -->
      <g transform="translate(157.829687 203.020776)scale(0.1 -0.1)">
       <use xlink:href="#NimbusSans-Regular-53"/>
       <use x="55.599991" xlink:href="#NimbusSans-Regular-48"/>
       <use x="111.199982" xlink:href="#NimbusSans-Regular-48"/>
       <use x="166.799973" xlink:href="#NimbusSans-Regular-48"/>
      </g>
     </g>
    </g>
    <g id="ytick_13">
     <g id="line2d_21">
      <g>
       <use style="stroke:#000000;stroke-width:0.8;" x="187.067187" xlink:href="#m92d14f64df" y="156.402176"/>
      </g>
     </g>
     <g id="text_30">
      <!-- 10000 -->
      <g transform="translate(152.270312 160.047489)scale(0.1 -0.1)">
       <use xlink:href="#NimbusSans-Regular-49"/>
       <use x="55.599991" xlink:href="#NimbusSans-Regular-48"/>
       <use x="111.199982" xlink:href="#NimbusSans-Regular-48"/>
       <use x="166.799973" xlink:href="#NimbusSans-Regular-48"/>
       <use x="222.399963" xlink:href="#NimbusSans-Regular-48"/>
      </g>
     </g>
    </g>
   </g>
   <g id="patch_173">
    <path d="M 187.067187 242.34875 
L 187.067187 153.54875 
" style="fill:none;stroke:#000000;stroke-linecap:square;stroke-linejoin:miter;stroke-width:0.8;"/>
   </g>
   <g id="patch_174">
    <path d="M 269.742188 242.34875 
L 269.742188 153.54875 
" style="fill:none;stroke:#000000;stroke-linecap:square;stroke-linejoin:miter;stroke-width:0.8;"/>
   </g>
   <g id="patch_175">
    <path d="M 187.067187 242.34875 
L 269.742188 242.34875 
" style="fill:none;stroke:#000000;stroke-linecap:square;stroke-linejoin:miter;stroke-width:0.8;"/>
   </g>
   <g id="patch_176">
    <path d="M 187.067187 153.54875 
L 269.742188 153.54875 
" style="fill:none;stroke:#000000;stroke-linecap:square;stroke-linejoin:miter;stroke-width:0.8;"/>
   </g>
   <g id="text_31">
    <!-- CD79B -->
    <g transform="translate(209.066875 147.54875)scale(0.12 -0.12)">
     <use xlink:href="#NimbusSans-Regular-67"/>
     <use x="72.199982" xlink:href="#NimbusSans-Regular-68"/>
     <use x="144.399963" xlink:href="#NimbusSans-Regular-55"/>
     <use x="199.999954" xlink:href="#NimbusSans-Regular-57"/>
     <use x="255.599945" xlink:href="#NimbusSans-Regular-66"/>
    </g>
   </g>
  </g>
 </g>
 <defs>
  <clipPath id="p63231392f1">
   <rect height="88.8" width="82.675" x="55.467188" y="21.94875"/>
  </clipPath>
  <clipPath id="p441aa773bf">
   <rect height="88.8" width="82.675" x="187.067187" y="21.94875"/>
  </clipPath>
  <clipPath id="p701a3cc98b">
   <rect height="88.8" width="82.675" x="55.467188" y="153.54875"/>
  </clipPath>
  <clipPath id="p8293c957f4">
   <rect height="88.8" width="82.675" x="187.067187" y="153.54875"/>
  </clipPath>
 </defs>
</svg>
