<?xml version="1.0" encoding="utf-8" standalone="no"?>
<!DOCTYPE svg PUBLIC "-//W3C//DTD SVG 1.1//EN"
  "http://www.w3.org/Graphics/SVG/1.1/DTD/svg11.dtd">
<!-- Created with matplotlib (https://matplotlib.org/) -->
<svg height="202.827812pt" version="1.1" viewBox="0 0 206.867017 202.827812" width="206.867017pt" xmlns="http://www.w3.org/2000/svg" xmlns:xlink="http://www.w3.org/1999/xlink">
 <defs>
  <style type="text/css">
*{stroke-linecap:butt;stroke-linejoin:round;}
  </style>
 </defs>
 <g id="figure_1">
  <g id="patch_1">
   <path d="M 0 202.827812 
L 206.867017 202.827812 
L 206.867017 0 
L 0 0 
z
" style="fill:#ffffff;"/>
  </g>
  <g id="axes_1">
   <g id="patch_2">
    <path d="M 47.170313 165.687187 
L 196.167017 165.687187 
L 196.167017 10.845313 
L 47.170313 10.845313 
z
" style="fill:#ffffff;"/>
   </g>
   <g id="matplotlib.axis_1">
    <g id="xtick_1">
     <g id="line2d_1">
      <defs>
       <path d="M 0 0 
L 0 3.5 
" id="m0b80c76fca" style="stroke:#000000;stroke-width:0.8;"/>
      </defs>
      <g>
       <use style="stroke:#000000;stroke-width:0.8;" x="47.170313" xlink:href="#m0b80c76fca" y="165.687187"/>
      </g>
     </g>
     <g id="text_1">
      <!-- $\mathdefault{10^{-5}}$ -->
      <defs>
       <path d="M 25.90625 51.5 
L 25.90625 0 
L 34.703125 0 
L 34.703125 72.296875 
L 28.90625 72.296875 
C 25.796875 61.203125 23.796875 59.703125 10.203125 57.90625 
L 10.203125 51.5 
z
" id="NimbusSans-Regular-49"/>
       <path d="M 27.5 72.296875 
C 20.90625 72.296875 14.90625 69.296875 11.203125 64.40625 
C 6.59375 58 4.296875 48.40625 4.296875 35 
C 4.296875 10.59375 12.296875 -2.296875 27.5 -2.296875 
C 42.5 -2.296875 50.703125 10.59375 50.703125 34.40625 
C 50.703125 48.40625 48.5 57.796875 43.796875 64.40625 
C 40.09375 69.40625 34.203125 72.296875 27.5 72.296875 
z
M 27.5 64.5 
C 37 64.5 41.703125 54.796875 41.703125 35.203125 
C 41.703125 14.59375 37.09375 5 27.296875 5 
C 18 5 13.296875 15 13.296875 34.90625 
C 13.296875 54.796875 18 64.5 27.5 64.5 
z
" id="NimbusSans-Regular-48"/>
       <path d="M 54.40625 26.703125 
L 4 26.703125 
L 4 19.703125 
L 54.40625 19.703125 
z
" id="NimbusSans-Regular-8722"/>
       <path d="M 47.59375 70.90625 
L 11 70.90625 
L 5.703125 32.296875 
L 13.796875 32.296875 
C 17.90625 37.203125 21.296875 38.90625 26.90625 38.90625 
C 36.40625 38.90625 42.296875 32.40625 42.296875 21.90625 
C 42.296875 11.703125 36.40625 5.5 26.796875 5.5 
C 19.09375 5.5 14.40625 9.40625 12.296875 17.40625 
L 3.5 17.40625 
C 4.703125 11.59375 5.703125 8.796875 7.796875 6.203125 
C 11.796875 0.796875 19 -2.296875 27 -2.296875 
C 41.296875 -2.296875 51.296875 8.09375 51.296875 23.09375 
C 51.296875 37.09375 42 46.703125 28.40625 46.703125 
C 23.40625 46.703125 19.40625 45.40625 15.296875 42.40625 
L 18.09375 62.203125 
L 47.59375 62.203125 
z
" id="NimbusSans-Regular-53"/>
      </defs>
      <g transform="translate(37.420313 179.977812)scale(0.1 -0.1)">
       <use transform="translate(0 0.978125)" xlink:href="#NimbusSans-Regular-49"/>
       <use transform="translate(55.599991 0.978125)" xlink:href="#NimbusSans-Regular-48"/>
       <use transform="translate(112.059669 35.365625)scale(0.7)" xlink:href="#NimbusSans-Regular-8722"/>
       <use transform="translate(152.939665 35.365625)scale(0.7)" xlink:href="#NimbusSans-Regular-53"/>
      </g>
     </g>
    </g>
    <g id="xtick_2">
     <g id="line2d_2">
      <g>
       <use style="stroke:#000000;stroke-width:0.8;" x="106.768994" xlink:href="#m0b80c76fca" y="165.687187"/>
      </g>
     </g>
     <g id="text_2">
      <!-- $\mathdefault{10^{-3}}$ -->
      <defs>
       <path d="M 22.09375 33.296875 
L 23.203125 33.296875 
L 26.90625 33.296875 
C 36.5 33.296875 41.59375 28.796875 41.59375 20.09375 
C 41.59375 11 36.09375 5.5 27 5.5 
C 17.296875 5.5 12.59375 10.40625 12 21 
L 3.203125 21 
C 3.59375 15.203125 4.59375 11.40625 6.296875 8.203125 
C 10 1.203125 16.90625 -2.296875 26.59375 -2.296875 
C 41.203125 -2.296875 50.59375 6.5 50.59375 20.203125 
C 50.59375 29.40625 47.09375 34.40625 38.59375 37.40625 
C 45.203125 40.09375 48.5 45.09375 48.5 52.40625 
C 48.5 64.796875 40.40625 72.296875 26.90625 72.296875 
C 12.59375 72.296875 5 64.296875 4.703125 49 
L 13.5 49 
C 13.59375 53.40625 14 55.90625 15.09375 58.09375 
C 17.09375 62.203125 21.5 64.59375 27 64.59375 
C 34.796875 64.59375 39.5 59.90625 39.5 52.09375 
C 39.5 47 37.703125 43.90625 33.796875 42.203125 
C 31.40625 41.203125 28.203125 40.796875 22.09375 40.703125 
z
" id="NimbusSans-Regular-51"/>
      </defs>
      <g transform="translate(97.018994 179.977812)scale(0.1 -0.1)">
       <use transform="translate(0 0.004688)" xlink:href="#NimbusSans-Regular-49"/>
       <use transform="translate(55.599991 0.004688)" xlink:href="#NimbusSans-Regular-48"/>
       <use transform="translate(112.059669 34.392188)scale(0.7)" xlink:href="#NimbusSans-Regular-8722"/>
       <use transform="translate(152.939665 34.392188)scale(0.7)" xlink:href="#NimbusSans-Regular-51"/>
      </g>
     </g>
    </g>
    <g id="xtick_3">
     <g id="line2d_3">
      <g>
       <use style="stroke:#000000;stroke-width:0.8;" x="166.367676" xlink:href="#m0b80c76fca" y="165.687187"/>
      </g>
     </g>
     <g id="text_3">
      <!-- $\mathdefault{10^{-1}}$ -->
      <g transform="translate(156.617676 179.977812)scale(0.1 -0.1)">
       <use transform="translate(0 0.004688)" xlink:href="#NimbusSans-Regular-49"/>
       <use transform="translate(55.599991 0.004688)" xlink:href="#NimbusSans-Regular-48"/>
       <use transform="translate(112.059669 34.392188)scale(0.7)" xlink:href="#NimbusSans-Regular-8722"/>
       <use transform="translate(152.939665 34.392188)scale(0.7)" xlink:href="#NimbusSans-Regular-49"/>
      </g>
     </g>
    </g>
    <g id="text_4">
     <!-- Theoretical quantiles -->
     <defs>
      <path d="M 35.40625 64.703125 
L 59.296875 64.703125 
L 59.296875 72.90625 
L 2.09375 72.90625 
L 2.09375 64.703125 
L 26.09375 64.703125 
L 26.09375 0 
L 35.40625 0 
z
" id="NimbusSans-Regular-84"/>
      <path d="M 7 72.90625 
L 7 0 
L 15.296875 0 
L 15.296875 28.90625 
C 15.296875 39.59375 20.90625 46.59375 29.5 46.59375 
C 32.296875 46.59375 34.90625 45.796875 36.90625 44.296875 
C 39.296875 42.5 40.296875 40 40.296875 36.296875 
L 40.296875 0 
L 48.59375 0 
L 48.59375 39.59375 
C 48.59375 48.40625 42.296875 53.90625 32.09375 53.90625 
C 24.703125 53.90625 20.203125 51.59375 15.296875 45.203125 
L 15.296875 72.90625 
z
" id="NimbusSans-Regular-104"/>
      <path d="M 51.296875 23.40625 
C 51.296875 31.40625 50.703125 36.203125 49.203125 40.09375 
C 45.796875 48.703125 37.796875 53.90625 28 53.90625 
C 13.40625 53.90625 4 42.796875 4 25.5 
C 4 8.203125 13 -2.296875 27.796875 -2.296875 
C 39.796875 -2.296875 48.09375 4.5 50.203125 15.90625 
L 41.796875 15.90625 
C 39.5 9 34.796875 5.40625 28.09375 5.40625 
C 22.796875 5.40625 18.296875 7.796875 15.5 12.203125 
C 13.5 15.203125 12.796875 18.203125 12.703125 23.40625 
z
M 12.90625 30.203125 
C 13.59375 39.90625 19.5 46.203125 27.90625 46.203125 
C 36.40625 46.203125 42.296875 39.59375 42.296875 30.203125 
z
" id="NimbusSans-Regular-101"/>
      <path d="M 27.203125 53.90625 
C 12.40625 53.90625 3.59375 43.40625 3.59375 25.796875 
C 3.59375 8.09375 12.40625 -2.296875 27.296875 -2.296875 
C 42.09375 -2.296875 51 8.203125 51 25.40625 
C 51 43.59375 42.40625 53.90625 27.203125 53.90625 
z
M 27.296875 46.203125 
C 36.703125 46.203125 42.296875 38.5 42.296875 25.5 
C 42.296875 13.09375 36.5 5.40625 27.296875 5.40625 
C 18 5.40625 12.296875 13.09375 12.296875 25.796875 
C 12.296875 38.5 18 46.203125 27.296875 46.203125 
z
" id="NimbusSans-Regular-111"/>
      <path d="M 6.90625 52.40625 
L 6.90625 0 
L 15.296875 0 
L 15.296875 27.203125 
C 15.40625 39.796875 20.59375 45.40625 32.09375 45.09375 
L 32.09375 53.59375 
C 30.703125 53.796875 29.90625 53.90625 28.90625 53.90625 
C 23.5 53.90625 19.40625 50.703125 14.59375 42.90625 
L 14.59375 52.40625 
z
" id="NimbusSans-Regular-114"/>
      <path d="M 25.40625 52.40625 
L 16.796875 52.40625 
L 16.796875 66.796875 
L 8.5 66.796875 
L 8.5 52.40625 
L 1.40625 52.40625 
L 1.40625 45.59375 
L 8.5 45.59375 
L 8.5 6 
C 8.5 0.59375 12.09375 -2.296875 18.59375 -2.296875 
C 20.796875 -2.296875 22.59375 -2.09375 25.40625 -1.59375 
L 25.40625 5.40625 
C 24.203125 5.09375 23.09375 5 21.40625 5 
C 17.796875 5 16.796875 6 16.796875 9.703125 
L 16.796875 45.59375 
L 25.40625 45.59375 
z
" id="NimbusSans-Regular-116"/>
      <path d="M 15 52.40625 
L 6.703125 52.40625 
L 6.703125 0 
L 15 0 
z
M 15 72.90625 
L 6.59375 72.90625 
L 6.59375 62.40625 
L 15 62.40625 
z
" id="NimbusSans-Regular-105"/>
      <path d="M 47.09375 34.796875 
C 46.703125 39.90625 45.59375 43.203125 43.59375 46.09375 
C 40 51 33.703125 53.90625 26.40625 53.90625 
C 12.203125 53.90625 3.09375 42.703125 3.09375 25.296875 
C 3.09375 8.40625 12.09375 -2.296875 26.296875 -2.296875 
C 38.796875 -2.296875 46.703125 5.203125 47.703125 18 
L 39.296875 18 
C 37.90625 9.59375 33.59375 5.40625 26.5 5.40625 
C 17.296875 5.40625 11.796875 12.90625 11.796875 25.296875 
C 11.796875 38.40625 17.203125 46.203125 26.296875 46.203125 
C 33.296875 46.203125 37.703125 42.09375 38.703125 34.796875 
z
" id="NimbusSans-Regular-99"/>
      <path d="M 53.5 4.90625 
C 52.59375 4.703125 52.203125 4.703125 51.703125 4.703125 
C 48.796875 4.703125 47.203125 6.203125 47.203125 8.796875 
L 47.203125 39.59375 
C 47.203125 48.90625 40.40625 53.90625 27.5 53.90625 
C 19.796875 53.90625 13.703125 51.703125 10.09375 47.796875 
C 7.703125 45.09375 6.703125 42.09375 6.5 36.90625 
L 14.90625 36.90625 
C 15.59375 43.296875 19.40625 46.203125 27.203125 46.203125 
C 34.796875 46.203125 38.90625 43.40625 38.90625 38.40625 
L 38.90625 36.203125 
C 38.796875 32.59375 37 31.296875 30.203125 30.40625 
C 18.40625 28.90625 16.59375 28.5 13.40625 27.203125 
C 7.296875 24.59375 4.203125 20 4.203125 13.203125 
C 4.203125 3.703125 10.796875 -2.296875 21.40625 -2.296875 
C 28 -2.296875 33.296875 0 39.203125 5.40625 
C 39.796875 0 42.40625 -2.296875 47.796875 -2.296875 
C 49.59375 -2.296875 50.703125 -2.09375 53.5 -1.40625 
z
M 38.90625 16.5 
C 38.90625 13.703125 38.09375 12 35.59375 9.703125 
C 32.203125 6.59375 28.09375 5 23.203125 5 
C 16.703125 5 12.90625 8.09375 12.90625 13.40625 
C 12.90625 18.90625 16.5 21.703125 25.5 23 
C 34.40625 24.203125 36.09375 24.59375 38.90625 25.90625 
z
" id="NimbusSans-Regular-97"/>
      <path d="M 15.203125 72.90625 
L 6.796875 72.90625 
L 6.796875 0 
L 15.203125 0 
z
" id="NimbusSans-Regular-108"/>
      <path id="NimbusSans-Regular-32"/>
      <path d="M 49.5 -21.796875 
L 49.5 52.40625 
L 42.09375 52.40625 
L 42.09375 45.40625 
C 38.203125 50.90625 32.296875 53.90625 25.40625 53.90625 
C 11.59375 53.90625 2.59375 42.59375 2.59375 25.203125 
C 2.59375 8.203125 11.09375 -2.296875 25 -2.296875 
C 32.296875 -2.296875 37.296875 0.296875 41.203125 6 
L 41.203125 -21.796875 
z
M 26.59375 46.09375 
C 35.5 46.09375 41.203125 38.203125 41.203125 25.5 
C 41.203125 13.5 35.40625 5.5 26.59375 5.5 
C 17.40625 5.5 11.296875 13.59375 11.296875 25.796875 
C 11.296875 38 17.40625 46.09375 26.59375 46.09375 
z
" id="NimbusSans-Regular-113"/>
      <path d="M 48.203125 0 
L 48.203125 52.40625 
L 39.90625 52.40625 
L 39.90625 22.703125 
C 39.90625 12 34.296875 5 25.59375 5 
C 19 5 14.796875 9 14.796875 15.296875 
L 14.796875 52.40625 
L 6.5 52.40625 
L 6.5 12 
C 6.5 3.296875 13 -2.296875 23.203125 -2.296875 
C 30.90625 -2.296875 35.796875 0.40625 40.703125 7.296875 
L 40.703125 0 
z
" id="NimbusSans-Regular-117"/>
      <path d="M 7 52.40625 
L 7 0 
L 15.40625 0 
L 15.40625 28.90625 
C 15.40625 39.59375 21 46.59375 29.59375 46.59375 
C 36.203125 46.59375 40.40625 42.59375 40.40625 36.296875 
L 40.40625 0 
L 48.703125 0 
L 48.703125 39.59375 
C 48.703125 48.296875 42.203125 53.90625 32.09375 53.90625 
C 24.296875 53.90625 19.296875 50.90625 14.703125 43.59375 
L 14.703125 52.40625 
z
" id="NimbusSans-Regular-110"/>
      <path d="M 43.796875 37.796875 
C 43.703125 48.09375 36.90625 53.90625 24.796875 53.90625 
C 12.59375 53.90625 4.703125 47.59375 4.703125 37.90625 
C 4.703125 29.703125 8.90625 25.796875 21.296875 22.796875 
L 29.09375 20.90625 
C 34.90625 19.5 37.203125 17.40625 37.203125 13.703125 
C 37.203125 8.703125 32.296875 5.40625 25 5.40625 
C 20.5 5.40625 16.703125 6.703125 14.59375 8.90625 
C 13.296875 10.40625 12.703125 11.90625 12.203125 15.59375 
L 3.40625 15.59375 
C 3.796875 3.5 10.59375 -2.296875 24.296875 -2.296875 
C 37.5 -2.296875 45.90625 4.203125 45.90625 14.296875 
C 45.90625 22.09375 41.5 26.40625 31.09375 28.90625 
L 23.09375 30.796875 
C 16.296875 32.40625 13.40625 34.59375 13.40625 38.296875 
C 13.40625 43.203125 17.703125 46.203125 24.5 46.203125 
C 31.203125 46.203125 34.796875 43.296875 35 37.796875 
z
" id="NimbusSans-Regular-115"/>
     </defs>
     <g transform="translate(75.542102 193.448125)scale(0.1 -0.1)">
      <use xlink:href="#NimbusSans-Regular-84"/>
      <use x="61.099991" xlink:href="#NimbusSans-Regular-104"/>
      <use x="116.699982" xlink:href="#NimbusSans-Regular-101"/>
      <use x="172.299973" xlink:href="#NimbusSans-Regular-111"/>
      <use x="227.899963" xlink:href="#NimbusSans-Regular-114"/>
      <use x="261.199951" xlink:href="#NimbusSans-Regular-101"/>
      <use x="316.799942" xlink:href="#NimbusSans-Regular-116"/>
      <use x="344.59993" xlink:href="#NimbusSans-Regular-105"/>
      <use x="366.799927" xlink:href="#NimbusSans-Regular-99"/>
      <use x="416.799911" xlink:href="#NimbusSans-Regular-97"/>
      <use x="472.399902" xlink:href="#NimbusSans-Regular-108"/>
      <use x="494.599899" xlink:href="#NimbusSans-Regular-32"/>
      <use x="522.399887" xlink:href="#NimbusSans-Regular-113"/>
      <use x="577.999878" xlink:href="#NimbusSans-Regular-117"/>
      <use x="633.599869" xlink:href="#NimbusSans-Regular-97"/>
      <use x="689.19986" xlink:href="#NimbusSans-Regular-110"/>
      <use x="744.79985" xlink:href="#NimbusSans-Regular-116"/>
      <use x="772.599838" xlink:href="#NimbusSans-Regular-105"/>
      <use x="794.799835" xlink:href="#NimbusSans-Regular-108"/>
      <use x="816.999832" xlink:href="#NimbusSans-Regular-101"/>
      <use x="872.599823" xlink:href="#NimbusSans-Regular-115"/>
     </g>
    </g>
   </g>
   <g id="matplotlib.axis_2">
    <g id="ytick_1">
     <g id="line2d_4">
      <defs>
       <path d="M 0 0 
L -3.5 0 
" id="mbcc62c1385" style="stroke:#000000;stroke-width:0.8;"/>
      </defs>
      <g>
       <use style="stroke:#000000;stroke-width:0.8;" x="47.170313" xlink:href="#mbcc62c1385" y="165.687187"/>
      </g>
     </g>
     <g id="text_5">
      <!-- $\mathdefault{10^{-5}}$ -->
      <g transform="translate(20.670313 169.3325)scale(0.1 -0.1)">
       <use transform="translate(0 0.978125)" xlink:href="#NimbusSans-Regular-49"/>
       <use transform="translate(55.599991 0.978125)" xlink:href="#NimbusSans-Regular-48"/>
       <use transform="translate(112.059669 35.365625)scale(0.7)" xlink:href="#NimbusSans-Regular-8722"/>
       <use transform="translate(152.939665 35.365625)scale(0.7)" xlink:href="#NimbusSans-Regular-53"/>
      </g>
     </g>
    </g>
    <g id="ytick_2">
     <g id="line2d_5">
      <g>
       <use style="stroke:#000000;stroke-width:0.8;" x="47.170313" xlink:href="#mbcc62c1385" y="134.718812"/>
      </g>
     </g>
     <g id="text_6">
      <!-- $\mathdefault{10^{-4}}$ -->
      <defs>
       <path d="M 32.703125 17.5 
L 32.703125 0 
L 41.5 0 
L 41.5 17.5 
L 52 17.5 
L 52 25.40625 
L 41.5 25.40625 
L 41.5 72.296875 
L 35 72.296875 
L 2.796875 26.796875 
L 2.796875 17.5 
z
M 32.703125 25.40625 
L 10.5 25.40625 
L 32.703125 57.296875 
z
" id="NimbusSans-Regular-52"/>
      </defs>
      <g transform="translate(20.670313 138.364125)scale(0.1 -0.1)">
       <use transform="translate(0 0.004688)" xlink:href="#NimbusSans-Regular-49"/>
       <use transform="translate(55.599991 0.004688)" xlink:href="#NimbusSans-Regular-48"/>
       <use transform="translate(112.059669 34.392188)scale(0.7)" xlink:href="#NimbusSans-Regular-8722"/>
       <use transform="translate(152.939665 34.392188)scale(0.7)" xlink:href="#NimbusSans-Regular-52"/>
      </g>
     </g>
    </g>
    <g id="ytick_3">
     <g id="line2d_6">
      <g>
       <use style="stroke:#000000;stroke-width:0.8;" x="47.170313" xlink:href="#mbcc62c1385" y="103.750437"/>
      </g>
     </g>
     <g id="text_7">
      <!-- $\mathdefault{10^{-3}}$ -->
      <g transform="translate(20.670313 107.39575)scale(0.1 -0.1)">
       <use transform="translate(0 0.004688)" xlink:href="#NimbusSans-Regular-49"/>
       <use transform="translate(55.599991 0.004688)" xlink:href="#NimbusSans-Regular-48"/>
       <use transform="translate(112.059669 34.392188)scale(0.7)" xlink:href="#NimbusSans-Regular-8722"/>
       <use transform="translate(152.939665 34.392188)scale(0.7)" xlink:href="#NimbusSans-Regular-51"/>
      </g>
     </g>
    </g>
    <g id="ytick_4">
     <g id="line2d_7">
      <g>
       <use style="stroke:#000000;stroke-width:0.8;" x="47.170313" xlink:href="#mbcc62c1385" y="72.782062"/>
      </g>
     </g>
     <g id="text_8">
      <!-- $\mathdefault{10^{-2}}$ -->
      <defs>
       <path d="M 50.59375 8.703125 
L 13.296875 8.703125 
C 14.203125 14.703125 17.40625 18.5 26.09375 23.796875 
L 36.09375 29.40625 
C 46 34.90625 51.09375 42.296875 51.09375 51.203125 
C 51.09375 57.203125 48.703125 62.796875 44.5 66.703125 
C 40.296875 70.5 35.09375 72.296875 28.40625 72.296875 
C 19.40625 72.296875 12.703125 69.09375 8.796875 62.90625 
C 6.296875 59.09375 5.203125 54.59375 5 47.296875 
L 13.796875 47.296875 
C 14.09375 52.203125 14.703125 55.09375 15.90625 57.5 
C 18.203125 61.90625 22.796875 64.59375 28.09375 64.59375 
C 36.09375 64.59375 42.09375 58.796875 42.09375 51 
C 42.09375 45.203125 38.796875 40.203125 32.5 36.59375 
L 23.296875 31.203125 
C 8.5 22.703125 4.203125 15.90625 3.40625 0.09375 
L 50.59375 0.09375 
z
" id="NimbusSans-Regular-50"/>
      </defs>
      <g transform="translate(20.670313 76.427375)scale(0.1 -0.1)">
       <use transform="translate(0 0.004688)" xlink:href="#NimbusSans-Regular-49"/>
       <use transform="translate(55.599991 0.004688)" xlink:href="#NimbusSans-Regular-48"/>
       <use transform="translate(112.059669 34.392188)scale(0.7)" xlink:href="#NimbusSans-Regular-8722"/>
       <use transform="translate(152.939665 34.392188)scale(0.7)" xlink:href="#NimbusSans-Regular-50"/>
      </g>
     </g>
    </g>
    <g id="ytick_5">
     <g id="line2d_8">
      <g>
       <use style="stroke:#000000;stroke-width:0.8;" x="47.170313" xlink:href="#mbcc62c1385" y="41.813688"/>
      </g>
     </g>
     <g id="text_9">
      <!-- $\mathdefault{10^{-1}}$ -->
      <g transform="translate(20.670313 45.459)scale(0.1 -0.1)">
       <use transform="translate(0 0.004688)" xlink:href="#NimbusSans-Regular-49"/>
       <use transform="translate(55.599991 0.004688)" xlink:href="#NimbusSans-Regular-48"/>
       <use transform="translate(112.059669 34.392188)scale(0.7)" xlink:href="#NimbusSans-Regular-8722"/>
       <use transform="translate(152.939665 34.392188)scale(0.7)" xlink:href="#NimbusSans-Regular-49"/>
      </g>
     </g>
    </g>
    <g id="ytick_6">
     <g id="line2d_9">
      <g>
       <use style="stroke:#000000;stroke-width:0.8;" x="47.170313" xlink:href="#mbcc62c1385" y="10.845313"/>
      </g>
     </g>
     <g id="text_10">
      <!-- $\mathdefault{10^{0}}$ -->
      <g transform="translate(24.770313 14.490625)scale(0.1 -0.1)">
       <use transform="translate(0 0.004688)" xlink:href="#NimbusSans-Regular-49"/>
       <use transform="translate(55.599991 0.004688)" xlink:href="#NimbusSans-Regular-48"/>
       <use transform="translate(112.059669 34.392188)scale(0.7)" xlink:href="#NimbusSans-Regular-48"/>
      </g>
     </g>
    </g>
    <g id="ytick_7">
     <g id="line2d_10">
      <defs>
       <path d="M 0 0 
L -2 0 
" id="mb6e332d1f4" style="stroke:#000000;stroke-width:0.6;"/>
      </defs>
      <g>
       <use style="stroke:#000000;stroke-width:0.6;" x="47.170313" xlink:href="#mb6e332d1f4" y="156.364778"/>
      </g>
     </g>
    </g>
    <g id="ytick_8">
     <g id="line2d_11">
      <g>
       <use style="stroke:#000000;stroke-width:0.6;" x="47.170313" xlink:href="#mb6e332d1f4" y="150.911518"/>
      </g>
     </g>
    </g>
    <g id="ytick_9">
     <g id="line2d_12">
      <g>
       <use style="stroke:#000000;stroke-width:0.6;" x="47.170313" xlink:href="#mb6e332d1f4" y="147.042368"/>
      </g>
     </g>
    </g>
    <g id="ytick_10">
     <g id="line2d_13">
      <g>
       <use style="stroke:#000000;stroke-width:0.6;" x="47.170313" xlink:href="#mb6e332d1f4" y="144.041222"/>
      </g>
     </g>
    </g>
    <g id="ytick_11">
     <g id="line2d_14">
      <g>
       <use style="stroke:#000000;stroke-width:0.6;" x="47.170313" xlink:href="#mb6e332d1f4" y="141.589108"/>
      </g>
     </g>
    </g>
    <g id="ytick_12">
     <g id="line2d_15">
      <g>
       <use style="stroke:#000000;stroke-width:0.6;" x="47.170313" xlink:href="#mb6e332d1f4" y="139.515874"/>
      </g>
     </g>
    </g>
    <g id="ytick_13">
     <g id="line2d_16">
      <g>
       <use style="stroke:#000000;stroke-width:0.6;" x="47.170313" xlink:href="#mb6e332d1f4" y="137.719958"/>
      </g>
     </g>
    </g>
    <g id="ytick_14">
     <g id="line2d_17">
      <g>
       <use style="stroke:#000000;stroke-width:0.6;" x="47.170313" xlink:href="#mb6e332d1f4" y="136.135848"/>
      </g>
     </g>
    </g>
    <g id="ytick_15">
     <g id="line2d_18">
      <g>
       <use style="stroke:#000000;stroke-width:0.6;" x="47.170313" xlink:href="#mb6e332d1f4" y="125.396403"/>
      </g>
     </g>
    </g>
    <g id="ytick_16">
     <g id="line2d_19">
      <g>
       <use style="stroke:#000000;stroke-width:0.6;" x="47.170313" xlink:href="#mb6e332d1f4" y="119.943143"/>
      </g>
     </g>
    </g>
    <g id="ytick_17">
     <g id="line2d_20">
      <g>
       <use style="stroke:#000000;stroke-width:0.6;" x="47.170313" xlink:href="#mb6e332d1f4" y="116.073993"/>
      </g>
     </g>
    </g>
    <g id="ytick_18">
     <g id="line2d_21">
      <g>
       <use style="stroke:#000000;stroke-width:0.6;" x="47.170313" xlink:href="#mb6e332d1f4" y="113.072847"/>
      </g>
     </g>
    </g>
    <g id="ytick_19">
     <g id="line2d_22">
      <g>
       <use style="stroke:#000000;stroke-width:0.6;" x="47.170313" xlink:href="#mb6e332d1f4" y="110.620733"/>
      </g>
     </g>
    </g>
    <g id="ytick_20">
     <g id="line2d_23">
      <g>
       <use style="stroke:#000000;stroke-width:0.6;" x="47.170313" xlink:href="#mb6e332d1f4" y="108.547499"/>
      </g>
     </g>
    </g>
    <g id="ytick_21">
     <g id="line2d_24">
      <g>
       <use style="stroke:#000000;stroke-width:0.6;" x="47.170313" xlink:href="#mb6e332d1f4" y="106.751583"/>
      </g>
     </g>
    </g>
    <g id="ytick_22">
     <g id="line2d_25">
      <g>
       <use style="stroke:#000000;stroke-width:0.6;" x="47.170313" xlink:href="#mb6e332d1f4" y="105.167473"/>
      </g>
     </g>
    </g>
    <g id="ytick_23">
     <g id="line2d_26">
      <g>
       <use style="stroke:#000000;stroke-width:0.6;" x="47.170313" xlink:href="#mb6e332d1f4" y="94.428028"/>
      </g>
     </g>
    </g>
    <g id="ytick_24">
     <g id="line2d_27">
      <g>
       <use style="stroke:#000000;stroke-width:0.6;" x="47.170313" xlink:href="#mb6e332d1f4" y="88.974768"/>
      </g>
     </g>
    </g>
    <g id="ytick_25">
     <g id="line2d_28">
      <g>
       <use style="stroke:#000000;stroke-width:0.6;" x="47.170313" xlink:href="#mb6e332d1f4" y="85.105618"/>
      </g>
     </g>
    </g>
    <g id="ytick_26">
     <g id="line2d_29">
      <g>
       <use style="stroke:#000000;stroke-width:0.6;" x="47.170313" xlink:href="#mb6e332d1f4" y="82.104472"/>
      </g>
     </g>
    </g>
    <g id="ytick_27">
     <g id="line2d_30">
      <g>
       <use style="stroke:#000000;stroke-width:0.6;" x="47.170313" xlink:href="#mb6e332d1f4" y="79.652358"/>
      </g>
     </g>
    </g>
    <g id="ytick_28">
     <g id="line2d_31">
      <g>
       <use style="stroke:#000000;stroke-width:0.6;" x="47.170313" xlink:href="#mb6e332d1f4" y="77.579124"/>
      </g>
     </g>
    </g>
    <g id="ytick_29">
     <g id="line2d_32">
      <g>
       <use style="stroke:#000000;stroke-width:0.6;" x="47.170313" xlink:href="#mb6e332d1f4" y="75.783208"/>
      </g>
     </g>
    </g>
    <g id="ytick_30">
     <g id="line2d_33">
      <g>
       <use style="stroke:#000000;stroke-width:0.6;" x="47.170313" xlink:href="#mb6e332d1f4" y="74.199098"/>
      </g>
     </g>
    </g>
    <g id="ytick_31">
     <g id="line2d_34">
      <g>
       <use style="stroke:#000000;stroke-width:0.6;" x="47.170313" xlink:href="#mb6e332d1f4" y="63.459653"/>
      </g>
     </g>
    </g>
    <g id="ytick_32">
     <g id="line2d_35">
      <g>
       <use style="stroke:#000000;stroke-width:0.6;" x="47.170313" xlink:href="#mb6e332d1f4" y="58.006393"/>
      </g>
     </g>
    </g>
    <g id="ytick_33">
     <g id="line2d_36">
      <g>
       <use style="stroke:#000000;stroke-width:0.6;" x="47.170313" xlink:href="#mb6e332d1f4" y="54.137243"/>
      </g>
     </g>
    </g>
    <g id="ytick_34">
     <g id="line2d_37">
      <g>
       <use style="stroke:#000000;stroke-width:0.6;" x="47.170313" xlink:href="#mb6e332d1f4" y="51.136097"/>
      </g>
     </g>
    </g>
    <g id="ytick_35">
     <g id="line2d_38">
      <g>
       <use style="stroke:#000000;stroke-width:0.6;" x="47.170313" xlink:href="#mb6e332d1f4" y="48.683983"/>
      </g>
     </g>
    </g>
    <g id="ytick_36">
     <g id="line2d_39">
      <g>
       <use style="stroke:#000000;stroke-width:0.6;" x="47.170313" xlink:href="#mb6e332d1f4" y="46.610749"/>
      </g>
     </g>
    </g>
    <g id="ytick_37">
     <g id="line2d_40">
      <g>
       <use style="stroke:#000000;stroke-width:0.6;" x="47.170313" xlink:href="#mb6e332d1f4" y="44.814833"/>
      </g>
     </g>
    </g>
    <g id="ytick_38">
     <g id="line2d_41">
      <g>
       <use style="stroke:#000000;stroke-width:0.6;" x="47.170313" xlink:href="#mb6e332d1f4" y="43.230723"/>
      </g>
     </g>
    </g>
    <g id="ytick_39">
     <g id="line2d_42">
      <g>
       <use style="stroke:#000000;stroke-width:0.6;" x="47.170313" xlink:href="#mb6e332d1f4" y="32.491278"/>
      </g>
     </g>
    </g>
    <g id="ytick_40">
     <g id="line2d_43">
      <g>
       <use style="stroke:#000000;stroke-width:0.6;" x="47.170313" xlink:href="#mb6e332d1f4" y="27.038018"/>
      </g>
     </g>
    </g>
    <g id="ytick_41">
     <g id="line2d_44">
      <g>
       <use style="stroke:#000000;stroke-width:0.6;" x="47.170313" xlink:href="#mb6e332d1f4" y="23.168868"/>
      </g>
     </g>
    </g>
    <g id="ytick_42">
     <g id="line2d_45">
      <g>
       <use style="stroke:#000000;stroke-width:0.6;" x="47.170313" xlink:href="#mb6e332d1f4" y="20.167722"/>
      </g>
     </g>
    </g>
    <g id="ytick_43">
     <g id="line2d_46">
      <g>
       <use style="stroke:#000000;stroke-width:0.6;" x="47.170313" xlink:href="#mb6e332d1f4" y="17.715608"/>
      </g>
     </g>
    </g>
    <g id="ytick_44">
     <g id="line2d_47">
      <g>
       <use style="stroke:#000000;stroke-width:0.6;" x="47.170313" xlink:href="#mb6e332d1f4" y="15.642374"/>
      </g>
     </g>
    </g>
    <g id="ytick_45">
     <g id="line2d_48">
      <g>
       <use style="stroke:#000000;stroke-width:0.6;" x="47.170313" xlink:href="#mb6e332d1f4" y="13.846458"/>
      </g>
     </g>
    </g>
    <g id="ytick_46">
     <g id="line2d_49">
      <g>
       <use style="stroke:#000000;stroke-width:0.6;" x="47.170313" xlink:href="#mb6e332d1f4" y="12.262348"/>
      </g>
     </g>
    </g>
    <g id="text_11">
     <!-- Randomized quantiles -->
     <defs>
      <path d="M 18.59375 31.40625 
L 42.59375 31.40625 
C 50.90625 31.40625 54.59375 27.40625 54.59375 18.40625 
L 54.5 11.90625 
C 54.5 7.40625 55.296875 3 56.59375 0 
L 67.90625 0 
L 67.90625 2.296875 
C 64.40625 4.703125 63.703125 7.296875 63.5 17 
C 63.40625 29 61.5 32.59375 53.59375 36 
C 61.796875 40.09375 65.09375 45 65.09375 53.40625 
C 65.09375 66 57.296875 72.90625 42.90625 72.90625 
L 9.296875 72.90625 
L 9.296875 0 
L 18.59375 0 
z
M 18.59375 39.59375 
L 18.59375 64.703125 
L 41.09375 64.703125 
C 46.296875 64.703125 49.296875 63.90625 51.59375 61.90625 
C 54.09375 59.796875 55.40625 56.5 55.40625 52.203125 
C 55.40625 43.5 51 39.59375 41.09375 39.59375 
z
" id="NimbusSans-Regular-82"/>
      <path d="M 49.5 72.90625 
L 41.203125 72.90625 
L 41.203125 45.796875 
C 37.703125 51.09375 32.09375 53.90625 25.09375 53.90625 
C 11.5 53.90625 2.59375 43 2.59375 26.296875 
C 2.59375 8.59375 11.203125 -2.296875 25.40625 -2.296875 
C 32.59375 -2.296875 37.59375 0.40625 42.09375 6.90625 
L 42.09375 0 
L 49.5 0 
z
M 26.5 46.09375 
C 35.5 46.09375 41.203125 38.203125 41.203125 25.59375 
C 41.203125 13.5 35.40625 5.5 26.59375 5.5 
C 17.40625 5.5 11.296875 13.59375 11.296875 25.796875 
C 11.296875 38 17.40625 46.09375 26.5 46.09375 
z
" id="NimbusSans-Regular-100"/>
      <path d="M 7 52.40625 
L 7 0 
L 15.40625 0 
L 15.40625 32.90625 
C 15.40625 40.5 20.90625 46.59375 27.703125 46.59375 
C 33.90625 46.59375 37.40625 42.796875 37.40625 36.09375 
L 37.40625 0 
L 45.796875 0 
L 45.796875 32.90625 
C 45.796875 40.5 51.296875 46.59375 58.09375 46.59375 
C 64.203125 46.59375 67.796875 42.703125 67.796875 36.09375 
L 67.796875 0 
L 76.203125 0 
L 76.203125 39.296875 
C 76.203125 48.703125 70.796875 53.90625 61 53.90625 
C 54 53.90625 49.796875 51.796875 44.90625 45.90625 
C 41.796875 51.5 37.59375 53.90625 30.796875 53.90625 
C 23.796875 53.90625 19.09375 51.296875 14.703125 45 
L 14.703125 52.40625 
z
" id="NimbusSans-Regular-109"/>
      <path d="M 44.296875 52.40625 
L 5.203125 52.40625 
L 5.203125 45.09375 
L 34.40625 45.09375 
L 3.09375 7.5 
L 3.09375 0 
L 45.703125 0 
L 45.703125 7.296875 
L 13.203125 7.296875 
L 44.296875 45 
z
" id="NimbusSans-Regular-122"/>
     </defs>
     <g transform="translate(14.490625 137.727969)rotate(-90)scale(0.1 -0.1)">
      <use xlink:href="#NimbusSans-Regular-82"/>
      <use x="72.199982" xlink:href="#NimbusSans-Regular-97"/>
      <use x="127.799973" xlink:href="#NimbusSans-Regular-110"/>
      <use x="183.399963" xlink:href="#NimbusSans-Regular-100"/>
      <use x="238.999954" xlink:href="#NimbusSans-Regular-111"/>
      <use x="294.599945" xlink:href="#NimbusSans-Regular-109"/>
      <use x="377.899933" xlink:href="#NimbusSans-Regular-105"/>
      <use x="400.09993" xlink:href="#NimbusSans-Regular-122"/>
      <use x="450.099915" xlink:href="#NimbusSans-Regular-101"/>
      <use x="505.699905" xlink:href="#NimbusSans-Regular-100"/>
      <use x="561.299896" xlink:href="#NimbusSans-Regular-32"/>
      <use x="589.099884" xlink:href="#NimbusSans-Regular-113"/>
      <use x="644.699875" xlink:href="#NimbusSans-Regular-117"/>
      <use x="700.299866" xlink:href="#NimbusSans-Regular-97"/>
      <use x="755.899857" xlink:href="#NimbusSans-Regular-110"/>
      <use x="811.499847" xlink:href="#NimbusSans-Regular-116"/>
      <use x="839.299835" xlink:href="#NimbusSans-Regular-105"/>
      <use x="861.499832" xlink:href="#NimbusSans-Regular-108"/>
      <use x="883.699829" xlink:href="#NimbusSans-Regular-101"/>
      <use x="939.29982" xlink:href="#NimbusSans-Regular-115"/>
     </g>
    </g>
   </g>
   <g id="line2d_50">
    <path clip-path="url(#p37906006bc)" d="M 76.70196 148.357361 
L 85.672455 145.216626 
L 90.919859 141.239018 
L 94.642951 140.90296 
L 97.530805 131.780713 
L 99.890354 123.596957 
L 101.885325 122.335237 
L 103.613446 118.932164 
L 105.137758 117.406787 
L 106.501301 117.102952 
L 107.734776 116.993072 
L 108.86085 116.434587 
L 109.896738 115.515249 
L 110.85582 114.036004 
L 111.748704 113.001436 
L 113.368527 112.626537 
L 114.108253 111.417005 
L 114.807975 109.595726 
L 115.471796 108.328316 
L 116.103224 108.143352 
L 117.280552 106.57516 
L 117.831345 106.444266 
L 118.359651 106.443521 
L 118.867233 106.173408 
L 119.355657 104.935074 
L 119.826316 104.364478 
L 120.280457 104.272847 
L 120.7192 104.013753 
L 121.143556 103.012308 
L 121.952675 102.867587 
L 122.71417 100.515156 
L 123.078749 99.997965 
L 124.761856 98.626488 
L 125.073719 98.61337 
L 125.378243 97.451157 
L 126.529374 97.099266 
L 126.801841 97.080768 
L 127.068689 96.156182 
L 128.326152 95.670391 
L 128.796811 94.348538 
L 129.025873 94.110291 
L 129.250952 93.686955 
L 129.472183 92.684083 
L 129.689695 92.442317 
L 129.903612 92.397236 
L 130.92317 91.562515 
L 131.309518 90.501287 
L 131.684666 89.93974 
L 131.868239 89.726605 
L 132.227753 89.635138 
L 132.403833 89.373092 
L 132.57755 89.31408 
L 133.085132 88.588083 
L 133.412787 87.707979 
L 134.044215 87.35641 
L 134.498355 85.864442 
L 134.792497 85.610138 
L 135.361455 84.676092 
L 135.49987 84.676072 
L 135.772336 84.329962 
L 135.906448 84.307763 
L 136.170574 83.701492 
L 136.429416 83.558615 
L 136.683183 83.340616 
L 137.05474 83.129404 
L 137.296648 82.760365 
L 137.415927 82.720811 
L 137.882345 82.17709 
L 137.996369 82.146267 
L 138.221447 81.803136 
L 138.660191 81.493984 
L 139.188496 80.93024 
L 139.393924 80.399737 
L 139.495428 80.295749 
L 139.696079 80.010112 
L 140.184502 79.5662 
L 140.468946 79.347237 
L 140.655161 78.97085 
L 140.838734 78.248313 
L 141.01974 77.894804 
L 141.286588 77.767024 
L 141.719461 77.158474 
L 141.888636 77.066335 
L 142.055628 76.721763 
L 142.383283 76.611727 
L 142.544051 76.405533 
L 142.623693 76.388229 
L 143.01471 75.669635 
L 143.319234 75.264152 
L 143.907594 74.712355 
L 144.401343 73.848857 
L 144.539021 73.677263 
L 144.675251 73.426592 
L 145.271137 73.00862 
L 145.399911 72.531324 
L 145.463821 72.527823 
L 145.84079 71.756685 
L 146.32692 71.330316 
L 146.504612 71.062652 
L 146.737802 70.943043 
L 147.467896 70.440534 
L 147.897535 69.698315 
L 149.154998 68.481673 
L 149.250509 68.416587 
L 149.625657 68.003248 
L 149.671795 67.975053 
L 149.900049 67.550103 
L 150.388473 67.024086 
L 150.647315 66.585434 
L 150.859131 66.469526 
L 151.272639 65.890109 
L 151.474541 65.561494 
L 151.712739 65.41089 
L 152.214268 64.660845 
L 152.513511 64.490853 
L 152.733488 64.030004 
L 152.87809 63.877343 
L 153.679581 62.80228 
L 153.814041 62.670261 
L 154.144204 62.171134 
L 154.273947 62.066963 
L 155.147452 60.800764 
L 155.297416 60.530494 
L 155.416148 60.465347 
L 155.592228 59.971993 
L 155.794672 59.773236 
L 155.880473 59.641438 
L 156.106535 59.298338 
L 156.162438 59.186878 
L 156.465665 58.611278 
L 156.520042 58.47531 
L 158.362962 55.866659 
L 158.549849 55.464633 
L 158.734075 55.36345 
L 158.960731 55.022396 
L 159.072587 54.819121 
L 159.358968 54.537563 
L 159.445825 54.427782 
L 160.017342 53.555252 
L 160.099905 53.431937 
L 160.663551 52.817968 
L 161.20367 52.01822 
L 161.3726 51.624832 
L 161.465505 51.446245 
L 162.817935 49.735339 
L 163.08206 49.441056 
L 163.372897 49.112484 
L 163.641701 48.799432 
L 163.82814 48.506598 
L 163.935668 48.395524 
L 164.416157 47.915365 
L 164.577289 47.751816 
L 164.620888 47.665175 
L 164.836708 47.17231 
L 166.963499 44.143987 
L 167.107966 43.872105 
L 167.566648 43.326896 
L 169.926196 40.392171 
L 170.296391 39.918615 
L 170.537432 39.568032 
L 170.674479 39.417534 
L 171.535819 38.269997 
L 171.713163 38.061519 
L 172.085195 37.607585 
L 172.174533 37.479434 
L 174.26282 34.816473 
L 174.372554 34.706149 
L 174.809021 34.185614 
L 175.109245 33.84553 
L 175.269536 33.585468 
L 175.602925 33.193142 
L 175.787897 32.878842 
L 177.129996 31.139733 
L 177.234431 31.017709 
L 177.79161 30.310966 
L 177.93761 30.076213 
L 178.097354 29.908558 
L 178.310683 29.622863 
L 178.80004 29.099676 
L 179.125754 28.625958 
L 179.243471 28.47592 
L 180.317882 26.910142 
L 180.446656 26.78561 
L 180.666873 26.464923 
L 180.779756 26.331457 
L 180.916399 26.145678 
L 181.761416 25.1342 
L 181.979507 24.831067 
L 182.279531 24.495338 
L 182.594482 24.065709 
L 182.887811 23.752065 
L 183.028522 23.639473 
L 183.226426 23.432784 
L 183.356702 23.326874 
L 183.522775 23.100357 
L 183.719954 22.891773 
L 183.998845 22.616315 
L 184.124823 22.470574 
L 184.564102 22.004561 
L 185.203664 21.335684 
L 185.350697 21.157411 
L 186.177525 20.238788 
L 186.308526 20.09183 
L 186.635638 19.729268 
L 187.008819 19.345667 
L 187.215523 19.173082 
L 187.520754 18.873449 
L 187.69269 18.742333 
L 187.859963 18.577594 
L 188.131677 18.298078 
L 188.307375 18.121366 
L 188.483015 17.946804 
L 188.75333 17.683653 
L 189.756494 16.73678 
L 189.981285 16.549856 
L 190.393764 16.155368 
L 190.693268 15.908673 
L 190.80118 15.798676 
L 191.035089 15.569235 
L 191.521489 15.157024 
L 191.690993 15.015225 
L 191.923576 14.827838 
L 193.58886 13.454738 
L 193.733479 13.329965 
L 194.284591 12.892651 
L 194.511312 12.720402 
L 194.785009 12.48162 
L 195.455671 11.863423 
L 195.572996 11.752765 
L 195.73129 11.593427 
L 195.835754 11.451726 
L 196.008863 11.214983 
L 196.154334 10.938741 
L 196.167017 10.862317 
L 196.167017 10.862317 
" style="fill:none;stroke:#1b9e77;stroke-linecap:square;"/>
   </g>
   <g id="line2d_51">
    <path clip-path="url(#p37906006bc)" d="M 76.70196 128.489259 
L 85.672455 121.198199 
L 90.919859 118.568386 
L 94.642951 115.027083 
L 97.530805 106.844047 
L 99.890354 106.321943 
L 101.885325 105.744633 
L 103.613446 105.360333 
L 105.137758 105.225484 
L 106.501301 104.200698 
L 107.734776 103.660679 
L 108.86085 102.96126 
L 110.85582 102.507495 
L 111.748704 102.081747 
L 112.583942 101.990047 
L 113.368527 101.505898 
L 114.108253 100.737827 
L 114.807975 100.536068 
L 115.471796 100.051461 
L 116.103224 99.848506 
L 116.705271 99.45694 
L 117.831345 99.115315 
L 118.359651 97.443758 
L 118.867233 97.421375 
L 119.355657 97.114307 
L 119.826316 96.572631 
L 120.280457 96.487582 
L 121.554437 95.735666 
L 121.952675 94.262028 
L 122.71417 93.488148 
L 123.433338 93.296404 
L 123.77847 92.810372 
L 124.114637 92.808777 
L 124.442292 92.604433 
L 125.675767 92.424085 
L 125.966603 92.207052 
L 126.529374 92.14489 
L 126.801841 91.913485 
L 127.068689 91.537155 
L 127.330146 91.403942 
L 128.326152 90.365666 
L 128.563621 90.256607 
L 129.025873 89.701306 
L 129.472183 89.654939 
L 129.689695 89.106514 
L 130.114051 88.745706 
L 130.321122 88.465246 
L 130.92317 88.446342 
L 131.498451 87.84065 
L 131.684666 87.610502 
L 132.049244 87.503978 
L 132.403833 87.094754 
L 132.57755 86.966441 
L 132.748965 86.629919 
L 133.249997 86.412383 
L 133.412787 85.981224 
L 133.889222 85.771325 
L 134.044215 85.124736 
L 134.348739 85.001404 
L 134.646262 84.846621 
L 134.792497 84.572633 
L 135.221543 84.480174 
L 135.361455 84.336735 
L 135.63682 83.653693 
L 135.772336 83.636435 
L 136.300642 83.263917 
L 136.808224 83.067717 
L 136.932069 82.9248 
L 137.176259 82.452849 
L 137.534117 82.367045 
L 137.767307 82.026556 
L 137.996369 81.932489 
L 138.221447 81.218437 
L 138.442678 80.378276 
L 138.660191 80.254726 
L 138.874108 79.82321 
L 139.291618 79.584227 
L 139.795249 78.858379 
L 140.088281 78.511271 
L 140.280013 78.378203 
L 140.838734 78.031812 
L 141.01974 77.976771 
L 141.461479 77.320828 
L 142.138322 77.087734 
L 142.220492 77.044545 
L 142.544051 76.602015 
L 142.623693 76.566717 
L 142.859718 76.096189 
L 143.091515 75.857762 
L 143.319234 75.437524 
L 143.394259 75.40095 
L 143.616758 74.845727 
L 144.121511 73.968814 
L 144.401343 73.908762 
L 144.607315 73.707132 
L 144.742832 73.629509 
L 144.876944 73.207714 
L 145.00968 73.148665 
L 145.399911 72.563368 
L 145.77872 72.237939 
L 146.207089 71.570173 
L 146.32692 71.519821 
L 146.504612 71.18363 
L 146.795449 70.881024 
L 147.247606 70.4725 
L 147.35822 70.437027 
L 147.57665 69.878785 
L 147.738087 69.75868 
L 148.055042 69.404333 
L 148.465924 68.773713 
L 148.716254 68.603729 
L 149.154998 68.071192 
L 149.250509 67.996568 
L 149.625657 67.600588 
L 150.344824 67.229195 
L 150.518541 66.963101 
L 150.817044 66.590281 
L 150.942897 66.505292 
L 151.108818 66.205588 
L 151.474541 65.730543 
L 151.514547 65.720879 
L 151.673342 65.383573 
L 151.712739 65.331145 
L 151.830213 64.912387 
L 152.100243 64.531384 
L 152.252054 64.353245 
L 153.475234 62.133877 
L 153.509517 62.116222 
L 153.679581 61.866159 
L 154.30618 61.115314 
L 154.561197 60.873305 
L 154.811286 60.653857 
L 154.934541 60.358085 
L 155.147452 59.956791 
L 155.650393 59.37329 
L 156.1903 58.867645 
L 156.245844 58.666268 
L 156.628116 58.103081 
L 156.735294 57.992664 
L 157.025538 57.497046 
L 157.232609 57.393153 
L 157.258261 57.378322 
L 157.436419 56.896526 
L 157.587198 56.678651 
L 157.73624 56.416127 
L 157.883585 56.227427 
L 159.005589 54.737464 
L 159.094843 54.600414 
L 159.31532 54.11406 
L 159.532104 53.891251 
L 160.017342 53.474004 
L 160.404908 52.949082 
L 160.683234 52.714642 
L 161.089813 52.203335 
L 161.353938 51.672248 
L 161.428423 51.552807 
L 162.009354 50.750859 
L 162.08017 50.659179 
L 162.220651 50.491427 
L 162.32502 50.39014 
L 162.616242 49.862804 
L 163.08206 49.349876 
L 163.372897 48.90232 
L 163.452538 48.850706 
L 163.626043 48.525954 
L 163.781781 48.406635 
L 164.223104 47.723171 
L 164.312563 47.633919 
L 164.474983 47.322616 
L 167.035934 44.242719 
L 167.203389 44.055465 
L 167.321687 43.879703 
L 167.942455 42.96375 
L 168.054215 42.807301 
L 168.405495 42.259777 
L 168.491846 42.17748 
L 168.652216 41.923989 
L 168.862997 41.729617 
L 169.203452 41.341019 
L 169.385447 41.182702 
L 169.5451 41.022119 
L 169.614333 40.874468 
L 170.371037 40.010218 
L 170.546614 39.727346 
L 170.65629 39.574724 
L 170.872892 39.203114 
L 170.953193 39.086948 
L 171.552814 38.3434 
L 171.771742 38.06752 
L 171.978813 37.717139 
L 172.166437 37.523374 
L 172.351378 37.308401 
L 172.470584 37.185216 
L 172.60437 37.04252 
L 172.844828 36.766074 
L 173.073351 36.477328 
L 173.290486 36.073882 
L 173.357139 35.946731 
L 173.511339 35.707119 
L 175.115695 33.775363 
L 175.314064 33.472836 
L 175.478124 33.315221 
L 178.658599 29.18156 
L 178.795188 29.023414 
L 179.558347 28.106296 
L 180.309251 27.054585 
L 180.421003 26.909675 
L 183.749769 22.941878 
L 183.888009 22.816601 
L 185.102719 21.449258 
L 185.654133 20.846933 
L 185.801813 20.646218 
L 186.075633 20.329296 
L 186.248649 20.171255 
L 186.438214 19.99446 
L 186.619743 19.800983 
L 186.777827 19.647759 
L 186.900325 19.539383 
L 187.083204 19.320402 
L 187.281179 19.140109 
L 187.587343 18.814399 
L 187.731671 18.701833 
L 188.070208 18.359594 
L 188.339909 18.144652 
L 189.134321 17.365796 
L 189.223507 17.251181 
L 189.683477 16.770664 
L 190.476673 16.091303 
L 190.638972 15.936139 
L 190.810771 15.804852 
L 191.198021 15.423042 
L 191.426757 15.222634 
L 192.272504 14.516778 
L 192.491587 14.333727 
L 192.678836 14.169637 
L 192.794505 14.05873 
L 194.496897 12.72129 
L 194.661707 12.564126 
L 194.831474 12.427521 
L 195.209593 12.097863 
L 195.419459 11.886295 
L 195.81102 11.474156 
L 195.990885 11.246086 
L 196.167017 10.862183 
L 196.167017 10.862183 
" style="fill:none;stroke:#d95f02;stroke-linecap:square;"/>
   </g>
   <g id="line2d_52">
    <path clip-path="url(#p37906006bc)" d="M 76.70196 125.167244 
L 85.672455 122.188967 
L 90.919859 115.671057 
L 94.642951 114.612671 
L 97.530805 113.020051 
L 99.890354 110.572337 
L 101.885325 110.569317 
L 103.613446 107.200401 
L 106.501301 107.088628 
L 107.734776 106.80118 
L 108.86085 105.299549 
L 109.896738 105.134194 
L 110.85582 103.398379 
L 111.748704 102.015301 
L 112.583942 101.308574 
L 114.108253 100.607794 
L 114.807975 99.09627 
L 115.471796 99.053093 
L 116.103224 97.86651 
L 116.705271 97.525796 
L 117.280552 96.623228 
L 117.831345 94.745445 
L 119.355657 93.456181 
L 119.826316 92.653933 
L 120.280457 91.353596 
L 121.554437 89.408392 
L 121.952675 88.832037 
L 122.71417 88.428007 
L 123.078749 88.003741 
L 123.433338 86.958396 
L 123.77847 86.930919 
L 124.442292 85.874274 
L 125.675767 85.716369 
L 125.966603 85.248973 
L 126.251048 84.559439 
L 127.586426 83.504422 
L 127.837729 83.185903 
L 128.084245 83.137681 
L 128.563621 82.810683 
L 129.689695 82.680726 
L 129.903612 82.243489 
L 130.114051 82.181654 
L 130.321122 81.400777 
L 130.725583 81.237022 
L 131.309518 80.014091 
L 131.684666 78.301641 
L 132.049244 78.253739 
L 132.227753 77.832644 
L 132.57755 77.644978 
L 132.91814 77.301572 
L 133.085132 77.234695 
L 133.249997 76.834444 
L 133.412787 76.73866 
L 133.732351 76.328724 
L 133.889222 76.274306 
L 134.044215 75.921521 
L 134.348739 75.775046 
L 134.498355 75.367876 
L 135.080102 74.983743 
L 135.49987 74.471453 
L 136.039185 74.342325 
L 136.429416 74.182336 
L 136.556921 73.640265 
L 136.808224 73.557578 
L 137.05474 73.199204 
L 137.415927 72.721396 
L 138.109398 72.21111 
L 138.332536 71.913416 
L 138.767591 71.811848 
L 139.188496 71.651678 
L 139.393924 71.337413 
L 139.696079 70.921821 
L 139.893666 70.486338 
L 139.991339 70.455459 
L 140.184502 70.076904 
L 140.374825 69.968192 
L 140.562389 69.909771 
L 140.747273 69.462918 
L 140.929553 69.190453 
L 141.461479 68.049141 
L 141.634037 67.844838 
L 141.804325 67.716374 
L 141.972401 67.598772 
L 142.055628 67.55142 
L 142.302143 67.03278 
L 142.463917 66.997593 
L 142.937446 66.164455 
L 143.091515 66.154943 
L 143.243772 65.974888 
L 143.394259 65.933172 
L 143.616758 65.648404 
L 143.690082 65.647871 
L 143.907594 65.454146 
L 143.979294 65.447243 
L 144.262183 65.162716 
L 144.876944 64.618617 
L 145.206267 64.088816 
L 146.025235 63.677399 
L 146.207089 63.337245 
L 146.504612 63.093581 
L 146.679897 62.967124 
L 146.85284 62.729542 
L 147.136039 62.550511 
L 147.35822 62.211804 
L 147.57665 61.974551 
L 148.210655 61.397544 
L 148.465924 61.014783 
L 148.91309 60.511083 
L 149.106977 60.480183 
L 149.34532 60.041566 
L 149.625657 59.826835 
L 150.035094 59.487581 
L 150.168744 59.431937 
L 150.47533 58.998483 
L 150.647315 58.884404 
L 150.984577 58.667293 
L 151.149968 58.402787 
L 151.434412 58.09838 
L 151.791174 57.866859 
L 152.252054 57.266018 
L 152.402104 57.155192 
L 152.842091 56.644307 
L 153.371838 56.127515 
L 153.509517 55.933006 
L 154.144204 55.205296 
L 154.209238 55.201342 
L 154.370407 54.888969 
L 155.267562 53.512066 
L 155.475108 53.415956 
L 156.078492 52.849733 
L 156.162438 52.734534 
L 156.383669 52.577148 
L 156.520042 52.490072 
L 156.681816 52.294239 
L 156.973248 52.101484 
L 157.258261 51.874266 
L 157.411118 51.713263 
L 157.587198 51.473897 
L 157.661934 51.412355 
L 157.859144 51.187696 
L 158.029272 50.851054 
L 158.244772 50.523832 
L 158.409937 50.356967 
L 158.596152 50.18692 
L 158.80249 50.078268 
L 159.78754 49.102371 
L 159.934249 48.990743 
L 160.324274 48.382027 
L 160.544819 48.18258 
L 160.742105 48.019957 
L 161.013348 47.753132 
L 161.297792 47.423335 
L 161.391234 47.350594 
L 161.576119 47.161034 
L 161.66758 47.026059 
L 161.794549 46.900442 
L 161.938147 46.750566 
L 162.342334 46.220373 
L 162.901054 45.57108 
L 163.09839 45.32755 
L 163.340902 45.040287 
L 163.42074 44.890805 
L 166.73141 41.54384 
L 166.866284 41.427401 
L 167.05999 41.262553 
L 167.238992 41.105407 
L 167.919987 40.446523 
L 168.020788 40.316149 
L 168.242019 39.992921 
L 168.459532 39.824322 
L 168.588306 39.682774 
L 168.779096 39.500836 
L 168.925568 39.342669 
L 169.142213 39.117959 
L 169.294769 38.994907 
L 169.555013 38.768453 
L 171.191147 37.257548 
L 171.904649 36.458538 
L 172.036205 36.339566 
L 172.19071 36.14328 
L 172.454753 35.909174 
L 172.666853 35.691158 
L 172.890856 35.488968 
L 173.245859 35.10505 
L 173.678144 34.625283 
L 173.849939 34.489157 
L 174.033512 34.27833 
L 174.562378 33.772121 
L 174.802417 33.539081 
L 174.97305 33.420817 
L 175.263162 33.130724 
L 175.534433 32.853198 
L 175.842877 32.505584 
L 176.018463 32.295882 
L 176.185763 32.141823 
L 176.309834 32.024175 
L 177.201543 31.051748 
L 177.338031 30.859447 
L 177.440808 30.723795 
L 177.760109 30.419165 
L 177.98419 30.179793 
L 178.13826 30.013856 
L 178.300604 29.876815 
L 178.470892 29.748747 
L 178.853288 29.297827 
L 178.959131 29.185081 
L 180.261679 27.643376 
L 180.463729 27.434763 
L 180.650066 27.252379 
L 181.50421 26.241252 
L 181.676247 26.108595 
L 181.792248 25.989875 
L 181.945315 25.83736 
L 182.100352 25.69744 
L 182.279531 25.47395 
L 182.386594 25.368108 
L 182.558252 25.170918 
L 182.698982 25.017601 
L 182.940757 24.727881 
L 183.613382 24.044839 
L 183.96309 23.711964 
L 184.07006 23.59553 
L 184.252769 23.367145 
L 184.385765 23.223811 
L 184.727747 22.888595 
L 185.111658 22.49408 
L 185.359466 22.220842 
L 185.536494 22.019635 
L 185.875025 21.662912 
L 186.034095 21.489031 
L 186.169294 21.345158 
L 186.507923 21.007209 
L 186.638286 20.873339 
L 187.075529 20.388138 
L 187.200324 20.262865 
L 188.503657 18.86139 
L 189.610046 17.737283 
L 189.766891 17.551229 
L 194.271389 12.864087 
L 194.37663 12.751919 
L 194.643181 12.498169 
L 196.167017 10.846107 
L 196.167017 10.846107 
" style="fill:none;stroke:#7570b3;stroke-linecap:square;"/>
   </g>
   <g id="line2d_53">
    <path clip-path="url(#p37906006bc)" d="M 76.70196 162.29127 
L 85.672455 133.420456 
L 90.919859 124.649027 
L 94.642951 120.895005 
L 97.530805 119.827899 
L 99.890354 117.620524 
L 101.885325 117.410771 
L 103.613446 107.911385 
L 105.137758 107.702145 
L 106.501301 107.321379 
L 107.734776 107.097907 
L 109.896738 102.111332 
L 111.748704 100.714203 
L 112.583942 100.362598 
L 114.108253 98.488915 
L 114.807975 97.305118 
L 115.471796 96.754229 
L 116.103224 96.41099 
L 116.705271 94.680168 
L 117.280552 94.255405 
L 118.359651 92.783133 
L 118.867233 92.433515 
L 119.355657 91.500865 
L 120.280457 91.190883 
L 120.7192 90.679256 
L 121.143556 90.640836 
L 121.554437 89.792842 
L 121.952675 89.74718 
L 122.339022 88.930478 
L 122.71417 88.411559 
L 123.078749 88.193069 
L 123.77847 88.073488 
L 124.114637 86.949545 
L 124.442292 86.460789 
L 124.761856 86.368638 
L 125.378243 85.271486 
L 126.801841 81.560867 
L 127.068689 81.520184 
L 127.330146 81.344225 
L 127.586426 80.899164 
L 129.025873 80.566033 
L 129.472183 80.001212 
L 129.689695 79.939599 
L 129.903612 79.161838 
L 130.725583 78.754403 
L 130.92317 78.378813 
L 131.117786 78.278919 
L 131.309518 77.617492 
L 132.227753 76.985701 
L 132.403833 76.938397 
L 132.57755 76.77586 
L 132.748965 76.213038 
L 133.249997 75.929589 
L 133.412787 75.602564 
L 134.197372 75.364352 
L 134.348739 74.383291 
L 135.080102 73.689307 
L 135.221543 73.143669 
L 135.361455 73.084285 
L 135.63682 72.859194 
L 135.906448 72.758594 
L 136.808224 71.666129 
L 136.932069 71.642084 
L 137.176259 71.342576 
L 137.296648 71.315849 
L 137.534117 71.046577 
L 137.996369 70.596841 
L 138.551892 70.391455 
L 138.767591 70.100013 
L 138.979755 69.42 
L 139.291618 69.246658 
L 139.495428 68.90593 
L 140.088281 68.708163 
L 140.468946 68.217956 
L 140.838734 68.021683 
L 140.929553 67.955809 
L 141.109302 67.428642 
L 141.374329 67.076676 
L 141.634037 66.877913 
L 142.623693 66.368315 
L 142.78152 66.137353 
L 142.937446 66.020676 
L 143.091515 65.875433 
L 143.243772 65.353138 
L 143.907594 64.981897 
L 144.121511 64.587147 
L 144.33195 64.434444 
L 144.539021 64.167641 
L 144.876944 63.815273 
L 145.00968 63.673783 
L 145.206267 63.439104 
L 145.527417 63.298471 
L 145.71635 63.21993 
L 145.964045 62.936222 
L 146.086138 62.847955 
L 147.897535 60.611942 
L 148.91309 59.791273 
L 149.854719 59.117302 
L 149.990235 58.950658 
L 150.212989 58.845466 
L 150.518541 58.424853 
L 150.901082 57.953126 
L 151.067537 57.816605 
L 151.313272 57.692732 
L 151.474541 57.449011 
L 151.752016 57.289194 
L 151.907941 57.088672 
L 152.587253 56.127771 
L 152.913989 55.979176 
L 153.267609 55.784619 
L 153.780557 55.399117 
L 153.980176 54.998312 
L 154.624174 54.298264 
L 154.965172 53.780841 
L 155.056633 53.718059 
L 155.327201 53.159563 
L 156.106535 52.429736 
L 156.356221 52.043429 
L 156.465665 51.978484 
L 156.86803 51.43591 
L 156.947023 51.350399 
L 157.258261 50.976268 
L 158.50338 49.978562 
L 158.71119 49.814359 
L 158.89315 49.639448 
L 158.960731 49.549165 
L 159.11706 49.387794 
L 159.358968 49.139034 
L 159.532104 48.906001 
L 159.596437 48.808727 
L 160.017342 48.301581 
L 160.22277 48.218565 
L 160.384796 47.972703 
L 160.445037 47.915903 
L 160.624095 47.636245 
L 161.955986 46.224783 
L 162.115434 45.95086 
L 163.292762 44.6869 
L 163.452538 44.513434 
L 164.208134 43.833506 
L 164.707648 43.355481 
L 164.850969 43.247602 
L 165.422531 42.766154 
L 165.612057 42.596214 
L 165.759047 42.44307 
L 166.73141 41.514209 
L 166.939264 41.210632 
L 167.473875 40.815521 
L 167.612785 40.591546 
L 167.727416 40.488839 
L 168.09865 40.072147 
L 168.27488 39.976419 
L 168.427137 39.778528 
L 168.630947 39.526497 
L 169.060109 38.993632 
L 169.2238 38.843647 
L 169.365351 38.709941 
L 169.751699 38.352565 
L 169.916564 38.240047 
L 170.333768 37.877347 
L 170.528244 37.613927 
L 170.728894 37.44019 
L 171.138645 37.090232 
L 171.356011 36.907646 
L 171.552814 36.689136 
L 171.995237 36.283942 
L 172.068886 36.179177 
L 172.231064 36.03621 
L 172.391236 35.903926 
L 172.906163 35.243209 
L 173.171138 35.029247 
L 173.430797 34.81002 
L 175.186433 33.100189 
L 175.757251 32.446651 
L 175.915823 32.282833 
L 176.256807 32.005251 
L 176.397734 31.881836 
L 176.686494 31.607819 
L 177.135513 31.13728 
L 177.365157 30.907831 
L 185.953409 21.55769 
L 186.089449 21.422765 
L 186.811826 20.675751 
L 186.975335 20.508887 
L 187.136804 20.321148 
L 187.523226 19.886735 
L 187.631546 19.754832 
L 190.78774 16.397928 
L 190.927218 16.234973 
L 191.055804 16.116149 
L 195.590238 11.49401 
L 195.745704 11.337386 
L 196.167017 10.846676 
L 196.167017 10.846676 
" style="fill:none;stroke:#e7298a;stroke-linecap:square;"/>
   </g>
   <g id="line2d_54">
    <path clip-path="url(#p37906006bc)" d="M 76.70196 145.653528 
L 85.672455 135.915908 
L 90.919859 133.185578 
L 94.642951 121.9799 
L 97.530805 117.51653 
L 99.890354 116.477256 
L 101.885325 114.503146 
L 103.613446 111.912269 
L 105.137758 111.200912 
L 106.501301 110.860133 
L 107.734776 108.649301 
L 108.86085 107.34648 
L 109.896738 105.435571 
L 110.85582 103.942629 
L 111.748704 103.592986 
L 112.583942 103.110504 
L 114.108253 99.835548 
L 114.807975 99.806602 
L 115.471796 97.673741 
L 116.103224 96.53537 
L 116.705271 95.829461 
L 117.280552 92.523405 
L 117.831345 91.624522 
L 118.359651 91.47018 
L 118.867233 90.046182 
L 119.355657 89.428441 
L 120.280457 89.338982 
L 120.7192 88.562793 
L 121.554437 88.18497 
L 121.952675 87.223237 
L 122.339022 87.204363 
L 122.71417 85.75192 
L 124.761856 85.136625 
L 125.675767 84.016625 
L 125.966603 83.966233 
L 126.529374 83.350749 
L 127.068689 82.932821 
L 127.330146 82.061246 
L 129.025873 81.254459 
L 129.472183 80.709723 
L 129.903612 80.579529 
L 130.114051 79.79832 
L 130.321122 79.647338 
L 130.725583 78.347574 
L 130.92317 78.175742 
L 131.117786 78.170522 
L 131.498451 77.996132 
L 131.684666 77.979198 
L 132.403833 77.541119 
L 132.748965 77.512412 
L 133.085132 76.49939 
L 133.889222 75.858779 
L 134.197372 75.463036 
L 134.348739 75.41446 
L 134.792497 75.016479 
L 134.937099 75.015606 
L 135.49987 74.1109 
L 135.906448 73.661926 
L 136.683183 72.852951 
L 137.176259 72.488904 
L 137.296648 72.457433 
L 137.651237 72.000532 
L 138.109398 71.813834 
L 138.332536 71.575542 
L 138.660191 71.416002 
L 138.874108 71.041027 
L 139.188496 70.899397 
L 139.393924 70.83079 
L 139.596142 70.521314 
L 139.893666 70.274727 
L 139.991339 70.249968 
L 140.184502 69.95407 
L 140.562389 69.679433 
L 140.838734 69.232388 
L 140.929553 69.221223 
L 141.198249 68.845897 
L 141.804325 68.671072 
L 141.972401 68.475975 
L 142.055628 68.428312 
L 142.702847 66.965232 
L 142.859718 66.821371 
L 143.394259 66.449169 
L 143.616758 66.063681 
L 143.979294 65.826387 
L 144.192038 65.714627 
L 145.141069 64.755454 
L 145.271137 64.673667 
L 145.399911 64.291149 
L 145.590701 64.191008 
L 145.77872 64.107403 
L 146.504612 63.407856 
L 146.679897 62.953351 
L 147.247606 62.396943 
L 148.055042 61.915623 
L 149.579353 60.429847 
L 149.671795 60.385117 
L 149.80923 60.176247 
L 150.079797 60.108496 
L 150.518541 59.456251 
L 150.689956 59.335514 
L 150.859131 59.078825 
L 151.394158 58.507989 
L 151.554429 58.384941 
L 151.712739 58.258909 
L 151.830213 58.131449 
L 152.252054 57.735589 
L 152.550435 57.435191 
L 152.733488 57.118122 
L 152.913989 56.844626 
L 153.162534 56.27996 
L 153.577811 55.937089 
L 153.913978 55.729131 
L 153.980176 55.630341 
L 154.273947 55.34548 
L 154.497912 55.035513 
L 154.655547 54.881783 
L 154.84221 54.654788 
L 155.327201 54.076923 
L 155.386567 53.995443 
L 155.765944 53.494703 
L 155.880473 53.421511 
L 156.078492 53.244234 
L 156.162438 53.147884 
L 156.547145 52.50557 
L 156.788552 52.021651 
L 156.973248 51.759683 
L 157.129487 51.611039 
L 157.859144 51.059708 
L 158.029272 50.701157 
L 158.149437 50.646813 
L 158.315816 50.404705 
L 158.386471 50.31853 
L 159.11706 49.609064 
L 159.227579 49.492222 
L 160.424988 48.260133 
L 160.524924 48.183813 
L 160.702888 47.909614 
L 160.955701 47.704569 
L 161.051637 47.596416 
L 165.625489 42.619763 
L 165.772328 42.477466 
L 166.061099 42.258233 
L 166.16453 42.115459 
L 166.318142 41.972523 
L 166.694381 41.721507 
L 167.601266 40.613598 
L 167.761608 40.373766 
L 168.285815 39.876022 
L 168.481083 39.661456 
L 168.91516 39.166855 
L 169.090959 38.983996 
L 169.314975 38.787546 
L 169.46552 38.637111 
L 169.702807 38.408148 
L 169.916564 38.198291 
L 170.060308 38.060193 
L 171.015306 36.955146 
L 171.338756 36.672282 
L 171.535819 36.440083 
L 172.255217 35.738856 
L 172.478492 35.490619 
L 172.620019 35.400836 
L 172.744534 35.264481 
L 173.452813 34.588154 
L 173.814336 34.216962 
L 174.005439 34.045761 
L 174.413466 33.664723 
L 174.616106 33.468242 
L 174.789197 33.321777 
L 174.999103 33.108443 
L 175.294999 32.877839 
L 175.465578 32.630925 
L 175.695741 32.414452 
L 176.078462 32.022596 
L 176.262709 31.82146 
L 176.43855 31.619535 
L 176.577523 31.507705 
L 176.890483 31.198011 
L 177.074689 31.026693 
L 177.473095 30.582558 
L 177.659847 30.356337 
L 177.812568 30.248263 
L 177.93761 30.122937 
L 178.076852 29.961327 
L 178.355943 29.689001 
L 178.648787 29.300161 
L 178.82427 29.116443 
L 179.158823 28.76983 
L 179.355481 28.604444 
L 179.604013 28.294952 
L 179.829956 28.017055 
L 180.378136 27.373188 
L 180.459463 27.250435 
L 180.817165 26.863722 
L 180.957523 26.747962 
L 181.096375 26.635672 
L 181.237772 26.482051 
L 181.35377 26.371493 
L 181.621756 26.03871 
L 181.776841 25.904828 
L 181.94151 25.759065 
L 182.171574 25.512461 
L 182.423308 25.235991 
L 182.608947 25.041584 
L 182.71333 24.922091 
L 182.877196 24.757954 
L 183.056481 24.566691 
L 183.181556 24.463626 
L 183.349878 24.298559 
L 183.448475 24.178678 
L 184.262314 23.410448 
L 184.451755 23.172192 
L 184.66007 22.99217 
L 185.611219 21.961588 
L 186.259556 21.296046 
L 186.384336 21.156826 
L 187.471207 20.133267 
L 187.626642 19.950808 
L 187.702446 19.838229 
L 187.915244 19.624016 
L 188.232702 19.326867 
L 188.831771 18.67972 
L 188.95851 18.55026 
L 189.119032 18.397517 
L 190.308327 17.048892 
L 190.541446 16.79127 
L 190.793502 16.498792 
L 190.989779 16.288186 
L 196.167017 10.846132 
L 196.167017 10.846132 
" style="fill:none;stroke:#66a61e;stroke-linecap:square;"/>
   </g>
   <g id="line2d_55">
    <path clip-path="url(#p37906006bc)" d="M 47.170313 165.687187 
L 196.167017 10.845313 
" style="fill:none;stroke:#808080;stroke-dasharray:1,1.65;stroke-dashoffset:0;"/>
   </g>
   <g id="patch_3">
    <path d="M 47.170313 165.687187 
L 47.170313 10.845313 
" style="fill:none;stroke:#000000;stroke-linecap:square;stroke-linejoin:miter;stroke-width:0.8;"/>
   </g>
   <g id="patch_4">
    <path d="M 196.167017 165.687187 
L 196.167017 10.845313 
" style="fill:none;stroke:#000000;stroke-linecap:square;stroke-linejoin:miter;stroke-width:0.8;"/>
   </g>
   <g id="patch_5">
    <path d="M 47.170313 165.687187 
L 196.167017 165.687187 
" style="fill:none;stroke:#000000;stroke-linecap:square;stroke-linejoin:miter;stroke-width:0.8;"/>
   </g>
   <g id="patch_6">
    <path d="M 47.170313 10.845313 
L 196.167017 10.845313 
" style="fill:none;stroke:#000000;stroke-linecap:square;stroke-linejoin:miter;stroke-width:0.8;"/>
   </g>
   <g id="legend_1">
    <g id="line2d_56">
     <path d="M 56.170313 23.635938 
L 76.170313 23.635938 
" style="fill:none;stroke:#1b9e77;stroke-linecap:square;"/>
    </g>
    <g id="line2d_57"/>
    <g id="text_12">
     <!-- Gamma -->
     <defs>
      <path d="M 70.90625 38.5 
L 40.5 38.5 
L 40.5 30.296875 
L 62.703125 30.296875 
L 62.703125 28.296875 
C 62.703125 15.296875 53.09375 5.90625 39.796875 5.90625 
C 32.40625 5.90625 25.703125 8.59375 21.40625 13.296875 
C 16.59375 18.5 13.703125 27.203125 13.703125 36.203125 
C 13.703125 54.09375 23.90625 65.90625 39.296875 65.90625 
C 50.40625 65.90625 58.40625 60.203125 60.40625 50.796875 
L 69.90625 50.796875 
C 67.296875 65.59375 56.09375 74.09375 39.40625 74.09375 
C 30.5 74.09375 23.296875 71.796875 17.59375 67.09375 
C 9.09375 60.09375 4.40625 48.796875 4.40625 35.703125 
C 4.40625 13.296875 18.09375 -2.296875 37.796875 -2.296875 
C 47.703125 -2.296875 55.5 1.40625 62.703125 9.296875 
L 65 -0.40625 
L 70.90625 -0.40625 
z
" id="NimbusSans-Regular-71"/>
     </defs>
     <g transform="translate(84.170313 27.135938)scale(0.1 -0.1)">
      <use xlink:href="#NimbusSans-Regular-71"/>
      <use x="77.799988" xlink:href="#NimbusSans-Regular-97"/>
      <use x="133.399979" xlink:href="#NimbusSans-Regular-109"/>
      <use x="216.699966" xlink:href="#NimbusSans-Regular-109"/>
      <use x="299.999954" xlink:href="#NimbusSans-Regular-97"/>
     </g>
    </g>
    <g id="line2d_58">
     <path d="M 56.170313 38.10625 
L 76.170313 38.10625 
" style="fill:none;stroke:#d95f02;stroke-linecap:square;"/>
    </g>
    <g id="line2d_59"/>
    <g id="text_13">
     <!-- ZIG -->
     <defs>
      <path d="M 58.09375 72.90625 
L 5.59375 72.90625 
L 5.59375 64.703125 
L 46.59375 64.703125 
L 2.796875 8.203125 
L 2.796875 0 
L 58.296875 0 
L 58.296875 8.203125 
L 14.5 8.203125 
L 58.09375 64.5 
z
" id="NimbusSans-Regular-90"/>
      <path d="M 19.40625 72.90625 
L 10 72.90625 
L 10 0 
L 19.40625 0 
z
" id="NimbusSans-Regular-73"/>
     </defs>
     <g transform="translate(84.170313 41.60625)scale(0.1 -0.1)">
      <use xlink:href="#NimbusSans-Regular-90"/>
      <use x="61.099991" xlink:href="#NimbusSans-Regular-73"/>
      <use x="88.899979" xlink:href="#NimbusSans-Regular-71"/>
     </g>
    </g>
    <g id="line2d_60">
     <path d="M 56.170313 52.576563 
L 76.170313 52.576563 
" style="fill:none;stroke:#7570b3;stroke-linecap:square;"/>
    </g>
    <g id="line2d_61"/>
    <g id="text_14">
     <!-- Unimodal -->
     <defs>
      <path d="M 55.203125 72.90625 
L 55.203125 21.703125 
C 55.203125 11.90625 48.09375 5.90625 36.40625 5.90625 
C 31 5.90625 26.59375 7.203125 23.09375 9.703125 
C 19.5 12.5 17.796875 16.203125 17.796875 21.703125 
L 17.796875 72.90625 
L 8.5 72.90625 
L 8.5 21.703125 
C 8.5 6.90625 19.09375 -2.296875 36.40625 -2.296875 
C 53.5 -2.296875 64.5 7.09375 64.5 21.703125 
L 64.5 72.90625 
z
" id="NimbusSans-Regular-85"/>
     </defs>
     <g transform="translate(84.170313 56.076563)scale(0.1 -0.1)">
      <use xlink:href="#NimbusSans-Regular-85"/>
      <use x="72.199982" xlink:href="#NimbusSans-Regular-110"/>
      <use x="127.799973" xlink:href="#NimbusSans-Regular-105"/>
      <use x="149.999969" xlink:href="#NimbusSans-Regular-109"/>
      <use x="233.299957" xlink:href="#NimbusSans-Regular-111"/>
      <use x="288.899948" xlink:href="#NimbusSans-Regular-100"/>
      <use x="344.499939" xlink:href="#NimbusSans-Regular-97"/>
      <use x="400.09993" xlink:href="#NimbusSans-Regular-108"/>
     </g>
    </g>
    <g id="line2d_62">
     <path d="M 56.170313 67.046875 
L 76.170313 67.046875 
" style="fill:none;stroke:#e7298a;stroke-linecap:square;"/>
    </g>
    <g id="line2d_63"/>
    <g id="text_15">
     <!-- ZIEF -->
     <defs>
      <path d="M 18.296875 33.203125 
L 58 33.203125 
L 58 41.40625 
L 18.296875 41.40625 
L 18.296875 64.703125 
L 59.5 64.703125 
L 59.5 72.90625 
L 9 72.90625 
L 9 0 
L 61.296875 0 
L 61.296875 8.203125 
L 18.296875 8.203125 
z
" id="NimbusSans-Regular-69"/>
      <path d="M 18.296875 33.203125 
L 53.09375 33.203125 
L 53.09375 41.40625 
L 18.296875 41.40625 
L 18.296875 64.703125 
L 57.90625 64.703125 
L 57.90625 72.90625 
L 9 72.90625 
L 9 0 
L 18.296875 0 
z
" id="NimbusSans-Regular-70"/>
     </defs>
     <g transform="translate(84.170313 70.546875)scale(0.1 -0.1)">
      <use xlink:href="#NimbusSans-Regular-90"/>
      <use x="61.099991" xlink:href="#NimbusSans-Regular-73"/>
      <use x="88.899979" xlink:href="#NimbusSans-Regular-69"/>
      <use x="155.599976" xlink:href="#NimbusSans-Regular-70"/>
     </g>
    </g>
    <g id="line2d_64">
     <path d="M 56.170313 81.517188 
L 76.170313 81.517188 
" style="fill:none;stroke:#66a61e;stroke-linecap:square;"/>
    </g>
    <g id="line2d_65"/>
    <g id="text_16">
     <!-- NPMLE -->
     <defs>
      <path d="M 64.59375 72.90625 
L 55.796875 72.90625 
L 55.796875 13.296875 
L 17.703125 72.90625 
L 7.59375 72.90625 
L 7.59375 0 
L 16.40625 0 
L 16.40625 59.09375 
L 54.09375 0 
L 64.59375 0 
z
" id="NimbusSans-Regular-78"/>
      <path d="M 18.40625 30.90625 
L 41.296875 30.90625 
C 47 30.90625 51.5 32.59375 55.40625 36.09375 
C 59.796875 40.09375 61.703125 44.796875 61.703125 51.5 
C 61.703125 65.203125 53.59375 72.90625 39.203125 72.90625 
L 9.09375 72.90625 
L 9.09375 0 
L 18.40625 0 
z
M 18.40625 39.09375 
L 18.40625 64.703125 
L 37.796875 64.703125 
C 46.703125 64.703125 52 59.90625 52 51.90625 
C 52 43.90625 46.703125 39.09375 37.796875 39.09375 
z
" id="NimbusSans-Regular-80"/>
      <path d="M 46.796875 0 
L 67.296875 61.09375 
L 67.296875 0 
L 76.09375 0 
L 76.09375 72.90625 
L 63.203125 72.90625 
L 42 9.40625 
L 20.40625 72.90625 
L 7.5 72.90625 
L 7.5 0 
L 16.296875 0 
L 16.296875 61.09375 
L 37 0 
z
" id="NimbusSans-Regular-77"/>
      <path d="M 17.296875 72.90625 
L 8 72.90625 
L 8 0 
L 53.296875 0 
L 53.296875 8.203125 
L 17.296875 8.203125 
z
" id="NimbusSans-Regular-76"/>
     </defs>
     <g transform="translate(84.170313 85.017188)scale(0.1 -0.1)">
      <use xlink:href="#NimbusSans-Regular-78"/>
      <use x="72.199982" xlink:href="#NimbusSans-Regular-80"/>
      <use x="138.899979" xlink:href="#NimbusSans-Regular-77"/>
      <use x="222.199966" xlink:href="#NimbusSans-Regular-76"/>
      <use x="277.799957" xlink:href="#NimbusSans-Regular-69"/>
     </g>
    </g>
   </g>
  </g>
 </g>
 <defs>
  <clipPath id="p37906006bc">
   <rect height="154.841875" width="148.996705" x="47.170313" y="10.845313"/>
  </clipPath>
 </defs>
</svg>
