<?xml version="1.0" encoding="utf-8" standalone="no"?>
<!DOCTYPE svg PUBLIC "-//W3C//DTD SVG 1.1//EN"
  "http://www.w3.org/Graphics/SVG/1.1/DTD/svg11.dtd">
<!-- Created with matplotlib (https://matplotlib.org/) -->
<svg height="135.489375pt" version="1.1" viewBox="0 0 531.583392 135.489375" width="531.583392pt" xmlns="http://www.w3.org/2000/svg" xmlns:xlink="http://www.w3.org/1999/xlink">
 <metadata>
  <rdf:RDF xmlns:cc="http://creativecommons.org/ns#" xmlns:dc="http://purl.org/dc/elements/1.1/" xmlns:rdf="http://www.w3.org/1999/02/22-rdf-syntax-ns#">
   <cc:Work>
    <dc:type rdf:resource="http://purl.org/dc/dcmitype/StillImage"/>
    <dc:date>2020-09-20T20:58:53.452152</dc:date>
    <dc:format>image/svg+xml</dc:format>
    <dc:creator>
     <cc:Agent>
      <dc:title>Matplotlib v3.3.1, https://matplotlib.org/</dc:title>
     </cc:Agent>
    </dc:creator>
   </cc:Work>
  </rdf:RDF>
 </metadata>
 <defs>
  <style type="text/css">*{stroke-linecap:butt;stroke-linejoin:round;}</style>
 </defs>
 <g id="figure_1">
  <g id="patch_1">
   <path d="M 0 135.489375 
L 531.583392 135.489375 
L 531.583392 0 
L 0 0 
z
" style="fill:#ffffff;"/>
  </g>
  <g id="axes_1">
   <g id="patch_2">
    <path d="M 44.348438 98.34875 
L 258.778415 98.34875 
L 258.778415 21.94875 
L 44.348438 21.94875 
z
" style="fill:#ffffff;"/>
   </g>
   <g id="patch_3">
    <path clip-path="url(#p3b8e553c8a)" d="M 54.095255 98.34875 
L 57.026628 98.34875 
L 57.026628 26.164242 
L 54.095255 26.164242 
z
"/>
   </g>
   <g id="patch_4">
    <path clip-path="url(#p3b8e553c8a)" d="M 57.026628 98.34875 
L 59.958002 98.34875 
L 59.958002 70.571648 
L 57.026628 70.571648 
z
"/>
   </g>
   <g id="patch_5">
    <path clip-path="url(#p3b8e553c8a)" d="M 59.958002 98.34875 
L 62.889375 98.34875 
L 62.889375 59.245063 
L 59.958002 59.245063 
z
"/>
   </g>
   <g id="patch_6">
    <path clip-path="url(#p3b8e553c8a)" d="M 62.889375 98.34875 
L 65.820749 98.34875 
L 65.820749 61.762082 
L 62.889375 61.762082 
z
"/>
   </g>
   <g id="patch_7">
    <path clip-path="url(#p3b8e553c8a)" d="M 65.820749 98.34875 
L 68.752123 98.34875 
L 68.752123 63.919526 
L 65.820749 63.919526 
z
"/>
   </g>
   <g id="patch_8">
    <path clip-path="url(#p3b8e553c8a)" d="M 68.752123 98.34875 
L 71.683496 98.34875 
L 71.683496 69.313138 
L 68.752123 69.313138 
z
"/>
   </g>
   <g id="patch_9">
    <path clip-path="url(#p3b8e553c8a)" d="M 71.683496 98.34875 
L 74.61487 98.34875 
L 74.61487 69.313138 
L 71.683496 69.313138 
z
"/>
   </g>
   <g id="patch_10">
    <path clip-path="url(#p3b8e553c8a)" d="M 74.61487 98.34875 
L 77.546243 98.34875 
L 77.546243 76.864195 
L 74.61487 76.864195 
z
"/>
   </g>
   <g id="patch_11">
    <path clip-path="url(#p3b8e553c8a)" d="M 77.546243 98.34875 
L 80.477617 98.34875 
L 80.477617 83.696104 
L 77.546243 83.696104 
z
"/>
   </g>
   <g id="patch_12">
    <path clip-path="url(#p3b8e553c8a)" d="M 80.477617 98.34875 
L 83.40899 98.34875 
L 83.40899 83.426423 
L 80.477617 83.426423 
z
"/>
   </g>
   <g id="patch_13">
    <path clip-path="url(#p3b8e553c8a)" d="M 83.40899 98.34875 
L 86.340364 98.34875 
L 86.340364 86.482803 
L 83.40899 86.482803 
z
"/>
   </g>
   <g id="patch_14">
    <path clip-path="url(#p3b8e553c8a)" d="M 86.340364 98.34875 
L 89.271738 98.34875 
L 89.271738 89.539184 
L 86.340364 89.539184 
z
"/>
   </g>
   <g id="patch_15">
    <path clip-path="url(#p3b8e553c8a)" d="M 89.271738 98.34875 
L 92.203111 98.34875 
L 92.203111 89.629077 
L 89.271738 89.629077 
z
"/>
   </g>
   <g id="patch_16">
    <path clip-path="url(#p3b8e553c8a)" d="M 92.203111 98.34875 
L 95.134485 98.34875 
L 95.134485 88.820035 
L 92.203111 88.820035 
z
"/>
   </g>
   <g id="patch_17">
    <path clip-path="url(#p3b8e553c8a)" d="M 95.134485 98.34875 
L 98.065858 98.34875 
L 98.065858 89.808864 
L 95.134485 89.808864 
z
"/>
   </g>
   <g id="patch_18">
    <path clip-path="url(#p3b8e553c8a)" d="M 98.065858 98.34875 
L 100.997232 98.34875 
L 100.997232 89.808864 
L 98.065858 89.808864 
z
"/>
   </g>
   <g id="patch_19">
    <path clip-path="url(#p3b8e553c8a)" d="M 100.997232 98.34875 
L 103.928606 98.34875 
L 103.928606 89.898758 
L 100.997232 89.898758 
z
"/>
   </g>
   <g id="patch_20">
    <path clip-path="url(#p3b8e553c8a)" d="M 103.928606 98.34875 
L 106.859979 98.34875 
L 106.859979 88.550355 
L 103.928606 88.550355 
z
"/>
   </g>
   <g id="patch_21">
    <path clip-path="url(#p3b8e553c8a)" d="M 106.859979 98.34875 
L 109.791353 98.34875 
L 109.791353 90.078545 
L 106.859979 90.078545 
z
"/>
   </g>
   <g id="patch_22">
    <path clip-path="url(#p3b8e553c8a)" d="M 109.791353 98.34875 
L 112.722726 98.34875 
L 112.722726 90.348225 
L 109.791353 90.348225 
z
"/>
   </g>
   <g id="patch_23">
    <path clip-path="url(#p3b8e553c8a)" d="M 112.722726 98.34875 
L 115.6541 98.34875 
L 115.6541 90.528013 
L 112.722726 90.528013 
z
"/>
   </g>
   <g id="patch_24">
    <path clip-path="url(#p3b8e553c8a)" d="M 115.6541 98.34875 
L 118.585473 98.34875 
L 118.585473 90.887587 
L 115.6541 90.887587 
z
"/>
   </g>
   <g id="patch_25">
    <path clip-path="url(#p3b8e553c8a)" d="M 118.585473 98.34875 
L 121.516847 98.34875 
L 121.516847 89.359397 
L 118.585473 89.359397 
z
"/>
   </g>
   <g id="patch_26">
    <path clip-path="url(#p3b8e553c8a)" d="M 121.516847 98.34875 
L 124.448221 98.34875 
L 124.448221 91.606735 
L 121.516847 91.606735 
z
"/>
   </g>
   <g id="patch_27">
    <path clip-path="url(#p3b8e553c8a)" d="M 124.448221 98.34875 
L 127.379594 98.34875 
L 127.379594 91.966309 
L 124.448221 91.966309 
z
"/>
   </g>
   <g id="patch_28">
    <path clip-path="url(#p3b8e553c8a)" d="M 127.379594 98.34875 
L 130.310968 98.34875 
L 130.310968 92.955138 
L 127.379594 92.955138 
z
"/>
   </g>
   <g id="patch_29">
    <path clip-path="url(#p3b8e553c8a)" d="M 130.310968 98.34875 
L 133.242341 98.34875 
L 133.242341 92.865244 
L 130.310968 92.865244 
z
"/>
   </g>
   <g id="patch_30">
    <path clip-path="url(#p3b8e553c8a)" d="M 133.242341 98.34875 
L 136.173715 98.34875 
L 136.173715 92.955138 
L 133.242341 92.955138 
z
"/>
   </g>
   <g id="patch_31">
    <path clip-path="url(#p3b8e553c8a)" d="M 136.173715 98.34875 
L 139.105089 98.34875 
L 139.105089 92.955138 
L 136.173715 92.955138 
z
"/>
   </g>
   <g id="patch_32">
    <path clip-path="url(#p3b8e553c8a)" d="M 139.105089 98.34875 
L 142.036462 98.34875 
L 142.036462 95.29237 
L 139.105089 95.29237 
z
"/>
   </g>
   <g id="patch_33">
    <path clip-path="url(#p3b8e553c8a)" d="M 142.036462 98.34875 
L 144.967836 98.34875 
L 144.967836 93.854073 
L 142.036462 93.854073 
z
"/>
   </g>
   <g id="patch_34">
    <path clip-path="url(#p3b8e553c8a)" d="M 144.967836 98.34875 
L 147.899209 98.34875 
L 147.899209 94.663115 
L 144.967836 94.663115 
z
"/>
   </g>
   <g id="patch_35">
    <path clip-path="url(#p3b8e553c8a)" d="M 147.899209 98.34875 
L 150.830583 98.34875 
L 150.830583 95.29237 
L 147.899209 95.29237 
z
"/>
   </g>
   <g id="patch_36">
    <path clip-path="url(#p3b8e553c8a)" d="M 150.830583 98.34875 
L 153.761956 98.34875 
L 153.761956 94.932796 
L 150.830583 94.932796 
z
"/>
   </g>
   <g id="patch_37">
    <path clip-path="url(#p3b8e553c8a)" d="M 153.761956 98.34875 
L 156.69333 98.34875 
L 156.69333 95.831731 
L 153.761956 95.831731 
z
"/>
   </g>
   <g id="patch_38">
    <path clip-path="url(#p3b8e553c8a)" d="M 156.69333 98.34875 
L 159.624704 98.34875 
L 159.624704 96.281199 
L 156.69333 96.281199 
z
"/>
   </g>
   <g id="patch_39">
    <path clip-path="url(#p3b8e553c8a)" d="M 159.624704 98.34875 
L 162.556077 98.34875 
L 162.556077 96.640773 
L 159.624704 96.640773 
z
"/>
   </g>
   <g id="patch_40">
    <path clip-path="url(#p3b8e553c8a)" d="M 162.556077 98.34875 
L 165.487451 98.34875 
L 165.487451 96.730666 
L 162.556077 96.730666 
z
"/>
   </g>
   <g id="patch_41">
    <path clip-path="url(#p3b8e553c8a)" d="M 165.487451 98.34875 
L 168.418824 98.34875 
L 168.418824 97.359921 
L 165.487451 97.359921 
z
"/>
   </g>
   <g id="patch_42">
    <path clip-path="url(#p3b8e553c8a)" d="M 168.418824 98.34875 
L 171.350198 98.34875 
L 171.350198 97.719495 
L 168.418824 97.719495 
z
"/>
   </g>
   <g id="patch_43">
    <path clip-path="url(#p3b8e553c8a)" d="M 171.350198 98.34875 
L 174.281571 98.34875 
L 174.281571 96.82056 
L 171.350198 96.82056 
z
"/>
   </g>
   <g id="patch_44">
    <path clip-path="url(#p3b8e553c8a)" d="M 174.281571 98.34875 
L 177.212945 98.34875 
L 177.212945 97.629602 
L 174.281571 97.629602 
z
"/>
   </g>
   <g id="patch_45">
    <path clip-path="url(#p3b8e553c8a)" d="M 177.212945 98.34875 
L 180.144319 98.34875 
L 180.144319 97.270028 
L 177.212945 97.270028 
z
"/>
   </g>
   <g id="patch_46">
    <path clip-path="url(#p3b8e553c8a)" d="M 180.144319 98.34875 
L 183.075692 98.34875 
L 183.075692 97.719495 
L 180.144319 97.719495 
z
"/>
   </g>
   <g id="patch_47">
    <path clip-path="url(#p3b8e553c8a)" d="M 183.075692 98.34875 
L 186.007066 98.34875 
L 186.007066 97.989176 
L 183.075692 97.989176 
z
"/>
   </g>
   <g id="patch_48">
    <path clip-path="url(#p3b8e553c8a)" d="M 186.007066 98.34875 
L 188.938439 98.34875 
L 188.938439 97.359921 
L 186.007066 97.359921 
z
"/>
   </g>
   <g id="patch_49">
    <path clip-path="url(#p3b8e553c8a)" d="M 188.938439 98.34875 
L 191.869813 98.34875 
L 191.869813 97.989176 
L 188.938439 97.989176 
z
"/>
   </g>
   <g id="patch_50">
    <path clip-path="url(#p3b8e553c8a)" d="M 191.869813 98.34875 
L 194.801187 98.34875 
L 194.801187 98.168963 
L 191.869813 98.168963 
z
"/>
   </g>
   <g id="patch_51">
    <path clip-path="url(#p3b8e553c8a)" d="M 194.801187 98.34875 
L 197.73256 98.34875 
L 197.73256 98.258856 
L 194.801187 98.258856 
z
"/>
   </g>
   <g id="patch_52">
    <path clip-path="url(#p3b8e553c8a)" d="M 197.73256 98.34875 
L 200.663934 98.34875 
L 200.663934 98.079069 
L 197.73256 98.079069 
z
"/>
   </g>
   <g id="patch_53">
    <path clip-path="url(#p3b8e553c8a)" d="M 200.663934 98.34875 
L 203.595307 98.34875 
L 203.595307 98.258856 
L 200.663934 98.258856 
z
"/>
   </g>
   <g id="patch_54">
    <path clip-path="url(#p3b8e553c8a)" d="M 203.595307 98.34875 
L 206.526681 98.34875 
L 206.526681 98.258856 
L 203.595307 98.258856 
z
"/>
   </g>
   <g id="patch_55">
    <path clip-path="url(#p3b8e553c8a)" d="M 206.526681 98.34875 
L 209.458054 98.34875 
L 209.458054 98.168963 
L 206.526681 98.168963 
z
"/>
   </g>
   <g id="patch_56">
    <path clip-path="url(#p3b8e553c8a)" d="M 209.458054 98.34875 
L 212.389428 98.34875 
L 212.389428 98.258856 
L 209.458054 98.258856 
z
"/>
   </g>
   <g id="patch_57">
    <path clip-path="url(#p3b8e553c8a)" d="M 212.389428 98.34875 
L 215.320802 98.34875 
L 215.320802 98.258856 
L 212.389428 98.258856 
z
"/>
   </g>
   <g id="patch_58">
    <path clip-path="url(#p3b8e553c8a)" d="M 215.320802 98.34875 
L 218.252175 98.34875 
L 218.252175 98.258856 
L 215.320802 98.258856 
z
"/>
   </g>
   <g id="patch_59">
    <path clip-path="url(#p3b8e553c8a)" d="M 218.252175 98.34875 
L 221.183549 98.34875 
L 221.183549 98.168963 
L 218.252175 98.168963 
z
"/>
   </g>
   <g id="patch_60">
    <path clip-path="url(#p3b8e553c8a)" d="M 221.183549 98.34875 
L 224.114922 98.34875 
L 224.114922 98.34875 
L 221.183549 98.34875 
z
"/>
   </g>
   <g id="patch_61">
    <path clip-path="url(#p3b8e553c8a)" d="M 224.114922 98.34875 
L 227.046296 98.34875 
L 227.046296 98.34875 
L 224.114922 98.34875 
z
"/>
   </g>
   <g id="patch_62">
    <path clip-path="url(#p3b8e553c8a)" d="M 227.046296 98.34875 
L 229.97767 98.34875 
L 229.97767 98.34875 
L 227.046296 98.34875 
z
"/>
   </g>
   <g id="patch_63">
    <path clip-path="url(#p3b8e553c8a)" d="M 229.97767 98.34875 
L 232.909043 98.34875 
L 232.909043 98.34875 
L 229.97767 98.34875 
z
"/>
   </g>
   <g id="patch_64">
    <path clip-path="url(#p3b8e553c8a)" d="M 232.909043 98.34875 
L 235.840417 98.34875 
L 235.840417 98.34875 
L 232.909043 98.34875 
z
"/>
   </g>
   <g id="patch_65">
    <path clip-path="url(#p3b8e553c8a)" d="M 235.840417 98.34875 
L 238.77179 98.34875 
L 238.77179 98.34875 
L 235.840417 98.34875 
z
"/>
   </g>
   <g id="patch_66">
    <path clip-path="url(#p3b8e553c8a)" d="M 238.77179 98.34875 
L 241.703164 98.34875 
L 241.703164 98.34875 
L 238.77179 98.34875 
z
"/>
   </g>
   <g id="patch_67">
    <path clip-path="url(#p3b8e553c8a)" d="M 241.703164 98.34875 
L 244.634537 98.34875 
L 244.634537 98.34875 
L 241.703164 98.34875 
z
"/>
   </g>
   <g id="patch_68">
    <path clip-path="url(#p3b8e553c8a)" d="M 244.634537 98.34875 
L 247.565911 98.34875 
L 247.565911 98.258856 
L 244.634537 98.258856 
z
"/>
   </g>
   <g id="matplotlib.axis_1">
    <g id="xtick_1">
     <g id="line2d_1">
      <defs>
       <path d="M 0 0 
L 0 3.5 
" id="m5b4933e177" style="stroke:#000000;stroke-width:0.8;"/>
      </defs>
      <g>
       <use style="stroke:#000000;stroke-width:0.8;" x="54.095255" xlink:href="#m5b4933e177" y="98.34875"/>
      </g>
     </g>
     <g id="text_1">
      <!-- 0 -->
      <g transform="translate(51.315567 112.639375)scale(0.1 -0.1)">
       <defs>
        <path d="M 27.5 72.296875 
C 20.90625 72.296875 14.90625 69.296875 11.203125 64.40625 
C 6.59375 58 4.296875 48.40625 4.296875 35 
C 4.296875 10.59375 12.296875 -2.296875 27.5 -2.296875 
C 42.5 -2.296875 50.703125 10.59375 50.703125 34.40625 
C 50.703125 48.40625 48.5 57.796875 43.796875 64.40625 
C 40.09375 69.40625 34.203125 72.296875 27.5 72.296875 
z
M 27.5 64.5 
C 37 64.5 41.703125 54.796875 41.703125 35.203125 
C 41.703125 14.59375 37.09375 5 27.296875 5 
C 18 5 13.296875 15 13.296875 34.90625 
C 13.296875 54.796875 18 64.5 27.5 64.5 
z
" id="NimbusSans-Regular-48"/>
       </defs>
       <use xlink:href="#NimbusSans-Regular-48"/>
      </g>
     </g>
    </g>
    <g id="xtick_2">
     <g id="line2d_2">
      <g>
       <use style="stroke:#000000;stroke-width:0.8;" x="112.722726" xlink:href="#m5b4933e177" y="98.34875"/>
      </g>
     </g>
     <g id="text_2">
      <!-- 20 -->
      <g transform="translate(107.163351 112.639375)scale(0.1 -0.1)">
       <defs>
        <path d="M 50.59375 8.703125 
L 13.296875 8.703125 
C 14.203125 14.703125 17.40625 18.5 26.09375 23.796875 
L 36.09375 29.40625 
C 46 34.90625 51.09375 42.296875 51.09375 51.203125 
C 51.09375 57.203125 48.703125 62.796875 44.5 66.703125 
C 40.296875 70.5 35.09375 72.296875 28.40625 72.296875 
C 19.40625 72.296875 12.703125 69.09375 8.796875 62.90625 
C 6.296875 59.09375 5.203125 54.59375 5 47.296875 
L 13.796875 47.296875 
C 14.09375 52.203125 14.703125 55.09375 15.90625 57.5 
C 18.203125 61.90625 22.796875 64.59375 28.09375 64.59375 
C 36.09375 64.59375 42.09375 58.796875 42.09375 51 
C 42.09375 45.203125 38.796875 40.203125 32.5 36.59375 
L 23.296875 31.203125 
C 8.5 22.703125 4.203125 15.90625 3.40625 0.09375 
L 50.59375 0.09375 
z
" id="NimbusSans-Regular-50"/>
       </defs>
       <use xlink:href="#NimbusSans-Regular-50"/>
       <use x="55.599991" xlink:href="#NimbusSans-Regular-48"/>
      </g>
     </g>
    </g>
    <g id="xtick_3">
     <g id="line2d_3">
      <g>
       <use style="stroke:#000000;stroke-width:0.8;" x="171.350198" xlink:href="#m5b4933e177" y="98.34875"/>
      </g>
     </g>
     <g id="text_3">
      <!-- 40 -->
      <g transform="translate(165.790823 112.639375)scale(0.1 -0.1)">
       <defs>
        <path d="M 32.703125 17.5 
L 32.703125 0 
L 41.5 0 
L 41.5 17.5 
L 52 17.5 
L 52 25.40625 
L 41.5 25.40625 
L 41.5 72.296875 
L 35 72.296875 
L 2.796875 26.796875 
L 2.796875 17.5 
z
M 32.703125 25.40625 
L 10.5 25.40625 
L 32.703125 57.296875 
z
" id="NimbusSans-Regular-52"/>
       </defs>
       <use xlink:href="#NimbusSans-Regular-52"/>
       <use x="55.599991" xlink:href="#NimbusSans-Regular-48"/>
      </g>
     </g>
    </g>
    <g id="xtick_4">
     <g id="line2d_4">
      <g>
       <use style="stroke:#000000;stroke-width:0.8;" x="229.97767" xlink:href="#m5b4933e177" y="98.34875"/>
      </g>
     </g>
     <g id="text_4">
      <!-- 60 -->
      <g transform="translate(224.418295 112.639375)scale(0.1 -0.1)">
       <defs>
        <path d="M 49.796875 53.5 
C 48.09375 65.296875 40.5 72.296875 29.703125 72.296875 
C 21.90625 72.296875 14.90625 68.5 10.703125 62 
C 6.203125 54.90625 4.296875 46.09375 4.296875 33 
C 4.296875 20.796875 6 13.09375 10.296875 6.703125 
C 14.09375 0.796875 20.296875 -2.296875 28.09375 -2.296875 
C 41.59375 -2.296875 51.296875 7.796875 51.296875 21.90625 
C 51.296875 35.203125 42.296875 44.59375 29.59375 44.59375 
C 22.59375 44.59375 17.09375 42 13.296875 36.703125 
C 13.40625 54.59375 19 64.5 29.09375 64.5 
C 35.296875 64.5 39.59375 60.5 41 53.5 
z
M 28.5 36.796875 
C 37 36.796875 42.296875 30.796875 42.296875 21.203125 
C 42.296875 12.09375 36.296875 5.5 28.203125 5.5 
C 20 5.5 13.796875 12.40625 13.796875 21.59375 
C 13.796875 30.59375 19.796875 36.796875 28.5 36.796875 
z
" id="NimbusSans-Regular-54"/>
       </defs>
       <use xlink:href="#NimbusSans-Regular-54"/>
       <use x="55.599991" xlink:href="#NimbusSans-Regular-48"/>
      </g>
     </g>
    </g>
    <g id="text_5">
     <!-- Number of molecules -->
     <g transform="translate(104.331395 126.109687)scale(0.1 -0.1)">
      <defs>
       <path d="M 64.59375 72.90625 
L 55.796875 72.90625 
L 55.796875 13.296875 
L 17.703125 72.90625 
L 7.59375 72.90625 
L 7.59375 0 
L 16.40625 0 
L 16.40625 59.09375 
L 54.09375 0 
L 64.59375 0 
z
" id="NimbusSans-Regular-78"/>
       <path d="M 48.203125 0 
L 48.203125 52.40625 
L 39.90625 52.40625 
L 39.90625 22.703125 
C 39.90625 12 34.296875 5 25.59375 5 
C 19 5 14.796875 9 14.796875 15.296875 
L 14.796875 52.40625 
L 6.5 52.40625 
L 6.5 12 
C 6.5 3.296875 13 -2.296875 23.203125 -2.296875 
C 30.90625 -2.296875 35.796875 0.40625 40.703125 7.296875 
L 40.703125 0 
z
" id="NimbusSans-Regular-117"/>
       <path d="M 7 52.40625 
L 7 0 
L 15.40625 0 
L 15.40625 32.90625 
C 15.40625 40.5 20.90625 46.59375 27.703125 46.59375 
C 33.90625 46.59375 37.40625 42.796875 37.40625 36.09375 
L 37.40625 0 
L 45.796875 0 
L 45.796875 32.90625 
C 45.796875 40.5 51.296875 46.59375 58.09375 46.59375 
C 64.203125 46.59375 67.796875 42.703125 67.796875 36.09375 
L 67.796875 0 
L 76.203125 0 
L 76.203125 39.296875 
C 76.203125 48.703125 70.796875 53.90625 61 53.90625 
C 54 53.90625 49.796875 51.796875 44.90625 45.90625 
C 41.796875 51.5 37.59375 53.90625 30.796875 53.90625 
C 23.796875 53.90625 19.09375 51.296875 14.703125 45 
L 14.703125 52.40625 
z
" id="NimbusSans-Regular-109"/>
       <path d="M 5.40625 72.90625 
L 5.40625 0 
L 12.90625 0 
L 12.90625 6.703125 
C 16.90625 0.59375 22.203125 -2.296875 29.5 -2.296875 
C 43.296875 -2.296875 52.296875 9 52.296875 26.40625 
C 52.296875 43.40625 43.796875 53.90625 29.90625 53.90625 
C 22.703125 53.90625 17.59375 51.203125 13.703125 45.296875 
L 13.703125 72.90625 
z
M 28.296875 46.09375 
C 37.59375 46.09375 43.59375 38 43.59375 25.5 
C 43.59375 13.59375 37.40625 5.5 28.296875 5.5 
C 19.40625 5.5 13.703125 13.5 13.703125 25.796875 
C 13.703125 38.09375 19.40625 46.09375 28.296875 46.09375 
z
" id="NimbusSans-Regular-98"/>
       <path d="M 51.296875 23.40625 
C 51.296875 31.40625 50.703125 36.203125 49.203125 40.09375 
C 45.796875 48.703125 37.796875 53.90625 28 53.90625 
C 13.40625 53.90625 4 42.796875 4 25.5 
C 4 8.203125 13 -2.296875 27.796875 -2.296875 
C 39.796875 -2.296875 48.09375 4.5 50.203125 15.90625 
L 41.796875 15.90625 
C 39.5 9 34.796875 5.40625 28.09375 5.40625 
C 22.796875 5.40625 18.296875 7.796875 15.5 12.203125 
C 13.5 15.203125 12.796875 18.203125 12.703125 23.40625 
z
M 12.90625 30.203125 
C 13.59375 39.90625 19.5 46.203125 27.90625 46.203125 
C 36.40625 46.203125 42.296875 39.59375 42.296875 30.203125 
z
" id="NimbusSans-Regular-101"/>
       <path d="M 6.90625 52.40625 
L 6.90625 0 
L 15.296875 0 
L 15.296875 27.203125 
C 15.40625 39.796875 20.59375 45.40625 32.09375 45.09375 
L 32.09375 53.59375 
C 30.703125 53.796875 29.90625 53.90625 28.90625 53.90625 
C 23.5 53.90625 19.40625 50.703125 14.59375 42.90625 
L 14.59375 52.40625 
z
" id="NimbusSans-Regular-114"/>
       <path id="NimbusSans-Regular-32"/>
       <path d="M 27.203125 53.90625 
C 12.40625 53.90625 3.59375 43.40625 3.59375 25.796875 
C 3.59375 8.09375 12.40625 -2.296875 27.296875 -2.296875 
C 42.09375 -2.296875 51 8.203125 51 25.40625 
C 51 43.59375 42.40625 53.90625 27.203125 53.90625 
z
M 27.296875 46.203125 
C 36.703125 46.203125 42.296875 38.5 42.296875 25.5 
C 42.296875 13.09375 36.5 5.40625 27.296875 5.40625 
C 18 5.40625 12.296875 13.09375 12.296875 25.796875 
C 12.296875 38.5 18 46.203125 27.296875 46.203125 
z
" id="NimbusSans-Regular-111"/>
       <path d="M 25.796875 52.40625 
L 17.09375 52.40625 
L 17.09375 60.59375 
C 17.09375 64.09375 19 65.90625 22.90625 65.90625 
C 23.59375 65.90625 23.90625 65.90625 25.796875 65.796875 
L 25.796875 72.703125 
C 23.90625 73.09375 22.796875 73.203125 21.09375 73.203125 
C 13.40625 73.203125 8.796875 68.796875 8.796875 61.296875 
L 8.796875 52.40625 
L 1.796875 52.40625 
L 1.796875 45.59375 
L 8.796875 45.59375 
L 8.796875 0 
L 17.09375 0 
L 17.09375 45.59375 
L 25.796875 45.59375 
z
" id="NimbusSans-Regular-102"/>
       <path d="M 15.203125 72.90625 
L 6.796875 72.90625 
L 6.796875 0 
L 15.203125 0 
z
" id="NimbusSans-Regular-108"/>
       <path d="M 47.09375 34.796875 
C 46.703125 39.90625 45.59375 43.203125 43.59375 46.09375 
C 40 51 33.703125 53.90625 26.40625 53.90625 
C 12.203125 53.90625 3.09375 42.703125 3.09375 25.296875 
C 3.09375 8.40625 12.09375 -2.296875 26.296875 -2.296875 
C 38.796875 -2.296875 46.703125 5.203125 47.703125 18 
L 39.296875 18 
C 37.90625 9.59375 33.59375 5.40625 26.5 5.40625 
C 17.296875 5.40625 11.796875 12.90625 11.796875 25.296875 
C 11.796875 38.40625 17.203125 46.203125 26.296875 46.203125 
C 33.296875 46.203125 37.703125 42.09375 38.703125 34.796875 
z
" id="NimbusSans-Regular-99"/>
       <path d="M 43.796875 37.796875 
C 43.703125 48.09375 36.90625 53.90625 24.796875 53.90625 
C 12.59375 53.90625 4.703125 47.59375 4.703125 37.90625 
C 4.703125 29.703125 8.90625 25.796875 21.296875 22.796875 
L 29.09375 20.90625 
C 34.90625 19.5 37.203125 17.40625 37.203125 13.703125 
C 37.203125 8.703125 32.296875 5.40625 25 5.40625 
C 20.5 5.40625 16.703125 6.703125 14.59375 8.90625 
C 13.296875 10.40625 12.703125 11.90625 12.203125 15.59375 
L 3.40625 15.59375 
C 3.796875 3.5 10.59375 -2.296875 24.296875 -2.296875 
C 37.5 -2.296875 45.90625 4.203125 45.90625 14.296875 
C 45.90625 22.09375 41.5 26.40625 31.09375 28.90625 
L 23.09375 30.796875 
C 16.296875 32.40625 13.40625 34.59375 13.40625 38.296875 
C 13.40625 43.203125 17.703125 46.203125 24.5 46.203125 
C 31.203125 46.203125 34.796875 43.296875 35 37.796875 
z
" id="NimbusSans-Regular-115"/>
      </defs>
      <use xlink:href="#NimbusSans-Regular-78"/>
      <use x="72.199982" xlink:href="#NimbusSans-Regular-117"/>
      <use x="127.799973" xlink:href="#NimbusSans-Regular-109"/>
      <use x="211.09996" xlink:href="#NimbusSans-Regular-98"/>
      <use x="266.699951" xlink:href="#NimbusSans-Regular-101"/>
      <use x="322.299942" xlink:href="#NimbusSans-Regular-114"/>
      <use x="355.59993" xlink:href="#NimbusSans-Regular-32"/>
      <use x="383.399918" xlink:href="#NimbusSans-Regular-111"/>
      <use x="438.999908" xlink:href="#NimbusSans-Regular-102"/>
      <use x="466.799896" xlink:href="#NimbusSans-Regular-32"/>
      <use x="494.599884" xlink:href="#NimbusSans-Regular-109"/>
      <use x="577.899872" xlink:href="#NimbusSans-Regular-111"/>
      <use x="633.499863" xlink:href="#NimbusSans-Regular-108"/>
      <use x="655.69986" xlink:href="#NimbusSans-Regular-101"/>
      <use x="711.29985" xlink:href="#NimbusSans-Regular-99"/>
      <use x="761.299835" xlink:href="#NimbusSans-Regular-117"/>
      <use x="816.899826" xlink:href="#NimbusSans-Regular-108"/>
      <use x="839.099823" xlink:href="#NimbusSans-Regular-101"/>
      <use x="894.699814" xlink:href="#NimbusSans-Regular-115"/>
     </g>
    </g>
   </g>
   <g id="matplotlib.axis_2">
    <g id="ytick_1">
     <g id="line2d_5">
      <defs>
       <path d="M 0 0 
L -3.5 0 
" id="m3aeff395ba" style="stroke:#000000;stroke-width:0.8;"/>
      </defs>
      <g>
       <use style="stroke:#000000;stroke-width:0.8;" x="44.348438" xlink:href="#m3aeff395ba" y="98.34875"/>
      </g>
     </g>
     <g id="text_6">
      <!-- 0 -->
      <g transform="translate(31.789063 101.994062)scale(0.1 -0.1)">
       <use xlink:href="#NimbusSans-Regular-48"/>
      </g>
     </g>
    </g>
    <g id="ytick_2">
     <g id="line2d_6">
      <g>
       <use style="stroke:#000000;stroke-width:0.8;" x="44.348438" xlink:href="#m3aeff395ba" y="53.401983"/>
      </g>
     </g>
     <g id="text_7">
      <!-- 500 -->
      <g transform="translate(20.670313 57.047295)scale(0.1 -0.1)">
       <defs>
        <path d="M 47.59375 70.90625 
L 11 70.90625 
L 5.703125 32.296875 
L 13.796875 32.296875 
C 17.90625 37.203125 21.296875 38.90625 26.90625 38.90625 
C 36.40625 38.90625 42.296875 32.40625 42.296875 21.90625 
C 42.296875 11.703125 36.40625 5.5 26.796875 5.5 
C 19.09375 5.5 14.40625 9.40625 12.296875 17.40625 
L 3.5 17.40625 
C 4.703125 11.59375 5.703125 8.796875 7.796875 6.203125 
C 11.796875 0.796875 19 -2.296875 27 -2.296875 
C 41.296875 -2.296875 51.296875 8.09375 51.296875 23.09375 
C 51.296875 37.09375 42 46.703125 28.40625 46.703125 
C 23.40625 46.703125 19.40625 45.40625 15.296875 42.40625 
L 18.09375 62.203125 
L 47.59375 62.203125 
z
" id="NimbusSans-Regular-53"/>
       </defs>
       <use xlink:href="#NimbusSans-Regular-53"/>
       <use x="55.599991" xlink:href="#NimbusSans-Regular-48"/>
       <use x="111.199982" xlink:href="#NimbusSans-Regular-48"/>
      </g>
     </g>
    </g>
    <g id="text_8">
     <!-- Number of cells -->
     <g transform="translate(14.490625 94.876875)rotate(-90)scale(0.1 -0.1)">
      <use xlink:href="#NimbusSans-Regular-78"/>
      <use x="72.199982" xlink:href="#NimbusSans-Regular-117"/>
      <use x="127.799973" xlink:href="#NimbusSans-Regular-109"/>
      <use x="211.09996" xlink:href="#NimbusSans-Regular-98"/>
      <use x="266.699951" xlink:href="#NimbusSans-Regular-101"/>
      <use x="322.299942" xlink:href="#NimbusSans-Regular-114"/>
      <use x="355.59993" xlink:href="#NimbusSans-Regular-32"/>
      <use x="383.399918" xlink:href="#NimbusSans-Regular-111"/>
      <use x="438.999908" xlink:href="#NimbusSans-Regular-102"/>
      <use x="466.799896" xlink:href="#NimbusSans-Regular-32"/>
      <use x="494.599884" xlink:href="#NimbusSans-Regular-99"/>
      <use x="544.599869" xlink:href="#NimbusSans-Regular-101"/>
      <use x="600.19986" xlink:href="#NimbusSans-Regular-108"/>
      <use x="622.399857" xlink:href="#NimbusSans-Regular-108"/>
      <use x="644.599854" xlink:href="#NimbusSans-Regular-115"/>
     </g>
    </g>
   </g>
   <g id="line2d_7">
    <path clip-path="url(#p3b8e553c8a)" d="M 55.560941 40.819477 
L 58.492315 51.237241 
L 61.423689 57.858528 
L 64.355062 62.96781 
L 67.286436 67.157252 
L 70.217809 70.691126 
L 73.149183 73.720653 
L 76.080557 76.345273 
L 79.01193 78.636151 
L 81.943304 80.647075 
L 84.874677 82.420223 
L 87.806051 83.989531 
L 90.737424 85.382825 
L 93.668798 86.623244 
L 96.600172 87.730244 
L 99.531545 88.720325 
L 102.462919 89.607584 
L 105.394292 90.404136 
L 108.325666 91.120443 
L 111.257039 91.765584 
L 114.188413 92.347466 
L 117.119787 92.872999 
L 120.05116 93.348241 
L 122.982534 93.778517 
L 125.913907 94.168523 
L 128.845281 94.522404 
L 131.776655 94.843834 
L 134.708028 95.136071 
L 137.639402 95.40201 
L 140.570775 95.644232 
L 143.502149 95.865037 
L 146.433522 96.066481 
L 149.364896 96.250404 
L 152.29627 96.418454 
L 155.227643 96.57211 
L 158.159017 96.712702 
L 161.09039 96.841426 
L 164.021764 96.959358 
L 166.953138 97.06747 
L 169.884511 97.166637 
L 172.815885 97.257653 
L 175.747258 97.341234 
L 178.678632 97.418028 
L 181.610005 97.488623 
L 184.541379 97.553552 
L 187.472753 97.613299 
L 190.404126 97.668305 
L 193.3355 97.718968 
L 196.266873 97.765653 
L 199.198247 97.80869 
L 202.129621 97.848382 
L 205.060994 97.885004 
L 207.992368 97.918806 
L 210.923741 97.950019 
L 213.855115 97.978852 
L 216.786488 98.005495 
L 219.717862 98.030126 
L 222.649236 98.052903 
L 225.580609 98.073973 
L 228.511983 98.093472 
L 231.443356 98.111522 
L 234.37473 98.128236 
L 237.306103 98.143719 
L 240.237477 98.158066 
L 243.168851 98.171363 
L 246.100224 98.183692 
L 249.031598 98.195127 
" style="fill:none;stroke:#1b9e77;stroke-linecap:square;"/>
   </g>
   <g id="line2d_8">
    <path clip-path="url(#p3b8e553c8a)" d="M 55.560941 25.912376 
L 58.492315 65.797569 
L 61.423689 65.778193 
L 64.355062 67.123629 
L 67.286436 69.03799 
L 70.217809 71.166001 
L 73.149183 73.329342 
L 76.080557 75.434492 
L 79.01193 77.432794 
L 81.943304 79.300723 
L 84.874677 81.029277 
L 87.806051 82.617926 
L 90.737424 84.071029 
L 93.668798 85.395663 
L 96.600172 86.60028 
L 99.531545 87.693878 
L 102.462919 88.685492 
L 105.394292 89.583889 
L 108.325666 90.397388 
L 111.257039 91.13377 
L 114.188413 91.800236 
L 117.119787 92.403404 
L 120.05116 92.94932 
L 122.982534 93.443487 
L 125.913907 93.8909 
L 128.845281 94.296082 
L 131.776655 94.663122 
L 134.708028 94.995713 
L 137.639402 95.297188 
L 140.570775 95.570552 
L 143.502149 95.818515 
L 146.433522 96.043519 
L 149.364896 96.247765 
L 152.29627 96.433237 
L 155.227643 96.601725 
L 158.159017 96.75484 
L 161.09039 96.894037 
L 164.021764 97.020629 
L 166.953138 97.135799 
L 169.884511 97.240617 
L 172.815885 97.336047 
L 175.747258 97.422961 
L 178.678632 97.502148 
L 181.610005 97.57432 
L 184.541379 97.640122 
L 187.472753 97.700135 
L 190.404126 97.754888 
L 193.3355 97.804858 
L 196.266873 97.850479 
L 199.198247 97.892142 
L 202.129621 97.930203 
L 205.060994 97.964984 
L 207.992368 97.996778 
L 210.923741 98.025851 
L 213.855115 98.052443 
L 216.786488 98.076773 
L 219.717862 98.09904 
L 222.649236 98.119426 
L 225.580609 98.138094 
L 228.511983 98.155194 
L 231.443356 98.170862 
L 234.37473 98.185222 
L 237.306103 98.198386 
L 240.237477 98.210459 
L 243.168851 98.221532 
L 246.100224 98.231692 
L 249.031598 98.241016 
" style="fill:none;stroke:#d95f02;stroke-linecap:square;"/>
   </g>
   <g id="line2d_9">
    <path clip-path="url(#p3b8e553c8a)" d="M 55.560941 25.586845 
L 58.492315 59.127568 
L 61.423689 61.577447 
L 64.355062 64.798767 
L 67.286436 68.469625 
L 70.217809 72.165769 
L 73.149183 75.575483 
L 76.080557 78.520791 
L 79.01193 80.939764 
L 81.943304 82.854944 
L 84.874677 84.339016 
L 87.806051 85.484747 
L 90.737424 86.383506 
L 93.668798 87.113228 
L 96.600172 87.734099 
L 99.531545 88.289137 
L 102.462919 88.807109 
L 105.394292 89.306018 
L 108.325666 89.796243 
L 111.257039 90.28298 
L 114.188413 90.768 
L 117.119787 91.250864 
L 120.05116 91.729747 
L 122.982534 92.202022 
L 125.913907 92.664682 
L 128.845281 93.114658 
L 131.776655 93.54905 
L 134.708028 93.965292 
L 137.639402 94.361261 
L 140.570775 94.735322 
L 143.502149 95.086341 
L 146.433522 95.413665 
L 149.364896 95.717076 
L 152.29627 95.996741 
L 155.227643 96.253151 
L 158.159017 96.487067 
L 161.09039 96.699455 
L 164.021764 96.891445 
L 166.953138 97.064272 
L 169.884511 97.219243 
L 172.815885 97.357692 
L 175.747258 97.480956 
L 178.678632 97.590346 
L 181.610005 97.687129 
L 184.541379 97.772514 
L 187.472753 97.847641 
L 190.404126 97.913578 
L 193.3355 97.971315 
L 196.266873 98.021763 
L 199.198247 98.065759 
L 202.129621 98.104062 
L 205.060994 98.13736 
L 207.992368 98.166271 
L 210.923741 98.191347 
L 213.855115 98.213081 
L 216.786488 98.231907 
L 219.717862 98.248206 
L 222.649236 98.262314 
L 225.580609 98.274522 
L 228.511983 98.285083 
L 231.443356 98.294217 
L 234.37473 98.302112 
L 237.306103 98.308932 
L 240.237477 98.314819 
L 243.168851 98.319895 
L 246.100224 98.324265 
L 249.031598 98.328022 
" style="fill:none;stroke:#7570b3;stroke-linecap:square;"/>
   </g>
   <g id="line2d_10">
    <path clip-path="url(#p3b8e553c8a)" d="M 55.560941 25.953288 
L 58.492315 68.520118 
L 61.423689 61.584764 
L 64.355062 61.315133 
L 67.286436 65.154803 
L 70.217809 70.008109 
L 73.149183 74.446205 
L 76.080557 78.125768 
L 79.01193 81.088554 
L 81.943304 83.427323 
L 84.874677 85.216124 
L 87.806051 86.527385 
L 90.737424 87.447127 
L 93.668798 88.07205 
L 96.600172 88.497835 
L 99.531545 88.808301 
L 102.462919 89.069362 
L 105.394292 89.327664 
L 108.325666 89.612345 
L 111.257039 89.938278 
L 114.188413 90.309702 
L 117.119787 90.723573 
L 120.05116 91.172355 
L 122.982534 91.646191 
L 125.913907 92.134477 
L 128.845281 92.626946 
L 131.776655 93.114349 
L 134.708028 93.588837 
L 137.639402 94.044118 
L 140.570775 94.475455 
L 143.502149 94.879564 
L 146.433522 95.254439 
L 149.364896 95.599162 
L 152.29627 95.9137 
L 155.227643 96.198711 
L 158.159017 96.455378 
L 161.09039 96.685256 
L 164.021764 96.890151 
L 166.953138 97.072011 
L 169.884511 97.232844 
L 172.815885 97.374645 
L 175.747258 97.499351 
L 178.678632 97.608795 
L 181.610005 97.704683 
L 184.541379 97.788583 
L 187.472753 97.861912 
L 190.404126 97.925943 
L 193.3355 97.981809 
L 196.266873 98.030516 
L 199.198247 98.07295 
L 202.129621 98.109893 
L 205.060994 98.142034 
L 207.992368 98.169979 
L 210.923741 98.19426 
L 213.855115 98.215346 
L 216.786488 98.23365 
L 219.717862 98.249531 
L 222.649236 98.263306 
L 225.580609 98.275249 
L 228.511983 98.285602 
L 231.443356 98.294572 
L 234.37473 98.302339 
L 237.306103 98.309062 
L 240.237477 98.314874 
L 243.168851 98.319895 
L 246.100224 98.324225 
L 249.031598 98.327954 
" style="fill:none;stroke:#e7298a;stroke-linecap:square;"/>
   </g>
   <g id="patch_69">
    <path d="M 44.348438 98.34875 
L 44.348438 21.94875 
" style="fill:none;stroke:#000000;stroke-linecap:square;stroke-linejoin:miter;stroke-width:0.8;"/>
   </g>
   <g id="patch_70">
    <path d="M 258.778415 98.34875 
L 258.778415 21.94875 
" style="fill:none;stroke:#000000;stroke-linecap:square;stroke-linejoin:miter;stroke-width:0.8;"/>
   </g>
   <g id="patch_71">
    <path d="M 44.348438 98.34875 
L 258.778415 98.34875 
" style="fill:none;stroke:#000000;stroke-linecap:square;stroke-linejoin:miter;stroke-width:0.8;"/>
   </g>
   <g id="patch_72">
    <path d="M 44.348438 21.94875 
L 258.778415 21.94875 
" style="fill:none;stroke:#000000;stroke-linecap:square;stroke-linejoin:miter;stroke-width:0.8;"/>
   </g>
   <g id="text_9">
    <!-- RPS4Y1 -->
    <g transform="translate(128.553426 15.94875)scale(0.12 -0.12)">
     <defs>
      <path d="M 18.59375 31.40625 
L 42.59375 31.40625 
C 50.90625 31.40625 54.59375 27.40625 54.59375 18.40625 
L 54.5 11.90625 
C 54.5 7.40625 55.296875 3 56.59375 0 
L 67.90625 0 
L 67.90625 2.296875 
C 64.40625 4.703125 63.703125 7.296875 63.5 17 
C 63.40625 29 61.5 32.59375 53.59375 36 
C 61.796875 40.09375 65.09375 45 65.09375 53.40625 
C 65.09375 66 57.296875 72.90625 42.90625 72.90625 
L 9.296875 72.90625 
L 9.296875 0 
L 18.59375 0 
z
M 18.59375 39.59375 
L 18.59375 64.703125 
L 41.09375 64.703125 
C 46.296875 64.703125 49.296875 63.90625 51.59375 61.90625 
C 54.09375 59.796875 55.40625 56.5 55.40625 52.203125 
C 55.40625 43.5 51 39.59375 41.09375 39.59375 
z
" id="NimbusSans-Regular-82"/>
      <path d="M 18.40625 30.90625 
L 41.296875 30.90625 
C 47 30.90625 51.5 32.59375 55.40625 36.09375 
C 59.796875 40.09375 61.703125 44.796875 61.703125 51.5 
C 61.703125 65.203125 53.59375 72.90625 39.203125 72.90625 
L 9.09375 72.90625 
L 9.09375 0 
L 18.40625 0 
z
M 18.40625 39.09375 
L 18.40625 64.703125 
L 37.796875 64.703125 
C 46.703125 64.703125 52 59.90625 52 51.90625 
C 52 43.90625 46.703125 39.09375 37.796875 39.09375 
z
" id="NimbusSans-Regular-80"/>
      <path d="M 59.59375 51.5 
C 59.59375 56.5 59.296875 57.90625 57.703125 61.296875 
C 53.703125 69.703125 45.203125 74.09375 32.90625 74.09375 
C 16.90625 74.09375 7 65.90625 7 52.703125 
C 7 43.796875 11.703125 38.203125 21.296875 35.703125 
L 39.40625 30.90625 
C 48.703125 28.5 52.796875 24.796875 52.796875 19.09375 
C 52.796875 15.203125 50.703125 11.203125 47.59375 9 
C 44.703125 6.90625 40.09375 5.90625 34.203125 5.90625 
C 26.203125 5.90625 20.90625 7.796875 17.40625 12 
C 14.703125 15.203125 13.5 18.703125 13.59375 23.203125 
L 4.796875 23.203125 
C 4.90625 16.5 6.203125 12.09375 9.09375 8.09375 
C 14.09375 1.203125 22.5 -2.296875 33.59375 -2.296875 
C 42.296875 -2.296875 49.40625 -0.296875 54.09375 3.296875 
C 59 7.203125 62.09375 13.703125 62.09375 20 
C 62.09375 29 56.5 35.59375 46.59375 38.296875 
L 28.296875 43.203125 
C 19.5 45.59375 16.296875 48.40625 16.296875 54 
C 16.296875 61.40625 22.796875 66.296875 32.59375 66.296875 
C 44.203125 66.296875 50.703125 61.09375 50.796875 51.5 
z
" id="NimbusSans-Regular-83"/>
      <path d="M 38.703125 28.59375 
L 66.09375 72.90625 
L 55 72.90625 
L 34.203125 37.40625 
L 12.796875 72.90625 
L 1.296875 72.90625 
L 29.40625 28.59375 
L 29.40625 0 
L 38.703125 0 
z
" id="NimbusSans-Regular-89"/>
      <path d="M 25.90625 51.5 
L 25.90625 0 
L 34.703125 0 
L 34.703125 72.296875 
L 28.90625 72.296875 
C 25.796875 61.203125 23.796875 59.703125 10.203125 57.90625 
L 10.203125 51.5 
z
" id="NimbusSans-Regular-49"/>
     </defs>
     <use xlink:href="#NimbusSans-Regular-82"/>
     <use x="72.199982" xlink:href="#NimbusSans-Regular-80"/>
     <use x="138.899979" xlink:href="#NimbusSans-Regular-83"/>
     <use x="205.599976" xlink:href="#NimbusSans-Regular-52"/>
     <use x="261.199966" xlink:href="#NimbusSans-Regular-89"/>
     <use x="327.899963" xlink:href="#NimbusSans-Regular-49"/>
    </g>
   </g>
   <g id="legend_1">
    <g id="line2d_11">
     <path d="M 152.883102 34.739375 
L 172.883102 34.739375 
" style="fill:none;stroke:#1b9e77;stroke-linecap:square;"/>
    </g>
    <g id="line2d_12"/>
    <g id="text_10">
     <!-- Gamma -->
     <g transform="translate(180.883102 38.239375)scale(0.1 -0.1)">
      <defs>
       <path d="M 70.90625 38.5 
L 40.5 38.5 
L 40.5 30.296875 
L 62.703125 30.296875 
L 62.703125 28.296875 
C 62.703125 15.296875 53.09375 5.90625 39.796875 5.90625 
C 32.40625 5.90625 25.703125 8.59375 21.40625 13.296875 
C 16.59375 18.5 13.703125 27.203125 13.703125 36.203125 
C 13.703125 54.09375 23.90625 65.90625 39.296875 65.90625 
C 50.40625 65.90625 58.40625 60.203125 60.40625 50.796875 
L 69.90625 50.796875 
C 67.296875 65.59375 56.09375 74.09375 39.40625 74.09375 
C 30.5 74.09375 23.296875 71.796875 17.59375 67.09375 
C 9.09375 60.09375 4.40625 48.796875 4.40625 35.703125 
C 4.40625 13.296875 18.09375 -2.296875 37.796875 -2.296875 
C 47.703125 -2.296875 55.5 1.40625 62.703125 9.296875 
L 65 -0.40625 
L 70.90625 -0.40625 
z
" id="NimbusSans-Regular-71"/>
       <path d="M 53.5 4.90625 
C 52.59375 4.703125 52.203125 4.703125 51.703125 4.703125 
C 48.796875 4.703125 47.203125 6.203125 47.203125 8.796875 
L 47.203125 39.59375 
C 47.203125 48.90625 40.40625 53.90625 27.5 53.90625 
C 19.796875 53.90625 13.703125 51.703125 10.09375 47.796875 
C 7.703125 45.09375 6.703125 42.09375 6.5 36.90625 
L 14.90625 36.90625 
C 15.59375 43.296875 19.40625 46.203125 27.203125 46.203125 
C 34.796875 46.203125 38.90625 43.40625 38.90625 38.40625 
L 38.90625 36.203125 
C 38.796875 32.59375 37 31.296875 30.203125 30.40625 
C 18.40625 28.90625 16.59375 28.5 13.40625 27.203125 
C 7.296875 24.59375 4.203125 20 4.203125 13.203125 
C 4.203125 3.703125 10.796875 -2.296875 21.40625 -2.296875 
C 28 -2.296875 33.296875 0 39.203125 5.40625 
C 39.796875 0 42.40625 -2.296875 47.796875 -2.296875 
C 49.59375 -2.296875 50.703125 -2.09375 53.5 -1.40625 
z
M 38.90625 16.5 
C 38.90625 13.703125 38.09375 12 35.59375 9.703125 
C 32.203125 6.59375 28.09375 5 23.203125 5 
C 16.703125 5 12.90625 8.09375 12.90625 13.40625 
C 12.90625 18.90625 16.5 21.703125 25.5 23 
C 34.40625 24.203125 36.09375 24.59375 38.90625 25.90625 
z
" id="NimbusSans-Regular-97"/>
      </defs>
      <use xlink:href="#NimbusSans-Regular-71"/>
      <use x="77.799988" xlink:href="#NimbusSans-Regular-97"/>
      <use x="133.399979" xlink:href="#NimbusSans-Regular-109"/>
      <use x="216.699966" xlink:href="#NimbusSans-Regular-109"/>
      <use x="299.999954" xlink:href="#NimbusSans-Regular-97"/>
     </g>
    </g>
    <g id="line2d_13">
     <path d="M 152.883102 49.209688 
L 172.883102 49.209688 
" style="fill:none;stroke:#d95f02;stroke-linecap:square;"/>
    </g>
    <g id="line2d_14"/>
    <g id="text_11">
     <!-- Point-Gamma -->
     <g transform="translate(180.883102 52.709688)scale(0.1 -0.1)">
      <defs>
       <path d="M 15 52.40625 
L 6.703125 52.40625 
L 6.703125 0 
L 15 0 
z
M 15 72.90625 
L 6.59375 72.90625 
L 6.59375 62.40625 
L 15 62.40625 
z
" id="NimbusSans-Regular-105"/>
       <path d="M 7 52.40625 
L 7 0 
L 15.40625 0 
L 15.40625 28.90625 
C 15.40625 39.59375 21 46.59375 29.59375 46.59375 
C 36.203125 46.59375 40.40625 42.59375 40.40625 36.296875 
L 40.40625 0 
L 48.703125 0 
L 48.703125 39.59375 
C 48.703125 48.296875 42.203125 53.90625 32.09375 53.90625 
C 24.296875 53.90625 19.296875 50.90625 14.703125 43.59375 
L 14.703125 52.40625 
z
" id="NimbusSans-Regular-110"/>
       <path d="M 25.40625 52.40625 
L 16.796875 52.40625 
L 16.796875 66.796875 
L 8.5 66.796875 
L 8.5 52.40625 
L 1.40625 52.40625 
L 1.40625 45.59375 
L 8.5 45.59375 
L 8.5 6 
C 8.5 0.59375 12.09375 -2.296875 18.59375 -2.296875 
C 20.796875 -2.296875 22.59375 -2.09375 25.40625 -1.59375 
L 25.40625 5.40625 
C 24.203125 5.09375 23.09375 5 21.40625 5 
C 17.796875 5 16.796875 6 16.796875 9.703125 
L 16.796875 45.59375 
L 25.40625 45.59375 
z
" id="NimbusSans-Regular-116"/>
       <path d="M 28.40625 31.203125 
L 4.59375 31.203125 
L 4.59375 24 
L 28.40625 24 
z
" id="NimbusSans-Regular-45"/>
      </defs>
      <use xlink:href="#NimbusSans-Regular-80"/>
      <use x="66.699997" xlink:href="#NimbusSans-Regular-111"/>
      <use x="122.299988" xlink:href="#NimbusSans-Regular-105"/>
      <use x="144.499985" xlink:href="#NimbusSans-Regular-110"/>
      <use x="200.099976" xlink:href="#NimbusSans-Regular-116"/>
      <use x="227.899963" xlink:href="#NimbusSans-Regular-45"/>
      <use x="261.199951" xlink:href="#NimbusSans-Regular-71"/>
      <use x="338.999939" xlink:href="#NimbusSans-Regular-97"/>
      <use x="394.59993" xlink:href="#NimbusSans-Regular-109"/>
      <use x="477.899918" xlink:href="#NimbusSans-Regular-109"/>
      <use x="561.199905" xlink:href="#NimbusSans-Regular-97"/>
     </g>
    </g>
    <g id="line2d_15">
     <path d="M 152.883102 63.68 
L 172.883102 63.68 
" style="fill:none;stroke:#7570b3;stroke-linecap:square;"/>
    </g>
    <g id="line2d_16"/>
    <g id="text_12">
     <!-- Unimodal -->
     <g transform="translate(180.883102 67.18)scale(0.1 -0.1)">
      <defs>
       <path d="M 55.203125 72.90625 
L 55.203125 21.703125 
C 55.203125 11.90625 48.09375 5.90625 36.40625 5.90625 
C 31 5.90625 26.59375 7.203125 23.09375 9.703125 
C 19.5 12.5 17.796875 16.203125 17.796875 21.703125 
L 17.796875 72.90625 
L 8.5 72.90625 
L 8.5 21.703125 
C 8.5 6.90625 19.09375 -2.296875 36.40625 -2.296875 
C 53.5 -2.296875 64.5 7.09375 64.5 21.703125 
L 64.5 72.90625 
z
" id="NimbusSans-Regular-85"/>
       <path d="M 49.5 72.90625 
L 41.203125 72.90625 
L 41.203125 45.796875 
C 37.703125 51.09375 32.09375 53.90625 25.09375 53.90625 
C 11.5 53.90625 2.59375 43 2.59375 26.296875 
C 2.59375 8.59375 11.203125 -2.296875 25.40625 -2.296875 
C 32.59375 -2.296875 37.59375 0.40625 42.09375 6.90625 
L 42.09375 0 
L 49.5 0 
z
M 26.5 46.09375 
C 35.5 46.09375 41.203125 38.203125 41.203125 25.59375 
C 41.203125 13.5 35.40625 5.5 26.59375 5.5 
C 17.40625 5.5 11.296875 13.59375 11.296875 25.796875 
C 11.296875 38 17.40625 46.09375 26.5 46.09375 
z
" id="NimbusSans-Regular-100"/>
      </defs>
      <use xlink:href="#NimbusSans-Regular-85"/>
      <use x="72.199982" xlink:href="#NimbusSans-Regular-110"/>
      <use x="127.799973" xlink:href="#NimbusSans-Regular-105"/>
      <use x="149.999969" xlink:href="#NimbusSans-Regular-109"/>
      <use x="233.299957" xlink:href="#NimbusSans-Regular-111"/>
      <use x="288.899948" xlink:href="#NimbusSans-Regular-100"/>
      <use x="344.499939" xlink:href="#NimbusSans-Regular-97"/>
      <use x="400.09993" xlink:href="#NimbusSans-Regular-108"/>
     </g>
    </g>
    <g id="line2d_17">
     <path d="M 152.883102 78.150312 
L 172.883102 78.150312 
" style="fill:none;stroke:#e7298a;stroke-linecap:square;"/>
    </g>
    <g id="line2d_18"/>
    <g id="text_13">
     <!-- Non-parametric -->
     <g transform="translate(180.883102 81.650312)scale(0.1 -0.1)">
      <defs>
       <path d="M 5.40625 -21.796875 
L 13.796875 -21.796875 
L 13.796875 5.5 
C 18.203125 0.09375 23.09375 -2.296875 29.90625 -2.296875 
C 43.5 -2.296875 52.296875 8.59375 52.296875 25.296875 
C 52.296875 42.90625 43.703125 53.90625 29.796875 53.90625 
C 22.703125 53.90625 17 50.703125 13.09375 44.5 
L 13.09375 52.40625 
L 5.40625 52.40625 
z
M 28.40625 46.09375 
C 37.59375 46.09375 43.59375 38 43.59375 25.5 
C 43.59375 13.59375 37.5 5.5 28.40625 5.5 
C 19.5 5.5 13.796875 13.5 13.796875 25.796875 
C 13.796875 38.09375 19.5 46.09375 28.40625 46.09375 
z
" id="NimbusSans-Regular-112"/>
      </defs>
      <use xlink:href="#NimbusSans-Regular-78"/>
      <use x="72.199982" xlink:href="#NimbusSans-Regular-111"/>
      <use x="127.799973" xlink:href="#NimbusSans-Regular-110"/>
      <use x="183.399963" xlink:href="#NimbusSans-Regular-45"/>
      <use x="216.699951" xlink:href="#NimbusSans-Regular-112"/>
      <use x="272.299942" xlink:href="#NimbusSans-Regular-97"/>
      <use x="327.899933" xlink:href="#NimbusSans-Regular-114"/>
      <use x="361.199921" xlink:href="#NimbusSans-Regular-97"/>
      <use x="416.799911" xlink:href="#NimbusSans-Regular-109"/>
      <use x="500.099899" xlink:href="#NimbusSans-Regular-101"/>
      <use x="555.69989" xlink:href="#NimbusSans-Regular-116"/>
      <use x="583.499878" xlink:href="#NimbusSans-Regular-114"/>
      <use x="616.799866" xlink:href="#NimbusSans-Regular-105"/>
      <use x="638.999863" xlink:href="#NimbusSans-Regular-99"/>
     </g>
    </g>
   </g>
  </g>
  <g id="axes_2">
   <g id="patch_73">
    <path d="M 309.953415 98.34875 
L 524.383392 98.34875 
L 524.383392 21.94875 
L 309.953415 21.94875 
z
" style="fill:#ffffff;"/>
   </g>
   <g id="matplotlib.axis_3">
    <g id="xtick_5">
     <g id="line2d_19">
      <g>
       <use style="stroke:#000000;stroke-width:0.8;" x="319.700232" xlink:href="#m5b4933e177" y="98.34875"/>
      </g>
     </g>
     <g id="text_14">
      <!-- 0.0000 -->
      <g transform="translate(304.411951 112.639375)scale(0.1 -0.1)">
       <defs>
        <path d="M 19.09375 10.40625 
L 8.703125 10.40625 
L 8.703125 0 
L 19.09375 0 
z
" id="NimbusSans-Regular-46"/>
       </defs>
       <use xlink:href="#NimbusSans-Regular-48"/>
       <use x="55.599991" xlink:href="#NimbusSans-Regular-46"/>
       <use x="83.399979" xlink:href="#NimbusSans-Regular-48"/>
       <use x="138.999969" xlink:href="#NimbusSans-Regular-48"/>
       <use x="194.59996" xlink:href="#NimbusSans-Regular-48"/>
       <use x="250.199951" xlink:href="#NimbusSans-Regular-48"/>
      </g>
     </g>
    </g>
    <g id="xtick_6">
     <g id="line2d_20">
      <g>
       <use style="stroke:#000000;stroke-width:0.8;" x="366.817232" xlink:href="#m5b4933e177" y="98.34875"/>
      </g>
     </g>
     <g id="text_15">
      <!-- 0.0001 -->
      <g transform="translate(351.528951 112.639375)scale(0.1 -0.1)">
       <use xlink:href="#NimbusSans-Regular-48"/>
       <use x="55.599991" xlink:href="#NimbusSans-Regular-46"/>
       <use x="83.399979" xlink:href="#NimbusSans-Regular-48"/>
       <use x="138.999969" xlink:href="#NimbusSans-Regular-48"/>
       <use x="194.59996" xlink:href="#NimbusSans-Regular-48"/>
       <use x="250.199951" xlink:href="#NimbusSans-Regular-49"/>
      </g>
     </g>
    </g>
    <g id="xtick_7">
     <g id="line2d_21">
      <g>
       <use style="stroke:#000000;stroke-width:0.8;" x="413.934233" xlink:href="#m5b4933e177" y="98.34875"/>
      </g>
     </g>
     <g id="text_16">
      <!-- 0.0002 -->
      <g transform="translate(398.645951 112.639375)scale(0.1 -0.1)">
       <use xlink:href="#NimbusSans-Regular-48"/>
       <use x="55.599991" xlink:href="#NimbusSans-Regular-46"/>
       <use x="83.399979" xlink:href="#NimbusSans-Regular-48"/>
       <use x="138.999969" xlink:href="#NimbusSans-Regular-48"/>
       <use x="194.59996" xlink:href="#NimbusSans-Regular-48"/>
       <use x="250.199951" xlink:href="#NimbusSans-Regular-50"/>
      </g>
     </g>
    </g>
    <g id="xtick_8">
     <g id="line2d_22">
      <g>
       <use style="stroke:#000000;stroke-width:0.8;" x="461.051233" xlink:href="#m5b4933e177" y="98.34875"/>
      </g>
     </g>
     <g id="text_17">
      <!-- 0.0003 -->
      <g transform="translate(445.762952 112.639375)scale(0.1 -0.1)">
       <defs>
        <path d="M 22.09375 33.296875 
L 23.203125 33.296875 
L 26.90625 33.296875 
C 36.5 33.296875 41.59375 28.796875 41.59375 20.09375 
C 41.59375 11 36.09375 5.5 27 5.5 
C 17.296875 5.5 12.59375 10.40625 12 21 
L 3.203125 21 
C 3.59375 15.203125 4.59375 11.40625 6.296875 8.203125 
C 10 1.203125 16.90625 -2.296875 26.59375 -2.296875 
C 41.203125 -2.296875 50.59375 6.5 50.59375 20.203125 
C 50.59375 29.40625 47.09375 34.40625 38.59375 37.40625 
C 45.203125 40.09375 48.5 45.09375 48.5 52.40625 
C 48.5 64.796875 40.40625 72.296875 26.90625 72.296875 
C 12.59375 72.296875 5 64.296875 4.703125 49 
L 13.5 49 
C 13.59375 53.40625 14 55.90625 15.09375 58.09375 
C 17.09375 62.203125 21.5 64.59375 27 64.59375 
C 34.796875 64.59375 39.5 59.90625 39.5 52.09375 
C 39.5 47 37.703125 43.90625 33.796875 42.203125 
C 31.40625 41.203125 28.203125 40.796875 22.09375 40.703125 
z
" id="NimbusSans-Regular-51"/>
       </defs>
       <use xlink:href="#NimbusSans-Regular-48"/>
       <use x="55.599991" xlink:href="#NimbusSans-Regular-46"/>
       <use x="83.399979" xlink:href="#NimbusSans-Regular-48"/>
       <use x="138.999969" xlink:href="#NimbusSans-Regular-48"/>
       <use x="194.59996" xlink:href="#NimbusSans-Regular-48"/>
       <use x="250.199951" xlink:href="#NimbusSans-Regular-51"/>
      </g>
     </g>
    </g>
    <g id="xtick_9">
     <g id="line2d_23">
      <g>
       <use style="stroke:#000000;stroke-width:0.8;" x="508.168233" xlink:href="#m5b4933e177" y="98.34875"/>
      </g>
     </g>
     <g id="text_18">
      <!-- 0.0004 -->
      <g transform="translate(492.879952 112.639375)scale(0.1 -0.1)">
       <use xlink:href="#NimbusSans-Regular-48"/>
       <use x="55.599991" xlink:href="#NimbusSans-Regular-46"/>
       <use x="83.399979" xlink:href="#NimbusSans-Regular-48"/>
       <use x="138.999969" xlink:href="#NimbusSans-Regular-48"/>
       <use x="194.59996" xlink:href="#NimbusSans-Regular-48"/>
       <use x="250.199951" xlink:href="#NimbusSans-Regular-52"/>
      </g>
     </g>
    </g>
    <g id="text_19">
     <!-- Latent gene expression -->
     <g transform="translate(365.198091 126.109687)scale(0.1 -0.1)">
      <defs>
       <path d="M 17.296875 72.90625 
L 8 72.90625 
L 8 0 
L 53.296875 0 
L 53.296875 8.203125 
L 17.296875 8.203125 
z
" id="NimbusSans-Regular-76"/>
       <path d="M 40.40625 52.40625 
L 40.40625 44.796875 
C 36.203125 51.09375 31.59375 53.90625 25 53.90625 
C 12.296875 53.90625 3.5 42.09375 3.5 25.296875 
C 3.5 16.5 5.59375 10.09375 10.09375 4.796875 
C 14 0.203125 19 -2.296875 24.40625 -2.296875 
C 30.703125 -2.296875 35.203125 0.5 39.59375 7.09375 
L 39.59375 4.40625 
C 39.59375 -9.59375 35.703125 -14.796875 25.296875 -14.796875 
C 18.203125 -14.796875 14.5 -12 13.703125 -6 
L 5.203125 -6 
C 6 -15.703125 13.703125 -21.796875 25.09375 -21.796875 
C 32.796875 -21.796875 39.203125 -19.296875 42.59375 -15.09375 
C 46.59375 -10.203125 48.09375 -3.703125 48.09375 8.59375 
L 48.09375 52.40625 
z
M 25.796875 46.203125 
C 34.59375 46.203125 39.59375 38.796875 39.59375 25.5 
C 39.59375 12.796875 34.5 5.40625 25.796875 5.40625 
C 17.203125 5.40625 12.203125 12.90625 12.203125 25.796875 
C 12.203125 38.59375 17.203125 46.203125 25.796875 46.203125 
z
" id="NimbusSans-Regular-103"/>
       <path d="M 29.203125 27.09375 
L 46.796875 52.40625 
L 37.40625 52.40625 
L 24.796875 33.40625 
L 12.203125 52.40625 
L 2.703125 52.40625 
L 20.203125 26.703125 
L 1.703125 0 
L 11.203125 0 
L 24.5 20.09375 
L 37.59375 0 
L 47.296875 0 
z
" id="NimbusSans-Regular-120"/>
      </defs>
      <use xlink:href="#NimbusSans-Regular-76"/>
      <use x="55.599991" xlink:href="#NimbusSans-Regular-97"/>
      <use x="111.199982" xlink:href="#NimbusSans-Regular-116"/>
      <use x="138.999969" xlink:href="#NimbusSans-Regular-101"/>
      <use x="194.59996" xlink:href="#NimbusSans-Regular-110"/>
      <use x="250.199951" xlink:href="#NimbusSans-Regular-116"/>
      <use x="277.999939" xlink:href="#NimbusSans-Regular-32"/>
      <use x="305.799927" xlink:href="#NimbusSans-Regular-103"/>
      <use x="361.399918" xlink:href="#NimbusSans-Regular-101"/>
      <use x="416.999908" xlink:href="#NimbusSans-Regular-110"/>
      <use x="472.599899" xlink:href="#NimbusSans-Regular-101"/>
      <use x="528.19989" xlink:href="#NimbusSans-Regular-32"/>
      <use x="555.999878" xlink:href="#NimbusSans-Regular-101"/>
      <use x="611.599869" xlink:href="#NimbusSans-Regular-120"/>
      <use x="661.599854" xlink:href="#NimbusSans-Regular-112"/>
      <use x="717.199844" xlink:href="#NimbusSans-Regular-114"/>
      <use x="750.499832" xlink:href="#NimbusSans-Regular-101"/>
      <use x="806.099823" xlink:href="#NimbusSans-Regular-115"/>
      <use x="856.099808" xlink:href="#NimbusSans-Regular-115"/>
      <use x="906.099792" xlink:href="#NimbusSans-Regular-105"/>
      <use x="928.299789" xlink:href="#NimbusSans-Regular-111"/>
      <use x="983.89978" xlink:href="#NimbusSans-Regular-110"/>
     </g>
    </g>
   </g>
   <g id="matplotlib.axis_4">
    <g id="ytick_3">
     <g id="line2d_24">
      <g>
       <use style="stroke:#000000;stroke-width:0.8;" x="309.953415" xlink:href="#m3aeff395ba" y="94.876023"/>
      </g>
     </g>
     <g id="text_20">
      <!-- 0.0 -->
      <g transform="translate(289.054977 98.521335)scale(0.1 -0.1)">
       <use xlink:href="#NimbusSans-Regular-48"/>
       <use x="55.599991" xlink:href="#NimbusSans-Regular-46"/>
       <use x="83.399979" xlink:href="#NimbusSans-Regular-48"/>
      </g>
     </g>
    </g>
    <g id="ytick_4">
     <g id="line2d_25">
      <g>
       <use style="stroke:#000000;stroke-width:0.8;" x="309.953415" xlink:href="#m3aeff395ba" y="60.14875"/>
      </g>
     </g>
     <g id="text_21">
      <!-- 0.5 -->
      <g transform="translate(289.054977 63.794062)scale(0.1 -0.1)">
       <use xlink:href="#NimbusSans-Regular-48"/>
       <use x="55.599991" xlink:href="#NimbusSans-Regular-46"/>
       <use x="83.399979" xlink:href="#NimbusSans-Regular-53"/>
      </g>
     </g>
    </g>
    <g id="ytick_5">
     <g id="line2d_26">
      <g>
       <use style="stroke:#000000;stroke-width:0.8;" x="309.953415" xlink:href="#m3aeff395ba" y="25.421477"/>
      </g>
     </g>
     <g id="text_22">
      <!-- 1.0 -->
      <g transform="translate(289.054977 29.06679)scale(0.1 -0.1)">
       <use xlink:href="#NimbusSans-Regular-49"/>
       <use x="55.599991" xlink:href="#NimbusSans-Regular-46"/>
       <use x="83.399979" xlink:href="#NimbusSans-Regular-48"/>
      </g>
     </g>
    </g>
    <g id="text_23">
     <!-- CDF -->
     <g transform="translate(282.87529 70.42375)rotate(-90)scale(0.1 -0.1)">
      <defs>
       <path d="M 66.203125 50.296875 
C 63.296875 66.296875 54.09375 74.09375 38.09375 74.09375 
C 28.296875 74.09375 20.40625 71 15 65 
C 8.40625 57.796875 4.796875 47.40625 4.796875 35.59375 
C 4.796875 23.59375 8.5 13.296875 15.296875 6.203125 
C 21 0.40625 28.203125 -2.296875 37.703125 -2.296875 
C 55.5 -2.296875 65.5 7.296875 67.703125 26.59375 
L 58.09375 26.59375 
C 57.296875 21.59375 56.296875 18.203125 54.796875 15.296875 
C 51.796875 9.296875 45.59375 5.90625 37.796875 5.90625 
C 23.296875 5.90625 14.09375 17.5 14.09375 35.703125 
C 14.09375 54.40625 22.796875 65.90625 37 65.90625 
C 42.90625 65.90625 48.40625 64.203125 51.40625 61.296875 
C 54.09375 58.796875 55.59375 55.796875 56.703125 50.296875 
z
" id="NimbusSans-Regular-67"/>
       <path d="M 8.90625 0 
L 37 0 
C 55.40625 0 66.703125 13.796875 66.703125 36.5 
C 66.703125 59.09375 55.5 72.90625 37 72.90625 
L 8.90625 72.90625 
z
M 18.203125 8.203125 
L 18.203125 64.703125 
L 35.40625 64.703125 
C 49.796875 64.703125 57.40625 55 57.40625 36.40625 
C 57.40625 17.90625 49.796875 8.203125 35.40625 8.203125 
z
" id="NimbusSans-Regular-68"/>
       <path d="M 18.296875 33.203125 
L 53.09375 33.203125 
L 53.09375 41.40625 
L 18.296875 41.40625 
L 18.296875 64.703125 
L 57.90625 64.703125 
L 57.90625 72.90625 
L 9 72.90625 
L 9 0 
L 18.296875 0 
z
" id="NimbusSans-Regular-70"/>
      </defs>
      <use xlink:href="#NimbusSans-Regular-67"/>
      <use x="72.199982" xlink:href="#NimbusSans-Regular-68"/>
      <use x="144.399963" xlink:href="#NimbusSans-Regular-70"/>
     </g>
    </g>
   </g>
   <g id="line2d_27">
    <path clip-path="url(#pa4b25b3b0e)" d="M 319.700232 94.876023 
L 320.480758 92.930381 
L 322.236941 89.288571 
L 324.578519 85.000956 
L 327.115228 80.82185 
L 329.847069 76.736461 
L 332.774041 72.754653 
L 335.896145 68.893298 
L 339.018248 65.379645 
L 342.335483 61.982537 
L 345.652718 58.893556 
L 349.165085 55.92256 
L 352.872583 53.085343 
L 356.580081 50.522429 
L 360.48271 48.089344 
L 364.580471 45.795374 
L 368.873364 43.647007 
L 373.361388 41.648107 
L 378.044543 39.800123 
L 383.117961 38.038826 
L 388.581643 36.386056 
L 394.435587 34.857754 
L 400.679794 33.464213 
L 407.509396 32.176808 
L 414.924392 31.013217 
L 423.119914 29.96053 
L 432.095961 29.034951 
L 442.242798 28.214986 
L 453.950687 27.498248 
L 467.60989 26.891789 
L 484.000934 26.393611 
L 504.68487 25.998723 
L 514.636575 25.870819 
L 514.636575 25.870819 
" style="fill:none;stroke:#1b9e77;stroke-linecap:square;"/>
   </g>
   <g id="line2d_28">
    <path clip-path="url(#pa4b25b3b0e)" d="M 319.700232 88.851767 
L 320.285627 88.549686 
L 321.456415 87.610523 
L 323.212599 85.879369 
L 326.139571 82.628327 
L 339.018248 67.95032 
L 343.311141 63.561223 
L 347.408902 59.697577 
L 351.311531 56.318002 
L 355.21416 53.224515 
L 359.11679 50.404718 
L 363.214551 47.721373 
L 367.312312 45.302561 
L 371.605204 43.029792 
L 376.093228 40.914356 
L 380.776384 38.963401 
L 385.654671 37.180223 
L 390.728089 35.564642 
L 396.19177 34.063732 
L 402.045714 32.693942 
L 408.289922 31.465172 
L 415.119523 30.352408 
L 422.534519 29.370587 
L 430.925173 28.489426 
L 440.291483 27.732796 
L 451.218846 27.079886 
L 464.097523 26.540826 
L 479.903173 26.11079 
L 500.391978 25.787988 
L 514.636575 25.657299 
L 514.636575 25.657299 
" style="fill:none;stroke:#d95f02;stroke-linecap:square;"/>
   </g>
   <g id="line2d_29">
    <path clip-path="url(#pa4b25b3b0e)" d="M 319.700232 94.876023 
L 319.895364 90.127244 
L 344.091666 57.804149 
L 417.461101 27.876439 
L 459.219236 25.442803 
L 514.636575 25.421477 
L 514.636575 25.421477 
" style="fill:none;stroke:#7570b3;stroke-linecap:square;"/>
   </g>
   <g id="line2d_30">
    <path clip-path="url(#pa4b25b3b0e)" d="M 319.700232 94.876023 
L 319.895364 86.511166 
L 329.261674 86.511166 
L 329.456806 82.604042 
L 329.651937 70.645005 
L 340.384168 70.645005 
L 340.5793 65.404101 
L 340.774431 55.896313 
L 347.408902 55.896313 
L 347.604033 55.396044 
L 347.799164 52.713102 
L 356.580081 52.713102 
L 356.775212 50.635604 
L 367.702575 50.635604 
L 367.897706 49.914361 
L 368.092838 48.645213 
L 379.410463 48.645213 
L 379.605595 44.649236 
L 390.337826 44.649236 
L 390.532957 42.81368 
L 390.728089 33.734311 
L 408.289922 33.734311 
L 408.485053 28.843823 
L 422.924782 28.843823 
L 423.119914 26.668053 
L 440.096352 26.668053 
L 440.291483 26.511789 
L 442.242798 26.500194 
L 449.852926 26.500194 
L 450.048057 25.442235 
L 514.636575 25.421477 
L 514.636575 25.421477 
" style="fill:none;stroke:#e7298a;stroke-linecap:square;"/>
   </g>
   <g id="patch_74">
    <path d="M 309.953415 98.34875 
L 309.953415 21.94875 
" style="fill:none;stroke:#000000;stroke-linecap:square;stroke-linejoin:miter;stroke-width:0.8;"/>
   </g>
   <g id="patch_75">
    <path d="M 524.383392 98.34875 
L 524.383392 21.94875 
" style="fill:none;stroke:#000000;stroke-linecap:square;stroke-linejoin:miter;stroke-width:0.8;"/>
   </g>
   <g id="patch_76">
    <path d="M 309.953415 98.34875 
L 524.383392 98.34875 
" style="fill:none;stroke:#000000;stroke-linecap:square;stroke-linejoin:miter;stroke-width:0.8;"/>
   </g>
   <g id="patch_77">
    <path d="M 309.953415 21.94875 
L 524.383392 21.94875 
" style="fill:none;stroke:#000000;stroke-linecap:square;stroke-linejoin:miter;stroke-width:0.8;"/>
   </g>
   <g id="text_24">
    <!-- RPS4Y1 -->
    <g transform="translate(394.158404 15.94875)scale(0.12 -0.12)">
     <use xlink:href="#NimbusSans-Regular-82"/>
     <use x="72.199982" xlink:href="#NimbusSans-Regular-80"/>
     <use x="138.899979" xlink:href="#NimbusSans-Regular-83"/>
     <use x="205.599976" xlink:href="#NimbusSans-Regular-52"/>
     <use x="261.199966" xlink:href="#NimbusSans-Regular-89"/>
     <use x="327.899963" xlink:href="#NimbusSans-Regular-49"/>
    </g>
   </g>
   <g id="legend_2">
    <g id="line2d_31">
     <path d="M 418.48808 40.258125 
L 438.48808 40.258125 
" style="fill:none;stroke:#1b9e77;stroke-linecap:square;"/>
    </g>
    <g id="line2d_32"/>
    <g id="text_25">
     <!-- Gamma -->
     <g transform="translate(446.48808 43.758125)scale(0.1 -0.1)">
      <use xlink:href="#NimbusSans-Regular-71"/>
      <use x="77.799988" xlink:href="#NimbusSans-Regular-97"/>
      <use x="133.399979" xlink:href="#NimbusSans-Regular-109"/>
      <use x="216.699966" xlink:href="#NimbusSans-Regular-109"/>
      <use x="299.999954" xlink:href="#NimbusSans-Regular-97"/>
     </g>
    </g>
    <g id="line2d_33">
     <path d="M 418.48808 54.728437 
L 438.48808 54.728437 
" style="fill:none;stroke:#d95f02;stroke-linecap:square;"/>
    </g>
    <g id="line2d_34"/>
    <g id="text_26">
     <!-- Point-Gamma -->
     <g transform="translate(446.48808 58.228437)scale(0.1 -0.1)">
      <use xlink:href="#NimbusSans-Regular-80"/>
      <use x="66.699997" xlink:href="#NimbusSans-Regular-111"/>
      <use x="122.299988" xlink:href="#NimbusSans-Regular-105"/>
      <use x="144.499985" xlink:href="#NimbusSans-Regular-110"/>
      <use x="200.099976" xlink:href="#NimbusSans-Regular-116"/>
      <use x="227.899963" xlink:href="#NimbusSans-Regular-45"/>
      <use x="261.199951" xlink:href="#NimbusSans-Regular-71"/>
      <use x="338.999939" xlink:href="#NimbusSans-Regular-97"/>
      <use x="394.59993" xlink:href="#NimbusSans-Regular-109"/>
      <use x="477.899918" xlink:href="#NimbusSans-Regular-109"/>
      <use x="561.199905" xlink:href="#NimbusSans-Regular-97"/>
     </g>
    </g>
    <g id="line2d_35">
     <path d="M 418.48808 69.19875 
L 438.48808 69.19875 
" style="fill:none;stroke:#7570b3;stroke-linecap:square;"/>
    </g>
    <g id="line2d_36"/>
    <g id="text_27">
     <!-- Unimodal -->
     <g transform="translate(446.48808 72.69875)scale(0.1 -0.1)">
      <use xlink:href="#NimbusSans-Regular-85"/>
      <use x="72.199982" xlink:href="#NimbusSans-Regular-110"/>
      <use x="127.799973" xlink:href="#NimbusSans-Regular-105"/>
      <use x="149.999969" xlink:href="#NimbusSans-Regular-109"/>
      <use x="233.299957" xlink:href="#NimbusSans-Regular-111"/>
      <use x="288.899948" xlink:href="#NimbusSans-Regular-100"/>
      <use x="344.499939" xlink:href="#NimbusSans-Regular-97"/>
      <use x="400.09993" xlink:href="#NimbusSans-Regular-108"/>
     </g>
    </g>
    <g id="line2d_37">
     <path d="M 418.48808 83.669062 
L 438.48808 83.669062 
" style="fill:none;stroke:#e7298a;stroke-linecap:square;"/>
    </g>
    <g id="line2d_38"/>
    <g id="text_28">
     <!-- Non-parametric -->
     <g transform="translate(446.48808 87.169062)scale(0.1 -0.1)">
      <use xlink:href="#NimbusSans-Regular-78"/>
      <use x="72.199982" xlink:href="#NimbusSans-Regular-111"/>
      <use x="127.799973" xlink:href="#NimbusSans-Regular-110"/>
      <use x="183.399963" xlink:href="#NimbusSans-Regular-45"/>
      <use x="216.699951" xlink:href="#NimbusSans-Regular-112"/>
      <use x="272.299942" xlink:href="#NimbusSans-Regular-97"/>
      <use x="327.899933" xlink:href="#NimbusSans-Regular-114"/>
      <use x="361.199921" xlink:href="#NimbusSans-Regular-97"/>
      <use x="416.799911" xlink:href="#NimbusSans-Regular-109"/>
      <use x="500.099899" xlink:href="#NimbusSans-Regular-101"/>
      <use x="555.69989" xlink:href="#NimbusSans-Regular-116"/>
      <use x="583.499878" xlink:href="#NimbusSans-Regular-114"/>
      <use x="616.799866" xlink:href="#NimbusSans-Regular-105"/>
      <use x="638.999863" xlink:href="#NimbusSans-Regular-99"/>
     </g>
    </g>
   </g>
  </g>
 </g>
 <defs>
  <clipPath id="p3b8e553c8a">
   <rect height="76.4" width="214.429977" x="44.348438" y="21.94875"/>
  </clipPath>
  <clipPath id="pa4b25b3b0e">
   <rect height="76.4" width="214.429977" x="309.953415" y="21.94875"/>
  </clipPath>
 </defs>
</svg>
