<?xml version="1.0" encoding="utf-8" standalone="no"?>
<!DOCTYPE svg PUBLIC "-//W3C//DTD SVG 1.1//EN"
  "http://www.w3.org/Graphics/SVG/1.1/DTD/svg11.dtd">
<!-- Created with matplotlib (https://matplotlib.org/) -->
<svg height="279.489375pt" version="1.1" viewBox="0 0 280.323438 279.489375" width="280.323438pt" xmlns="http://www.w3.org/2000/svg" xmlns:xlink="http://www.w3.org/1999/xlink">
 <metadata>
  <rdf:RDF xmlns:cc="http://creativecommons.org/ns#" xmlns:dc="http://purl.org/dc/elements/1.1/" xmlns:rdf="http://www.w3.org/1999/02/22-rdf-syntax-ns#">
   <cc:Work>
    <dc:type rdf:resource="http://purl.org/dc/dcmitype/StillImage"/>
    <dc:date>2020-08-26T15:14:39.775292</dc:date>
    <dc:format>image/svg+xml</dc:format>
    <dc:creator>
     <cc:Agent>
      <dc:title>Matplotlib v3.3.1, https://matplotlib.org/</dc:title>
     </cc:Agent>
    </dc:creator>
   </cc:Work>
  </rdf:RDF>
 </metadata>
 <defs>
  <style type="text/css">*{stroke-linecap:butt;stroke-linejoin:round;}</style>
 </defs>
 <g id="figure_1">
  <g id="patch_1">
   <path d="M 0 279.489375 
L 280.323438 279.489375 
L 280.323438 0 
L 0 0 
z
" style="fill:#ffffff;"/>
  </g>
  <g id="axes_1">
   <g id="patch_2">
    <path d="M 44.348438 111.24875 
L 273.123438 111.24875 
L 273.123438 21.94875 
L 44.348438 21.94875 
z
" style="fill:#ffffff;"/>
   </g>
   <g id="patch_3">
    <path clip-path="url(#pa57ba2f4b4)" d="M 54.747301 111.24875 
L 57.874779 111.24875 
L 57.874779 26.87602 
L 54.747301 26.87602 
z
"/>
   </g>
   <g id="patch_4">
    <path clip-path="url(#pa57ba2f4b4)" d="M 57.874779 111.24875 
L 61.002257 111.24875 
L 61.002257 78.781535 
L 57.874779 78.781535 
z
"/>
   </g>
   <g id="patch_5">
    <path clip-path="url(#pa57ba2f4b4)" d="M 61.002257 111.24875 
L 64.129734 111.24875 
L 64.129734 65.542477 
L 61.002257 65.542477 
z
"/>
   </g>
   <g id="patch_6">
    <path clip-path="url(#pa57ba2f4b4)" d="M 64.129734 111.24875 
L 67.257212 111.24875 
L 67.257212 68.48449 
L 64.129734 68.48449 
z
"/>
   </g>
   <g id="patch_7">
    <path clip-path="url(#pa57ba2f4b4)" d="M 67.257212 111.24875 
L 70.38469 111.24875 
L 70.38469 71.006215 
L 67.257212 71.006215 
z
"/>
   </g>
   <g id="patch_8">
    <path clip-path="url(#pa57ba2f4b4)" d="M 70.38469 111.24875 
L 73.512168 111.24875 
L 73.512168 77.310529 
L 70.38469 77.310529 
z
"/>
   </g>
   <g id="patch_9">
    <path clip-path="url(#pa57ba2f4b4)" d="M 73.512168 111.24875 
L 76.639646 111.24875 
L 76.639646 77.310529 
L 73.512168 77.310529 
z
"/>
   </g>
   <g id="patch_10">
    <path clip-path="url(#pa57ba2f4b4)" d="M 76.639646 111.24875 
L 79.767123 111.24875 
L 79.767123 86.136568 
L 76.639646 86.136568 
z
"/>
   </g>
   <g id="patch_11">
    <path clip-path="url(#pa57ba2f4b4)" d="M 79.767123 111.24875 
L 82.894601 111.24875 
L 82.894601 94.122031 
L 79.767123 94.122031 
z
"/>
   </g>
   <g id="patch_12">
    <path clip-path="url(#pa57ba2f4b4)" d="M 82.894601 111.24875 
L 86.022079 111.24875 
L 86.022079 93.806816 
L 82.894601 93.806816 
z
"/>
   </g>
   <g id="patch_13">
    <path clip-path="url(#pa57ba2f4b4)" d="M 86.022079 111.24875 
L 89.149557 111.24875 
L 89.149557 97.37926 
L 86.022079 97.37926 
z
"/>
   </g>
   <g id="patch_14">
    <path clip-path="url(#pa57ba2f4b4)" d="M 89.149557 111.24875 
L 92.277035 111.24875 
L 92.277035 100.951705 
L 89.149557 100.951705 
z
"/>
   </g>
   <g id="patch_15">
    <path clip-path="url(#pa57ba2f4b4)" d="M 92.277035 111.24875 
L 95.404512 111.24875 
L 95.404512 101.056776 
L 92.277035 101.056776 
z
"/>
   </g>
   <g id="patch_16">
    <path clip-path="url(#pa57ba2f4b4)" d="M 95.404512 111.24875 
L 98.53199 111.24875 
L 98.53199 100.111129 
L 95.404512 100.111129 
z
"/>
   </g>
   <g id="patch_17">
    <path clip-path="url(#pa57ba2f4b4)" d="M 98.53199 111.24875 
L 101.659468 111.24875 
L 101.659468 101.26692 
L 98.53199 101.26692 
z
"/>
   </g>
   <g id="patch_18">
    <path clip-path="url(#pa57ba2f4b4)" d="M 101.659468 111.24875 
L 104.786946 111.24875 
L 104.786946 101.26692 
L 101.659468 101.26692 
z
"/>
   </g>
   <g id="patch_19">
    <path clip-path="url(#pa57ba2f4b4)" d="M 104.786946 111.24875 
L 107.914423 111.24875 
L 107.914423 101.371992 
L 104.786946 101.371992 
z
"/>
   </g>
   <g id="patch_20">
    <path clip-path="url(#pa57ba2f4b4)" d="M 107.914423 111.24875 
L 111.041901 111.24875 
L 111.041901 99.795914 
L 107.914423 99.795914 
z
"/>
   </g>
   <g id="patch_21">
    <path clip-path="url(#pa57ba2f4b4)" d="M 111.041901 111.24875 
L 114.169379 111.24875 
L 114.169379 101.582136 
L 111.041901 101.582136 
z
"/>
   </g>
   <g id="patch_22">
    <path clip-path="url(#pa57ba2f4b4)" d="M 114.169379 111.24875 
L 117.296857 111.24875 
L 117.296857 101.897352 
L 114.169379 101.897352 
z
"/>
   </g>
   <g id="patch_23">
    <path clip-path="url(#pa57ba2f4b4)" d="M 117.296857 111.24875 
L 120.424335 111.24875 
L 120.424335 102.107495 
L 117.296857 102.107495 
z
"/>
   </g>
   <g id="patch_24">
    <path clip-path="url(#pa57ba2f4b4)" d="M 120.424335 111.24875 
L 123.551812 111.24875 
L 123.551812 102.527783 
L 120.424335 102.527783 
z
"/>
   </g>
   <g id="patch_25">
    <path clip-path="url(#pa57ba2f4b4)" d="M 123.551812 111.24875 
L 126.67929 111.24875 
L 126.67929 100.741561 
L 123.551812 100.741561 
z
"/>
   </g>
   <g id="patch_26">
    <path clip-path="url(#pa57ba2f4b4)" d="M 126.67929 111.24875 
L 129.806768 111.24875 
L 129.806768 103.368358 
L 126.67929 103.368358 
z
"/>
   </g>
   <g id="patch_27">
    <path clip-path="url(#pa57ba2f4b4)" d="M 129.806768 111.24875 
L 132.934246 111.24875 
L 132.934246 103.788646 
L 129.806768 103.788646 
z
"/>
   </g>
   <g id="patch_28">
    <path clip-path="url(#pa57ba2f4b4)" d="M 132.934246 111.24875 
L 136.061724 111.24875 
L 136.061724 104.944436 
L 132.934246 104.944436 
z
"/>
   </g>
   <g id="patch_29">
    <path clip-path="url(#pa57ba2f4b4)" d="M 136.061724 111.24875 
L 139.189201 111.24875 
L 139.189201 104.839365 
L 136.061724 104.839365 
z
"/>
   </g>
   <g id="patch_30">
    <path clip-path="url(#pa57ba2f4b4)" d="M 139.189201 111.24875 
L 142.316679 111.24875 
L 142.316679 104.944436 
L 139.189201 104.944436 
z
"/>
   </g>
   <g id="patch_31">
    <path clip-path="url(#pa57ba2f4b4)" d="M 142.316679 111.24875 
L 145.444157 111.24875 
L 145.444157 104.944436 
L 142.316679 104.944436 
z
"/>
   </g>
   <g id="patch_32">
    <path clip-path="url(#pa57ba2f4b4)" d="M 145.444157 111.24875 
L 148.571635 111.24875 
L 148.571635 107.676306 
L 145.444157 107.676306 
z
"/>
   </g>
   <g id="patch_33">
    <path clip-path="url(#pa57ba2f4b4)" d="M 148.571635 111.24875 
L 151.699112 111.24875 
L 151.699112 105.995155 
L 148.571635 105.995155 
z
"/>
   </g>
   <g id="patch_34">
    <path clip-path="url(#pa57ba2f4b4)" d="M 151.699112 111.24875 
L 154.82659 111.24875 
L 154.82659 106.940802 
L 151.699112 106.940802 
z
"/>
   </g>
   <g id="patch_35">
    <path clip-path="url(#pa57ba2f4b4)" d="M 154.82659 111.24875 
L 157.954068 111.24875 
L 157.954068 107.676306 
L 154.82659 107.676306 
z
"/>
   </g>
   <g id="patch_36">
    <path clip-path="url(#pa57ba2f4b4)" d="M 157.954068 111.24875 
L 161.081546 111.24875 
L 161.081546 107.256018 
L 157.954068 107.256018 
z
"/>
   </g>
   <g id="patch_37">
    <path clip-path="url(#pa57ba2f4b4)" d="M 161.081546 111.24875 
L 164.209024 111.24875 
L 164.209024 108.306737 
L 161.081546 108.306737 
z
"/>
   </g>
   <g id="patch_38">
    <path clip-path="url(#pa57ba2f4b4)" d="M 164.209024 111.24875 
L 167.336501 111.24875 
L 167.336501 108.832096 
L 164.209024 108.832096 
z
"/>
   </g>
   <g id="patch_39">
    <path clip-path="url(#pa57ba2f4b4)" d="M 167.336501 111.24875 
L 170.463979 111.24875 
L 170.463979 109.252384 
L 167.336501 109.252384 
z
"/>
   </g>
   <g id="patch_40">
    <path clip-path="url(#pa57ba2f4b4)" d="M 170.463979 111.24875 
L 173.591457 111.24875 
L 173.591457 109.357456 
L 170.463979 109.357456 
z
"/>
   </g>
   <g id="patch_41">
    <path clip-path="url(#pa57ba2f4b4)" d="M 173.591457 111.24875 
L 176.718935 111.24875 
L 176.718935 110.092959 
L 173.591457 110.092959 
z
"/>
   </g>
   <g id="patch_42">
    <path clip-path="url(#pa57ba2f4b4)" d="M 176.718935 111.24875 
L 179.846413 111.24875 
L 179.846413 110.513247 
L 176.718935 110.513247 
z
"/>
   </g>
   <g id="patch_43">
    <path clip-path="url(#pa57ba2f4b4)" d="M 179.846413 111.24875 
L 182.97389 111.24875 
L 182.97389 109.462528 
L 179.846413 109.462528 
z
"/>
   </g>
   <g id="patch_44">
    <path clip-path="url(#pa57ba2f4b4)" d="M 182.97389 111.24875 
L 186.101368 111.24875 
L 186.101368 110.408175 
L 182.97389 110.408175 
z
"/>
   </g>
   <g id="patch_45">
    <path clip-path="url(#pa57ba2f4b4)" d="M 186.101368 111.24875 
L 189.228846 111.24875 
L 189.228846 109.987887 
L 186.101368 109.987887 
z
"/>
   </g>
   <g id="patch_46">
    <path clip-path="url(#pa57ba2f4b4)" d="M 189.228846 111.24875 
L 192.356324 111.24875 
L 192.356324 110.513247 
L 189.228846 110.513247 
z
"/>
   </g>
   <g id="patch_47">
    <path clip-path="url(#pa57ba2f4b4)" d="M 192.356324 111.24875 
L 195.483801 111.24875 
L 195.483801 110.828462 
L 192.356324 110.828462 
z
"/>
   </g>
   <g id="patch_48">
    <path clip-path="url(#pa57ba2f4b4)" d="M 195.483801 111.24875 
L 198.611279 111.24875 
L 198.611279 110.092959 
L 195.483801 110.092959 
z
"/>
   </g>
   <g id="patch_49">
    <path clip-path="url(#pa57ba2f4b4)" d="M 198.611279 111.24875 
L 201.738757 111.24875 
L 201.738757 110.828462 
L 198.611279 110.828462 
z
"/>
   </g>
   <g id="patch_50">
    <path clip-path="url(#pa57ba2f4b4)" d="M 201.738757 111.24875 
L 204.866235 111.24875 
L 204.866235 111.038606 
L 201.738757 111.038606 
z
"/>
   </g>
   <g id="patch_51">
    <path clip-path="url(#pa57ba2f4b4)" d="M 204.866235 111.24875 
L 207.993713 111.24875 
L 207.993713 111.143678 
L 204.866235 111.143678 
z
"/>
   </g>
   <g id="patch_52">
    <path clip-path="url(#pa57ba2f4b4)" d="M 207.993713 111.24875 
L 211.12119 111.24875 
L 211.12119 110.933534 
L 207.993713 110.933534 
z
"/>
   </g>
   <g id="patch_53">
    <path clip-path="url(#pa57ba2f4b4)" d="M 211.12119 111.24875 
L 214.248668 111.24875 
L 214.248668 111.143678 
L 211.12119 111.143678 
z
"/>
   </g>
   <g id="patch_54">
    <path clip-path="url(#pa57ba2f4b4)" d="M 214.248668 111.24875 
L 217.376146 111.24875 
L 217.376146 111.143678 
L 214.248668 111.143678 
z
"/>
   </g>
   <g id="patch_55">
    <path clip-path="url(#pa57ba2f4b4)" d="M 217.376146 111.24875 
L 220.503624 111.24875 
L 220.503624 111.038606 
L 217.376146 111.038606 
z
"/>
   </g>
   <g id="patch_56">
    <path clip-path="url(#pa57ba2f4b4)" d="M 220.503624 111.24875 
L 223.631102 111.24875 
L 223.631102 111.143678 
L 220.503624 111.143678 
z
"/>
   </g>
   <g id="patch_57">
    <path clip-path="url(#pa57ba2f4b4)" d="M 223.631102 111.24875 
L 226.758579 111.24875 
L 226.758579 111.143678 
L 223.631102 111.143678 
z
"/>
   </g>
   <g id="patch_58">
    <path clip-path="url(#pa57ba2f4b4)" d="M 226.758579 111.24875 
L 229.886057 111.24875 
L 229.886057 111.143678 
L 226.758579 111.143678 
z
"/>
   </g>
   <g id="patch_59">
    <path clip-path="url(#pa57ba2f4b4)" d="M 229.886057 111.24875 
L 233.013535 111.24875 
L 233.013535 111.038606 
L 229.886057 111.038606 
z
"/>
   </g>
   <g id="patch_60">
    <path clip-path="url(#pa57ba2f4b4)" d="M 233.013535 111.24875 
L 236.141013 111.24875 
L 236.141013 111.24875 
L 233.013535 111.24875 
z
"/>
   </g>
   <g id="patch_61">
    <path clip-path="url(#pa57ba2f4b4)" d="M 236.141013 111.24875 
L 239.26849 111.24875 
L 239.26849 111.24875 
L 236.141013 111.24875 
z
"/>
   </g>
   <g id="patch_62">
    <path clip-path="url(#pa57ba2f4b4)" d="M 239.26849 111.24875 
L 242.395968 111.24875 
L 242.395968 111.24875 
L 239.26849 111.24875 
z
"/>
   </g>
   <g id="patch_63">
    <path clip-path="url(#pa57ba2f4b4)" d="M 242.395968 111.24875 
L 245.523446 111.24875 
L 245.523446 111.24875 
L 242.395968 111.24875 
z
"/>
   </g>
   <g id="patch_64">
    <path clip-path="url(#pa57ba2f4b4)" d="M 245.523446 111.24875 
L 248.650924 111.24875 
L 248.650924 111.24875 
L 245.523446 111.24875 
z
"/>
   </g>
   <g id="patch_65">
    <path clip-path="url(#pa57ba2f4b4)" d="M 248.650924 111.24875 
L 251.778402 111.24875 
L 251.778402 111.24875 
L 248.650924 111.24875 
z
"/>
   </g>
   <g id="patch_66">
    <path clip-path="url(#pa57ba2f4b4)" d="M 251.778402 111.24875 
L 254.905879 111.24875 
L 254.905879 111.24875 
L 251.778402 111.24875 
z
"/>
   </g>
   <g id="patch_67">
    <path clip-path="url(#pa57ba2f4b4)" d="M 254.905879 111.24875 
L 258.033357 111.24875 
L 258.033357 111.24875 
L 254.905879 111.24875 
z
"/>
   </g>
   <g id="patch_68">
    <path clip-path="url(#pa57ba2f4b4)" d="M 258.033357 111.24875 
L 261.160835 111.24875 
L 261.160835 111.143678 
L 258.033357 111.143678 
z
"/>
   </g>
   <g id="matplotlib.axis_1">
    <g id="xtick_1">
     <g id="line2d_1">
      <defs>
       <path d="M 0 0 
L 0 3.5 
" id="m7bc7249ce2" style="stroke:#000000;stroke-width:0.8;"/>
      </defs>
      <g>
       <use style="stroke:#000000;stroke-width:0.8;" x="54.747301" xlink:href="#m7bc7249ce2" y="111.24875"/>
      </g>
     </g>
     <g id="text_1">
      <!-- 0 -->
      <g transform="translate(51.967614 125.539375)scale(0.1 -0.1)">
       <defs>
        <path d="M 27.5 72.296875 
C 20.90625 72.296875 14.90625 69.296875 11.203125 64.40625 
C 6.59375 58 4.296875 48.40625 4.296875 35 
C 4.296875 10.59375 12.296875 -2.296875 27.5 -2.296875 
C 42.5 -2.296875 50.703125 10.59375 50.703125 34.40625 
C 50.703125 48.40625 48.5 57.796875 43.796875 64.40625 
C 40.09375 69.40625 34.203125 72.296875 27.5 72.296875 
z
M 27.5 64.5 
C 37 64.5 41.703125 54.796875 41.703125 35.203125 
C 41.703125 14.59375 37.09375 5 27.296875 5 
C 18 5 13.296875 15 13.296875 34.90625 
C 13.296875 54.796875 18 64.5 27.5 64.5 
z
" id="NimbusSans-Regular-48"/>
       </defs>
       <use xlink:href="#NimbusSans-Regular-48"/>
      </g>
     </g>
    </g>
    <g id="xtick_2">
     <g id="line2d_2">
      <g>
       <use style="stroke:#000000;stroke-width:0.8;" x="117.296857" xlink:href="#m7bc7249ce2" y="111.24875"/>
      </g>
     </g>
     <g id="text_2">
      <!-- 20 -->
      <g transform="translate(111.737482 125.539375)scale(0.1 -0.1)">
       <defs>
        <path d="M 50.59375 8.703125 
L 13.296875 8.703125 
C 14.203125 14.703125 17.40625 18.5 26.09375 23.796875 
L 36.09375 29.40625 
C 46 34.90625 51.09375 42.296875 51.09375 51.203125 
C 51.09375 57.203125 48.703125 62.796875 44.5 66.703125 
C 40.296875 70.5 35.09375 72.296875 28.40625 72.296875 
C 19.40625 72.296875 12.703125 69.09375 8.796875 62.90625 
C 6.296875 59.09375 5.203125 54.59375 5 47.296875 
L 13.796875 47.296875 
C 14.09375 52.203125 14.703125 55.09375 15.90625 57.5 
C 18.203125 61.90625 22.796875 64.59375 28.09375 64.59375 
C 36.09375 64.59375 42.09375 58.796875 42.09375 51 
C 42.09375 45.203125 38.796875 40.203125 32.5 36.59375 
L 23.296875 31.203125 
C 8.5 22.703125 4.203125 15.90625 3.40625 0.09375 
L 50.59375 0.09375 
z
" id="NimbusSans-Regular-50"/>
       </defs>
       <use xlink:href="#NimbusSans-Regular-50"/>
       <use x="55.599991" xlink:href="#NimbusSans-Regular-48"/>
      </g>
     </g>
    </g>
    <g id="xtick_3">
     <g id="line2d_3">
      <g>
       <use style="stroke:#000000;stroke-width:0.8;" x="179.846413" xlink:href="#m7bc7249ce2" y="111.24875"/>
      </g>
     </g>
     <g id="text_3">
      <!-- 40 -->
      <g transform="translate(174.287038 125.539375)scale(0.1 -0.1)">
       <defs>
        <path d="M 32.703125 17.5 
L 32.703125 0 
L 41.5 0 
L 41.5 17.5 
L 52 17.5 
L 52 25.40625 
L 41.5 25.40625 
L 41.5 72.296875 
L 35 72.296875 
L 2.796875 26.796875 
L 2.796875 17.5 
z
M 32.703125 25.40625 
L 10.5 25.40625 
L 32.703125 57.296875 
z
" id="NimbusSans-Regular-52"/>
       </defs>
       <use xlink:href="#NimbusSans-Regular-52"/>
       <use x="55.599991" xlink:href="#NimbusSans-Regular-48"/>
      </g>
     </g>
    </g>
    <g id="xtick_4">
     <g id="line2d_4">
      <g>
       <use style="stroke:#000000;stroke-width:0.8;" x="242.395968" xlink:href="#m7bc7249ce2" y="111.24875"/>
      </g>
     </g>
     <g id="text_4">
      <!-- 60 -->
      <g transform="translate(236.836593 125.539375)scale(0.1 -0.1)">
       <defs>
        <path d="M 49.796875 53.5 
C 48.09375 65.296875 40.5 72.296875 29.703125 72.296875 
C 21.90625 72.296875 14.90625 68.5 10.703125 62 
C 6.203125 54.90625 4.296875 46.09375 4.296875 33 
C 4.296875 20.796875 6 13.09375 10.296875 6.703125 
C 14.09375 0.796875 20.296875 -2.296875 28.09375 -2.296875 
C 41.59375 -2.296875 51.296875 7.796875 51.296875 21.90625 
C 51.296875 35.203125 42.296875 44.59375 29.59375 44.59375 
C 22.59375 44.59375 17.09375 42 13.296875 36.703125 
C 13.40625 54.59375 19 64.5 29.09375 64.5 
C 35.296875 64.5 39.59375 60.5 41 53.5 
z
M 28.5 36.796875 
C 37 36.796875 42.296875 30.796875 42.296875 21.203125 
C 42.296875 12.09375 36.296875 5.5 28.203125 5.5 
C 20 5.5 13.796875 12.40625 13.796875 21.59375 
C 13.796875 30.59375 19.796875 36.796875 28.5 36.796875 
z
" id="NimbusSans-Regular-54"/>
       </defs>
       <use xlink:href="#NimbusSans-Regular-54"/>
       <use x="55.599991" xlink:href="#NimbusSans-Regular-48"/>
      </g>
     </g>
    </g>
    <g id="text_5">
     <!-- Number of molecules -->
     <g transform="translate(111.503906 139.009688)scale(0.1 -0.1)">
      <defs>
       <path d="M 64.59375 72.90625 
L 55.796875 72.90625 
L 55.796875 13.296875 
L 17.703125 72.90625 
L 7.59375 72.90625 
L 7.59375 0 
L 16.40625 0 
L 16.40625 59.09375 
L 54.09375 0 
L 64.59375 0 
z
" id="NimbusSans-Regular-78"/>
       <path d="M 48.203125 0 
L 48.203125 52.40625 
L 39.90625 52.40625 
L 39.90625 22.703125 
C 39.90625 12 34.296875 5 25.59375 5 
C 19 5 14.796875 9 14.796875 15.296875 
L 14.796875 52.40625 
L 6.5 52.40625 
L 6.5 12 
C 6.5 3.296875 13 -2.296875 23.203125 -2.296875 
C 30.90625 -2.296875 35.796875 0.40625 40.703125 7.296875 
L 40.703125 0 
z
" id="NimbusSans-Regular-117"/>
       <path d="M 7 52.40625 
L 7 0 
L 15.40625 0 
L 15.40625 32.90625 
C 15.40625 40.5 20.90625 46.59375 27.703125 46.59375 
C 33.90625 46.59375 37.40625 42.796875 37.40625 36.09375 
L 37.40625 0 
L 45.796875 0 
L 45.796875 32.90625 
C 45.796875 40.5 51.296875 46.59375 58.09375 46.59375 
C 64.203125 46.59375 67.796875 42.703125 67.796875 36.09375 
L 67.796875 0 
L 76.203125 0 
L 76.203125 39.296875 
C 76.203125 48.703125 70.796875 53.90625 61 53.90625 
C 54 53.90625 49.796875 51.796875 44.90625 45.90625 
C 41.796875 51.5 37.59375 53.90625 30.796875 53.90625 
C 23.796875 53.90625 19.09375 51.296875 14.703125 45 
L 14.703125 52.40625 
z
" id="NimbusSans-Regular-109"/>
       <path d="M 5.40625 72.90625 
L 5.40625 0 
L 12.90625 0 
L 12.90625 6.703125 
C 16.90625 0.59375 22.203125 -2.296875 29.5 -2.296875 
C 43.296875 -2.296875 52.296875 9 52.296875 26.40625 
C 52.296875 43.40625 43.796875 53.90625 29.90625 53.90625 
C 22.703125 53.90625 17.59375 51.203125 13.703125 45.296875 
L 13.703125 72.90625 
z
M 28.296875 46.09375 
C 37.59375 46.09375 43.59375 38 43.59375 25.5 
C 43.59375 13.59375 37.40625 5.5 28.296875 5.5 
C 19.40625 5.5 13.703125 13.5 13.703125 25.796875 
C 13.703125 38.09375 19.40625 46.09375 28.296875 46.09375 
z
" id="NimbusSans-Regular-98"/>
       <path d="M 51.296875 23.40625 
C 51.296875 31.40625 50.703125 36.203125 49.203125 40.09375 
C 45.796875 48.703125 37.796875 53.90625 28 53.90625 
C 13.40625 53.90625 4 42.796875 4 25.5 
C 4 8.203125 13 -2.296875 27.796875 -2.296875 
C 39.796875 -2.296875 48.09375 4.5 50.203125 15.90625 
L 41.796875 15.90625 
C 39.5 9 34.796875 5.40625 28.09375 5.40625 
C 22.796875 5.40625 18.296875 7.796875 15.5 12.203125 
C 13.5 15.203125 12.796875 18.203125 12.703125 23.40625 
z
M 12.90625 30.203125 
C 13.59375 39.90625 19.5 46.203125 27.90625 46.203125 
C 36.40625 46.203125 42.296875 39.59375 42.296875 30.203125 
z
" id="NimbusSans-Regular-101"/>
       <path d="M 6.90625 52.40625 
L 6.90625 0 
L 15.296875 0 
L 15.296875 27.203125 
C 15.40625 39.796875 20.59375 45.40625 32.09375 45.09375 
L 32.09375 53.59375 
C 30.703125 53.796875 29.90625 53.90625 28.90625 53.90625 
C 23.5 53.90625 19.40625 50.703125 14.59375 42.90625 
L 14.59375 52.40625 
z
" id="NimbusSans-Regular-114"/>
       <path id="NimbusSans-Regular-32"/>
       <path d="M 27.203125 53.90625 
C 12.40625 53.90625 3.59375 43.40625 3.59375 25.796875 
C 3.59375 8.09375 12.40625 -2.296875 27.296875 -2.296875 
C 42.09375 -2.296875 51 8.203125 51 25.40625 
C 51 43.59375 42.40625 53.90625 27.203125 53.90625 
z
M 27.296875 46.203125 
C 36.703125 46.203125 42.296875 38.5 42.296875 25.5 
C 42.296875 13.09375 36.5 5.40625 27.296875 5.40625 
C 18 5.40625 12.296875 13.09375 12.296875 25.796875 
C 12.296875 38.5 18 46.203125 27.296875 46.203125 
z
" id="NimbusSans-Regular-111"/>
       <path d="M 25.796875 52.40625 
L 17.09375 52.40625 
L 17.09375 60.59375 
C 17.09375 64.09375 19 65.90625 22.90625 65.90625 
C 23.59375 65.90625 23.90625 65.90625 25.796875 65.796875 
L 25.796875 72.703125 
C 23.90625 73.09375 22.796875 73.203125 21.09375 73.203125 
C 13.40625 73.203125 8.796875 68.796875 8.796875 61.296875 
L 8.796875 52.40625 
L 1.796875 52.40625 
L 1.796875 45.59375 
L 8.796875 45.59375 
L 8.796875 0 
L 17.09375 0 
L 17.09375 45.59375 
L 25.796875 45.59375 
z
" id="NimbusSans-Regular-102"/>
       <path d="M 15.203125 72.90625 
L 6.796875 72.90625 
L 6.796875 0 
L 15.203125 0 
z
" id="NimbusSans-Regular-108"/>
       <path d="M 47.09375 34.796875 
C 46.703125 39.90625 45.59375 43.203125 43.59375 46.09375 
C 40 51 33.703125 53.90625 26.40625 53.90625 
C 12.203125 53.90625 3.09375 42.703125 3.09375 25.296875 
C 3.09375 8.40625 12.09375 -2.296875 26.296875 -2.296875 
C 38.796875 -2.296875 46.703125 5.203125 47.703125 18 
L 39.296875 18 
C 37.90625 9.59375 33.59375 5.40625 26.5 5.40625 
C 17.296875 5.40625 11.796875 12.90625 11.796875 25.296875 
C 11.796875 38.40625 17.203125 46.203125 26.296875 46.203125 
C 33.296875 46.203125 37.703125 42.09375 38.703125 34.796875 
z
" id="NimbusSans-Regular-99"/>
       <path d="M 43.796875 37.796875 
C 43.703125 48.09375 36.90625 53.90625 24.796875 53.90625 
C 12.59375 53.90625 4.703125 47.59375 4.703125 37.90625 
C 4.703125 29.703125 8.90625 25.796875 21.296875 22.796875 
L 29.09375 20.90625 
C 34.90625 19.5 37.203125 17.40625 37.203125 13.703125 
C 37.203125 8.703125 32.296875 5.40625 25 5.40625 
C 20.5 5.40625 16.703125 6.703125 14.59375 8.90625 
C 13.296875 10.40625 12.703125 11.90625 12.203125 15.59375 
L 3.40625 15.59375 
C 3.796875 3.5 10.59375 -2.296875 24.296875 -2.296875 
C 37.5 -2.296875 45.90625 4.203125 45.90625 14.296875 
C 45.90625 22.09375 41.5 26.40625 31.09375 28.90625 
L 23.09375 30.796875 
C 16.296875 32.40625 13.40625 34.59375 13.40625 38.296875 
C 13.40625 43.203125 17.703125 46.203125 24.5 46.203125 
C 31.203125 46.203125 34.796875 43.296875 35 37.796875 
z
" id="NimbusSans-Regular-115"/>
      </defs>
      <use xlink:href="#NimbusSans-Regular-78"/>
      <use x="72.199982" xlink:href="#NimbusSans-Regular-117"/>
      <use x="127.799973" xlink:href="#NimbusSans-Regular-109"/>
      <use x="211.09996" xlink:href="#NimbusSans-Regular-98"/>
      <use x="266.699951" xlink:href="#NimbusSans-Regular-101"/>
      <use x="322.299942" xlink:href="#NimbusSans-Regular-114"/>
      <use x="355.59993" xlink:href="#NimbusSans-Regular-32"/>
      <use x="383.399918" xlink:href="#NimbusSans-Regular-111"/>
      <use x="438.999908" xlink:href="#NimbusSans-Regular-102"/>
      <use x="466.799896" xlink:href="#NimbusSans-Regular-32"/>
      <use x="494.599884" xlink:href="#NimbusSans-Regular-109"/>
      <use x="577.899872" xlink:href="#NimbusSans-Regular-111"/>
      <use x="633.499863" xlink:href="#NimbusSans-Regular-108"/>
      <use x="655.69986" xlink:href="#NimbusSans-Regular-101"/>
      <use x="711.29985" xlink:href="#NimbusSans-Regular-99"/>
      <use x="761.299835" xlink:href="#NimbusSans-Regular-117"/>
      <use x="816.899826" xlink:href="#NimbusSans-Regular-108"/>
      <use x="839.099823" xlink:href="#NimbusSans-Regular-101"/>
      <use x="894.699814" xlink:href="#NimbusSans-Regular-115"/>
     </g>
    </g>
   </g>
   <g id="matplotlib.axis_2">
    <g id="ytick_1">
     <g id="line2d_5">
      <defs>
       <path d="M 0 0 
L -3.5 0 
" id="mbfc7fd9d4c" style="stroke:#000000;stroke-width:0.8;"/>
      </defs>
      <g>
       <use style="stroke:#000000;stroke-width:0.8;" x="44.348438" xlink:href="#mbfc7fd9d4c" y="111.24875"/>
      </g>
     </g>
     <g id="text_6">
      <!-- 0 -->
      <g transform="translate(31.789063 114.894062)scale(0.1 -0.1)">
       <use xlink:href="#NimbusSans-Regular-48"/>
      </g>
     </g>
    </g>
    <g id="ytick_2">
     <g id="line2d_6">
      <g>
       <use style="stroke:#000000;stroke-width:0.8;" x="44.348438" xlink:href="#mbfc7fd9d4c" y="84.980777"/>
      </g>
     </g>
     <g id="text_7">
      <!-- 250 -->
      <g transform="translate(20.670313 88.626089)scale(0.1 -0.1)">
       <defs>
        <path d="M 47.59375 70.90625 
L 11 70.90625 
L 5.703125 32.296875 
L 13.796875 32.296875 
C 17.90625 37.203125 21.296875 38.90625 26.90625 38.90625 
C 36.40625 38.90625 42.296875 32.40625 42.296875 21.90625 
C 42.296875 11.703125 36.40625 5.5 26.796875 5.5 
C 19.09375 5.5 14.40625 9.40625 12.296875 17.40625 
L 3.5 17.40625 
C 4.703125 11.59375 5.703125 8.796875 7.796875 6.203125 
C 11.796875 0.796875 19 -2.296875 27 -2.296875 
C 41.296875 -2.296875 51.296875 8.09375 51.296875 23.09375 
C 51.296875 37.09375 42 46.703125 28.40625 46.703125 
C 23.40625 46.703125 19.40625 45.40625 15.296875 42.40625 
L 18.09375 62.203125 
L 47.59375 62.203125 
z
" id="NimbusSans-Regular-53"/>
       </defs>
       <use xlink:href="#NimbusSans-Regular-50"/>
       <use x="55.599991" xlink:href="#NimbusSans-Regular-53"/>
       <use x="111.199982" xlink:href="#NimbusSans-Regular-48"/>
      </g>
     </g>
    </g>
    <g id="ytick_3">
     <g id="line2d_7">
      <g>
       <use style="stroke:#000000;stroke-width:0.8;" x="44.348438" xlink:href="#mbfc7fd9d4c" y="58.712804"/>
      </g>
     </g>
     <g id="text_8">
      <!-- 500 -->
      <g transform="translate(20.670313 62.358116)scale(0.1 -0.1)">
       <use xlink:href="#NimbusSans-Regular-53"/>
       <use x="55.599991" xlink:href="#NimbusSans-Regular-48"/>
       <use x="111.199982" xlink:href="#NimbusSans-Regular-48"/>
      </g>
     </g>
    </g>
    <g id="ytick_4">
     <g id="line2d_8">
      <g>
       <use style="stroke:#000000;stroke-width:0.8;" x="44.348438" xlink:href="#mbfc7fd9d4c" y="32.44483"/>
      </g>
     </g>
     <g id="text_9">
      <!-- 750 -->
      <g transform="translate(20.670313 36.090143)scale(0.1 -0.1)">
       <defs>
        <path d="M 52 70.90625 
L 4.59375 70.90625 
L 4.59375 62.203125 
L 42.90625 62.203125 
C 26 38.09375 19.09375 23.296875 13.796875 0 
L 23.203125 0 
C 27.09375 22.703125 36 42.203125 52 63.5 
z
" id="NimbusSans-Regular-55"/>
       </defs>
       <use xlink:href="#NimbusSans-Regular-55"/>
       <use x="55.599991" xlink:href="#NimbusSans-Regular-53"/>
       <use x="111.199982" xlink:href="#NimbusSans-Regular-48"/>
      </g>
     </g>
    </g>
    <g id="text_10">
     <!-- Number of cells -->
     <g transform="translate(14.490625 101.326875)rotate(-90)scale(0.1 -0.1)">
      <use xlink:href="#NimbusSans-Regular-78"/>
      <use x="72.199982" xlink:href="#NimbusSans-Regular-117"/>
      <use x="127.799973" xlink:href="#NimbusSans-Regular-109"/>
      <use x="211.09996" xlink:href="#NimbusSans-Regular-98"/>
      <use x="266.699951" xlink:href="#NimbusSans-Regular-101"/>
      <use x="322.299942" xlink:href="#NimbusSans-Regular-114"/>
      <use x="355.59993" xlink:href="#NimbusSans-Regular-32"/>
      <use x="383.399918" xlink:href="#NimbusSans-Regular-111"/>
      <use x="438.999908" xlink:href="#NimbusSans-Regular-102"/>
      <use x="466.799896" xlink:href="#NimbusSans-Regular-32"/>
      <use x="494.599884" xlink:href="#NimbusSans-Regular-99"/>
      <use x="544.599869" xlink:href="#NimbusSans-Regular-101"/>
      <use x="600.19986" xlink:href="#NimbusSans-Regular-108"/>
      <use x="622.399857" xlink:href="#NimbusSans-Regular-108"/>
      <use x="644.599854" xlink:href="#NimbusSans-Regular-115"/>
     </g>
    </g>
   </g>
   <g id="line2d_9">
    <path clip-path="url(#pa57ba2f4b4)" d="M 56.31104 44.005765 
L 59.438518 56.182549 
L 62.565996 63.921829 
L 65.693473 69.893803 
L 68.820951 74.790625 
L 71.948429 78.921187 
L 75.075907 82.462244 
L 78.203385 85.530026 
L 81.330862 88.207715 
L 84.45834 90.55818 
L 87.585818 92.63072 
L 90.713296 94.465003 
L 93.840773 96.093552 
L 96.968251 97.543414 
L 100.095729 98.837328 
L 103.223207 99.994583 
L 106.350685 101.031655 
L 109.478162 101.962702 
L 112.60564 102.799956 
L 115.733118 103.554028 
L 118.860596 104.23416 
L 121.988074 104.848428 
L 125.115551 105.403914 
L 128.243029 105.906842 
L 131.370507 106.362699 
L 134.497985 106.776333 
L 137.625462 107.152036 
L 140.75294 107.493616 
L 143.880418 107.804459 
L 147.007896 108.087579 
L 150.135374 108.345667 
L 153.262851 108.581124 
L 156.390329 108.796102 
L 159.517807 108.992527 
L 162.645285 109.172128 
L 165.772763 109.336459 
L 168.90024 109.486917 
L 172.027718 109.624762 
L 175.155196 109.751128 
L 178.282674 109.86704 
L 181.410151 109.973424 
L 184.537629 110.071117 
L 187.665107 110.160877 
L 190.792585 110.243392 
L 193.920063 110.319284 
L 197.04754 110.38912 
L 200.175018 110.453413 
L 203.302496 110.512631 
L 206.429974 110.567198 
L 209.557452 110.617502 
L 212.684929 110.663896 
L 215.812407 110.706701 
L 218.939885 110.746211 
L 222.067363 110.782694 
L 225.19484 110.816395 
L 228.322318 110.847537 
L 231.449796 110.876326 
L 234.577274 110.902949 
L 237.704752 110.927578 
L 240.832229 110.950369 
L 243.959707 110.971466 
L 247.087185 110.991003 
L 250.214663 111.0091 
L 253.342141 111.025869 
L 256.469618 111.041412 
L 259.597096 111.055822 
L 262.724574 111.069188 
" style="fill:none;stroke:#1b9e77;stroke-linecap:square;"/>
   </g>
   <g id="line2d_10">
    <path clip-path="url(#pa57ba2f4b4)" d="M 56.31104 26.581627 
L 59.438518 73.201361 
L 62.565996 73.178714 
L 65.693473 74.751324 
L 68.820951 76.988922 
L 71.948429 79.476244 
L 75.075907 82.004861 
L 78.203385 84.465462 
L 81.330862 86.801173 
L 84.45834 88.984499 
L 87.585818 91.004916 
L 90.713296 92.861805 
L 93.840773 94.560262 
L 96.968251 96.108558 
L 100.095729 97.516573 
L 103.223207 98.794822 
L 106.350685 99.953869 
L 109.478162 101.003958 
L 112.60564 101.954815 
L 115.733118 102.815534 
L 118.860596 103.594532 
L 121.988074 104.299544 
L 125.115551 104.937636 
L 128.243029 105.515243 
L 131.370507 106.0382 
L 134.497985 106.511796 
L 137.625462 106.94081 
L 140.75294 107.329559 
L 143.880418 107.681938 
L 147.007896 108.001459 
L 150.135374 108.29129 
L 153.262851 108.554285 
L 156.390329 108.793018 
L 159.517807 109.009807 
L 162.645285 109.206743 
L 165.772763 109.385711 
L 168.90024 109.548412 
L 172.027718 109.696378 
L 175.155196 109.830994 
L 178.282674 109.95351 
L 181.410151 110.065054 
L 184.537629 110.166644 
L 187.665107 110.259201 
L 190.792585 110.343559 
L 193.920063 110.420471 
L 197.04754 110.490617 
L 200.175018 110.554615 
L 203.302496 110.613023 
L 206.429974 110.666347 
L 209.557452 110.715045 
L 212.684929 110.759532 
L 215.812407 110.800186 
L 218.939885 110.837349 
L 222.067363 110.87133 
L 225.19484 110.902412 
L 228.322318 110.93085 
L 231.449796 110.956877 
L 234.577274 110.980705 
L 237.704752 111.002525 
L 240.832229 111.022512 
L 243.959707 111.040826 
L 247.087185 111.05761 
L 250.214663 111.072998 
L 253.342141 111.087108 
L 256.469618 111.100052 
L 259.597096 111.111927 
L 262.724574 111.122825 
" style="fill:none;stroke:#d95f02;stroke-linecap:square;"/>
   </g>
   <g id="line2d_11">
    <path clip-path="url(#pa57ba2f4b4)" d="M 56.31104 26.567216 
L 59.438518 73.117636 
L 62.565996 70.380343 
L 65.693473 70.928066 
L 68.820951 73.886778 
L 71.948429 78.076485 
L 75.075907 82.567969 
L 78.203385 86.77629 
L 81.330862 90.400592 
L 84.45834 93.336855 
L 87.585818 95.601208 
L 90.713296 97.274102 
L 93.840773 98.464104 
L 96.968251 99.28606 
L 100.095729 99.848486 
L 103.223207 100.246474 
L 106.350685 100.558033 
L 109.478162 100.84277 
L 112.60564 101.14234 
L 115.733118 101.482232 
L 118.860596 101.874427 
L 121.988074 102.320481 
L 125.115551 102.814629 
L 128.243029 103.346586 
L 131.370507 103.903862 
L 134.497985 104.473518 
L 137.625462 105.04338 
L 140.75294 105.602779 
L 143.880418 106.142923 
L 147.007896 106.657002 
L 150.135374 107.14011 
L 153.262851 107.589066 
L 156.390329 108.002174 
L 159.517807 108.378973 
L 162.645285 108.719984 
L 165.772763 109.026478 
L 168.90024 109.300275 
L 172.027718 109.543559 
L 175.155196 109.758737 
L 178.282674 109.948309 
L 181.410151 110.114781 
L 184.537629 110.260583 
L 187.665107 110.388026 
L 190.792585 110.499261 
L 193.920063 110.596262 
L 197.04754 110.680814 
L 200.175018 110.754516 
L 203.302496 110.818785 
L 206.429974 110.874865 
L 209.557452 110.923842 
L 212.684929 110.966656 
L 215.812407 111.004117 
L 218.939885 111.036922 
L 222.067363 111.065664 
L 225.19484 111.090852 
L 228.322318 111.11292 
L 231.449796 111.132242 
L 234.577274 111.149138 
L 237.704752 111.163885 
L 240.832229 111.176727 
L 243.959707 111.187879 
L 247.087185 111.197529 
L 250.214663 111.205848 
L 253.342141 111.212989 
L 256.469618 111.219092 
L 259.597096 111.224281 
L 262.724574 111.228671 
" style="fill:none;stroke:#7570b3;stroke-linecap:square;"/>
   </g>
   <g id="line2d_12">
    <path clip-path="url(#pa57ba2f4b4)" d="M 56.31104 26.201131 
L 59.438518 65.405143 
L 62.565996 68.26868 
L 65.693473 72.033914 
L 68.820951 76.32459 
L 71.948429 80.644821 
L 75.075907 84.630259 
L 78.203385 88.072877 
L 81.330862 90.900288 
L 84.45834 93.138844 
L 87.585818 94.873498 
L 90.713296 96.212684 
L 93.840773 97.263196 
L 96.968251 98.11613 
L 100.095729 98.841834 
L 103.223207 99.49059 
L 106.350685 100.09602 
L 109.478162 100.679169 
L 112.60564 101.252168 
L 115.733118 101.821089 
L 118.860596 102.388005 
L 121.988074 102.952399 
L 125.115551 103.51214 
L 128.243029 104.064158 
L 131.370507 104.604938 
L 134.497985 105.130891 
L 137.625462 105.638629 
L 140.75294 106.125154 
L 143.880418 106.587981 
L 147.007896 107.025201 
L 150.135374 107.435489 
L 153.262851 107.818081 
L 156.390329 108.172723 
L 159.517807 108.499608 
L 162.645285 108.799314 
L 165.772763 109.072725 
L 168.90024 109.320975 
L 172.027718 109.545381 
L 175.155196 109.74739 
L 178.282674 109.928527 
L 181.410151 110.090354 
L 184.537629 110.234431 
L 187.665107 110.362291 
L 190.792585 110.475416 
L 193.920063 110.575218 
L 197.04754 110.66303 
L 200.175018 110.7401 
L 203.302496 110.807586 
L 206.429974 110.866552 
L 209.557452 110.917977 
L 212.684929 110.962747 
L 215.812407 111.001667 
L 218.939885 111.035459 
L 222.067363 111.06477 
L 225.19484 111.090173 
L 228.322318 111.112178 
L 231.449796 111.13123 
L 234.577274 111.14772 
L 237.704752 111.161989 
L 240.832229 111.174333 
L 243.959707 111.185009 
L 247.087185 111.194237 
L 250.214663 111.202209 
L 253.342141 111.20909 
L 256.469618 111.215023 
L 259.597096 111.220131 
L 262.724574 111.224522 
" style="fill:none;stroke:#e7298a;stroke-linecap:square;"/>
   </g>
   <g id="line2d_13">
    <path clip-path="url(#pa57ba2f4b4)" d="M 56.31104 26.634497 
L 59.438518 76.443449 
L 62.565996 68.505447 
L 65.693473 67.819248 
L 68.820951 72.25924 
L 71.948429 78.059458 
L 75.075907 83.355204 
L 78.203385 87.679245 
L 81.330862 91.110777 
L 84.45834 93.80623 
L 87.585818 95.877228 
L 90.713296 97.409514 
L 93.840773 98.494103 
L 96.968251 99.234773 
L 100.095729 99.738629 
L 103.223207 100.103074 
L 106.350685 100.406758 
L 109.478162 100.706201 
L 112.60564 101.036872 
L 115.733118 101.416753 
L 118.860596 101.850765 
L 121.988074 102.334997 
L 125.115551 102.860243 
L 128.243029 103.414684 
L 131.370507 103.985776 
L 134.497985 104.561489 
L 137.625462 105.131066 
L 140.75294 105.68542 
L 143.880418 106.217287 
L 147.007896 106.721208 
L 150.135374 107.193395 
L 153.262851 107.631527 
L 156.390329 108.034525 
L 159.517807 108.402319 
L 162.645285 108.735633 
L 165.772763 109.035803 
L 168.90024 109.304606 
L 172.027718 109.544127 
L 175.155196 109.75664 
L 178.282674 109.944507 
L 181.410151 110.110089 
L 184.537629 110.255683 
L 187.665107 110.383463 
L 190.792585 110.495449 
L 193.920063 110.593482 
L 197.04754 110.679221 
L 200.175018 110.754144 
L 203.302496 110.819559 
L 206.429974 110.876622 
L 209.557452 110.926353 
L 212.684929 110.969651 
L 215.812407 111.007311 
L 218.939885 111.040037 
L 222.067363 111.068453 
L 225.19484 111.09311 
L 228.322318 111.114495 
L 231.449796 111.133035 
L 234.577274 111.149106 
L 237.704752 111.163035 
L 240.832229 111.175106 
L 243.959707 111.185566 
L 247.087185 111.194627 
L 250.214663 111.202473 
L 253.342141 111.209262 
L 256.469618 111.215129 
L 259.597096 111.220193 
L 262.724574 111.224557 
" style="fill:none;stroke:#66a61e;stroke-linecap:square;"/>
   </g>
   <g id="patch_69">
    <path d="M 44.348438 111.24875 
L 44.348438 21.94875 
" style="fill:none;stroke:#000000;stroke-linecap:square;stroke-linejoin:miter;stroke-width:0.8;"/>
   </g>
   <g id="patch_70">
    <path d="M 273.123438 111.24875 
L 273.123438 21.94875 
" style="fill:none;stroke:#000000;stroke-linecap:square;stroke-linejoin:miter;stroke-width:0.8;"/>
   </g>
   <g id="patch_71">
    <path d="M 44.348438 111.24875 
L 273.123438 111.24875 
" style="fill:none;stroke:#000000;stroke-linecap:square;stroke-linejoin:miter;stroke-width:0.8;"/>
   </g>
   <g id="patch_72">
    <path d="M 44.348438 21.94875 
L 273.123438 21.94875 
" style="fill:none;stroke:#000000;stroke-linecap:square;stroke-linejoin:miter;stroke-width:0.8;"/>
   </g>
   <g id="text_11">
    <!-- RPS4Y1 -->
    <g transform="translate(135.725938 15.94875)scale(0.12 -0.12)">
     <defs>
      <path d="M 18.59375 31.40625 
L 42.59375 31.40625 
C 50.90625 31.40625 54.59375 27.40625 54.59375 18.40625 
L 54.5 11.90625 
C 54.5 7.40625 55.296875 3 56.59375 0 
L 67.90625 0 
L 67.90625 2.296875 
C 64.40625 4.703125 63.703125 7.296875 63.5 17 
C 63.40625 29 61.5 32.59375 53.59375 36 
C 61.796875 40.09375 65.09375 45 65.09375 53.40625 
C 65.09375 66 57.296875 72.90625 42.90625 72.90625 
L 9.296875 72.90625 
L 9.296875 0 
L 18.59375 0 
z
M 18.59375 39.59375 
L 18.59375 64.703125 
L 41.09375 64.703125 
C 46.296875 64.703125 49.296875 63.90625 51.59375 61.90625 
C 54.09375 59.796875 55.40625 56.5 55.40625 52.203125 
C 55.40625 43.5 51 39.59375 41.09375 39.59375 
z
" id="NimbusSans-Regular-82"/>
      <path d="M 18.40625 30.90625 
L 41.296875 30.90625 
C 47 30.90625 51.5 32.59375 55.40625 36.09375 
C 59.796875 40.09375 61.703125 44.796875 61.703125 51.5 
C 61.703125 65.203125 53.59375 72.90625 39.203125 72.90625 
L 9.09375 72.90625 
L 9.09375 0 
L 18.40625 0 
z
M 18.40625 39.09375 
L 18.40625 64.703125 
L 37.796875 64.703125 
C 46.703125 64.703125 52 59.90625 52 51.90625 
C 52 43.90625 46.703125 39.09375 37.796875 39.09375 
z
" id="NimbusSans-Regular-80"/>
      <path d="M 59.59375 51.5 
C 59.59375 56.5 59.296875 57.90625 57.703125 61.296875 
C 53.703125 69.703125 45.203125 74.09375 32.90625 74.09375 
C 16.90625 74.09375 7 65.90625 7 52.703125 
C 7 43.796875 11.703125 38.203125 21.296875 35.703125 
L 39.40625 30.90625 
C 48.703125 28.5 52.796875 24.796875 52.796875 19.09375 
C 52.796875 15.203125 50.703125 11.203125 47.59375 9 
C 44.703125 6.90625 40.09375 5.90625 34.203125 5.90625 
C 26.203125 5.90625 20.90625 7.796875 17.40625 12 
C 14.703125 15.203125 13.5 18.703125 13.59375 23.203125 
L 4.796875 23.203125 
C 4.90625 16.5 6.203125 12.09375 9.09375 8.09375 
C 14.09375 1.203125 22.5 -2.296875 33.59375 -2.296875 
C 42.296875 -2.296875 49.40625 -0.296875 54.09375 3.296875 
C 59 7.203125 62.09375 13.703125 62.09375 20 
C 62.09375 29 56.5 35.59375 46.59375 38.296875 
L 28.296875 43.203125 
C 19.5 45.59375 16.296875 48.40625 16.296875 54 
C 16.296875 61.40625 22.796875 66.296875 32.59375 66.296875 
C 44.203125 66.296875 50.703125 61.09375 50.796875 51.5 
z
" id="NimbusSans-Regular-83"/>
      <path d="M 38.703125 28.59375 
L 66.09375 72.90625 
L 55 72.90625 
L 34.203125 37.40625 
L 12.796875 72.90625 
L 1.296875 72.90625 
L 29.40625 28.59375 
L 29.40625 0 
L 38.703125 0 
z
" id="NimbusSans-Regular-89"/>
      <path d="M 25.90625 51.5 
L 25.90625 0 
L 34.703125 0 
L 34.703125 72.296875 
L 28.90625 72.296875 
C 25.796875 61.203125 23.796875 59.703125 10.203125 57.90625 
L 10.203125 51.5 
z
" id="NimbusSans-Regular-49"/>
     </defs>
     <use xlink:href="#NimbusSans-Regular-82"/>
     <use x="72.199982" xlink:href="#NimbusSans-Regular-80"/>
     <use x="138.899979" xlink:href="#NimbusSans-Regular-83"/>
     <use x="205.599976" xlink:href="#NimbusSans-Regular-52"/>
     <use x="261.199966" xlink:href="#NimbusSans-Regular-89"/>
     <use x="327.899963" xlink:href="#NimbusSans-Regular-49"/>
    </g>
   </g>
   <g id="legend_1">
    <g id="line2d_14">
     <path d="M 193.895313 34.739375 
L 213.895313 34.739375 
" style="fill:none;stroke:#1b9e77;stroke-linecap:square;"/>
    </g>
    <g id="line2d_15"/>
    <g id="text_12">
     <!-- Gamma -->
     <g transform="translate(221.895313 38.239375)scale(0.1 -0.1)">
      <defs>
       <path d="M 70.90625 38.5 
L 40.5 38.5 
L 40.5 30.296875 
L 62.703125 30.296875 
L 62.703125 28.296875 
C 62.703125 15.296875 53.09375 5.90625 39.796875 5.90625 
C 32.40625 5.90625 25.703125 8.59375 21.40625 13.296875 
C 16.59375 18.5 13.703125 27.203125 13.703125 36.203125 
C 13.703125 54.09375 23.90625 65.90625 39.296875 65.90625 
C 50.40625 65.90625 58.40625 60.203125 60.40625 50.796875 
L 69.90625 50.796875 
C 67.296875 65.59375 56.09375 74.09375 39.40625 74.09375 
C 30.5 74.09375 23.296875 71.796875 17.59375 67.09375 
C 9.09375 60.09375 4.40625 48.796875 4.40625 35.703125 
C 4.40625 13.296875 18.09375 -2.296875 37.796875 -2.296875 
C 47.703125 -2.296875 55.5 1.40625 62.703125 9.296875 
L 65 -0.40625 
L 70.90625 -0.40625 
z
" id="NimbusSans-Regular-71"/>
       <path d="M 53.5 4.90625 
C 52.59375 4.703125 52.203125 4.703125 51.703125 4.703125 
C 48.796875 4.703125 47.203125 6.203125 47.203125 8.796875 
L 47.203125 39.59375 
C 47.203125 48.90625 40.40625 53.90625 27.5 53.90625 
C 19.796875 53.90625 13.703125 51.703125 10.09375 47.796875 
C 7.703125 45.09375 6.703125 42.09375 6.5 36.90625 
L 14.90625 36.90625 
C 15.59375 43.296875 19.40625 46.203125 27.203125 46.203125 
C 34.796875 46.203125 38.90625 43.40625 38.90625 38.40625 
L 38.90625 36.203125 
C 38.796875 32.59375 37 31.296875 30.203125 30.40625 
C 18.40625 28.90625 16.59375 28.5 13.40625 27.203125 
C 7.296875 24.59375 4.203125 20 4.203125 13.203125 
C 4.203125 3.703125 10.796875 -2.296875 21.40625 -2.296875 
C 28 -2.296875 33.296875 0 39.203125 5.40625 
C 39.796875 0 42.40625 -2.296875 47.796875 -2.296875 
C 49.59375 -2.296875 50.703125 -2.09375 53.5 -1.40625 
z
M 38.90625 16.5 
C 38.90625 13.703125 38.09375 12 35.59375 9.703125 
C 32.203125 6.59375 28.09375 5 23.203125 5 
C 16.703125 5 12.90625 8.09375 12.90625 13.40625 
C 12.90625 18.90625 16.5 21.703125 25.5 23 
C 34.40625 24.203125 36.09375 24.59375 38.90625 25.90625 
z
" id="NimbusSans-Regular-97"/>
      </defs>
      <use xlink:href="#NimbusSans-Regular-71"/>
      <use x="77.799988" xlink:href="#NimbusSans-Regular-97"/>
      <use x="133.399979" xlink:href="#NimbusSans-Regular-109"/>
      <use x="216.699966" xlink:href="#NimbusSans-Regular-109"/>
      <use x="299.999954" xlink:href="#NimbusSans-Regular-97"/>
     </g>
    </g>
    <g id="line2d_16">
     <path d="M 193.895313 49.209687 
L 213.895313 49.209687 
" style="fill:none;stroke:#d95f02;stroke-linecap:square;"/>
    </g>
    <g id="line2d_17"/>
    <g id="text_13">
     <!-- ZIG -->
     <g transform="translate(221.895313 52.709687)scale(0.1 -0.1)">
      <defs>
       <path d="M 58.09375 72.90625 
L 5.59375 72.90625 
L 5.59375 64.703125 
L 46.59375 64.703125 
L 2.796875 8.203125 
L 2.796875 0 
L 58.296875 0 
L 58.296875 8.203125 
L 14.5 8.203125 
L 58.09375 64.5 
z
" id="NimbusSans-Regular-90"/>
       <path d="M 19.40625 72.90625 
L 10 72.90625 
L 10 0 
L 19.40625 0 
z
" id="NimbusSans-Regular-73"/>
      </defs>
      <use xlink:href="#NimbusSans-Regular-90"/>
      <use x="61.099991" xlink:href="#NimbusSans-Regular-73"/>
      <use x="88.899979" xlink:href="#NimbusSans-Regular-71"/>
     </g>
    </g>
    <g id="line2d_18">
     <path d="M 193.895313 63.68 
L 213.895313 63.68 
" style="fill:none;stroke:#7570b3;stroke-linecap:square;"/>
    </g>
    <g id="line2d_19"/>
    <g id="text_14">
     <!-- ZIEF -->
     <g transform="translate(221.895313 67.18)scale(0.1 -0.1)">
      <defs>
       <path d="M 18.296875 33.203125 
L 58 33.203125 
L 58 41.40625 
L 18.296875 41.40625 
L 18.296875 64.703125 
L 59.5 64.703125 
L 59.5 72.90625 
L 9 72.90625 
L 9 0 
L 61.296875 0 
L 61.296875 8.203125 
L 18.296875 8.203125 
z
" id="NimbusSans-Regular-69"/>
       <path d="M 18.296875 33.203125 
L 53.09375 33.203125 
L 53.09375 41.40625 
L 18.296875 41.40625 
L 18.296875 64.703125 
L 57.90625 64.703125 
L 57.90625 72.90625 
L 9 72.90625 
L 9 0 
L 18.296875 0 
z
" id="NimbusSans-Regular-70"/>
      </defs>
      <use xlink:href="#NimbusSans-Regular-90"/>
      <use x="61.099991" xlink:href="#NimbusSans-Regular-73"/>
      <use x="88.899979" xlink:href="#NimbusSans-Regular-69"/>
      <use x="155.599976" xlink:href="#NimbusSans-Regular-70"/>
     </g>
    </g>
    <g id="line2d_20">
     <path d="M 193.895313 78.150312 
L 213.895313 78.150312 
" style="fill:none;stroke:#e7298a;stroke-linecap:square;"/>
    </g>
    <g id="line2d_21"/>
    <g id="text_15">
     <!-- Unimodal -->
     <g transform="translate(221.895313 81.650312)scale(0.1 -0.1)">
      <defs>
       <path d="M 55.203125 72.90625 
L 55.203125 21.703125 
C 55.203125 11.90625 48.09375 5.90625 36.40625 5.90625 
C 31 5.90625 26.59375 7.203125 23.09375 9.703125 
C 19.5 12.5 17.796875 16.203125 17.796875 21.703125 
L 17.796875 72.90625 
L 8.5 72.90625 
L 8.5 21.703125 
C 8.5 6.90625 19.09375 -2.296875 36.40625 -2.296875 
C 53.5 -2.296875 64.5 7.09375 64.5 21.703125 
L 64.5 72.90625 
z
" id="NimbusSans-Regular-85"/>
       <path d="M 7 52.40625 
L 7 0 
L 15.40625 0 
L 15.40625 28.90625 
C 15.40625 39.59375 21 46.59375 29.59375 46.59375 
C 36.203125 46.59375 40.40625 42.59375 40.40625 36.296875 
L 40.40625 0 
L 48.703125 0 
L 48.703125 39.59375 
C 48.703125 48.296875 42.203125 53.90625 32.09375 53.90625 
C 24.296875 53.90625 19.296875 50.90625 14.703125 43.59375 
L 14.703125 52.40625 
z
" id="NimbusSans-Regular-110"/>
       <path d="M 15 52.40625 
L 6.703125 52.40625 
L 6.703125 0 
L 15 0 
z
M 15 72.90625 
L 6.59375 72.90625 
L 6.59375 62.40625 
L 15 62.40625 
z
" id="NimbusSans-Regular-105"/>
       <path d="M 49.5 72.90625 
L 41.203125 72.90625 
L 41.203125 45.796875 
C 37.703125 51.09375 32.09375 53.90625 25.09375 53.90625 
C 11.5 53.90625 2.59375 43 2.59375 26.296875 
C 2.59375 8.59375 11.203125 -2.296875 25.40625 -2.296875 
C 32.59375 -2.296875 37.59375 0.40625 42.09375 6.90625 
L 42.09375 0 
L 49.5 0 
z
M 26.5 46.09375 
C 35.5 46.09375 41.203125 38.203125 41.203125 25.59375 
C 41.203125 13.5 35.40625 5.5 26.59375 5.5 
C 17.40625 5.5 11.296875 13.59375 11.296875 25.796875 
C 11.296875 38 17.40625 46.09375 26.5 46.09375 
z
" id="NimbusSans-Regular-100"/>
      </defs>
      <use xlink:href="#NimbusSans-Regular-85"/>
      <use x="72.199982" xlink:href="#NimbusSans-Regular-110"/>
      <use x="127.799973" xlink:href="#NimbusSans-Regular-105"/>
      <use x="149.999969" xlink:href="#NimbusSans-Regular-109"/>
      <use x="233.299957" xlink:href="#NimbusSans-Regular-111"/>
      <use x="288.899948" xlink:href="#NimbusSans-Regular-100"/>
      <use x="344.499939" xlink:href="#NimbusSans-Regular-97"/>
      <use x="400.09993" xlink:href="#NimbusSans-Regular-108"/>
     </g>
    </g>
    <g id="line2d_22">
     <path d="M 193.895313 92.620625 
L 213.895313 92.620625 
" style="fill:none;stroke:#66a61e;stroke-linecap:square;"/>
    </g>
    <g id="line2d_23"/>
    <g id="text_16">
     <!-- NPMLE -->
     <g transform="translate(221.895313 96.120625)scale(0.1 -0.1)">
      <defs>
       <path d="M 46.796875 0 
L 67.296875 61.09375 
L 67.296875 0 
L 76.09375 0 
L 76.09375 72.90625 
L 63.203125 72.90625 
L 42 9.40625 
L 20.40625 72.90625 
L 7.5 72.90625 
L 7.5 0 
L 16.296875 0 
L 16.296875 61.09375 
L 37 0 
z
" id="NimbusSans-Regular-77"/>
       <path d="M 17.296875 72.90625 
L 8 72.90625 
L 8 0 
L 53.296875 0 
L 53.296875 8.203125 
L 17.296875 8.203125 
z
" id="NimbusSans-Regular-76"/>
      </defs>
      <use xlink:href="#NimbusSans-Regular-78"/>
      <use x="72.199982" xlink:href="#NimbusSans-Regular-80"/>
      <use x="138.899979" xlink:href="#NimbusSans-Regular-77"/>
      <use x="222.199966" xlink:href="#NimbusSans-Regular-76"/>
      <use x="277.799957" xlink:href="#NimbusSans-Regular-69"/>
     </g>
    </g>
   </g>
  </g>
  <g id="axes_2">
   <g id="patch_73">
    <path d="M 44.348438 242.34875 
L 273.123438 242.34875 
L 273.123438 153.04875 
L 44.348438 153.04875 
z
" style="fill:#ffffff;"/>
   </g>
   <g id="matplotlib.axis_3">
    <g id="xtick_5">
     <g id="line2d_24">
      <g>
       <use style="stroke:#000000;stroke-width:0.8;" x="54.747301" xlink:href="#m7bc7249ce2" y="242.34875"/>
      </g>
     </g>
     <g id="text_17">
      <!-- 0.0000 -->
      <g transform="translate(39.45902 256.639375)scale(0.1 -0.1)">
       <defs>
        <path d="M 19.09375 10.40625 
L 8.703125 10.40625 
L 8.703125 0 
L 19.09375 0 
z
" id="NimbusSans-Regular-46"/>
       </defs>
       <use xlink:href="#NimbusSans-Regular-48"/>
       <use x="55.599991" xlink:href="#NimbusSans-Regular-46"/>
       <use x="83.399979" xlink:href="#NimbusSans-Regular-48"/>
       <use x="138.999969" xlink:href="#NimbusSans-Regular-48"/>
       <use x="194.59996" xlink:href="#NimbusSans-Regular-48"/>
       <use x="250.199951" xlink:href="#NimbusSans-Regular-48"/>
      </g>
     </g>
    </g>
    <g id="xtick_6">
     <g id="line2d_25">
      <g>
       <use style="stroke:#000000;stroke-width:0.8;" x="105.016353" xlink:href="#m7bc7249ce2" y="242.34875"/>
      </g>
     </g>
     <g id="text_18">
      <!-- 0.0001 -->
      <g transform="translate(89.728072 256.639375)scale(0.1 -0.1)">
       <use xlink:href="#NimbusSans-Regular-48"/>
       <use x="55.599991" xlink:href="#NimbusSans-Regular-46"/>
       <use x="83.399979" xlink:href="#NimbusSans-Regular-48"/>
       <use x="138.999969" xlink:href="#NimbusSans-Regular-48"/>
       <use x="194.59996" xlink:href="#NimbusSans-Regular-48"/>
       <use x="250.199951" xlink:href="#NimbusSans-Regular-49"/>
      </g>
     </g>
    </g>
    <g id="xtick_7">
     <g id="line2d_26">
      <g>
       <use style="stroke:#000000;stroke-width:0.8;" x="155.285405" xlink:href="#m7bc7249ce2" y="242.34875"/>
      </g>
     </g>
     <g id="text_19">
      <!-- 0.0002 -->
      <g transform="translate(139.997124 256.639375)scale(0.1 -0.1)">
       <use xlink:href="#NimbusSans-Regular-48"/>
       <use x="55.599991" xlink:href="#NimbusSans-Regular-46"/>
       <use x="83.399979" xlink:href="#NimbusSans-Regular-48"/>
       <use x="138.999969" xlink:href="#NimbusSans-Regular-48"/>
       <use x="194.59996" xlink:href="#NimbusSans-Regular-48"/>
       <use x="250.199951" xlink:href="#NimbusSans-Regular-50"/>
      </g>
     </g>
    </g>
    <g id="xtick_8">
     <g id="line2d_27">
      <g>
       <use style="stroke:#000000;stroke-width:0.8;" x="205.554458" xlink:href="#m7bc7249ce2" y="242.34875"/>
      </g>
     </g>
     <g id="text_20">
      <!-- 0.0003 -->
      <g transform="translate(190.266176 256.639375)scale(0.1 -0.1)">
       <defs>
        <path d="M 22.09375 33.296875 
L 23.203125 33.296875 
L 26.90625 33.296875 
C 36.5 33.296875 41.59375 28.796875 41.59375 20.09375 
C 41.59375 11 36.09375 5.5 27 5.5 
C 17.296875 5.5 12.59375 10.40625 12 21 
L 3.203125 21 
C 3.59375 15.203125 4.59375 11.40625 6.296875 8.203125 
C 10 1.203125 16.90625 -2.296875 26.59375 -2.296875 
C 41.203125 -2.296875 50.59375 6.5 50.59375 20.203125 
C 50.59375 29.40625 47.09375 34.40625 38.59375 37.40625 
C 45.203125 40.09375 48.5 45.09375 48.5 52.40625 
C 48.5 64.796875 40.40625 72.296875 26.90625 72.296875 
C 12.59375 72.296875 5 64.296875 4.703125 49 
L 13.5 49 
C 13.59375 53.40625 14 55.90625 15.09375 58.09375 
C 17.09375 62.203125 21.5 64.59375 27 64.59375 
C 34.796875 64.59375 39.5 59.90625 39.5 52.09375 
C 39.5 47 37.703125 43.90625 33.796875 42.203125 
C 31.40625 41.203125 28.203125 40.796875 22.09375 40.703125 
z
" id="NimbusSans-Regular-51"/>
       </defs>
       <use xlink:href="#NimbusSans-Regular-48"/>
       <use x="55.599991" xlink:href="#NimbusSans-Regular-46"/>
       <use x="83.399979" xlink:href="#NimbusSans-Regular-48"/>
       <use x="138.999969" xlink:href="#NimbusSans-Regular-48"/>
       <use x="194.59996" xlink:href="#NimbusSans-Regular-48"/>
       <use x="250.199951" xlink:href="#NimbusSans-Regular-51"/>
      </g>
     </g>
    </g>
    <g id="xtick_9">
     <g id="line2d_28">
      <g>
       <use style="stroke:#000000;stroke-width:0.8;" x="255.82351" xlink:href="#m7bc7249ce2" y="242.34875"/>
      </g>
     </g>
     <g id="text_21">
      <!-- 0.0004 -->
      <g transform="translate(240.535229 256.639375)scale(0.1 -0.1)">
       <use xlink:href="#NimbusSans-Regular-48"/>
       <use x="55.599991" xlink:href="#NimbusSans-Regular-46"/>
       <use x="83.399979" xlink:href="#NimbusSans-Regular-48"/>
       <use x="138.999969" xlink:href="#NimbusSans-Regular-48"/>
       <use x="194.59996" xlink:href="#NimbusSans-Regular-48"/>
       <use x="250.199951" xlink:href="#NimbusSans-Regular-52"/>
      </g>
     </g>
    </g>
    <g id="text_22">
     <!-- Latent gene expression -->
     <g transform="translate(106.765625 270.109688)scale(0.1 -0.1)">
      <defs>
       <path d="M 25.40625 52.40625 
L 16.796875 52.40625 
L 16.796875 66.796875 
L 8.5 66.796875 
L 8.5 52.40625 
L 1.40625 52.40625 
L 1.40625 45.59375 
L 8.5 45.59375 
L 8.5 6 
C 8.5 0.59375 12.09375 -2.296875 18.59375 -2.296875 
C 20.796875 -2.296875 22.59375 -2.09375 25.40625 -1.59375 
L 25.40625 5.40625 
C 24.203125 5.09375 23.09375 5 21.40625 5 
C 17.796875 5 16.796875 6 16.796875 9.703125 
L 16.796875 45.59375 
L 25.40625 45.59375 
z
" id="NimbusSans-Regular-116"/>
       <path d="M 40.40625 52.40625 
L 40.40625 44.796875 
C 36.203125 51.09375 31.59375 53.90625 25 53.90625 
C 12.296875 53.90625 3.5 42.09375 3.5 25.296875 
C 3.5 16.5 5.59375 10.09375 10.09375 4.796875 
C 14 0.203125 19 -2.296875 24.40625 -2.296875 
C 30.703125 -2.296875 35.203125 0.5 39.59375 7.09375 
L 39.59375 4.40625 
C 39.59375 -9.59375 35.703125 -14.796875 25.296875 -14.796875 
C 18.203125 -14.796875 14.5 -12 13.703125 -6 
L 5.203125 -6 
C 6 -15.703125 13.703125 -21.796875 25.09375 -21.796875 
C 32.796875 -21.796875 39.203125 -19.296875 42.59375 -15.09375 
C 46.59375 -10.203125 48.09375 -3.703125 48.09375 8.59375 
L 48.09375 52.40625 
z
M 25.796875 46.203125 
C 34.59375 46.203125 39.59375 38.796875 39.59375 25.5 
C 39.59375 12.796875 34.5 5.40625 25.796875 5.40625 
C 17.203125 5.40625 12.203125 12.90625 12.203125 25.796875 
C 12.203125 38.59375 17.203125 46.203125 25.796875 46.203125 
z
" id="NimbusSans-Regular-103"/>
       <path d="M 29.203125 27.09375 
L 46.796875 52.40625 
L 37.40625 52.40625 
L 24.796875 33.40625 
L 12.203125 52.40625 
L 2.703125 52.40625 
L 20.203125 26.703125 
L 1.703125 0 
L 11.203125 0 
L 24.5 20.09375 
L 37.59375 0 
L 47.296875 0 
z
" id="NimbusSans-Regular-120"/>
       <path d="M 5.40625 -21.796875 
L 13.796875 -21.796875 
L 13.796875 5.5 
C 18.203125 0.09375 23.09375 -2.296875 29.90625 -2.296875 
C 43.5 -2.296875 52.296875 8.59375 52.296875 25.296875 
C 52.296875 42.90625 43.703125 53.90625 29.796875 53.90625 
C 22.703125 53.90625 17 50.703125 13.09375 44.5 
L 13.09375 52.40625 
L 5.40625 52.40625 
z
M 28.40625 46.09375 
C 37.59375 46.09375 43.59375 38 43.59375 25.5 
C 43.59375 13.59375 37.5 5.5 28.40625 5.5 
C 19.5 5.5 13.796875 13.5 13.796875 25.796875 
C 13.796875 38.09375 19.5 46.09375 28.40625 46.09375 
z
" id="NimbusSans-Regular-112"/>
      </defs>
      <use xlink:href="#NimbusSans-Regular-76"/>
      <use x="55.599991" xlink:href="#NimbusSans-Regular-97"/>
      <use x="111.199982" xlink:href="#NimbusSans-Regular-116"/>
      <use x="138.999969" xlink:href="#NimbusSans-Regular-101"/>
      <use x="194.59996" xlink:href="#NimbusSans-Regular-110"/>
      <use x="250.199951" xlink:href="#NimbusSans-Regular-116"/>
      <use x="277.999939" xlink:href="#NimbusSans-Regular-32"/>
      <use x="305.799927" xlink:href="#NimbusSans-Regular-103"/>
      <use x="361.399918" xlink:href="#NimbusSans-Regular-101"/>
      <use x="416.999908" xlink:href="#NimbusSans-Regular-110"/>
      <use x="472.599899" xlink:href="#NimbusSans-Regular-101"/>
      <use x="528.19989" xlink:href="#NimbusSans-Regular-32"/>
      <use x="555.999878" xlink:href="#NimbusSans-Regular-101"/>
      <use x="611.599869" xlink:href="#NimbusSans-Regular-120"/>
      <use x="661.599854" xlink:href="#NimbusSans-Regular-112"/>
      <use x="717.199844" xlink:href="#NimbusSans-Regular-114"/>
      <use x="750.499832" xlink:href="#NimbusSans-Regular-101"/>
      <use x="806.099823" xlink:href="#NimbusSans-Regular-115"/>
      <use x="856.099808" xlink:href="#NimbusSans-Regular-115"/>
      <use x="906.099792" xlink:href="#NimbusSans-Regular-105"/>
      <use x="928.299789" xlink:href="#NimbusSans-Regular-111"/>
      <use x="983.89978" xlink:href="#NimbusSans-Regular-110"/>
     </g>
    </g>
   </g>
   <g id="matplotlib.axis_4">
    <g id="ytick_5">
     <g id="line2d_29">
      <g>
       <use style="stroke:#000000;stroke-width:0.8;" x="44.348438" xlink:href="#mbfc7fd9d4c" y="238.289659"/>
      </g>
     </g>
     <g id="text_23">
      <!-- 0.0 -->
      <g transform="translate(23.45 241.934972)scale(0.1 -0.1)">
       <use xlink:href="#NimbusSans-Regular-48"/>
       <use x="55.599991" xlink:href="#NimbusSans-Regular-46"/>
       <use x="83.399979" xlink:href="#NimbusSans-Regular-48"/>
      </g>
     </g>
    </g>
    <g id="ytick_6">
     <g id="line2d_30">
      <g>
       <use style="stroke:#000000;stroke-width:0.8;" x="44.348438" xlink:href="#mbfc7fd9d4c" y="197.69875"/>
      </g>
     </g>
     <g id="text_24">
      <!-- 0.5 -->
      <g transform="translate(23.45 201.344063)scale(0.1 -0.1)">
       <use xlink:href="#NimbusSans-Regular-48"/>
       <use x="55.599991" xlink:href="#NimbusSans-Regular-46"/>
       <use x="83.399979" xlink:href="#NimbusSans-Regular-53"/>
      </g>
     </g>
    </g>
    <g id="ytick_7">
     <g id="line2d_31">
      <g>
       <use style="stroke:#000000;stroke-width:0.8;" x="44.348438" xlink:href="#mbfc7fd9d4c" y="157.107841"/>
      </g>
     </g>
     <g id="text_25">
      <!-- 1.0 -->
      <g transform="translate(23.45 160.753153)scale(0.1 -0.1)">
       <use xlink:href="#NimbusSans-Regular-49"/>
       <use x="55.599991" xlink:href="#NimbusSans-Regular-46"/>
       <use x="83.399979" xlink:href="#NimbusSans-Regular-48"/>
      </g>
     </g>
    </g>
    <g id="text_26">
     <!-- CDF -->
     <g transform="translate(17.270313 207.97375)rotate(-90)scale(0.1 -0.1)">
      <defs>
       <path d="M 66.203125 50.296875 
C 63.296875 66.296875 54.09375 74.09375 38.09375 74.09375 
C 28.296875 74.09375 20.40625 71 15 65 
C 8.40625 57.796875 4.796875 47.40625 4.796875 35.59375 
C 4.796875 23.59375 8.5 13.296875 15.296875 6.203125 
C 21 0.40625 28.203125 -2.296875 37.703125 -2.296875 
C 55.5 -2.296875 65.5 7.296875 67.703125 26.59375 
L 58.09375 26.59375 
C 57.296875 21.59375 56.296875 18.203125 54.796875 15.296875 
C 51.796875 9.296875 45.59375 5.90625 37.796875 5.90625 
C 23.296875 5.90625 14.09375 17.5 14.09375 35.703125 
C 14.09375 54.40625 22.796875 65.90625 37 65.90625 
C 42.90625 65.90625 48.40625 64.203125 51.40625 61.296875 
C 54.09375 58.796875 55.59375 55.796875 56.703125 50.296875 
z
" id="NimbusSans-Regular-67"/>
       <path d="M 8.90625 0 
L 37 0 
C 55.40625 0 66.703125 13.796875 66.703125 36.5 
C 66.703125 59.09375 55.5 72.90625 37 72.90625 
L 8.90625 72.90625 
z
M 18.203125 8.203125 
L 18.203125 64.703125 
L 35.40625 64.703125 
C 49.796875 64.703125 57.40625 55 57.40625 36.40625 
C 57.40625 17.90625 49.796875 8.203125 35.40625 8.203125 
z
" id="NimbusSans-Regular-68"/>
      </defs>
      <use xlink:href="#NimbusSans-Regular-67"/>
      <use x="72.199982" xlink:href="#NimbusSans-Regular-68"/>
      <use x="144.399963" xlink:href="#NimbusSans-Regular-70"/>
     </g>
    </g>
   </g>
   <g id="line2d_32">
    <path clip-path="url(#p4e739a0519)" d="M 54.747301 238.289659 
L 55.580043 236.015499 
L 57.245527 232.204919 
L 59.535567 227.544418 
L 62.033792 222.947615 
L 64.740203 218.405903 
L 67.6548 213.935985 
L 70.777581 209.561785 
L 73.900363 205.562897 
L 77.231331 201.663289 
L 80.562298 198.100699 
L 84.101451 194.64607 
L 87.640604 191.497554 
L 91.387942 188.463754 
L 95.13528 185.707674 
L 99.090804 183.069417 
L 103.254513 180.562251 
L 107.626408 178.19634 
L 112.206488 175.978883 
L 116.994753 173.914295 
L 121.991204 172.004434 
L 127.195841 170.248855 
L 132.816848 168.587525 
L 138.854226 167.039044 
L 145.307975 165.616374 
L 152.386281 164.291348 
L 160.089143 163.08459 
L 168.416561 162.008514 
L 177.784907 161.029062 
L 188.19418 160.169747 
L 200.060751 159.418341 
L 213.800991 158.776329 
L 230.247642 158.23854 
L 250.441632 157.809603 
L 262.724574 157.633053 
L 262.724574 157.633053 
" style="fill:none;stroke:#1b9e77;stroke-linecap:square;"/>
   </g>
   <g id="line2d_33">
    <path clip-path="url(#p4e739a0519)" d="M 54.747301 231.248219 
L 55.371858 230.895132 
L 56.412785 229.999788 
L 58.078268 228.248124 
L 60.784679 225.017073 
L 66.405687 217.842623 
L 72.443065 210.281013 
L 77.023145 204.906144 
L 81.186854 200.358567 
L 85.142378 196.354102 
L 89.097902 192.657793 
L 93.053425 189.261663 
L 97.008949 186.15274 
L 100.964473 183.315186 
L 105.128182 180.602407 
L 109.291891 178.150272 
L 113.663786 175.833349 
L 118.243866 173.664396 
L 123.032131 171.652263 
L 128.028582 169.802065 
L 133.233219 168.115463 
L 138.854226 166.536669 
L 144.683419 165.131405 
L 150.928983 163.851587 
L 157.799103 162.673198 
L 165.293779 161.616838 
L 173.621198 160.672763 
L 182.989543 159.84156 
L 193.607002 159.128567 
L 206.098129 158.521729 
L 221.087482 158.02715 
L 239.824173 157.643237 
L 262.724574 157.383481 
L 262.724574 157.383481 
" style="fill:none;stroke:#d95f02;stroke-linecap:square;"/>
   </g>
   <g id="line2d_34">
    <path clip-path="url(#p4e739a0519)" d="M 54.747301 230.815723 
L 56.412785 228.592738 
L 59.327381 225.867756 
L 62.033792 222.782291 
L 64.740203 219.130839 
L 67.862985 214.274962 
L 71.610323 207.884212 
L 75.774032 200.853028 
L 78.064072 197.386679 
L 80.354112 194.390055 
L 83.060523 191.616002 
L 85.766934 189.58975 
L 88.473345 188.167939 
L 91.387942 187.130183 
L 94.510724 186.384795 
L 97.841691 185.838595 
L 101.797215 185.375037 
L 111.790117 184.258136 
L 115.74564 183.459256 
L 117.827495 182.853121 
L 120.32572 181.865549 
L 122.823946 180.506552 
L 125.530357 178.513748 
L 128.236768 175.983281 
L 132.608662 171.203183 
L 134.898703 168.806284 
L 136.147815 167.63414 
L 138.646041 165.607969 
L 141.352452 163.977692 
L 144.058863 162.84682 
L 146.973459 162.049015 
L 150.304426 161.478786 
L 153.843579 161.10012 
L 158.84003 160.778442 
L 174.662125 159.783093 
L 177.784907 159.382196 
L 181.532245 158.582851 
L 183.822285 157.866288 
L 185.90414 157.107841 
L 262.724574 157.107841 
L 262.724574 157.107841 
" style="fill:none;stroke:#7570b3;stroke-linecap:square;"/>
   </g>
   <g id="line2d_35">
    <path clip-path="url(#p4e739a0519)" d="M 54.747301 238.289659 
L 54.955487 232.739057 
L 80.770483 194.958268 
L 159.048216 159.977319 
L 203.391718 157.132855 
L 262.724574 157.107841 
L 262.724574 157.107841 
" style="fill:none;stroke:#e7298a;stroke-linecap:square;"/>
   </g>
   <g id="line2d_36">
    <path clip-path="url(#p4e739a0519)" d="M 54.747301 238.289659 
L 54.955487 228.32745 
L 65.572945 228.32745 
L 65.78113 208.275276 
L 78.480443 208.275276 
L 78.688629 207.868115 
L 78.896814 190.590263 
L 81.186854 190.590263 
L 81.39504 189.025129 
L 96.384393 189.025129 
L 96.592578 186.431081 
L 106.377295 186.431081 
L 106.58548 183.590316 
L 118.243866 183.590316 
L 118.452051 181.103205 
L 129.694066 181.103205 
L 129.902252 176.987326 
L 130.110437 165.986449 
L 154.884507 165.986449 
L 155.300877 158.867726 
L 190.276034 158.867726 
L 190.48422 157.138334 
L 262.724574 157.107841 
L 262.724574 157.107841 
" style="fill:none;stroke:#66a61e;stroke-linecap:square;"/>
   </g>
   <g id="patch_74">
    <path d="M 44.348438 242.34875 
L 44.348438 153.04875 
" style="fill:none;stroke:#000000;stroke-linecap:square;stroke-linejoin:miter;stroke-width:0.8;"/>
   </g>
   <g id="patch_75">
    <path d="M 273.123438 242.34875 
L 273.123438 153.04875 
" style="fill:none;stroke:#000000;stroke-linecap:square;stroke-linejoin:miter;stroke-width:0.8;"/>
   </g>
   <g id="patch_76">
    <path d="M 44.348438 242.34875 
L 273.123438 242.34875 
" style="fill:none;stroke:#000000;stroke-linecap:square;stroke-linejoin:miter;stroke-width:0.8;"/>
   </g>
   <g id="patch_77">
    <path d="M 44.348438 153.04875 
L 273.123438 153.04875 
" style="fill:none;stroke:#000000;stroke-linecap:square;stroke-linejoin:miter;stroke-width:0.8;"/>
   </g>
   <g id="legend_2">
    <g id="line2d_37">
     <path d="M 193.895313 169.787813 
L 213.895313 169.787813 
" style="fill:none;stroke:#1b9e77;stroke-linecap:square;"/>
    </g>
    <g id="line2d_38"/>
    <g id="text_27">
     <!-- Gamma -->
     <g transform="translate(221.895313 173.287813)scale(0.1 -0.1)">
      <use xlink:href="#NimbusSans-Regular-71"/>
      <use x="77.799988" xlink:href="#NimbusSans-Regular-97"/>
      <use x="133.399979" xlink:href="#NimbusSans-Regular-109"/>
      <use x="216.699966" xlink:href="#NimbusSans-Regular-109"/>
      <use x="299.999954" xlink:href="#NimbusSans-Regular-97"/>
     </g>
    </g>
    <g id="line2d_39">
     <path d="M 193.895313 184.258125 
L 213.895313 184.258125 
" style="fill:none;stroke:#d95f02;stroke-linecap:square;"/>
    </g>
    <g id="line2d_40"/>
    <g id="text_28">
     <!-- ZIG -->
     <g transform="translate(221.895313 187.758125)scale(0.1 -0.1)">
      <use xlink:href="#NimbusSans-Regular-90"/>
      <use x="61.099991" xlink:href="#NimbusSans-Regular-73"/>
      <use x="88.899979" xlink:href="#NimbusSans-Regular-71"/>
     </g>
    </g>
    <g id="line2d_41">
     <path d="M 193.895313 198.728438 
L 213.895313 198.728438 
" style="fill:none;stroke:#7570b3;stroke-linecap:square;"/>
    </g>
    <g id="line2d_42"/>
    <g id="text_29">
     <!-- ZIEF -->
     <g transform="translate(221.895313 202.228438)scale(0.1 -0.1)">
      <use xlink:href="#NimbusSans-Regular-90"/>
      <use x="61.099991" xlink:href="#NimbusSans-Regular-73"/>
      <use x="88.899979" xlink:href="#NimbusSans-Regular-69"/>
      <use x="155.599976" xlink:href="#NimbusSans-Regular-70"/>
     </g>
    </g>
    <g id="line2d_43">
     <path d="M 193.895313 213.19875 
L 213.895313 213.19875 
" style="fill:none;stroke:#e7298a;stroke-linecap:square;"/>
    </g>
    <g id="line2d_44"/>
    <g id="text_30">
     <!-- Unimodal -->
     <g transform="translate(221.895313 216.69875)scale(0.1 -0.1)">
      <use xlink:href="#NimbusSans-Regular-85"/>
      <use x="72.199982" xlink:href="#NimbusSans-Regular-110"/>
      <use x="127.799973" xlink:href="#NimbusSans-Regular-105"/>
      <use x="149.999969" xlink:href="#NimbusSans-Regular-109"/>
      <use x="233.299957" xlink:href="#NimbusSans-Regular-111"/>
      <use x="288.899948" xlink:href="#NimbusSans-Regular-100"/>
      <use x="344.499939" xlink:href="#NimbusSans-Regular-97"/>
      <use x="400.09993" xlink:href="#NimbusSans-Regular-108"/>
     </g>
    </g>
    <g id="line2d_45">
     <path d="M 193.895313 227.669062 
L 213.895313 227.669062 
" style="fill:none;stroke:#66a61e;stroke-linecap:square;"/>
    </g>
    <g id="line2d_46"/>
    <g id="text_31">
     <!-- NPMLE -->
     <g transform="translate(221.895313 231.169062)scale(0.1 -0.1)">
      <use xlink:href="#NimbusSans-Regular-78"/>
      <use x="72.199982" xlink:href="#NimbusSans-Regular-80"/>
      <use x="138.899979" xlink:href="#NimbusSans-Regular-77"/>
      <use x="222.199966" xlink:href="#NimbusSans-Regular-76"/>
      <use x="277.799957" xlink:href="#NimbusSans-Regular-69"/>
     </g>
    </g>
   </g>
  </g>
 </g>
 <defs>
  <clipPath id="pa57ba2f4b4">
   <rect height="89.3" width="228.775" x="44.348438" y="21.94875"/>
  </clipPath>
  <clipPath id="p4e739a0519">
   <rect height="89.3" width="228.775" x="44.348438" y="153.04875"/>
  </clipPath>
 </defs>
</svg>
