<?xml version="1.0" encoding="utf-8" standalone="no"?>
<!DOCTYPE svg PUBLIC "-//W3C//DTD SVG 1.1//EN"
  "http://www.w3.org/Graphics/SVG/1.1/DTD/svg11.dtd">
<!-- Created with matplotlib (https://matplotlib.org/) -->
<svg height="207.895625pt" version="1.1" viewBox="0 0 539.355417 207.895625" width="539.355417pt" xmlns="http://www.w3.org/2000/svg" xmlns:xlink="http://www.w3.org/1999/xlink">
 <metadata>
  <rdf:RDF xmlns:cc="http://creativecommons.org/ns#" xmlns:dc="http://purl.org/dc/elements/1.1/" xmlns:rdf="http://www.w3.org/1999/02/22-rdf-syntax-ns#">
   <cc:Work>
    <dc:type rdf:resource="http://purl.org/dc/dcmitype/StillImage"/>
    <dc:date>2020-09-12T14:53:08.022988</dc:date>
    <dc:format>image/svg+xml</dc:format>
    <dc:creator>
     <cc:Agent>
      <dc:title>Matplotlib v3.3.1, https://matplotlib.org/</dc:title>
     </cc:Agent>
    </dc:creator>
   </cc:Work>
  </rdf:RDF>
 </metadata>
 <defs>
  <style type="text/css">*{stroke-linecap:butt;stroke-linejoin:round;}</style>
 </defs>
 <g id="figure_1">
  <g id="patch_1">
   <path d="M 0 207.895625 
L 539.355417 207.895625 
L 539.355417 0 
L 0 0 
z
" style="fill:#ffffff;"/>
  </g>
  <g id="axes_1">
   <g id="patch_2">
    <path d="M 58.08625 124.09875 
L 186.902917 124.09875 
L 186.902917 21.94875 
L 58.08625 21.94875 
z
" style="fill:#ffffff;"/>
   </g>
   <g id="patch_3">
    <path clip-path="url(#p43fd41196d)" d="M 63.941553 124.09875 
L 73.501231 124.09875 
L 73.501231 72.366222 
L 63.941553 72.366222 
z
"/>
   </g>
   <g id="patch_4">
    <path clip-path="url(#p43fd41196d)" d="M 75.891151 124.09875 
L 85.450829 124.09875 
L 85.450829 64.473578 
L 75.891151 64.473578 
z
"/>
   </g>
   <g id="patch_5">
    <path clip-path="url(#p43fd41196d)" d="M 87.840749 124.09875 
L 97.400427 124.09875 
L 97.400427 114.865146 
L 87.840749 114.865146 
z
"/>
   </g>
   <g id="patch_6">
    <path clip-path="url(#p43fd41196d)" d="M 99.790347 124.09875 
L 109.350026 124.09875 
L 109.350026 26.813036 
L 99.790347 26.813036 
z
"/>
   </g>
   <g id="patch_7">
    <path clip-path="url(#p43fd41196d)" d="M 111.739945 124.09875 
L 121.299624 124.09875 
L 121.299624 31.927998 
L 111.739945 31.927998 
z
"/>
   </g>
   <g id="patch_8">
    <path clip-path="url(#p43fd41196d)" d="M 123.689543 124.09875 
L 133.249222 124.09875 
L 133.249222 80.82122 
L 123.689543 80.82122 
z
"/>
   </g>
   <g id="patch_9">
    <path clip-path="url(#p43fd41196d)" d="M 135.639141 124.09875 
L 145.19882 124.09875 
L 145.19882 113.502924 
L 135.639141 113.502924 
z
"/>
   </g>
   <g id="patch_10">
    <path clip-path="url(#p43fd41196d)" d="M 147.588739 124.09875 
L 157.148418 124.09875 
L 157.148418 65.616101 
L 147.588739 65.616101 
z
"/>
   </g>
   <g id="patch_11">
    <path clip-path="url(#p43fd41196d)" d="M 159.538337 124.09875 
L 169.098016 124.09875 
L 169.098016 53.378712 
L 159.538337 53.378712 
z
"/>
   </g>
   <g id="patch_12">
    <path clip-path="url(#p43fd41196d)" d="M 171.487935 124.09875 
L 181.047614 124.09875 
L 181.047614 75.887685 
L 171.487935 75.887685 
z
"/>
   </g>
   <g id="matplotlib.axis_1">
    <g id="xtick_1">
     <g id="line2d_1">
      <defs>
       <path d="M 0 0 
L 0 3.5 
" id="m497fd03515" style="stroke:#000000;stroke-width:0.8;"/>
      </defs>
      <g>
       <use style="stroke:#000000;stroke-width:0.8;" x="68.721392" xlink:href="#m497fd03515" y="124.09875"/>
      </g>
     </g>
     <g id="text_1">
      <!-- B cell -->
      <g transform="translate(71.276861 155.54875)rotate(-90)scale(0.1 -0.1)">
       <defs>
        <path d="M 7.90625 0 
L 40.796875 0 
C 47.703125 0 52.796875 1.90625 56.703125 6.09375 
C 60.296875 9.90625 62.296875 15.09375 62.296875 20.796875 
C 62.296875 29.59375 58.296875 34.90625 49 38.5 
C 55.703125 41.59375 59.09375 46.90625 59.09375 54.40625 
C 59.09375 59.796875 57.09375 64.40625 53.296875 67.796875 
C 49.40625 71.296875 44.5 72.90625 37.5 72.90625 
L 7.90625 72.90625 
z
M 17.203125 41.5 
L 17.203125 64.703125 
L 35.203125 64.703125 
C 40.40625 64.703125 43.296875 64 45.796875 62.09375 
C 48.40625 60.09375 49.796875 57.09375 49.796875 53.09375 
C 49.796875 49.09375 48.40625 46.09375 45.796875 44.09375 
C 43.296875 42.203125 40.40625 41.5 35.203125 41.5 
z
M 17.203125 8.203125 
L 17.203125 33.296875 
L 39.90625 33.296875 
C 48.09375 33.296875 53 28.59375 53 20.703125 
C 53 12.90625 48.09375 8.203125 39.90625 8.203125 
z
" id="NimbusSans-Regular-66"/>
        <path id="NimbusSans-Regular-32"/>
        <path d="M 47.09375 34.796875 
C 46.703125 39.90625 45.59375 43.203125 43.59375 46.09375 
C 40 51 33.703125 53.90625 26.40625 53.90625 
C 12.203125 53.90625 3.09375 42.703125 3.09375 25.296875 
C 3.09375 8.40625 12.09375 -2.296875 26.296875 -2.296875 
C 38.796875 -2.296875 46.703125 5.203125 47.703125 18 
L 39.296875 18 
C 37.90625 9.59375 33.59375 5.40625 26.5 5.40625 
C 17.296875 5.40625 11.796875 12.90625 11.796875 25.296875 
C 11.796875 38.40625 17.203125 46.203125 26.296875 46.203125 
C 33.296875 46.203125 37.703125 42.09375 38.703125 34.796875 
z
" id="NimbusSans-Regular-99"/>
        <path d="M 51.296875 23.40625 
C 51.296875 31.40625 50.703125 36.203125 49.203125 40.09375 
C 45.796875 48.703125 37.796875 53.90625 28 53.90625 
C 13.40625 53.90625 4 42.796875 4 25.5 
C 4 8.203125 13 -2.296875 27.796875 -2.296875 
C 39.796875 -2.296875 48.09375 4.5 50.203125 15.90625 
L 41.796875 15.90625 
C 39.5 9 34.796875 5.40625 28.09375 5.40625 
C 22.796875 5.40625 18.296875 7.796875 15.5 12.203125 
C 13.5 15.203125 12.796875 18.203125 12.703125 23.40625 
z
M 12.90625 30.203125 
C 13.59375 39.90625 19.5 46.203125 27.90625 46.203125 
C 36.40625 46.203125 42.296875 39.59375 42.296875 30.203125 
z
" id="NimbusSans-Regular-101"/>
        <path d="M 15.203125 72.90625 
L 6.796875 72.90625 
L 6.796875 0 
L 15.203125 0 
z
" id="NimbusSans-Regular-108"/>
       </defs>
       <use xlink:href="#NimbusSans-Regular-66"/>
       <use x="66.699997" xlink:href="#NimbusSans-Regular-32"/>
       <use x="94.499985" xlink:href="#NimbusSans-Regular-99"/>
       <use x="144.499969" xlink:href="#NimbusSans-Regular-101"/>
       <use x="200.09996" xlink:href="#NimbusSans-Regular-108"/>
       <use x="222.299957" xlink:href="#NimbusSans-Regular-108"/>
      </g>
     </g>
    </g>
    <g id="xtick_2">
     <g id="line2d_2">
      <g>
       <use style="stroke:#000000;stroke-width:0.8;" x="80.67099" xlink:href="#m497fd03515" y="124.09875"/>
      </g>
     </g>
     <g id="text_2">
      <!-- T cell -->
      <g transform="translate(83.226459 154.987812)rotate(-90)scale(0.1 -0.1)">
       <defs>
        <path d="M 35.40625 64.703125 
L 59.296875 64.703125 
L 59.296875 72.90625 
L 2.09375 72.90625 
L 2.09375 64.703125 
L 26.09375 64.703125 
L 26.09375 0 
L 35.40625 0 
z
" id="NimbusSans-Regular-84"/>
       </defs>
       <use xlink:href="#NimbusSans-Regular-84"/>
       <use x="61.099991" xlink:href="#NimbusSans-Regular-32"/>
       <use x="88.899979" xlink:href="#NimbusSans-Regular-99"/>
       <use x="138.899963" xlink:href="#NimbusSans-Regular-101"/>
       <use x="194.499954" xlink:href="#NimbusSans-Regular-108"/>
       <use x="216.699951" xlink:href="#NimbusSans-Regular-108"/>
      </g>
     </g>
    </g>
    <g id="xtick_3">
     <g id="line2d_3">
      <g>
       <use style="stroke:#000000;stroke-width:0.8;" x="92.620588" xlink:href="#m497fd03515" y="124.09875"/>
      </g>
     </g>
     <g id="text_3">
      <!-- iPSC -->
      <g transform="translate(95.176057 153.88)rotate(-90)scale(0.1 -0.1)">
       <defs>
        <path d="M 15 52.40625 
L 6.703125 52.40625 
L 6.703125 0 
L 15 0 
z
M 15 72.90625 
L 6.59375 72.90625 
L 6.59375 62.40625 
L 15 62.40625 
z
" id="NimbusSans-Regular-105"/>
        <path d="M 18.40625 30.90625 
L 41.296875 30.90625 
C 47 30.90625 51.5 32.59375 55.40625 36.09375 
C 59.796875 40.09375 61.703125 44.796875 61.703125 51.5 
C 61.703125 65.203125 53.59375 72.90625 39.203125 72.90625 
L 9.09375 72.90625 
L 9.09375 0 
L 18.40625 0 
z
M 18.40625 39.09375 
L 18.40625 64.703125 
L 37.796875 64.703125 
C 46.703125 64.703125 52 59.90625 52 51.90625 
C 52 43.90625 46.703125 39.09375 37.796875 39.09375 
z
" id="NimbusSans-Regular-80"/>
        <path d="M 59.59375 51.5 
C 59.59375 56.5 59.296875 57.90625 57.703125 61.296875 
C 53.703125 69.703125 45.203125 74.09375 32.90625 74.09375 
C 16.90625 74.09375 7 65.90625 7 52.703125 
C 7 43.796875 11.703125 38.203125 21.296875 35.703125 
L 39.40625 30.90625 
C 48.703125 28.5 52.796875 24.796875 52.796875 19.09375 
C 52.796875 15.203125 50.703125 11.203125 47.59375 9 
C 44.703125 6.90625 40.09375 5.90625 34.203125 5.90625 
C 26.203125 5.90625 20.90625 7.796875 17.40625 12 
C 14.703125 15.203125 13.5 18.703125 13.59375 23.203125 
L 4.796875 23.203125 
C 4.90625 16.5 6.203125 12.09375 9.09375 8.09375 
C 14.09375 1.203125 22.5 -2.296875 33.59375 -2.296875 
C 42.296875 -2.296875 49.40625 -0.296875 54.09375 3.296875 
C 59 7.203125 62.09375 13.703125 62.09375 20 
C 62.09375 29 56.5 35.59375 46.59375 38.296875 
L 28.296875 43.203125 
C 19.5 45.59375 16.296875 48.40625 16.296875 54 
C 16.296875 61.40625 22.796875 66.296875 32.59375 66.296875 
C 44.203125 66.296875 50.703125 61.09375 50.796875 51.5 
z
" id="NimbusSans-Regular-83"/>
        <path d="M 66.203125 50.296875 
C 63.296875 66.296875 54.09375 74.09375 38.09375 74.09375 
C 28.296875 74.09375 20.40625 71 15 65 
C 8.40625 57.796875 4.796875 47.40625 4.796875 35.59375 
C 4.796875 23.59375 8.5 13.296875 15.296875 6.203125 
C 21 0.40625 28.203125 -2.296875 37.703125 -2.296875 
C 55.5 -2.296875 65.5 7.296875 67.703125 26.59375 
L 58.09375 26.59375 
C 57.296875 21.59375 56.296875 18.203125 54.796875 15.296875 
C 51.796875 9.296875 45.59375 5.90625 37.796875 5.90625 
C 23.296875 5.90625 14.09375 17.5 14.09375 35.703125 
C 14.09375 54.40625 22.796875 65.90625 37 65.90625 
C 42.90625 65.90625 48.40625 64.203125 51.40625 61.296875 
C 54.09375 58.796875 55.59375 55.796875 56.703125 50.296875 
z
" id="NimbusSans-Regular-67"/>
       </defs>
       <use xlink:href="#NimbusSans-Regular-105"/>
       <use x="22.199997" xlink:href="#NimbusSans-Regular-80"/>
       <use x="88.899994" xlink:href="#NimbusSans-Regular-83"/>
       <use x="155.599991" xlink:href="#NimbusSans-Regular-67"/>
      </g>
     </g>
    </g>
    <g id="xtick_4">
     <g id="line2d_4">
      <g>
       <use style="stroke:#000000;stroke-width:0.8;" x="104.570186" xlink:href="#m497fd03515" y="124.09875"/>
      </g>
     </g>
     <g id="text_4">
      <!-- T cell/B cell -->
      <g transform="translate(107.125655 182.2175)rotate(-90)scale(0.1 -0.1)">
       <defs>
        <path d="M 22.90625 72.90625 
L -0.796875 -2 
L 4.703125 -2 
L 28.40625 72.90625 
z
" id="NimbusSans-Regular-47"/>
       </defs>
       <use xlink:href="#NimbusSans-Regular-84"/>
       <use x="61.099991" xlink:href="#NimbusSans-Regular-32"/>
       <use x="88.899979" xlink:href="#NimbusSans-Regular-99"/>
       <use x="138.899963" xlink:href="#NimbusSans-Regular-101"/>
       <use x="194.499954" xlink:href="#NimbusSans-Regular-108"/>
       <use x="216.699951" xlink:href="#NimbusSans-Regular-108"/>
       <use x="238.899948" xlink:href="#NimbusSans-Regular-47"/>
       <use x="266.699936" xlink:href="#NimbusSans-Regular-66"/>
       <use x="333.399933" xlink:href="#NimbusSans-Regular-32"/>
       <use x="361.199921" xlink:href="#NimbusSans-Regular-99"/>
       <use x="411.199905" xlink:href="#NimbusSans-Regular-101"/>
       <use x="466.799896" xlink:href="#NimbusSans-Regular-108"/>
       <use x="488.999893" xlink:href="#NimbusSans-Regular-108"/>
      </g>
     </g>
    </g>
    <g id="xtick_5">
     <g id="line2d_5">
      <g>
       <use style="stroke:#000000;stroke-width:0.8;" x="116.519784" xlink:href="#m497fd03515" y="124.09875"/>
      </g>
     </g>
     <g id="text_5">
      <!-- Cyto/naive T -->
      <g transform="translate(119.134628 187.225313)rotate(-90)scale(0.1 -0.1)">
       <defs>
        <path d="M 38.796875 52.40625 
L 24.296875 11.59375 
L 10.90625 52.40625 
L 2 52.40625 
L 19.703125 -0.203125 
L 16.5 -8.5 
C 15.09375 -12.203125 13.296875 -13.59375 9.796875 -13.59375 
C 8.40625 -13.59375 7.203125 -13.40625 5.40625 -13 
L 5.40625 -20.5 
C 7.09375 -21.40625 8.796875 -21.796875 11 -21.796875 
C 13.703125 -21.796875 16.59375 -20.90625 18.796875 -19.296875 
C 21.40625 -17.40625 22.90625 -15.203125 24.5 -11 
L 47.796875 52.40625 
z
" id="NimbusSans-Regular-121"/>
        <path d="M 25.40625 52.40625 
L 16.796875 52.40625 
L 16.796875 66.796875 
L 8.5 66.796875 
L 8.5 52.40625 
L 1.40625 52.40625 
L 1.40625 45.59375 
L 8.5 45.59375 
L 8.5 6 
C 8.5 0.59375 12.09375 -2.296875 18.59375 -2.296875 
C 20.796875 -2.296875 22.59375 -2.09375 25.40625 -1.59375 
L 25.40625 5.40625 
C 24.203125 5.09375 23.09375 5 21.40625 5 
C 17.796875 5 16.796875 6 16.796875 9.703125 
L 16.796875 45.59375 
L 25.40625 45.59375 
z
" id="NimbusSans-Regular-116"/>
        <path d="M 27.203125 53.90625 
C 12.40625 53.90625 3.59375 43.40625 3.59375 25.796875 
C 3.59375 8.09375 12.40625 -2.296875 27.296875 -2.296875 
C 42.09375 -2.296875 51 8.203125 51 25.40625 
C 51 43.59375 42.40625 53.90625 27.203125 53.90625 
z
M 27.296875 46.203125 
C 36.703125 46.203125 42.296875 38.5 42.296875 25.5 
C 42.296875 13.09375 36.5 5.40625 27.296875 5.40625 
C 18 5.40625 12.296875 13.09375 12.296875 25.796875 
C 12.296875 38.5 18 46.203125 27.296875 46.203125 
z
" id="NimbusSans-Regular-111"/>
        <path d="M 7 52.40625 
L 7 0 
L 15.40625 0 
L 15.40625 28.90625 
C 15.40625 39.59375 21 46.59375 29.59375 46.59375 
C 36.203125 46.59375 40.40625 42.59375 40.40625 36.296875 
L 40.40625 0 
L 48.703125 0 
L 48.703125 39.59375 
C 48.703125 48.296875 42.203125 53.90625 32.09375 53.90625 
C 24.296875 53.90625 19.296875 50.90625 14.703125 43.59375 
L 14.703125 52.40625 
z
" id="NimbusSans-Regular-110"/>
        <path d="M 53.5 4.90625 
C 52.59375 4.703125 52.203125 4.703125 51.703125 4.703125 
C 48.796875 4.703125 47.203125 6.203125 47.203125 8.796875 
L 47.203125 39.59375 
C 47.203125 48.90625 40.40625 53.90625 27.5 53.90625 
C 19.796875 53.90625 13.703125 51.703125 10.09375 47.796875 
C 7.703125 45.09375 6.703125 42.09375 6.5 36.90625 
L 14.90625 36.90625 
C 15.59375 43.296875 19.40625 46.203125 27.203125 46.203125 
C 34.796875 46.203125 38.90625 43.40625 38.90625 38.40625 
L 38.90625 36.203125 
C 38.796875 32.59375 37 31.296875 30.203125 30.40625 
C 18.40625 28.90625 16.59375 28.5 13.40625 27.203125 
C 7.296875 24.59375 4.203125 20 4.203125 13.203125 
C 4.203125 3.703125 10.796875 -2.296875 21.40625 -2.296875 
C 28 -2.296875 33.296875 0 39.203125 5.40625 
C 39.796875 0 42.40625 -2.296875 47.796875 -2.296875 
C 49.59375 -2.296875 50.703125 -2.09375 53.5 -1.40625 
z
M 38.90625 16.5 
C 38.90625 13.703125 38.09375 12 35.59375 9.703125 
C 32.203125 6.59375 28.09375 5 23.203125 5 
C 16.703125 5 12.90625 8.09375 12.90625 13.40625 
C 12.90625 18.90625 16.5 21.703125 25.5 23 
C 34.40625 24.203125 36.09375 24.59375 38.90625 25.90625 
z
" id="NimbusSans-Regular-97"/>
        <path d="M 28.5 0 
L 48.59375 52.40625 
L 39.203125 52.40625 
L 24.40625 9.90625 
L 10.40625 52.40625 
L 1 52.40625 
L 19.40625 0 
z
" id="NimbusSans-Regular-118"/>
       </defs>
       <use xlink:href="#NimbusSans-Regular-67"/>
       <use x="72.199982" xlink:href="#NimbusSans-Regular-121"/>
       <use x="122.199966" xlink:href="#NimbusSans-Regular-116"/>
       <use x="149.999954" xlink:href="#NimbusSans-Regular-111"/>
       <use x="205.599945" xlink:href="#NimbusSans-Regular-47"/>
       <use x="233.399933" xlink:href="#NimbusSans-Regular-110"/>
       <use x="288.999924" xlink:href="#NimbusSans-Regular-97"/>
       <use x="344.599915" xlink:href="#NimbusSans-Regular-105"/>
       <use x="366.799911" xlink:href="#NimbusSans-Regular-118"/>
       <use x="416.799896" xlink:href="#NimbusSans-Regular-101"/>
       <use x="472.399887" xlink:href="#NimbusSans-Regular-32"/>
       <use x="500.199875" xlink:href="#NimbusSans-Regular-84"/>
      </g>
     </g>
    </g>
    <g id="xtick_6">
     <g id="line2d_6">
      <g>
       <use style="stroke:#000000;stroke-width:0.8;" x="128.469382" xlink:href="#m497fd03515" y="124.09875"/>
      </g>
     </g>
     <g id="text_6">
      <!-- Kidney -->
      <g transform="translate(131.024851 161.6675)rotate(-90)scale(0.1 -0.1)">
       <defs>
        <path d="M 17.203125 25.5 
L 29.09375 37.40625 
L 54.796875 0 
L 65.796875 0 
L 35.796875 43.203125 
L 65.5 72.90625 
L 53.5 72.90625 
L 17.203125 36 
L 17.203125 72.90625 
L 7.90625 72.90625 
L 7.90625 0 
L 17.203125 0 
z
" id="NimbusSans-Regular-75"/>
        <path d="M 49.5 72.90625 
L 41.203125 72.90625 
L 41.203125 45.796875 
C 37.703125 51.09375 32.09375 53.90625 25.09375 53.90625 
C 11.5 53.90625 2.59375 43 2.59375 26.296875 
C 2.59375 8.59375 11.203125 -2.296875 25.40625 -2.296875 
C 32.59375 -2.296875 37.59375 0.40625 42.09375 6.90625 
L 42.09375 0 
L 49.5 0 
z
M 26.5 46.09375 
C 35.5 46.09375 41.203125 38.203125 41.203125 25.59375 
C 41.203125 13.5 35.40625 5.5 26.59375 5.5 
C 17.40625 5.5 11.296875 13.59375 11.296875 25.796875 
C 11.296875 38 17.40625 46.09375 26.5 46.09375 
z
" id="NimbusSans-Regular-100"/>
       </defs>
       <use xlink:href="#NimbusSans-Regular-75"/>
       <use x="66.699997" xlink:href="#NimbusSans-Regular-105"/>
       <use x="88.899994" xlink:href="#NimbusSans-Regular-100"/>
       <use x="144.499985" xlink:href="#NimbusSans-Regular-110"/>
       <use x="200.099976" xlink:href="#NimbusSans-Regular-101"/>
       <use x="255.699966" xlink:href="#NimbusSans-Regular-121"/>
      </g>
     </g>
    </g>
    <g id="xtick_7">
     <g id="line2d_7">
      <g>
       <use style="stroke:#000000;stroke-width:0.8;" x="140.41898" xlink:href="#m497fd03515" y="124.09875"/>
      </g>
     </g>
     <g id="text_7">
      <!-- Liver -->
      <g transform="translate(142.974449 152.7675)rotate(-90)scale(0.1 -0.1)">
       <defs>
        <path d="M 17.296875 72.90625 
L 8 72.90625 
L 8 0 
L 53.296875 0 
L 53.296875 8.203125 
L 17.296875 8.203125 
z
" id="NimbusSans-Regular-76"/>
        <path d="M 6.90625 52.40625 
L 6.90625 0 
L 15.296875 0 
L 15.296875 27.203125 
C 15.40625 39.796875 20.59375 45.40625 32.09375 45.09375 
L 32.09375 53.59375 
C 30.703125 53.796875 29.90625 53.90625 28.90625 53.90625 
C 23.5 53.90625 19.40625 50.703125 14.59375 42.90625 
L 14.59375 52.40625 
z
" id="NimbusSans-Regular-114"/>
       </defs>
       <use xlink:href="#NimbusSans-Regular-76"/>
       <use x="55.599991" xlink:href="#NimbusSans-Regular-105"/>
       <use x="77.799988" xlink:href="#NimbusSans-Regular-118"/>
       <use x="127.799973" xlink:href="#NimbusSans-Regular-101"/>
       <use x="183.399963" xlink:href="#NimbusSans-Regular-114"/>
      </g>
     </g>
    </g>
    <g id="xtick_8">
     <g id="line2d_8">
      <g>
       <use style="stroke:#000000;stroke-width:0.8;" x="152.368578" xlink:href="#m497fd03515" y="124.09875"/>
      </g>
     </g>
     <g id="text_8">
      <!-- PBMC -->
      <g transform="translate(154.924047 159.989375)rotate(-90)scale(0.1 -0.1)">
       <defs>
        <path d="M 46.796875 0 
L 67.296875 61.09375 
L 67.296875 0 
L 76.09375 0 
L 76.09375 72.90625 
L 63.203125 72.90625 
L 42 9.40625 
L 20.40625 72.90625 
L 7.5 72.90625 
L 7.5 0 
L 16.296875 0 
L 16.296875 61.09375 
L 37 0 
z
" id="NimbusSans-Regular-77"/>
       </defs>
       <use xlink:href="#NimbusSans-Regular-80"/>
       <use x="66.699997" xlink:href="#NimbusSans-Regular-66"/>
       <use x="133.399994" xlink:href="#NimbusSans-Regular-77"/>
       <use x="216.699982" xlink:href="#NimbusSans-Regular-67"/>
      </g>
     </g>
    </g>
    <g id="xtick_9">
     <g id="line2d_9">
      <g>
       <use style="stroke:#000000;stroke-width:0.8;" x="164.318176" xlink:href="#m497fd03515" y="124.09875"/>
      </g>
     </g>
     <g id="text_9">
      <!-- Brain -->
      <g transform="translate(166.873645 154.437813)rotate(-90)scale(0.1 -0.1)">
       <use xlink:href="#NimbusSans-Regular-66"/>
       <use x="66.699997" xlink:href="#NimbusSans-Regular-114"/>
       <use x="99.999985" xlink:href="#NimbusSans-Regular-97"/>
       <use x="155.599976" xlink:href="#NimbusSans-Regular-105"/>
       <use x="177.799973" xlink:href="#NimbusSans-Regular-110"/>
      </g>
     </g>
    </g>
    <g id="xtick_10">
     <g id="line2d_10">
      <g>
       <use style="stroke:#000000;stroke-width:0.8;" x="176.267774" xlink:href="#m497fd03515" y="124.09875"/>
      </g>
     </g>
     <g id="text_10">
      <!-- Retina -->
      <g transform="translate(178.823243 159.997187)rotate(-90)scale(0.1 -0.1)">
       <defs>
        <path d="M 18.59375 31.40625 
L 42.59375 31.40625 
C 50.90625 31.40625 54.59375 27.40625 54.59375 18.40625 
L 54.5 11.90625 
C 54.5 7.40625 55.296875 3 56.59375 0 
L 67.90625 0 
L 67.90625 2.296875 
C 64.40625 4.703125 63.703125 7.296875 63.5 17 
C 63.40625 29 61.5 32.59375 53.59375 36 
C 61.796875 40.09375 65.09375 45 65.09375 53.40625 
C 65.09375 66 57.296875 72.90625 42.90625 72.90625 
L 9.296875 72.90625 
L 9.296875 0 
L 18.59375 0 
z
M 18.59375 39.59375 
L 18.59375 64.703125 
L 41.09375 64.703125 
C 46.296875 64.703125 49.296875 63.90625 51.59375 61.90625 
C 54.09375 59.796875 55.40625 56.5 55.40625 52.203125 
C 55.40625 43.5 51 39.59375 41.09375 39.59375 
z
" id="NimbusSans-Regular-82"/>
       </defs>
       <use xlink:href="#NimbusSans-Regular-82"/>
       <use x="72.199982" xlink:href="#NimbusSans-Regular-101"/>
       <use x="127.799973" xlink:href="#NimbusSans-Regular-116"/>
       <use x="155.59996" xlink:href="#NimbusSans-Regular-105"/>
       <use x="177.799957" xlink:href="#NimbusSans-Regular-110"/>
       <use x="233.399948" xlink:href="#NimbusSans-Regular-97"/>
      </g>
     </g>
    </g>
   </g>
   <g id="matplotlib.axis_2">
    <g id="ytick_1">
     <g id="line2d_11">
      <defs>
       <path d="M 0 0 
L -3.5 0 
" id="ma713cf6a84" style="stroke:#000000;stroke-width:0.8;"/>
      </defs>
      <g>
       <use style="stroke:#000000;stroke-width:0.8;" x="58.08625" xlink:href="#ma713cf6a84" y="124.09875"/>
      </g>
     </g>
     <g id="text_11">
      <!-- 0.00 -->
      <g transform="translate(31.628438 127.744062)scale(0.1 -0.1)">
       <defs>
        <path d="M 27.5 72.296875 
C 20.90625 72.296875 14.90625 69.296875 11.203125 64.40625 
C 6.59375 58 4.296875 48.40625 4.296875 35 
C 4.296875 10.59375 12.296875 -2.296875 27.5 -2.296875 
C 42.5 -2.296875 50.703125 10.59375 50.703125 34.40625 
C 50.703125 48.40625 48.5 57.796875 43.796875 64.40625 
C 40.09375 69.40625 34.203125 72.296875 27.5 72.296875 
z
M 27.5 64.5 
C 37 64.5 41.703125 54.796875 41.703125 35.203125 
C 41.703125 14.59375 37.09375 5 27.296875 5 
C 18 5 13.296875 15 13.296875 34.90625 
C 13.296875 54.796875 18 64.5 27.5 64.5 
z
" id="NimbusSans-Regular-48"/>
        <path d="M 19.09375 10.40625 
L 8.703125 10.40625 
L 8.703125 0 
L 19.09375 0 
z
" id="NimbusSans-Regular-46"/>
       </defs>
       <use xlink:href="#NimbusSans-Regular-48"/>
       <use x="55.599991" xlink:href="#NimbusSans-Regular-46"/>
       <use x="83.399979" xlink:href="#NimbusSans-Regular-48"/>
       <use x="138.999969" xlink:href="#NimbusSans-Regular-48"/>
      </g>
     </g>
    </g>
    <g id="ytick_2">
     <g id="line2d_12">
      <g>
       <use style="stroke:#000000;stroke-width:0.8;" x="58.08625" xlink:href="#ma713cf6a84" y="93.246739"/>
      </g>
     </g>
     <g id="text_12">
      <!-- 0.05 -->
      <g transform="translate(31.628438 96.892052)scale(0.1 -0.1)">
       <defs>
        <path d="M 47.59375 70.90625 
L 11 70.90625 
L 5.703125 32.296875 
L 13.796875 32.296875 
C 17.90625 37.203125 21.296875 38.90625 26.90625 38.90625 
C 36.40625 38.90625 42.296875 32.40625 42.296875 21.90625 
C 42.296875 11.703125 36.40625 5.5 26.796875 5.5 
C 19.09375 5.5 14.40625 9.40625 12.296875 17.40625 
L 3.5 17.40625 
C 4.703125 11.59375 5.703125 8.796875 7.796875 6.203125 
C 11.796875 0.796875 19 -2.296875 27 -2.296875 
C 41.296875 -2.296875 51.296875 8.09375 51.296875 23.09375 
C 51.296875 37.09375 42 46.703125 28.40625 46.703125 
C 23.40625 46.703125 19.40625 45.40625 15.296875 42.40625 
L 18.09375 62.203125 
L 47.59375 62.203125 
z
" id="NimbusSans-Regular-53"/>
       </defs>
       <use xlink:href="#NimbusSans-Regular-48"/>
       <use x="55.599991" xlink:href="#NimbusSans-Regular-46"/>
       <use x="83.399979" xlink:href="#NimbusSans-Regular-48"/>
       <use x="138.999969" xlink:href="#NimbusSans-Regular-53"/>
      </g>
     </g>
    </g>
    <g id="ytick_3">
     <g id="line2d_13">
      <g>
       <use style="stroke:#000000;stroke-width:0.8;" x="58.08625" xlink:href="#ma713cf6a84" y="62.394729"/>
      </g>
     </g>
     <g id="text_13">
      <!-- 0.10 -->
      <g transform="translate(31.628438 66.040041)scale(0.1 -0.1)">
       <defs>
        <path d="M 25.90625 51.5 
L 25.90625 0 
L 34.703125 0 
L 34.703125 72.296875 
L 28.90625 72.296875 
C 25.796875 61.203125 23.796875 59.703125 10.203125 57.90625 
L 10.203125 51.5 
z
" id="NimbusSans-Regular-49"/>
       </defs>
       <use xlink:href="#NimbusSans-Regular-48"/>
       <use x="55.599991" xlink:href="#NimbusSans-Regular-46"/>
       <use x="83.399979" xlink:href="#NimbusSans-Regular-49"/>
       <use x="138.999969" xlink:href="#NimbusSans-Regular-48"/>
      </g>
     </g>
    </g>
    <g id="ytick_4">
     <g id="line2d_14">
      <g>
       <use style="stroke:#000000;stroke-width:0.8;" x="58.08625" xlink:href="#ma713cf6a84" y="31.542718"/>
      </g>
     </g>
     <g id="text_14">
      <!-- 0.15 -->
      <g transform="translate(31.628438 35.188031)scale(0.1 -0.1)">
       <use xlink:href="#NimbusSans-Regular-48"/>
       <use x="55.599991" xlink:href="#NimbusSans-Regular-46"/>
       <use x="83.399979" xlink:href="#NimbusSans-Regular-49"/>
       <use x="138.999969" xlink:href="#NimbusSans-Regular-53"/>
      </g>
     </g>
    </g>
    <g id="text_15">
     <!-- Fraction of genes with -->
     <g transform="translate(14.520312 121.93)rotate(-90)scale(0.1 -0.1)">
      <defs>
       <path d="M 18.296875 33.203125 
L 53.09375 33.203125 
L 53.09375 41.40625 
L 18.296875 41.40625 
L 18.296875 64.703125 
L 57.90625 64.703125 
L 57.90625 72.90625 
L 9 72.90625 
L 9 0 
L 18.296875 0 
z
" id="NimbusSans-Regular-70"/>
       <path d="M 25.796875 52.40625 
L 17.09375 52.40625 
L 17.09375 60.59375 
C 17.09375 64.09375 19 65.90625 22.90625 65.90625 
C 23.59375 65.90625 23.90625 65.90625 25.796875 65.796875 
L 25.796875 72.703125 
C 23.90625 73.09375 22.796875 73.203125 21.09375 73.203125 
C 13.40625 73.203125 8.796875 68.796875 8.796875 61.296875 
L 8.796875 52.40625 
L 1.796875 52.40625 
L 1.796875 45.59375 
L 8.796875 45.59375 
L 8.796875 0 
L 17.09375 0 
L 17.09375 45.59375 
L 25.796875 45.59375 
z
" id="NimbusSans-Regular-102"/>
       <path d="M 40.40625 52.40625 
L 40.40625 44.796875 
C 36.203125 51.09375 31.59375 53.90625 25 53.90625 
C 12.296875 53.90625 3.5 42.09375 3.5 25.296875 
C 3.5 16.5 5.59375 10.09375 10.09375 4.796875 
C 14 0.203125 19 -2.296875 24.40625 -2.296875 
C 30.703125 -2.296875 35.203125 0.5 39.59375 7.09375 
L 39.59375 4.40625 
C 39.59375 -9.59375 35.703125 -14.796875 25.296875 -14.796875 
C 18.203125 -14.796875 14.5 -12 13.703125 -6 
L 5.203125 -6 
C 6 -15.703125 13.703125 -21.796875 25.09375 -21.796875 
C 32.796875 -21.796875 39.203125 -19.296875 42.59375 -15.09375 
C 46.59375 -10.203125 48.09375 -3.703125 48.09375 8.59375 
L 48.09375 52.40625 
z
M 25.796875 46.203125 
C 34.59375 46.203125 39.59375 38.796875 39.59375 25.5 
C 39.59375 12.796875 34.5 5.40625 25.796875 5.40625 
C 17.203125 5.40625 12.203125 12.90625 12.203125 25.796875 
C 12.203125 38.59375 17.203125 46.203125 25.796875 46.203125 
z
" id="NimbusSans-Regular-103"/>
       <path d="M 43.796875 37.796875 
C 43.703125 48.09375 36.90625 53.90625 24.796875 53.90625 
C 12.59375 53.90625 4.703125 47.59375 4.703125 37.90625 
C 4.703125 29.703125 8.90625 25.796875 21.296875 22.796875 
L 29.09375 20.90625 
C 34.90625 19.5 37.203125 17.40625 37.203125 13.703125 
C 37.203125 8.703125 32.296875 5.40625 25 5.40625 
C 20.5 5.40625 16.703125 6.703125 14.59375 8.90625 
C 13.296875 10.40625 12.703125 11.90625 12.203125 15.59375 
L 3.40625 15.59375 
C 3.796875 3.5 10.59375 -2.296875 24.296875 -2.296875 
C 37.5 -2.296875 45.90625 4.203125 45.90625 14.296875 
C 45.90625 22.09375 41.5 26.40625 31.09375 28.90625 
L 23.09375 30.796875 
C 16.296875 32.40625 13.40625 34.59375 13.40625 38.296875 
C 13.40625 43.203125 17.703125 46.203125 24.5 46.203125 
C 31.203125 46.203125 34.796875 43.296875 35 37.796875 
z
" id="NimbusSans-Regular-115"/>
       <path d="M 55.40625 0 
L 70.796875 52.40625 
L 61.40625 52.40625 
L 51 11.59375 
L 40.703125 52.40625 
L 30.5 52.40625 
L 20.5 11.59375 
L 9.796875 52.40625 
L 0.59375 52.40625 
L 15.796875 0 
L 25.203125 0 
L 35.296875 41.09375 
L 45.90625 0 
z
" id="NimbusSans-Regular-119"/>
       <path d="M 7 72.90625 
L 7 0 
L 15.296875 0 
L 15.296875 28.90625 
C 15.296875 39.59375 20.90625 46.59375 29.5 46.59375 
C 32.296875 46.59375 34.90625 45.796875 36.90625 44.296875 
C 39.296875 42.5 40.296875 40 40.296875 36.296875 
L 40.296875 0 
L 48.59375 0 
L 48.59375 39.59375 
C 48.59375 48.40625 42.296875 53.90625 32.09375 53.90625 
C 24.703125 53.90625 20.203125 51.59375 15.296875 45.203125 
L 15.296875 72.90625 
z
" id="NimbusSans-Regular-104"/>
      </defs>
      <use xlink:href="#NimbusSans-Regular-70"/>
      <use x="61.099991" xlink:href="#NimbusSans-Regular-114"/>
      <use x="94.399979" xlink:href="#NimbusSans-Regular-97"/>
      <use x="149.999969" xlink:href="#NimbusSans-Regular-99"/>
      <use x="199.999954" xlink:href="#NimbusSans-Regular-116"/>
      <use x="227.799942" xlink:href="#NimbusSans-Regular-105"/>
      <use x="249.999939" xlink:href="#NimbusSans-Regular-111"/>
      <use x="305.59993" xlink:href="#NimbusSans-Regular-110"/>
      <use x="361.199921" xlink:href="#NimbusSans-Regular-32"/>
      <use x="388.999908" xlink:href="#NimbusSans-Regular-111"/>
      <use x="444.599899" xlink:href="#NimbusSans-Regular-102"/>
      <use x="472.399887" xlink:href="#NimbusSans-Regular-32"/>
      <use x="500.199875" xlink:href="#NimbusSans-Regular-103"/>
      <use x="555.799866" xlink:href="#NimbusSans-Regular-101"/>
      <use x="611.399857" xlink:href="#NimbusSans-Regular-110"/>
      <use x="666.999847" xlink:href="#NimbusSans-Regular-101"/>
      <use x="722.599838" xlink:href="#NimbusSans-Regular-115"/>
      <use x="772.599823" xlink:href="#NimbusSans-Regular-32"/>
      <use x="800.399811" xlink:href="#NimbusSans-Regular-119"/>
      <use x="872.599792" xlink:href="#NimbusSans-Regular-105"/>
      <use x="894.799789" xlink:href="#NimbusSans-Regular-116"/>
      <use x="922.599777" xlink:href="#NimbusSans-Regular-104"/>
     </g>
     <!-- likelihood ratio &gt; 10 -->
     <g transform="translate(25.44875 116.23625)rotate(-90)scale(0.1 -0.1)">
      <defs>
       <path d="M 14.09375 72.90625 
L 5.796875 72.90625 
L 5.796875 0 
L 14.09375 0 
L 14.09375 20.40625 
L 22.203125 28.40625 
L 39.90625 0 
L 50.203125 0 
L 28.796875 34.296875 
L 47 52.40625 
L 36.296875 52.40625 
L 14.09375 30.203125 
z
" id="NimbusSans-Regular-107"/>
       <path d="M 53.90625 26.703125 
L 5 47.40625 
L 5 39.5 
L 44.40625 23.09375 
L 5 7 
L 5 -0.90625 
L 53.90625 19.796875 
z
" id="NimbusSans-Regular-62"/>
      </defs>
      <use xlink:href="#NimbusSans-Regular-108"/>
      <use x="22.199997" xlink:href="#NimbusSans-Regular-105"/>
      <use x="44.399994" xlink:href="#NimbusSans-Regular-107"/>
      <use x="94.399979" xlink:href="#NimbusSans-Regular-101"/>
      <use x="149.999969" xlink:href="#NimbusSans-Regular-108"/>
      <use x="172.199966" xlink:href="#NimbusSans-Regular-105"/>
      <use x="194.399963" xlink:href="#NimbusSans-Regular-104"/>
      <use x="249.999954" xlink:href="#NimbusSans-Regular-111"/>
      <use x="305.599945" xlink:href="#NimbusSans-Regular-111"/>
      <use x="361.199936" xlink:href="#NimbusSans-Regular-100"/>
      <use x="416.799927" xlink:href="#NimbusSans-Regular-32"/>
      <use x="444.599915" xlink:href="#NimbusSans-Regular-114"/>
      <use x="477.899902" xlink:href="#NimbusSans-Regular-97"/>
      <use x="533.499893" xlink:href="#NimbusSans-Regular-116"/>
      <use x="561.299881" xlink:href="#NimbusSans-Regular-105"/>
      <use x="583.499878" xlink:href="#NimbusSans-Regular-111"/>
      <use x="639.099869" xlink:href="#NimbusSans-Regular-32"/>
      <use x="666.899857" xlink:href="#NimbusSans-Regular-62"/>
      <use x="725.29985" xlink:href="#NimbusSans-Regular-32"/>
      <use x="753.099838" xlink:href="#NimbusSans-Regular-49"/>
      <use x="808.699829" xlink:href="#NimbusSans-Regular-48"/>
     </g>
    </g>
   </g>
   <g id="patch_13">
    <path d="M 58.08625 124.09875 
L 58.08625 21.94875 
" style="fill:none;stroke:#000000;stroke-linecap:square;stroke-linejoin:miter;stroke-width:0.8;"/>
   </g>
   <g id="patch_14">
    <path d="M 186.902917 124.09875 
L 186.902917 21.94875 
" style="fill:none;stroke:#000000;stroke-linecap:square;stroke-linejoin:miter;stroke-width:0.8;"/>
   </g>
   <g id="patch_15">
    <path d="M 58.08625 124.09875 
L 186.902917 124.09875 
" style="fill:none;stroke:#000000;stroke-linecap:square;stroke-linejoin:miter;stroke-width:0.8;"/>
   </g>
   <g id="patch_16">
    <path d="M 58.08625 21.94875 
L 186.902917 21.94875 
" style="fill:none;stroke:#000000;stroke-linecap:square;stroke-linejoin:miter;stroke-width:0.8;"/>
   </g>
   <g id="text_16">
    <!-- Point-Gamma vs. Gamma -->
    <g transform="translate(53.150521 15.94875)scale(0.12 -0.12)">
     <defs>
      <path d="M 28.40625 31.203125 
L 4.59375 31.203125 
L 4.59375 24 
L 28.40625 24 
z
" id="NimbusSans-Regular-45"/>
      <path d="M 70.90625 38.5 
L 40.5 38.5 
L 40.5 30.296875 
L 62.703125 30.296875 
L 62.703125 28.296875 
C 62.703125 15.296875 53.09375 5.90625 39.796875 5.90625 
C 32.40625 5.90625 25.703125 8.59375 21.40625 13.296875 
C 16.59375 18.5 13.703125 27.203125 13.703125 36.203125 
C 13.703125 54.09375 23.90625 65.90625 39.296875 65.90625 
C 50.40625 65.90625 58.40625 60.203125 60.40625 50.796875 
L 69.90625 50.796875 
C 67.296875 65.59375 56.09375 74.09375 39.40625 74.09375 
C 30.5 74.09375 23.296875 71.796875 17.59375 67.09375 
C 9.09375 60.09375 4.40625 48.796875 4.40625 35.703125 
C 4.40625 13.296875 18.09375 -2.296875 37.796875 -2.296875 
C 47.703125 -2.296875 55.5 1.40625 62.703125 9.296875 
L 65 -0.40625 
L 70.90625 -0.40625 
z
" id="NimbusSans-Regular-71"/>
      <path d="M 7 52.40625 
L 7 0 
L 15.40625 0 
L 15.40625 32.90625 
C 15.40625 40.5 20.90625 46.59375 27.703125 46.59375 
C 33.90625 46.59375 37.40625 42.796875 37.40625 36.09375 
L 37.40625 0 
L 45.796875 0 
L 45.796875 32.90625 
C 45.796875 40.5 51.296875 46.59375 58.09375 46.59375 
C 64.203125 46.59375 67.796875 42.703125 67.796875 36.09375 
L 67.796875 0 
L 76.203125 0 
L 76.203125 39.296875 
C 76.203125 48.703125 70.796875 53.90625 61 53.90625 
C 54 53.90625 49.796875 51.796875 44.90625 45.90625 
C 41.796875 51.5 37.59375 53.90625 30.796875 53.90625 
C 23.796875 53.90625 19.09375 51.296875 14.703125 45 
L 14.703125 52.40625 
z
" id="NimbusSans-Regular-109"/>
     </defs>
     <use xlink:href="#NimbusSans-Regular-80"/>
     <use x="66.699997" xlink:href="#NimbusSans-Regular-111"/>
     <use x="122.299988" xlink:href="#NimbusSans-Regular-105"/>
     <use x="144.499985" xlink:href="#NimbusSans-Regular-110"/>
     <use x="200.099976" xlink:href="#NimbusSans-Regular-116"/>
     <use x="227.899963" xlink:href="#NimbusSans-Regular-45"/>
     <use x="261.199951" xlink:href="#NimbusSans-Regular-71"/>
     <use x="338.999939" xlink:href="#NimbusSans-Regular-97"/>
     <use x="394.59993" xlink:href="#NimbusSans-Regular-109"/>
     <use x="477.899918" xlink:href="#NimbusSans-Regular-109"/>
     <use x="561.199905" xlink:href="#NimbusSans-Regular-97"/>
     <use x="616.799896" xlink:href="#NimbusSans-Regular-32"/>
     <use x="644.599884" xlink:href="#NimbusSans-Regular-118"/>
     <use x="694.599869" xlink:href="#NimbusSans-Regular-115"/>
     <use x="744.599854" xlink:href="#NimbusSans-Regular-46"/>
     <use x="772.399841" xlink:href="#NimbusSans-Regular-32"/>
     <use x="800.199829" xlink:href="#NimbusSans-Regular-71"/>
     <use x="877.999817" xlink:href="#NimbusSans-Regular-97"/>
     <use x="933.599808" xlink:href="#NimbusSans-Regular-109"/>
     <use x="1016.899796" xlink:href="#NimbusSans-Regular-109"/>
     <use x="1100.199783" xlink:href="#NimbusSans-Regular-97"/>
    </g>
   </g>
  </g>
  <g id="axes_2">
   <g id="patch_17">
    <path d="M 224.077917 124.09875 
L 352.894583 124.09875 
L 352.894583 21.94875 
L 224.077917 21.94875 
z
" style="fill:#ffffff;"/>
   </g>
   <g id="patch_18">
    <path clip-path="url(#pcddb78e19f)" d="M 229.93322 124.09875 
L 239.492898 124.09875 
L 239.492898 81.470999 
L 229.93322 81.470999 
z
"/>
   </g>
   <g id="patch_19">
    <path clip-path="url(#pcddb78e19f)" d="M 241.882818 124.09875 
L 251.442496 124.09875 
L 251.442496 76.804643 
L 241.882818 76.804643 
z
"/>
   </g>
   <g id="patch_20">
    <path clip-path="url(#pcddb78e19f)" d="M 253.832416 124.09875 
L 263.392094 124.09875 
L 263.392094 26.813036 
L 253.832416 26.813036 
z
"/>
   </g>
   <g id="patch_21">
    <path clip-path="url(#pcddb78e19f)" d="M 265.782014 124.09875 
L 275.341692 124.09875 
L 275.341692 54.309605 
L 265.782014 54.309605 
z
"/>
   </g>
   <g id="patch_22">
    <path clip-path="url(#pcddb78e19f)" d="M 277.731612 124.09875 
L 287.29129 124.09875 
L 287.29129 58.995853 
L 277.731612 58.995853 
z
"/>
   </g>
   <g id="patch_23">
    <path clip-path="url(#pcddb78e19f)" d="M 289.68121 124.09875 
L 299.240888 124.09875 
L 299.240888 76.406976 
L 289.68121 76.406976 
z
"/>
   </g>
   <g id="patch_24">
    <path clip-path="url(#pcddb78e19f)" d="M 301.630808 124.09875 
L 311.190486 124.09875 
L 311.190486 122.705935 
L 301.630808 122.705935 
z
"/>
   </g>
   <g id="patch_25">
    <path clip-path="url(#pcddb78e19f)" d="M 313.580406 124.09875 
L 323.140084 124.09875 
L 323.140084 87.07364 
L 313.580406 87.07364 
z
"/>
   </g>
   <g id="patch_26">
    <path clip-path="url(#pcddb78e19f)" d="M 325.530004 124.09875 
L 335.089682 124.09875 
L 335.089682 75.017217 
L 325.530004 75.017217 
z
"/>
   </g>
   <g id="patch_27">
    <path clip-path="url(#pcddb78e19f)" d="M 337.479602 124.09875 
L 347.03928 124.09875 
L 347.03928 74.891435 
L 337.479602 74.891435 
z
"/>
   </g>
   <g id="matplotlib.axis_3">
    <g id="xtick_11">
     <g id="line2d_15">
      <g>
       <use style="stroke:#000000;stroke-width:0.8;" x="234.713059" xlink:href="#m497fd03515" y="124.09875"/>
      </g>
     </g>
     <g id="text_17">
      <!-- B cell -->
      <g transform="translate(237.268528 155.54875)rotate(-90)scale(0.1 -0.1)">
       <use xlink:href="#NimbusSans-Regular-66"/>
       <use x="66.699997" xlink:href="#NimbusSans-Regular-32"/>
       <use x="94.499985" xlink:href="#NimbusSans-Regular-99"/>
       <use x="144.499969" xlink:href="#NimbusSans-Regular-101"/>
       <use x="200.09996" xlink:href="#NimbusSans-Regular-108"/>
       <use x="222.299957" xlink:href="#NimbusSans-Regular-108"/>
      </g>
     </g>
    </g>
    <g id="xtick_12">
     <g id="line2d_16">
      <g>
       <use style="stroke:#000000;stroke-width:0.8;" x="246.662657" xlink:href="#m497fd03515" y="124.09875"/>
      </g>
     </g>
     <g id="text_18">
      <!-- T cell -->
      <g transform="translate(249.218126 154.987812)rotate(-90)scale(0.1 -0.1)">
       <use xlink:href="#NimbusSans-Regular-84"/>
       <use x="61.099991" xlink:href="#NimbusSans-Regular-32"/>
       <use x="88.899979" xlink:href="#NimbusSans-Regular-99"/>
       <use x="138.899963" xlink:href="#NimbusSans-Regular-101"/>
       <use x="194.499954" xlink:href="#NimbusSans-Regular-108"/>
       <use x="216.699951" xlink:href="#NimbusSans-Regular-108"/>
      </g>
     </g>
    </g>
    <g id="xtick_13">
     <g id="line2d_17">
      <g>
       <use style="stroke:#000000;stroke-width:0.8;" x="258.612255" xlink:href="#m497fd03515" y="124.09875"/>
      </g>
     </g>
     <g id="text_19">
      <!-- iPSC -->
      <g transform="translate(261.167724 153.88)rotate(-90)scale(0.1 -0.1)">
       <use xlink:href="#NimbusSans-Regular-105"/>
       <use x="22.199997" xlink:href="#NimbusSans-Regular-80"/>
       <use x="88.899994" xlink:href="#NimbusSans-Regular-83"/>
       <use x="155.599991" xlink:href="#NimbusSans-Regular-67"/>
      </g>
     </g>
    </g>
    <g id="xtick_14">
     <g id="line2d_18">
      <g>
       <use style="stroke:#000000;stroke-width:0.8;" x="270.561853" xlink:href="#m497fd03515" y="124.09875"/>
      </g>
     </g>
     <g id="text_20">
      <!-- T cell/B cell -->
      <g transform="translate(273.117322 182.2175)rotate(-90)scale(0.1 -0.1)">
       <use xlink:href="#NimbusSans-Regular-84"/>
       <use x="61.099991" xlink:href="#NimbusSans-Regular-32"/>
       <use x="88.899979" xlink:href="#NimbusSans-Regular-99"/>
       <use x="138.899963" xlink:href="#NimbusSans-Regular-101"/>
       <use x="194.499954" xlink:href="#NimbusSans-Regular-108"/>
       <use x="216.699951" xlink:href="#NimbusSans-Regular-108"/>
       <use x="238.899948" xlink:href="#NimbusSans-Regular-47"/>
       <use x="266.699936" xlink:href="#NimbusSans-Regular-66"/>
       <use x="333.399933" xlink:href="#NimbusSans-Regular-32"/>
       <use x="361.199921" xlink:href="#NimbusSans-Regular-99"/>
       <use x="411.199905" xlink:href="#NimbusSans-Regular-101"/>
       <use x="466.799896" xlink:href="#NimbusSans-Regular-108"/>
       <use x="488.999893" xlink:href="#NimbusSans-Regular-108"/>
      </g>
     </g>
    </g>
    <g id="xtick_15">
     <g id="line2d_19">
      <g>
       <use style="stroke:#000000;stroke-width:0.8;" x="282.511451" xlink:href="#m497fd03515" y="124.09875"/>
      </g>
     </g>
     <g id="text_21">
      <!-- Cyto/naive T -->
      <g transform="translate(285.126295 187.225313)rotate(-90)scale(0.1 -0.1)">
       <use xlink:href="#NimbusSans-Regular-67"/>
       <use x="72.199982" xlink:href="#NimbusSans-Regular-121"/>
       <use x="122.199966" xlink:href="#NimbusSans-Regular-116"/>
       <use x="149.999954" xlink:href="#NimbusSans-Regular-111"/>
       <use x="205.599945" xlink:href="#NimbusSans-Regular-47"/>
       <use x="233.399933" xlink:href="#NimbusSans-Regular-110"/>
       <use x="288.999924" xlink:href="#NimbusSans-Regular-97"/>
       <use x="344.599915" xlink:href="#NimbusSans-Regular-105"/>
       <use x="366.799911" xlink:href="#NimbusSans-Regular-118"/>
       <use x="416.799896" xlink:href="#NimbusSans-Regular-101"/>
       <use x="472.399887" xlink:href="#NimbusSans-Regular-32"/>
       <use x="500.199875" xlink:href="#NimbusSans-Regular-84"/>
      </g>
     </g>
    </g>
    <g id="xtick_16">
     <g id="line2d_20">
      <g>
       <use style="stroke:#000000;stroke-width:0.8;" x="294.461049" xlink:href="#m497fd03515" y="124.09875"/>
      </g>
     </g>
     <g id="text_22">
      <!-- Kidney -->
      <g transform="translate(297.016518 161.6675)rotate(-90)scale(0.1 -0.1)">
       <use xlink:href="#NimbusSans-Regular-75"/>
       <use x="66.699997" xlink:href="#NimbusSans-Regular-105"/>
       <use x="88.899994" xlink:href="#NimbusSans-Regular-100"/>
       <use x="144.499985" xlink:href="#NimbusSans-Regular-110"/>
       <use x="200.099976" xlink:href="#NimbusSans-Regular-101"/>
       <use x="255.699966" xlink:href="#NimbusSans-Regular-121"/>
      </g>
     </g>
    </g>
    <g id="xtick_17">
     <g id="line2d_21">
      <g>
       <use style="stroke:#000000;stroke-width:0.8;" x="306.410647" xlink:href="#m497fd03515" y="124.09875"/>
      </g>
     </g>
     <g id="text_23">
      <!-- Liver -->
      <g transform="translate(308.966116 152.7675)rotate(-90)scale(0.1 -0.1)">
       <use xlink:href="#NimbusSans-Regular-76"/>
       <use x="55.599991" xlink:href="#NimbusSans-Regular-105"/>
       <use x="77.799988" xlink:href="#NimbusSans-Regular-118"/>
       <use x="127.799973" xlink:href="#NimbusSans-Regular-101"/>
       <use x="183.399963" xlink:href="#NimbusSans-Regular-114"/>
      </g>
     </g>
    </g>
    <g id="xtick_18">
     <g id="line2d_22">
      <g>
       <use style="stroke:#000000;stroke-width:0.8;" x="318.360245" xlink:href="#m497fd03515" y="124.09875"/>
      </g>
     </g>
     <g id="text_24">
      <!-- PBMC -->
      <g transform="translate(320.915714 159.989375)rotate(-90)scale(0.1 -0.1)">
       <use xlink:href="#NimbusSans-Regular-80"/>
       <use x="66.699997" xlink:href="#NimbusSans-Regular-66"/>
       <use x="133.399994" xlink:href="#NimbusSans-Regular-77"/>
       <use x="216.699982" xlink:href="#NimbusSans-Regular-67"/>
      </g>
     </g>
    </g>
    <g id="xtick_19">
     <g id="line2d_23">
      <g>
       <use style="stroke:#000000;stroke-width:0.8;" x="330.309843" xlink:href="#m497fd03515" y="124.09875"/>
      </g>
     </g>
     <g id="text_25">
      <!-- Brain -->
      <g transform="translate(332.865312 154.437813)rotate(-90)scale(0.1 -0.1)">
       <use xlink:href="#NimbusSans-Regular-66"/>
       <use x="66.699997" xlink:href="#NimbusSans-Regular-114"/>
       <use x="99.999985" xlink:href="#NimbusSans-Regular-97"/>
       <use x="155.599976" xlink:href="#NimbusSans-Regular-105"/>
       <use x="177.799973" xlink:href="#NimbusSans-Regular-110"/>
      </g>
     </g>
    </g>
    <g id="xtick_20">
     <g id="line2d_24">
      <g>
       <use style="stroke:#000000;stroke-width:0.8;" x="342.259441" xlink:href="#m497fd03515" y="124.09875"/>
      </g>
     </g>
     <g id="text_26">
      <!-- Retina -->
      <g transform="translate(344.81491 159.997187)rotate(-90)scale(0.1 -0.1)">
       <use xlink:href="#NimbusSans-Regular-82"/>
       <use x="72.199982" xlink:href="#NimbusSans-Regular-101"/>
       <use x="127.799973" xlink:href="#NimbusSans-Regular-116"/>
       <use x="155.59996" xlink:href="#NimbusSans-Regular-105"/>
       <use x="177.799957" xlink:href="#NimbusSans-Regular-110"/>
       <use x="233.399948" xlink:href="#NimbusSans-Regular-97"/>
      </g>
     </g>
    </g>
    <g id="text_27">
     <!-- Dataset -->
     <g transform="translate(271.257344 198.515938)scale(0.1 -0.1)">
      <defs>
       <path d="M 8.90625 0 
L 37 0 
C 55.40625 0 66.703125 13.796875 66.703125 36.5 
C 66.703125 59.09375 55.5 72.90625 37 72.90625 
L 8.90625 72.90625 
z
M 18.203125 8.203125 
L 18.203125 64.703125 
L 35.40625 64.703125 
C 49.796875 64.703125 57.40625 55 57.40625 36.40625 
C 57.40625 17.90625 49.796875 8.203125 35.40625 8.203125 
z
" id="NimbusSans-Regular-68"/>
      </defs>
      <use xlink:href="#NimbusSans-Regular-68"/>
      <use x="72.199982" xlink:href="#NimbusSans-Regular-97"/>
      <use x="127.799973" xlink:href="#NimbusSans-Regular-116"/>
      <use x="155.59996" xlink:href="#NimbusSans-Regular-97"/>
      <use x="211.199951" xlink:href="#NimbusSans-Regular-115"/>
      <use x="261.199936" xlink:href="#NimbusSans-Regular-101"/>
      <use x="316.799927" xlink:href="#NimbusSans-Regular-116"/>
     </g>
    </g>
   </g>
   <g id="matplotlib.axis_4">
    <g id="ytick_5">
     <g id="line2d_25">
      <g>
       <use style="stroke:#000000;stroke-width:0.8;" x="224.077917" xlink:href="#ma713cf6a84" y="124.09875"/>
      </g>
     </g>
     <g id="text_28">
      <!-- 0.0 -->
      <g transform="translate(203.179479 127.744062)scale(0.1 -0.1)">
       <use xlink:href="#NimbusSans-Regular-48"/>
       <use x="55.599991" xlink:href="#NimbusSans-Regular-46"/>
       <use x="83.399979" xlink:href="#NimbusSans-Regular-48"/>
      </g>
     </g>
    </g>
    <g id="ytick_6">
     <g id="line2d_26">
      <g>
       <use style="stroke:#000000;stroke-width:0.8;" x="224.077917" xlink:href="#ma713cf6a84" y="100.729055"/>
      </g>
     </g>
     <g id="text_29">
      <!-- 0.2 -->
      <g transform="translate(203.179479 104.374368)scale(0.1 -0.1)">
       <defs>
        <path d="M 50.59375 8.703125 
L 13.296875 8.703125 
C 14.203125 14.703125 17.40625 18.5 26.09375 23.796875 
L 36.09375 29.40625 
C 46 34.90625 51.09375 42.296875 51.09375 51.203125 
C 51.09375 57.203125 48.703125 62.796875 44.5 66.703125 
C 40.296875 70.5 35.09375 72.296875 28.40625 72.296875 
C 19.40625 72.296875 12.703125 69.09375 8.796875 62.90625 
C 6.296875 59.09375 5.203125 54.59375 5 47.296875 
L 13.796875 47.296875 
C 14.09375 52.203125 14.703125 55.09375 15.90625 57.5 
C 18.203125 61.90625 22.796875 64.59375 28.09375 64.59375 
C 36.09375 64.59375 42.09375 58.796875 42.09375 51 
C 42.09375 45.203125 38.796875 40.203125 32.5 36.59375 
L 23.296875 31.203125 
C 8.5 22.703125 4.203125 15.90625 3.40625 0.09375 
L 50.59375 0.09375 
z
" id="NimbusSans-Regular-50"/>
       </defs>
       <use xlink:href="#NimbusSans-Regular-48"/>
       <use x="55.599991" xlink:href="#NimbusSans-Regular-46"/>
       <use x="83.399979" xlink:href="#NimbusSans-Regular-50"/>
      </g>
     </g>
    </g>
    <g id="ytick_7">
     <g id="line2d_27">
      <g>
       <use style="stroke:#000000;stroke-width:0.8;" x="224.077917" xlink:href="#ma713cf6a84" y="77.35936"/>
      </g>
     </g>
     <g id="text_30">
      <!-- 0.4 -->
      <g transform="translate(203.179479 81.004673)scale(0.1 -0.1)">
       <defs>
        <path d="M 32.703125 17.5 
L 32.703125 0 
L 41.5 0 
L 41.5 17.5 
L 52 17.5 
L 52 25.40625 
L 41.5 25.40625 
L 41.5 72.296875 
L 35 72.296875 
L 2.796875 26.796875 
L 2.796875 17.5 
z
M 32.703125 25.40625 
L 10.5 25.40625 
L 32.703125 57.296875 
z
" id="NimbusSans-Regular-52"/>
       </defs>
       <use xlink:href="#NimbusSans-Regular-48"/>
       <use x="55.599991" xlink:href="#NimbusSans-Regular-46"/>
       <use x="83.399979" xlink:href="#NimbusSans-Regular-52"/>
      </g>
     </g>
    </g>
    <g id="ytick_8">
     <g id="line2d_28">
      <g>
       <use style="stroke:#000000;stroke-width:0.8;" x="224.077917" xlink:href="#ma713cf6a84" y="53.989665"/>
      </g>
     </g>
     <g id="text_31">
      <!-- 0.6 -->
      <g transform="translate(203.179479 57.634978)scale(0.1 -0.1)">
       <defs>
        <path d="M 49.796875 53.5 
C 48.09375 65.296875 40.5 72.296875 29.703125 72.296875 
C 21.90625 72.296875 14.90625 68.5 10.703125 62 
C 6.203125 54.90625 4.296875 46.09375 4.296875 33 
C 4.296875 20.796875 6 13.09375 10.296875 6.703125 
C 14.09375 0.796875 20.296875 -2.296875 28.09375 -2.296875 
C 41.59375 -2.296875 51.296875 7.796875 51.296875 21.90625 
C 51.296875 35.203125 42.296875 44.59375 29.59375 44.59375 
C 22.59375 44.59375 17.09375 42 13.296875 36.703125 
C 13.40625 54.59375 19 64.5 29.09375 64.5 
C 35.296875 64.5 39.59375 60.5 41 53.5 
z
M 28.5 36.796875 
C 37 36.796875 42.296875 30.796875 42.296875 21.203125 
C 42.296875 12.09375 36.296875 5.5 28.203125 5.5 
C 20 5.5 13.796875 12.40625 13.796875 21.59375 
C 13.796875 30.59375 19.796875 36.796875 28.5 36.796875 
z
" id="NimbusSans-Regular-54"/>
       </defs>
       <use xlink:href="#NimbusSans-Regular-48"/>
       <use x="55.599991" xlink:href="#NimbusSans-Regular-46"/>
       <use x="83.399979" xlink:href="#NimbusSans-Regular-54"/>
      </g>
     </g>
    </g>
    <g id="ytick_9">
     <g id="line2d_29">
      <g>
       <use style="stroke:#000000;stroke-width:0.8;" x="224.077917" xlink:href="#ma713cf6a84" y="30.61997"/>
      </g>
     </g>
     <g id="text_32">
      <!-- 0.8 -->
      <g transform="translate(203.179479 34.265283)scale(0.1 -0.1)">
       <defs>
        <path d="M 39.09375 38.09375 
C 46.5 42.59375 48.796875 46.203125 48.796875 53 
C 48.796875 64.40625 40.09375 72.296875 27.5 72.296875 
C 15 72.296875 6.203125 64.40625 6.203125 53.09375 
C 6.203125 46.203125 8.5 42.703125 15.796875 38.09375 
C 7.703125 34 3.703125 28.09375 3.703125 20.09375 
C 3.703125 6.90625 13.40625 -2.296875 27.5 -2.296875 
C 41.5 -2.296875 51.296875 6.90625 51.296875 20.09375 
C 51.296875 28.09375 47.296875 34 39.09375 38.09375 
z
M 27.5 64.5 
C 35 64.5 39.796875 60 39.796875 52.796875 
C 39.796875 46 34.90625 41.5 27.5 41.5 
C 20 41.5 15.203125 46 15.203125 53 
C 15.203125 60 20 64.5 27.5 64.5 
z
M 27.5 34.09375 
C 36.296875 34.09375 42.296875 28.296875 42.296875 19.90625 
C 42.296875 11.203125 36.40625 5.5 27.296875 5.5 
C 18.703125 5.5 12.703125 11.40625 12.703125 19.796875 
C 12.703125 28.40625 18.59375 34.09375 27.5 34.09375 
z
" id="NimbusSans-Regular-56"/>
       </defs>
       <use xlink:href="#NimbusSans-Regular-48"/>
       <use x="55.599991" xlink:href="#NimbusSans-Regular-46"/>
       <use x="83.399979" xlink:href="#NimbusSans-Regular-56"/>
      </g>
     </g>
    </g>
   </g>
   <g id="patch_28">
    <path d="M 224.077917 124.09875 
L 224.077917 21.94875 
" style="fill:none;stroke:#000000;stroke-linecap:square;stroke-linejoin:miter;stroke-width:0.8;"/>
   </g>
   <g id="patch_29">
    <path d="M 352.894583 124.09875 
L 352.894583 21.94875 
" style="fill:none;stroke:#000000;stroke-linecap:square;stroke-linejoin:miter;stroke-width:0.8;"/>
   </g>
   <g id="patch_30">
    <path d="M 224.077917 124.09875 
L 352.894583 124.09875 
" style="fill:none;stroke:#000000;stroke-linecap:square;stroke-linejoin:miter;stroke-width:0.8;"/>
   </g>
   <g id="patch_31">
    <path d="M 224.077917 21.94875 
L 352.894583 21.94875 
" style="fill:none;stroke:#000000;stroke-linecap:square;stroke-linejoin:miter;stroke-width:0.8;"/>
   </g>
   <g id="text_33">
    <!-- Unimodal vs. Gamma -->
    <g transform="translate(230.81125 15.94875)scale(0.12 -0.12)">
     <defs>
      <path d="M 55.203125 72.90625 
L 55.203125 21.703125 
C 55.203125 11.90625 48.09375 5.90625 36.40625 5.90625 
C 31 5.90625 26.59375 7.203125 23.09375 9.703125 
C 19.5 12.5 17.796875 16.203125 17.796875 21.703125 
L 17.796875 72.90625 
L 8.5 72.90625 
L 8.5 21.703125 
C 8.5 6.90625 19.09375 -2.296875 36.40625 -2.296875 
C 53.5 -2.296875 64.5 7.09375 64.5 21.703125 
L 64.5 72.90625 
z
" id="NimbusSans-Regular-85"/>
     </defs>
     <use xlink:href="#NimbusSans-Regular-85"/>
     <use x="72.199982" xlink:href="#NimbusSans-Regular-110"/>
     <use x="127.799973" xlink:href="#NimbusSans-Regular-105"/>
     <use x="149.999969" xlink:href="#NimbusSans-Regular-109"/>
     <use x="233.299957" xlink:href="#NimbusSans-Regular-111"/>
     <use x="288.899948" xlink:href="#NimbusSans-Regular-100"/>
     <use x="344.499939" xlink:href="#NimbusSans-Regular-97"/>
     <use x="400.09993" xlink:href="#NimbusSans-Regular-108"/>
     <use x="422.299927" xlink:href="#NimbusSans-Regular-32"/>
     <use x="450.099915" xlink:href="#NimbusSans-Regular-118"/>
     <use x="500.099899" xlink:href="#NimbusSans-Regular-115"/>
     <use x="550.099884" xlink:href="#NimbusSans-Regular-46"/>
     <use x="577.899872" xlink:href="#NimbusSans-Regular-32"/>
     <use x="605.69986" xlink:href="#NimbusSans-Regular-71"/>
     <use x="683.499847" xlink:href="#NimbusSans-Regular-97"/>
     <use x="739.099838" xlink:href="#NimbusSans-Regular-109"/>
     <use x="822.399826" xlink:href="#NimbusSans-Regular-109"/>
     <use x="905.699814" xlink:href="#NimbusSans-Regular-97"/>
    </g>
   </g>
  </g>
  <g id="axes_3">
   <g id="patch_32">
    <path d="M 390.069583 124.09875 
L 518.88625 124.09875 
L 518.88625 21.94875 
L 390.069583 21.94875 
z
" style="fill:#ffffff;"/>
   </g>
   <g id="patch_33">
    <path clip-path="url(#p64111aa2ab)" d="M 395.924886 124.09875 
L 405.484565 124.09875 
L 405.484565 100.348896 
L 395.924886 100.348896 
z
"/>
   </g>
   <g id="patch_34">
    <path clip-path="url(#p64111aa2ab)" d="M 407.874484 124.09875 
L 417.434163 124.09875 
L 417.434163 72.483945 
L 407.874484 72.483945 
z
"/>
   </g>
   <g id="patch_35">
    <path clip-path="url(#p64111aa2ab)" d="M 419.824082 124.09875 
L 429.383761 124.09875 
L 429.383761 83.0372 
L 419.824082 83.0372 
z
"/>
   </g>
   <g id="patch_36">
    <path clip-path="url(#p64111aa2ab)" d="M 431.77368 124.09875 
L 441.333359 124.09875 
L 441.333359 78.904017 
L 431.77368 78.904017 
z
"/>
   </g>
   <g id="patch_37">
    <path clip-path="url(#p64111aa2ab)" d="M 443.723278 124.09875 
L 453.282957 124.09875 
L 453.282957 61.221657 
L 443.723278 61.221657 
z
"/>
   </g>
   <g id="patch_38">
    <path clip-path="url(#p64111aa2ab)" d="M 455.672876 124.09875 
L 465.232555 124.09875 
L 465.232555 61.101616 
L 455.672876 61.101616 
z
"/>
   </g>
   <g id="patch_39">
    <path clip-path="url(#p64111aa2ab)" d="M 467.622474 124.09875 
L 477.182153 124.09875 
L 477.182153 103.410714 
L 467.622474 103.410714 
z
"/>
   </g>
   <g id="patch_40">
    <path clip-path="url(#p64111aa2ab)" d="M 479.572073 124.09875 
L 489.131751 124.09875 
L 489.131751 69.55609 
L 479.572073 69.55609 
z
"/>
   </g>
   <g id="patch_41">
    <path clip-path="url(#p64111aa2ab)" d="M 491.521671 124.09875 
L 501.081349 124.09875 
L 501.081349 87.039208 
L 491.521671 87.039208 
z
"/>
   </g>
   <g id="patch_42">
    <path clip-path="url(#p64111aa2ab)" d="M 503.471269 124.09875 
L 513.030947 124.09875 
L 513.030947 26.813036 
L 503.471269 26.813036 
z
"/>
   </g>
   <g id="matplotlib.axis_5">
    <g id="xtick_21">
     <g id="line2d_30">
      <g>
       <use style="stroke:#000000;stroke-width:0.8;" x="400.704726" xlink:href="#m497fd03515" y="124.09875"/>
      </g>
     </g>
     <g id="text_34">
      <!-- B cell -->
      <g transform="translate(403.260194 155.54875)rotate(-90)scale(0.1 -0.1)">
       <use xlink:href="#NimbusSans-Regular-66"/>
       <use x="66.699997" xlink:href="#NimbusSans-Regular-32"/>
       <use x="94.499985" xlink:href="#NimbusSans-Regular-99"/>
       <use x="144.499969" xlink:href="#NimbusSans-Regular-101"/>
       <use x="200.09996" xlink:href="#NimbusSans-Regular-108"/>
       <use x="222.299957" xlink:href="#NimbusSans-Regular-108"/>
      </g>
     </g>
    </g>
    <g id="xtick_22">
     <g id="line2d_31">
      <g>
       <use style="stroke:#000000;stroke-width:0.8;" x="412.654324" xlink:href="#m497fd03515" y="124.09875"/>
      </g>
     </g>
     <g id="text_35">
      <!-- T cell -->
      <g transform="translate(415.209792 154.987812)rotate(-90)scale(0.1 -0.1)">
       <use xlink:href="#NimbusSans-Regular-84"/>
       <use x="61.099991" xlink:href="#NimbusSans-Regular-32"/>
       <use x="88.899979" xlink:href="#NimbusSans-Regular-99"/>
       <use x="138.899963" xlink:href="#NimbusSans-Regular-101"/>
       <use x="194.499954" xlink:href="#NimbusSans-Regular-108"/>
       <use x="216.699951" xlink:href="#NimbusSans-Regular-108"/>
      </g>
     </g>
    </g>
    <g id="xtick_23">
     <g id="line2d_32">
      <g>
       <use style="stroke:#000000;stroke-width:0.8;" x="424.603922" xlink:href="#m497fd03515" y="124.09875"/>
      </g>
     </g>
     <g id="text_36">
      <!-- iPSC -->
      <g transform="translate(427.15939 153.88)rotate(-90)scale(0.1 -0.1)">
       <use xlink:href="#NimbusSans-Regular-105"/>
       <use x="22.199997" xlink:href="#NimbusSans-Regular-80"/>
       <use x="88.899994" xlink:href="#NimbusSans-Regular-83"/>
       <use x="155.599991" xlink:href="#NimbusSans-Regular-67"/>
      </g>
     </g>
    </g>
    <g id="xtick_24">
     <g id="line2d_33">
      <g>
       <use style="stroke:#000000;stroke-width:0.8;" x="436.55352" xlink:href="#m497fd03515" y="124.09875"/>
      </g>
     </g>
     <g id="text_37">
      <!-- T cell/B cell -->
      <g transform="translate(439.108988 182.2175)rotate(-90)scale(0.1 -0.1)">
       <use xlink:href="#NimbusSans-Regular-84"/>
       <use x="61.099991" xlink:href="#NimbusSans-Regular-32"/>
       <use x="88.899979" xlink:href="#NimbusSans-Regular-99"/>
       <use x="138.899963" xlink:href="#NimbusSans-Regular-101"/>
       <use x="194.499954" xlink:href="#NimbusSans-Regular-108"/>
       <use x="216.699951" xlink:href="#NimbusSans-Regular-108"/>
       <use x="238.899948" xlink:href="#NimbusSans-Regular-47"/>
       <use x="266.699936" xlink:href="#NimbusSans-Regular-66"/>
       <use x="333.399933" xlink:href="#NimbusSans-Regular-32"/>
       <use x="361.199921" xlink:href="#NimbusSans-Regular-99"/>
       <use x="411.199905" xlink:href="#NimbusSans-Regular-101"/>
       <use x="466.799896" xlink:href="#NimbusSans-Regular-108"/>
       <use x="488.999893" xlink:href="#NimbusSans-Regular-108"/>
      </g>
     </g>
    </g>
    <g id="xtick_25">
     <g id="line2d_34">
      <g>
       <use style="stroke:#000000;stroke-width:0.8;" x="448.503118" xlink:href="#m497fd03515" y="124.09875"/>
      </g>
     </g>
     <g id="text_38">
      <!-- Cyto/naive T -->
      <g transform="translate(451.117961 187.225313)rotate(-90)scale(0.1 -0.1)">
       <use xlink:href="#NimbusSans-Regular-67"/>
       <use x="72.199982" xlink:href="#NimbusSans-Regular-121"/>
       <use x="122.199966" xlink:href="#NimbusSans-Regular-116"/>
       <use x="149.999954" xlink:href="#NimbusSans-Regular-111"/>
       <use x="205.599945" xlink:href="#NimbusSans-Regular-47"/>
       <use x="233.399933" xlink:href="#NimbusSans-Regular-110"/>
       <use x="288.999924" xlink:href="#NimbusSans-Regular-97"/>
       <use x="344.599915" xlink:href="#NimbusSans-Regular-105"/>
       <use x="366.799911" xlink:href="#NimbusSans-Regular-118"/>
       <use x="416.799896" xlink:href="#NimbusSans-Regular-101"/>
       <use x="472.399887" xlink:href="#NimbusSans-Regular-32"/>
       <use x="500.199875" xlink:href="#NimbusSans-Regular-84"/>
      </g>
     </g>
    </g>
    <g id="xtick_26">
     <g id="line2d_35">
      <g>
       <use style="stroke:#000000;stroke-width:0.8;" x="460.452716" xlink:href="#m497fd03515" y="124.09875"/>
      </g>
     </g>
     <g id="text_39">
      <!-- Kidney -->
      <g transform="translate(463.008184 161.6675)rotate(-90)scale(0.1 -0.1)">
       <use xlink:href="#NimbusSans-Regular-75"/>
       <use x="66.699997" xlink:href="#NimbusSans-Regular-105"/>
       <use x="88.899994" xlink:href="#NimbusSans-Regular-100"/>
       <use x="144.499985" xlink:href="#NimbusSans-Regular-110"/>
       <use x="200.099976" xlink:href="#NimbusSans-Regular-101"/>
       <use x="255.699966" xlink:href="#NimbusSans-Regular-121"/>
      </g>
     </g>
    </g>
    <g id="xtick_27">
     <g id="line2d_36">
      <g>
       <use style="stroke:#000000;stroke-width:0.8;" x="472.402314" xlink:href="#m497fd03515" y="124.09875"/>
      </g>
     </g>
     <g id="text_40">
      <!-- Liver -->
      <g transform="translate(474.957782 152.7675)rotate(-90)scale(0.1 -0.1)">
       <use xlink:href="#NimbusSans-Regular-76"/>
       <use x="55.599991" xlink:href="#NimbusSans-Regular-105"/>
       <use x="77.799988" xlink:href="#NimbusSans-Regular-118"/>
       <use x="127.799973" xlink:href="#NimbusSans-Regular-101"/>
       <use x="183.399963" xlink:href="#NimbusSans-Regular-114"/>
      </g>
     </g>
    </g>
    <g id="xtick_28">
     <g id="line2d_37">
      <g>
       <use style="stroke:#000000;stroke-width:0.8;" x="484.351912" xlink:href="#m497fd03515" y="124.09875"/>
      </g>
     </g>
     <g id="text_41">
      <!-- PBMC -->
      <g transform="translate(486.90738 159.989375)rotate(-90)scale(0.1 -0.1)">
       <use xlink:href="#NimbusSans-Regular-80"/>
       <use x="66.699997" xlink:href="#NimbusSans-Regular-66"/>
       <use x="133.399994" xlink:href="#NimbusSans-Regular-77"/>
       <use x="216.699982" xlink:href="#NimbusSans-Regular-67"/>
      </g>
     </g>
    </g>
    <g id="xtick_29">
     <g id="line2d_38">
      <g>
       <use style="stroke:#000000;stroke-width:0.8;" x="496.30151" xlink:href="#m497fd03515" y="124.09875"/>
      </g>
     </g>
     <g id="text_42">
      <!-- Brain -->
      <g transform="translate(498.856978 154.437813)rotate(-90)scale(0.1 -0.1)">
       <use xlink:href="#NimbusSans-Regular-66"/>
       <use x="66.699997" xlink:href="#NimbusSans-Regular-114"/>
       <use x="99.999985" xlink:href="#NimbusSans-Regular-97"/>
       <use x="155.599976" xlink:href="#NimbusSans-Regular-105"/>
       <use x="177.799973" xlink:href="#NimbusSans-Regular-110"/>
      </g>
     </g>
    </g>
    <g id="xtick_30">
     <g id="line2d_39">
      <g>
       <use style="stroke:#000000;stroke-width:0.8;" x="508.251108" xlink:href="#m497fd03515" y="124.09875"/>
      </g>
     </g>
     <g id="text_43">
      <!-- Retina -->
      <g transform="translate(510.806577 159.997187)rotate(-90)scale(0.1 -0.1)">
       <use xlink:href="#NimbusSans-Regular-82"/>
       <use x="72.199982" xlink:href="#NimbusSans-Regular-101"/>
       <use x="127.799973" xlink:href="#NimbusSans-Regular-116"/>
       <use x="155.59996" xlink:href="#NimbusSans-Regular-105"/>
       <use x="177.799957" xlink:href="#NimbusSans-Regular-110"/>
       <use x="233.399948" xlink:href="#NimbusSans-Regular-97"/>
      </g>
     </g>
    </g>
   </g>
   <g id="matplotlib.axis_6">
    <g id="ytick_10">
     <g id="line2d_40">
      <g>
       <use style="stroke:#000000;stroke-width:0.8;" x="390.069583" xlink:href="#ma713cf6a84" y="124.09875"/>
      </g>
     </g>
     <g id="text_44">
      <!-- 0.00 -->
      <g transform="translate(363.611771 127.744062)scale(0.1 -0.1)">
       <use xlink:href="#NimbusSans-Regular-48"/>
       <use x="55.599991" xlink:href="#NimbusSans-Regular-46"/>
       <use x="83.399979" xlink:href="#NimbusSans-Regular-48"/>
       <use x="138.999969" xlink:href="#NimbusSans-Regular-48"/>
      </g>
     </g>
    </g>
    <g id="ytick_11">
     <g id="line2d_41">
      <g>
       <use style="stroke:#000000;stroke-width:0.8;" x="390.069583" xlink:href="#ma713cf6a84" y="94.790517"/>
      </g>
     </g>
     <g id="text_45">
      <!-- 0.02 -->
      <g transform="translate(363.611771 98.435829)scale(0.1 -0.1)">
       <use xlink:href="#NimbusSans-Regular-48"/>
       <use x="55.599991" xlink:href="#NimbusSans-Regular-46"/>
       <use x="83.399979" xlink:href="#NimbusSans-Regular-48"/>
       <use x="138.999969" xlink:href="#NimbusSans-Regular-50"/>
      </g>
     </g>
    </g>
    <g id="ytick_12">
     <g id="line2d_42">
      <g>
       <use style="stroke:#000000;stroke-width:0.8;" x="390.069583" xlink:href="#ma713cf6a84" y="65.482284"/>
      </g>
     </g>
     <g id="text_46">
      <!-- 0.04 -->
      <g transform="translate(363.611771 69.127596)scale(0.1 -0.1)">
       <use xlink:href="#NimbusSans-Regular-48"/>
       <use x="55.599991" xlink:href="#NimbusSans-Regular-46"/>
       <use x="83.399979" xlink:href="#NimbusSans-Regular-48"/>
       <use x="138.999969" xlink:href="#NimbusSans-Regular-52"/>
      </g>
     </g>
    </g>
    <g id="ytick_13">
     <g id="line2d_43">
      <g>
       <use style="stroke:#000000;stroke-width:0.8;" x="390.069583" xlink:href="#ma713cf6a84" y="36.174051"/>
      </g>
     </g>
     <g id="text_47">
      <!-- 0.06 -->
      <g transform="translate(363.611771 39.819363)scale(0.1 -0.1)">
       <use xlink:href="#NimbusSans-Regular-48"/>
       <use x="55.599991" xlink:href="#NimbusSans-Regular-46"/>
       <use x="83.399979" xlink:href="#NimbusSans-Regular-48"/>
       <use x="138.999969" xlink:href="#NimbusSans-Regular-54"/>
      </g>
     </g>
    </g>
   </g>
   <g id="patch_43">
    <path d="M 390.069583 124.09875 
L 390.069583 21.94875 
" style="fill:none;stroke:#000000;stroke-linecap:square;stroke-linejoin:miter;stroke-width:0.8;"/>
   </g>
   <g id="patch_44">
    <path d="M 518.88625 124.09875 
L 518.88625 21.94875 
" style="fill:none;stroke:#000000;stroke-linecap:square;stroke-linejoin:miter;stroke-width:0.8;"/>
   </g>
   <g id="patch_45">
    <path d="M 390.069583 124.09875 
L 518.88625 124.09875 
" style="fill:none;stroke:#000000;stroke-linecap:square;stroke-linejoin:miter;stroke-width:0.8;"/>
   </g>
   <g id="patch_46">
    <path d="M 390.069583 21.94875 
L 518.88625 21.94875 
" style="fill:none;stroke:#000000;stroke-linecap:square;stroke-linejoin:miter;stroke-width:0.8;"/>
   </g>
   <g id="text_48">
    <!-- Non-parametric vs. Unimodal -->
    <g transform="translate(376.800417 15.94875)scale(0.12 -0.12)">
     <defs>
      <path d="M 64.59375 72.90625 
L 55.796875 72.90625 
L 55.796875 13.296875 
L 17.703125 72.90625 
L 7.59375 72.90625 
L 7.59375 0 
L 16.40625 0 
L 16.40625 59.09375 
L 54.09375 0 
L 64.59375 0 
z
" id="NimbusSans-Regular-78"/>
      <path d="M 5.40625 -21.796875 
L 13.796875 -21.796875 
L 13.796875 5.5 
C 18.203125 0.09375 23.09375 -2.296875 29.90625 -2.296875 
C 43.5 -2.296875 52.296875 8.59375 52.296875 25.296875 
C 52.296875 42.90625 43.703125 53.90625 29.796875 53.90625 
C 22.703125 53.90625 17 50.703125 13.09375 44.5 
L 13.09375 52.40625 
L 5.40625 52.40625 
z
M 28.40625 46.09375 
C 37.59375 46.09375 43.59375 38 43.59375 25.5 
C 43.59375 13.59375 37.5 5.5 28.40625 5.5 
C 19.5 5.5 13.796875 13.5 13.796875 25.796875 
C 13.796875 38.09375 19.5 46.09375 28.40625 46.09375 
z
" id="NimbusSans-Regular-112"/>
     </defs>
     <use xlink:href="#NimbusSans-Regular-78"/>
     <use x="72.199982" xlink:href="#NimbusSans-Regular-111"/>
     <use x="127.799973" xlink:href="#NimbusSans-Regular-110"/>
     <use x="183.399963" xlink:href="#NimbusSans-Regular-45"/>
     <use x="216.699951" xlink:href="#NimbusSans-Regular-112"/>
     <use x="272.299942" xlink:href="#NimbusSans-Regular-97"/>
     <use x="327.899933" xlink:href="#NimbusSans-Regular-114"/>
     <use x="361.199921" xlink:href="#NimbusSans-Regular-97"/>
     <use x="416.799911" xlink:href="#NimbusSans-Regular-109"/>
     <use x="500.099899" xlink:href="#NimbusSans-Regular-101"/>
     <use x="555.69989" xlink:href="#NimbusSans-Regular-116"/>
     <use x="583.499878" xlink:href="#NimbusSans-Regular-114"/>
     <use x="616.799866" xlink:href="#NimbusSans-Regular-105"/>
     <use x="638.999863" xlink:href="#NimbusSans-Regular-99"/>
     <use x="688.999847" xlink:href="#NimbusSans-Regular-32"/>
     <use x="716.799835" xlink:href="#NimbusSans-Regular-118"/>
     <use x="766.79982" xlink:href="#NimbusSans-Regular-115"/>
     <use x="816.799805" xlink:href="#NimbusSans-Regular-46"/>
     <use x="844.599792" xlink:href="#NimbusSans-Regular-32"/>
     <use x="872.39978" xlink:href="#NimbusSans-Regular-85"/>
     <use x="944.599762" xlink:href="#NimbusSans-Regular-110"/>
     <use x="1000.199753" xlink:href="#NimbusSans-Regular-105"/>
     <use x="1022.39975" xlink:href="#NimbusSans-Regular-109"/>
     <use x="1105.699738" xlink:href="#NimbusSans-Regular-111"/>
     <use x="1161.299728" xlink:href="#NimbusSans-Regular-100"/>
     <use x="1216.899719" xlink:href="#NimbusSans-Regular-97"/>
     <use x="1272.49971" xlink:href="#NimbusSans-Regular-108"/>
    </g>
   </g>
  </g>
 </g>
 <defs>
  <clipPath id="p43fd41196d">
   <rect height="102.15" width="128.816667" x="58.08625" y="21.94875"/>
  </clipPath>
  <clipPath id="pcddb78e19f">
   <rect height="102.15" width="128.816667" x="224.077917" y="21.94875"/>
  </clipPath>
  <clipPath id="p64111aa2ab">
   <rect height="102.15" width="128.816667" x="390.069583" y="21.94875"/>
  </clipPath>
 </defs>
</svg>
