<?xml version="1.0" encoding="utf-8" standalone="no"?>
<!DOCTYPE svg PUBLIC "-//W3C//DTD SVG 1.1//EN"
  "http://www.w3.org/Graphics/SVG/1.1/DTD/svg11.dtd">
<!-- Created with matplotlib (https://matplotlib.org/) -->
<svg height="168.347187pt" version="1.1" viewBox="0 0 383.23625 168.347187" width="383.23625pt" xmlns="http://www.w3.org/2000/svg" xmlns:xlink="http://www.w3.org/1999/xlink">
 <metadata>
  <rdf:RDF xmlns:cc="http://creativecommons.org/ns#" xmlns:dc="http://purl.org/dc/elements/1.1/" xmlns:rdf="http://www.w3.org/1999/02/22-rdf-syntax-ns#">
   <cc:Work>
    <dc:type rdf:resource="http://purl.org/dc/dcmitype/StillImage"/>
    <dc:date>2020-09-12T15:43:57.902048</dc:date>
    <dc:format>image/svg+xml</dc:format>
    <dc:creator>
     <cc:Agent>
      <dc:title>Matplotlib v3.3.1, https://matplotlib.org/</dc:title>
     </cc:Agent>
    </dc:creator>
   </cc:Work>
  </rdf:RDF>
 </metadata>
 <defs>
  <style type="text/css">*{stroke-linecap:butt;stroke-linejoin:round;}</style>
 </defs>
 <g id="figure_1">
  <g id="patch_1">
   <path d="M 0 168.347187 
L 383.23625 168.347187 
L 383.23625 0 
L 0 0 
z
" style="fill:#ffffff;"/>
  </g>
  <g id="axes_1">
   <g id="patch_2">
    <path d="M 55.687813 131.206562 
L 180.362812 131.206562 
L 180.362812 10.845312 
L 55.687813 10.845312 
z
" style="fill:#ffffff;"/>
   </g>
   <g id="matplotlib.axis_1">
    <g id="xtick_1">
     <g id="line2d_1">
      <defs>
       <path d="M 0 0 
L 0 3.5 
" id="m29fd7e6d89" style="stroke:#000000;stroke-width:0.8;"/>
      </defs>
      <g>
       <use style="stroke:#000000;stroke-width:0.8;" x="61.354858" xlink:href="#m29fd7e6d89" y="131.206562"/>
      </g>
     </g>
     <g id="text_1">
      <!-- $\mathdefault{10^{-3}}$ -->
      <g transform="translate(51.604858 145.497187)scale(0.1 -0.1)">
       <defs>
        <path d="M 25.90625 51.5 
L 25.90625 0 
L 34.703125 0 
L 34.703125 72.296875 
L 28.90625 72.296875 
C 25.796875 61.203125 23.796875 59.703125 10.203125 57.90625 
L 10.203125 51.5 
z
" id="NimbusSans-Regular-49"/>
        <path d="M 27.5 72.296875 
C 20.90625 72.296875 14.90625 69.296875 11.203125 64.40625 
C 6.59375 58 4.296875 48.40625 4.296875 35 
C 4.296875 10.59375 12.296875 -2.296875 27.5 -2.296875 
C 42.5 -2.296875 50.703125 10.59375 50.703125 34.40625 
C 50.703125 48.40625 48.5 57.796875 43.796875 64.40625 
C 40.09375 69.40625 34.203125 72.296875 27.5 72.296875 
z
M 27.5 64.5 
C 37 64.5 41.703125 54.796875 41.703125 35.203125 
C 41.703125 14.59375 37.09375 5 27.296875 5 
C 18 5 13.296875 15 13.296875 34.90625 
C 13.296875 54.796875 18 64.5 27.5 64.5 
z
" id="NimbusSans-Regular-48"/>
        <path d="M 54.40625 26.703125 
L 4 26.703125 
L 4 19.703125 
L 54.40625 19.703125 
z
" id="NimbusSans-Regular-8722"/>
        <path d="M 22.09375 33.296875 
L 23.203125 33.296875 
L 26.90625 33.296875 
C 36.5 33.296875 41.59375 28.796875 41.59375 20.09375 
C 41.59375 11 36.09375 5.5 27 5.5 
C 17.296875 5.5 12.59375 10.40625 12 21 
L 3.203125 21 
C 3.59375 15.203125 4.59375 11.40625 6.296875 8.203125 
C 10 1.203125 16.90625 -2.296875 26.59375 -2.296875 
C 41.203125 -2.296875 50.59375 6.5 50.59375 20.203125 
C 50.59375 29.40625 47.09375 34.40625 38.59375 37.40625 
C 45.203125 40.09375 48.5 45.09375 48.5 52.40625 
C 48.5 64.796875 40.40625 72.296875 26.90625 72.296875 
C 12.59375 72.296875 5 64.296875 4.703125 49 
L 13.5 49 
C 13.59375 53.40625 14 55.90625 15.09375 58.09375 
C 17.09375 62.203125 21.5 64.59375 27 64.59375 
C 34.796875 64.59375 39.5 59.90625 39.5 52.09375 
C 39.5 47 37.703125 43.90625 33.796875 42.203125 
C 31.40625 41.203125 28.203125 40.796875 22.09375 40.703125 
z
" id="NimbusSans-Regular-51"/>
       </defs>
       <use transform="translate(0 0.004688)" xlink:href="#NimbusSans-Regular-49"/>
       <use transform="translate(55.599991 0.004688)" xlink:href="#NimbusSans-Regular-48"/>
       <use transform="translate(112.059669 34.392188)scale(0.7)" xlink:href="#NimbusSans-Regular-8722"/>
       <use transform="translate(152.939665 34.392188)scale(0.7)" xlink:href="#NimbusSans-Regular-51"/>
      </g>
     </g>
    </g>
    <g id="xtick_2">
     <g id="line2d_2">
      <g>
       <use style="stroke:#000000;stroke-width:0.8;" x="174.695767" xlink:href="#m29fd7e6d89" y="131.206562"/>
      </g>
     </g>
     <g id="text_2">
      <!-- $\mathdefault{10^{-2}}$ -->
      <g transform="translate(164.945767 145.497187)scale(0.1 -0.1)">
       <defs>
        <path d="M 50.59375 8.703125 
L 13.296875 8.703125 
C 14.203125 14.703125 17.40625 18.5 26.09375 23.796875 
L 36.09375 29.40625 
C 46 34.90625 51.09375 42.296875 51.09375 51.203125 
C 51.09375 57.203125 48.703125 62.796875 44.5 66.703125 
C 40.296875 70.5 35.09375 72.296875 28.40625 72.296875 
C 19.40625 72.296875 12.703125 69.09375 8.796875 62.90625 
C 6.296875 59.09375 5.203125 54.59375 5 47.296875 
L 13.796875 47.296875 
C 14.09375 52.203125 14.703125 55.09375 15.90625 57.5 
C 18.203125 61.90625 22.796875 64.59375 28.09375 64.59375 
C 36.09375 64.59375 42.09375 58.796875 42.09375 51 
C 42.09375 45.203125 38.796875 40.203125 32.5 36.59375 
L 23.296875 31.203125 
C 8.5 22.703125 4.203125 15.90625 3.40625 0.09375 
L 50.59375 0.09375 
z
" id="NimbusSans-Regular-50"/>
       </defs>
       <use transform="translate(0 0.004688)" xlink:href="#NimbusSans-Regular-49"/>
       <use transform="translate(55.599991 0.004688)" xlink:href="#NimbusSans-Regular-48"/>
       <use transform="translate(112.059669 34.392188)scale(0.7)" xlink:href="#NimbusSans-Regular-8722"/>
       <use transform="translate(152.939665 34.392188)scale(0.7)" xlink:href="#NimbusSans-Regular-50"/>
      </g>
     </g>
    </g>
    <g id="xtick_3">
     <g id="line2d_3">
      <defs>
       <path d="M 0 0 
L 0 2 
" id="me8c726391c" style="stroke:#000000;stroke-width:0.6;"/>
      </defs>
      <g>
       <use style="stroke:#000000;stroke-width:0.6;" x="56.168662" xlink:href="#me8c726391c" y="131.206562"/>
      </g>
     </g>
    </g>
    <g id="xtick_4">
     <g id="line2d_4">
      <g>
       <use style="stroke:#000000;stroke-width:0.6;" x="95.473871" xlink:href="#me8c726391c" y="131.206562"/>
      </g>
     </g>
    </g>
    <g id="xtick_5">
     <g id="line2d_5">
      <g>
       <use style="stroke:#000000;stroke-width:0.6;" x="115.432215" xlink:href="#me8c726391c" y="131.206562"/>
      </g>
     </g>
    </g>
    <g id="xtick_6">
     <g id="line2d_6">
      <g>
       <use style="stroke:#000000;stroke-width:0.6;" x="129.592885" xlink:href="#me8c726391c" y="131.206562"/>
      </g>
     </g>
    </g>
    <g id="xtick_7">
     <g id="line2d_7">
      <g>
       <use style="stroke:#000000;stroke-width:0.6;" x="140.576754" xlink:href="#me8c726391c" y="131.206562"/>
      </g>
     </g>
    </g>
    <g id="xtick_8">
     <g id="line2d_8">
      <g>
       <use style="stroke:#000000;stroke-width:0.6;" x="149.551228" xlink:href="#me8c726391c" y="131.206562"/>
      </g>
     </g>
    </g>
    <g id="xtick_9">
     <g id="line2d_9">
      <g>
       <use style="stroke:#000000;stroke-width:0.6;" x="157.139038" xlink:href="#me8c726391c" y="131.206562"/>
      </g>
     </g>
    </g>
    <g id="xtick_10">
     <g id="line2d_10">
      <g>
       <use style="stroke:#000000;stroke-width:0.6;" x="163.711898" xlink:href="#me8c726391c" y="131.206562"/>
      </g>
     </g>
    </g>
    <g id="xtick_11">
     <g id="line2d_11">
      <g>
       <use style="stroke:#000000;stroke-width:0.6;" x="169.509571" xlink:href="#me8c726391c" y="131.206562"/>
      </g>
     </g>
    </g>
    <g id="text_3">
     <!-- Assumed dispersion -->
     <g transform="translate(73.012812 158.9675)scale(0.1 -0.1)">
      <defs>
       <path d="M 47.40625 21.90625 
L 54.90625 0 
L 65.296875 0 
L 39.703125 72.90625 
L 27.703125 72.90625 
L 1.703125 0 
L 11.59375 0 
L 19.296875 21.90625 
z
M 44.796875 29.703125 
L 21.59375 29.703125 
L 33.59375 62.90625 
z
" id="NimbusSans-Regular-65"/>
       <path d="M 43.796875 37.796875 
C 43.703125 48.09375 36.90625 53.90625 24.796875 53.90625 
C 12.59375 53.90625 4.703125 47.59375 4.703125 37.90625 
C 4.703125 29.703125 8.90625 25.796875 21.296875 22.796875 
L 29.09375 20.90625 
C 34.90625 19.5 37.203125 17.40625 37.203125 13.703125 
C 37.203125 8.703125 32.296875 5.40625 25 5.40625 
C 20.5 5.40625 16.703125 6.703125 14.59375 8.90625 
C 13.296875 10.40625 12.703125 11.90625 12.203125 15.59375 
L 3.40625 15.59375 
C 3.796875 3.5 10.59375 -2.296875 24.296875 -2.296875 
C 37.5 -2.296875 45.90625 4.203125 45.90625 14.296875 
C 45.90625 22.09375 41.5 26.40625 31.09375 28.90625 
L 23.09375 30.796875 
C 16.296875 32.40625 13.40625 34.59375 13.40625 38.296875 
C 13.40625 43.203125 17.703125 46.203125 24.5 46.203125 
C 31.203125 46.203125 34.796875 43.296875 35 37.796875 
z
" id="NimbusSans-Regular-115"/>
       <path d="M 48.203125 0 
L 48.203125 52.40625 
L 39.90625 52.40625 
L 39.90625 22.703125 
C 39.90625 12 34.296875 5 25.59375 5 
C 19 5 14.796875 9 14.796875 15.296875 
L 14.796875 52.40625 
L 6.5 52.40625 
L 6.5 12 
C 6.5 3.296875 13 -2.296875 23.203125 -2.296875 
C 30.90625 -2.296875 35.796875 0.40625 40.703125 7.296875 
L 40.703125 0 
z
" id="NimbusSans-Regular-117"/>
       <path d="M 7 52.40625 
L 7 0 
L 15.40625 0 
L 15.40625 32.90625 
C 15.40625 40.5 20.90625 46.59375 27.703125 46.59375 
C 33.90625 46.59375 37.40625 42.796875 37.40625 36.09375 
L 37.40625 0 
L 45.796875 0 
L 45.796875 32.90625 
C 45.796875 40.5 51.296875 46.59375 58.09375 46.59375 
C 64.203125 46.59375 67.796875 42.703125 67.796875 36.09375 
L 67.796875 0 
L 76.203125 0 
L 76.203125 39.296875 
C 76.203125 48.703125 70.796875 53.90625 61 53.90625 
C 54 53.90625 49.796875 51.796875 44.90625 45.90625 
C 41.796875 51.5 37.59375 53.90625 30.796875 53.90625 
C 23.796875 53.90625 19.09375 51.296875 14.703125 45 
L 14.703125 52.40625 
z
" id="NimbusSans-Regular-109"/>
       <path d="M 51.296875 23.40625 
C 51.296875 31.40625 50.703125 36.203125 49.203125 40.09375 
C 45.796875 48.703125 37.796875 53.90625 28 53.90625 
C 13.40625 53.90625 4 42.796875 4 25.5 
C 4 8.203125 13 -2.296875 27.796875 -2.296875 
C 39.796875 -2.296875 48.09375 4.5 50.203125 15.90625 
L 41.796875 15.90625 
C 39.5 9 34.796875 5.40625 28.09375 5.40625 
C 22.796875 5.40625 18.296875 7.796875 15.5 12.203125 
C 13.5 15.203125 12.796875 18.203125 12.703125 23.40625 
z
M 12.90625 30.203125 
C 13.59375 39.90625 19.5 46.203125 27.90625 46.203125 
C 36.40625 46.203125 42.296875 39.59375 42.296875 30.203125 
z
" id="NimbusSans-Regular-101"/>
       <path d="M 49.5 72.90625 
L 41.203125 72.90625 
L 41.203125 45.796875 
C 37.703125 51.09375 32.09375 53.90625 25.09375 53.90625 
C 11.5 53.90625 2.59375 43 2.59375 26.296875 
C 2.59375 8.59375 11.203125 -2.296875 25.40625 -2.296875 
C 32.59375 -2.296875 37.59375 0.40625 42.09375 6.90625 
L 42.09375 0 
L 49.5 0 
z
M 26.5 46.09375 
C 35.5 46.09375 41.203125 38.203125 41.203125 25.59375 
C 41.203125 13.5 35.40625 5.5 26.59375 5.5 
C 17.40625 5.5 11.296875 13.59375 11.296875 25.796875 
C 11.296875 38 17.40625 46.09375 26.5 46.09375 
z
" id="NimbusSans-Regular-100"/>
       <path id="NimbusSans-Regular-32"/>
       <path d="M 15 52.40625 
L 6.703125 52.40625 
L 6.703125 0 
L 15 0 
z
M 15 72.90625 
L 6.59375 72.90625 
L 6.59375 62.40625 
L 15 62.40625 
z
" id="NimbusSans-Regular-105"/>
       <path d="M 5.40625 -21.796875 
L 13.796875 -21.796875 
L 13.796875 5.5 
C 18.203125 0.09375 23.09375 -2.296875 29.90625 -2.296875 
C 43.5 -2.296875 52.296875 8.59375 52.296875 25.296875 
C 52.296875 42.90625 43.703125 53.90625 29.796875 53.90625 
C 22.703125 53.90625 17 50.703125 13.09375 44.5 
L 13.09375 52.40625 
L 5.40625 52.40625 
z
M 28.40625 46.09375 
C 37.59375 46.09375 43.59375 38 43.59375 25.5 
C 43.59375 13.59375 37.5 5.5 28.40625 5.5 
C 19.5 5.5 13.796875 13.5 13.796875 25.796875 
C 13.796875 38.09375 19.5 46.09375 28.40625 46.09375 
z
" id="NimbusSans-Regular-112"/>
       <path d="M 6.90625 52.40625 
L 6.90625 0 
L 15.296875 0 
L 15.296875 27.203125 
C 15.40625 39.796875 20.59375 45.40625 32.09375 45.09375 
L 32.09375 53.59375 
C 30.703125 53.796875 29.90625 53.90625 28.90625 53.90625 
C 23.5 53.90625 19.40625 50.703125 14.59375 42.90625 
L 14.59375 52.40625 
z
" id="NimbusSans-Regular-114"/>
       <path d="M 27.203125 53.90625 
C 12.40625 53.90625 3.59375 43.40625 3.59375 25.796875 
C 3.59375 8.09375 12.40625 -2.296875 27.296875 -2.296875 
C 42.09375 -2.296875 51 8.203125 51 25.40625 
C 51 43.59375 42.40625 53.90625 27.203125 53.90625 
z
M 27.296875 46.203125 
C 36.703125 46.203125 42.296875 38.5 42.296875 25.5 
C 42.296875 13.09375 36.5 5.40625 27.296875 5.40625 
C 18 5.40625 12.296875 13.09375 12.296875 25.796875 
C 12.296875 38.5 18 46.203125 27.296875 46.203125 
z
" id="NimbusSans-Regular-111"/>
       <path d="M 7 52.40625 
L 7 0 
L 15.40625 0 
L 15.40625 28.90625 
C 15.40625 39.59375 21 46.59375 29.59375 46.59375 
C 36.203125 46.59375 40.40625 42.59375 40.40625 36.296875 
L 40.40625 0 
L 48.703125 0 
L 48.703125 39.59375 
C 48.703125 48.296875 42.203125 53.90625 32.09375 53.90625 
C 24.296875 53.90625 19.296875 50.90625 14.703125 43.59375 
L 14.703125 52.40625 
z
" id="NimbusSans-Regular-110"/>
      </defs>
      <use xlink:href="#NimbusSans-Regular-65"/>
      <use x="66.699997" xlink:href="#NimbusSans-Regular-115"/>
      <use x="116.699982" xlink:href="#NimbusSans-Regular-115"/>
      <use x="166.699966" xlink:href="#NimbusSans-Regular-117"/>
      <use x="222.299957" xlink:href="#NimbusSans-Regular-109"/>
      <use x="305.599945" xlink:href="#NimbusSans-Regular-101"/>
      <use x="361.199936" xlink:href="#NimbusSans-Regular-100"/>
      <use x="416.799927" xlink:href="#NimbusSans-Regular-32"/>
      <use x="444.599915" xlink:href="#NimbusSans-Regular-100"/>
      <use x="500.199905" xlink:href="#NimbusSans-Regular-105"/>
      <use x="522.399902" xlink:href="#NimbusSans-Regular-115"/>
      <use x="572.399887" xlink:href="#NimbusSans-Regular-112"/>
      <use x="627.999878" xlink:href="#NimbusSans-Regular-101"/>
      <use x="683.599869" xlink:href="#NimbusSans-Regular-114"/>
      <use x="716.899857" xlink:href="#NimbusSans-Regular-115"/>
      <use x="766.899841" xlink:href="#NimbusSans-Regular-105"/>
      <use x="789.099838" xlink:href="#NimbusSans-Regular-111"/>
      <use x="844.699829" xlink:href="#NimbusSans-Regular-110"/>
     </g>
    </g>
   </g>
   <g id="matplotlib.axis_2">
    <g id="ytick_1">
     <g id="line2d_12">
      <defs>
       <path d="M 0 0 
L -3.5 0 
" id="m5d2bdce4a2" style="stroke:#000000;stroke-width:0.8;"/>
      </defs>
      <g>
       <use style="stroke:#000000;stroke-width:0.8;" x="55.687813" xlink:href="#m5d2bdce4a2" y="131.206562"/>
      </g>
     </g>
     <g id="text_4">
      <!-- −10 -->
      <g transform="translate(31.728438 134.851875)scale(0.1 -0.1)">
       <use xlink:href="#NimbusSans-Regular-8722"/>
       <use x="58.399994" xlink:href="#NimbusSans-Regular-49"/>
       <use x="113.999985" xlink:href="#NimbusSans-Regular-48"/>
      </g>
     </g>
    </g>
    <g id="ytick_2">
     <g id="line2d_13">
      <g>
       <use style="stroke:#000000;stroke-width:0.8;" x="55.687813" xlink:href="#m5d2bdce4a2" y="107.134312"/>
      </g>
     </g>
     <g id="text_5">
      <!-- −8 -->
      <g transform="translate(37.287813 110.779625)scale(0.1 -0.1)">
       <defs>
        <path d="M 39.09375 38.09375 
C 46.5 42.59375 48.796875 46.203125 48.796875 53 
C 48.796875 64.40625 40.09375 72.296875 27.5 72.296875 
C 15 72.296875 6.203125 64.40625 6.203125 53.09375 
C 6.203125 46.203125 8.5 42.703125 15.796875 38.09375 
C 7.703125 34 3.703125 28.09375 3.703125 20.09375 
C 3.703125 6.90625 13.40625 -2.296875 27.5 -2.296875 
C 41.5 -2.296875 51.296875 6.90625 51.296875 20.09375 
C 51.296875 28.09375 47.296875 34 39.09375 38.09375 
z
M 27.5 64.5 
C 35 64.5 39.796875 60 39.796875 52.796875 
C 39.796875 46 34.90625 41.5 27.5 41.5 
C 20 41.5 15.203125 46 15.203125 53 
C 15.203125 60 20 64.5 27.5 64.5 
z
M 27.5 34.09375 
C 36.296875 34.09375 42.296875 28.296875 42.296875 19.90625 
C 42.296875 11.203125 36.40625 5.5 27.296875 5.5 
C 18.703125 5.5 12.703125 11.40625 12.703125 19.796875 
C 12.703125 28.40625 18.59375 34.09375 27.5 34.09375 
z
" id="NimbusSans-Regular-56"/>
       </defs>
       <use xlink:href="#NimbusSans-Regular-8722"/>
       <use x="58.399994" xlink:href="#NimbusSans-Regular-56"/>
      </g>
     </g>
    </g>
    <g id="ytick_3">
     <g id="line2d_14">
      <g>
       <use style="stroke:#000000;stroke-width:0.8;" x="55.687813" xlink:href="#m5d2bdce4a2" y="83.062062"/>
      </g>
     </g>
     <g id="text_6">
      <!-- −6 -->
      <g transform="translate(37.287813 86.707375)scale(0.1 -0.1)">
       <defs>
        <path d="M 49.796875 53.5 
C 48.09375 65.296875 40.5 72.296875 29.703125 72.296875 
C 21.90625 72.296875 14.90625 68.5 10.703125 62 
C 6.203125 54.90625 4.296875 46.09375 4.296875 33 
C 4.296875 20.796875 6 13.09375 10.296875 6.703125 
C 14.09375 0.796875 20.296875 -2.296875 28.09375 -2.296875 
C 41.59375 -2.296875 51.296875 7.796875 51.296875 21.90625 
C 51.296875 35.203125 42.296875 44.59375 29.59375 44.59375 
C 22.59375 44.59375 17.09375 42 13.296875 36.703125 
C 13.40625 54.59375 19 64.5 29.09375 64.5 
C 35.296875 64.5 39.59375 60.5 41 53.5 
z
M 28.5 36.796875 
C 37 36.796875 42.296875 30.796875 42.296875 21.203125 
C 42.296875 12.09375 36.296875 5.5 28.203125 5.5 
C 20 5.5 13.796875 12.40625 13.796875 21.59375 
C 13.796875 30.59375 19.796875 36.796875 28.5 36.796875 
z
" id="NimbusSans-Regular-54"/>
       </defs>
       <use xlink:href="#NimbusSans-Regular-8722"/>
       <use x="58.399994" xlink:href="#NimbusSans-Regular-54"/>
      </g>
     </g>
    </g>
    <g id="ytick_4">
     <g id="line2d_15">
      <g>
       <use style="stroke:#000000;stroke-width:0.8;" x="55.687813" xlink:href="#m5d2bdce4a2" y="58.989812"/>
      </g>
     </g>
     <g id="text_7">
      <!-- −4 -->
      <g transform="translate(37.287813 62.635125)scale(0.1 -0.1)">
       <defs>
        <path d="M 32.703125 17.5 
L 32.703125 0 
L 41.5 0 
L 41.5 17.5 
L 52 17.5 
L 52 25.40625 
L 41.5 25.40625 
L 41.5 72.296875 
L 35 72.296875 
L 2.796875 26.796875 
L 2.796875 17.5 
z
M 32.703125 25.40625 
L 10.5 25.40625 
L 32.703125 57.296875 
z
" id="NimbusSans-Regular-52"/>
       </defs>
       <use xlink:href="#NimbusSans-Regular-8722"/>
       <use x="58.399994" xlink:href="#NimbusSans-Regular-52"/>
      </g>
     </g>
    </g>
    <g id="ytick_5">
     <g id="line2d_16">
      <g>
       <use style="stroke:#000000;stroke-width:0.8;" x="55.687813" xlink:href="#m5d2bdce4a2" y="34.917562"/>
      </g>
     </g>
     <g id="text_8">
      <!-- −2 -->
      <g transform="translate(37.287813 38.562875)scale(0.1 -0.1)">
       <use xlink:href="#NimbusSans-Regular-8722"/>
       <use x="58.399994" xlink:href="#NimbusSans-Regular-50"/>
      </g>
     </g>
    </g>
    <g id="ytick_6">
     <g id="line2d_17">
      <g>
       <use style="stroke:#000000;stroke-width:0.8;" x="55.687813" xlink:href="#m5d2bdce4a2" y="10.845312"/>
      </g>
     </g>
     <g id="text_9">
      <!-- 0 -->
      <g transform="translate(43.128438 14.490625)scale(0.1 -0.1)">
       <use xlink:href="#NimbusSans-Regular-48"/>
      </g>
     </g>
    </g>
    <g id="text_10">
     <!-- Difference log$_{10}$ likelihood -->
     <g transform="translate(14.6 128.775937)rotate(-90)scale(0.1 -0.1)">
      <defs>
       <path d="M 8.90625 0 
L 37 0 
C 55.40625 0 66.703125 13.796875 66.703125 36.5 
C 66.703125 59.09375 55.5 72.90625 37 72.90625 
L 8.90625 72.90625 
z
M 18.203125 8.203125 
L 18.203125 64.703125 
L 35.40625 64.703125 
C 49.796875 64.703125 57.40625 55 57.40625 36.40625 
C 57.40625 17.90625 49.796875 8.203125 35.40625 8.203125 
z
" id="NimbusSans-Regular-68"/>
       <path d="M 25.796875 52.40625 
L 17.09375 52.40625 
L 17.09375 60.59375 
C 17.09375 64.09375 19 65.90625 22.90625 65.90625 
C 23.59375 65.90625 23.90625 65.90625 25.796875 65.796875 
L 25.796875 72.703125 
C 23.90625 73.09375 22.796875 73.203125 21.09375 73.203125 
C 13.40625 73.203125 8.796875 68.796875 8.796875 61.296875 
L 8.796875 52.40625 
L 1.796875 52.40625 
L 1.796875 45.59375 
L 8.796875 45.59375 
L 8.796875 0 
L 17.09375 0 
L 17.09375 45.59375 
L 25.796875 45.59375 
z
" id="NimbusSans-Regular-102"/>
       <path d="M 47.09375 34.796875 
C 46.703125 39.90625 45.59375 43.203125 43.59375 46.09375 
C 40 51 33.703125 53.90625 26.40625 53.90625 
C 12.203125 53.90625 3.09375 42.703125 3.09375 25.296875 
C 3.09375 8.40625 12.09375 -2.296875 26.296875 -2.296875 
C 38.796875 -2.296875 46.703125 5.203125 47.703125 18 
L 39.296875 18 
C 37.90625 9.59375 33.59375 5.40625 26.5 5.40625 
C 17.296875 5.40625 11.796875 12.90625 11.796875 25.296875 
C 11.796875 38.40625 17.203125 46.203125 26.296875 46.203125 
C 33.296875 46.203125 37.703125 42.09375 38.703125 34.796875 
z
" id="NimbusSans-Regular-99"/>
       <path d="M 15.203125 72.90625 
L 6.796875 72.90625 
L 6.796875 0 
L 15.203125 0 
z
" id="NimbusSans-Regular-108"/>
       <path d="M 40.40625 52.40625 
L 40.40625 44.796875 
C 36.203125 51.09375 31.59375 53.90625 25 53.90625 
C 12.296875 53.90625 3.5 42.09375 3.5 25.296875 
C 3.5 16.5 5.59375 10.09375 10.09375 4.796875 
C 14 0.203125 19 -2.296875 24.40625 -2.296875 
C 30.703125 -2.296875 35.203125 0.5 39.59375 7.09375 
L 39.59375 4.40625 
C 39.59375 -9.59375 35.703125 -14.796875 25.296875 -14.796875 
C 18.203125 -14.796875 14.5 -12 13.703125 -6 
L 5.203125 -6 
C 6 -15.703125 13.703125 -21.796875 25.09375 -21.796875 
C 32.796875 -21.796875 39.203125 -19.296875 42.59375 -15.09375 
C 46.59375 -10.203125 48.09375 -3.703125 48.09375 8.59375 
L 48.09375 52.40625 
z
M 25.796875 46.203125 
C 34.59375 46.203125 39.59375 38.796875 39.59375 25.5 
C 39.59375 12.796875 34.5 5.40625 25.796875 5.40625 
C 17.203125 5.40625 12.203125 12.90625 12.203125 25.796875 
C 12.203125 38.59375 17.203125 46.203125 25.796875 46.203125 
z
" id="NimbusSans-Regular-103"/>
       <path d="M 12.40625 8.296875 
L 28.515625 8.296875 
L 28.515625 63.921875 
L 10.984375 60.40625 
L 10.984375 69.390625 
L 28.421875 72.90625 
L 38.28125 72.90625 
L 38.28125 8.296875 
L 54.390625 8.296875 
L 54.390625 0 
L 12.40625 0 
z
" id="DejaVuSans-49"/>
       <path d="M 31.78125 66.40625 
Q 24.171875 66.40625 20.328125 58.90625 
Q 16.5 51.421875 16.5 36.375 
Q 16.5 21.390625 20.328125 13.890625 
Q 24.171875 6.390625 31.78125 6.390625 
Q 39.453125 6.390625 43.28125 13.890625 
Q 47.125 21.390625 47.125 36.375 
Q 47.125 51.421875 43.28125 58.90625 
Q 39.453125 66.40625 31.78125 66.40625 
z
M 31.78125 74.21875 
Q 44.046875 74.21875 50.515625 64.515625 
Q 56.984375 54.828125 56.984375 36.375 
Q 56.984375 17.96875 50.515625 8.265625 
Q 44.046875 -1.421875 31.78125 -1.421875 
Q 19.53125 -1.421875 13.0625 8.265625 
Q 6.59375 17.96875 6.59375 36.375 
Q 6.59375 54.828125 13.0625 64.515625 
Q 19.53125 74.21875 31.78125 74.21875 
z
" id="DejaVuSans-48"/>
       <path d="M 14.09375 72.90625 
L 5.796875 72.90625 
L 5.796875 0 
L 14.09375 0 
L 14.09375 20.40625 
L 22.203125 28.40625 
L 39.90625 0 
L 50.203125 0 
L 28.796875 34.296875 
L 47 52.40625 
L 36.296875 52.40625 
L 14.09375 30.203125 
z
" id="NimbusSans-Regular-107"/>
       <path d="M 7 72.90625 
L 7 0 
L 15.296875 0 
L 15.296875 28.90625 
C 15.296875 39.59375 20.90625 46.59375 29.5 46.59375 
C 32.296875 46.59375 34.90625 45.796875 36.90625 44.296875 
C 39.296875 42.5 40.296875 40 40.296875 36.296875 
L 40.296875 0 
L 48.59375 0 
L 48.59375 39.59375 
C 48.59375 48.40625 42.296875 53.90625 32.09375 53.90625 
C 24.703125 53.90625 20.203125 51.59375 15.296875 45.203125 
L 15.296875 72.90625 
z
" id="NimbusSans-Regular-104"/>
      </defs>
      <use transform="translate(0 0.796875)" xlink:href="#NimbusSans-Regular-68"/>
      <use transform="translate(72.199982 0.796875)" xlink:href="#NimbusSans-Regular-105"/>
      <use transform="translate(94.399979 0.796875)" xlink:href="#NimbusSans-Regular-102"/>
      <use transform="translate(122.199966 0.796875)" xlink:href="#NimbusSans-Regular-102"/>
      <use transform="translate(149.999954 0.796875)" xlink:href="#NimbusSans-Regular-101"/>
      <use transform="translate(205.599945 0.796875)" xlink:href="#NimbusSans-Regular-114"/>
      <use transform="translate(238.899933 0.796875)" xlink:href="#NimbusSans-Regular-101"/>
      <use transform="translate(294.499924 0.796875)" xlink:href="#NimbusSans-Regular-110"/>
      <use transform="translate(350.099915 0.796875)" xlink:href="#NimbusSans-Regular-99"/>
      <use transform="translate(400.099899 0.796875)" xlink:href="#NimbusSans-Regular-101"/>
      <use transform="translate(455.69989 0.796875)" xlink:href="#NimbusSans-Regular-32"/>
      <use transform="translate(483.499878 0.796875)" xlink:href="#NimbusSans-Regular-108"/>
      <use transform="translate(505.699875 0.796875)" xlink:href="#NimbusSans-Regular-111"/>
      <use transform="translate(561.299866 0.796875)" xlink:href="#NimbusSans-Regular-103"/>
      <use transform="translate(617.856888 -15.609375)scale(0.7)" xlink:href="#DejaVuSans-49"/>
      <use transform="translate(662.393021 -15.609375)scale(0.7)" xlink:href="#DejaVuSans-48"/>
      <use transform="translate(709.663528 0.796875)" xlink:href="#NimbusSans-Regular-32"/>
      <use transform="translate(737.463516 0.796875)" xlink:href="#NimbusSans-Regular-108"/>
      <use transform="translate(759.663513 0.796875)" xlink:href="#NimbusSans-Regular-105"/>
      <use transform="translate(781.86351 0.796875)" xlink:href="#NimbusSans-Regular-107"/>
      <use transform="translate(831.863495 0.796875)" xlink:href="#NimbusSans-Regular-101"/>
      <use transform="translate(887.463486 0.796875)" xlink:href="#NimbusSans-Regular-108"/>
      <use transform="translate(909.663483 0.796875)" xlink:href="#NimbusSans-Regular-105"/>
      <use transform="translate(931.86348 0.796875)" xlink:href="#NimbusSans-Regular-104"/>
      <use transform="translate(987.46347 0.796875)" xlink:href="#NimbusSans-Regular-111"/>
      <use transform="translate(1043.063461 0.796875)" xlink:href="#NimbusSans-Regular-111"/>
      <use transform="translate(1098.663452 0.796875)" xlink:href="#NimbusSans-Regular-100"/>
     </g>
     <!-- from best -->
     <g transform="translate(25.54875 91.864219)rotate(-90)scale(0.1 -0.1)">
      <defs>
       <path d="M 5.40625 72.90625 
L 5.40625 0 
L 12.90625 0 
L 12.90625 6.703125 
C 16.90625 0.59375 22.203125 -2.296875 29.5 -2.296875 
C 43.296875 -2.296875 52.296875 9 52.296875 26.40625 
C 52.296875 43.40625 43.796875 53.90625 29.90625 53.90625 
C 22.703125 53.90625 17.59375 51.203125 13.703125 45.296875 
L 13.703125 72.90625 
z
M 28.296875 46.09375 
C 37.59375 46.09375 43.59375 38 43.59375 25.5 
C 43.59375 13.59375 37.40625 5.5 28.296875 5.5 
C 19.40625 5.5 13.703125 13.5 13.703125 25.796875 
C 13.703125 38.09375 19.40625 46.09375 28.296875 46.09375 
z
" id="NimbusSans-Regular-98"/>
       <path d="M 25.40625 52.40625 
L 16.796875 52.40625 
L 16.796875 66.796875 
L 8.5 66.796875 
L 8.5 52.40625 
L 1.40625 52.40625 
L 1.40625 45.59375 
L 8.5 45.59375 
L 8.5 6 
C 8.5 0.59375 12.09375 -2.296875 18.59375 -2.296875 
C 20.796875 -2.296875 22.59375 -2.09375 25.40625 -1.59375 
L 25.40625 5.40625 
C 24.203125 5.09375 23.09375 5 21.40625 5 
C 17.796875 5 16.796875 6 16.796875 9.703125 
L 16.796875 45.59375 
L 25.40625 45.59375 
z
" id="NimbusSans-Regular-116"/>
      </defs>
      <use xlink:href="#NimbusSans-Regular-102"/>
      <use x="27.799988" xlink:href="#NimbusSans-Regular-114"/>
      <use x="61.099976" xlink:href="#NimbusSans-Regular-111"/>
      <use x="116.699966" xlink:href="#NimbusSans-Regular-109"/>
      <use x="199.999954" xlink:href="#NimbusSans-Regular-32"/>
      <use x="227.799942" xlink:href="#NimbusSans-Regular-98"/>
      <use x="283.399933" xlink:href="#NimbusSans-Regular-101"/>
      <use x="338.999924" xlink:href="#NimbusSans-Regular-115"/>
      <use x="388.999908" xlink:href="#NimbusSans-Regular-116"/>
     </g>
    </g>
   </g>
   <g id="line2d_18">
    <path clip-path="url(#p187c91c72a)" d="M 61.354858 13.316791 
L 62.499716 12.943808 
L 63.644573 12.392627 
L 64.789431 14.402598 
L 65.934289 11.804827 
L 67.079146 11.273275 
L 68.224004 11.377494 
L 69.368862 11.905501 
L 70.513719 12.78977 
L 71.658577 13.548517 
L 72.803435 11.691321 
L 73.948292 12.92163 
L 75.09315 11.899708 
L 76.238008 10.845312 
L 77.382865 11.694493 
L 78.527723 12.025673 
L 79.672581 12.567901 
L 80.817438 12.036041 
L 81.962296 13.322939 
L 83.107154 12.786561 
L 84.252011 12.142032 
L 85.396869 11.742019 
L 86.541727 11.497333 
L 87.686584 11.850155 
L 88.831442 12.133122 
L 89.9763 13.207752 
L 91.121157 12.093084 
L 92.266015 12.30871 
L 93.410873 12.027185 
L 94.55573 12.331916 
L 95.700588 12.695785 
L 96.845446 12.648174 
L 97.990303 11.731509 
L 99.135161 11.641789 
L 100.280019 12.522754 
L 101.424876 12.551974 
L 102.569734 12.097546 
L 103.714592 11.318167 
L 104.859449 11.817895 
L 106.004307 12.110099 
L 107.149165 12.141045 
L 108.294022 11.494885 
L 109.43888 12.148079 
L 110.583738 12.362186 
L 111.728595 12.178308 
L 112.873453 11.416158 
L 114.018311 11.864603 
L 115.163168 12.189799 
L 116.308026 12.023146 
L 117.452884 11.92363 
L 118.597741 12.093776 
L 119.742599 11.977445 
L 120.887457 11.498732 
L 122.032314 11.793683 
L 123.177172 12.082317 
L 124.32203 11.481502 
L 125.466887 12.257619 
L 126.611745 11.566949 
L 127.756603 11.752048 
L 128.90146 12.06454 
L 130.046318 11.685789 
L 131.191176 11.854059 
L 132.336033 11.686911 
L 133.480891 11.811621 
L 134.625749 11.397324 
L 135.770606 11.329126 
L 136.915464 14.178923 
L 138.060322 20.659611 
L 139.205179 28.567745 
L 140.350037 37.535715 
L 141.494895 48.12002 
L 142.639752 59.670847 
L 143.78461 72.867685 
L 144.929468 87.2489 
L 146.074325 102.96916 
L 147.219183 120.120251 
L 148.364041 138.128715 
L 149.508898 158.268141 
L 150.1197 169.347187 
" style="fill:none;stroke:#e7298a;stroke-linecap:square;"/>
   </g>
   <g id="line2d_19">
    <path clip-path="url(#p187c91c72a)" d="M 61.354858 13.204882 
L 62.499716 13.597792 
L 63.644573 12.65527 
L 64.789431 11.316612 
L 65.934289 13.699752 
L 67.079146 12.77324 
L 68.224004 12.036844 
L 69.368862 12.41256 
L 70.513719 13.423441 
L 71.658577 12.126894 
L 72.803435 11.975815 
L 73.948292 10.845312 
L 75.09315 12.229334 
L 76.238008 12.661479 
L 77.382865 14.052954 
L 78.527723 12.176358 
L 79.672581 11.530372 
L 80.817438 12.518132 
L 81.962296 13.04928 
L 83.107154 12.867122 
L 84.252011 12.533725 
L 85.396869 11.440907 
L 86.541727 12.347606 
L 87.686584 12.641915 
L 88.831442 13.175787 
L 89.9763 11.945843 
L 91.121157 12.377073 
L 92.266015 12.068075 
L 93.410873 13.412047 
L 94.55573 12.765426 
L 95.700588 12.16991 
L 96.845446 12.509486 
L 97.990303 12.456269 
L 99.135161 12.311049 
L 100.280019 12.598017 
L 101.424876 12.637227 
L 102.569734 11.573384 
L 103.714592 12.665233 
L 104.859449 18.469628 
L 106.004307 24.871265 
L 107.149165 31.599347 
L 108.294022 39.687688 
L 109.43888 48.9188 
L 110.583738 58.494405 
L 111.728595 69.840219 
L 112.873453 81.801572 
L 114.018311 98.087149 
L 115.163168 116.978068 
L 116.308026 137.017709 
L 117.452884 158.183847 
L 118.010418 169.347187 
" style="fill:none;stroke:#66a61e;stroke-linecap:square;"/>
   </g>
   <g id="line2d_20">
    <path clip-path="url(#p187c91c72a)" d="M 61.354858 17.498334 
L 62.499716 17.492512 
L 63.644573 17.506406 
L 64.789431 17.498508 
L 65.934289 17.501945 
L 67.079146 17.501568 
L 68.224004 17.502865 
L 69.368862 17.503434 
L 70.513719 17.505859 
L 71.658577 17.505942 
L 72.803435 17.498703 
L 73.948292 17.49493 
L 75.09315 17.498683 
L 76.238008 17.501334 
L 77.382865 17.503733 
L 78.527723 17.497108 
L 79.672581 17.502952 
L 80.817438 17.509014 
L 81.962296 17.504529 
L 83.107154 17.504881 
L 84.252011 17.499792 
L 85.396869 17.506687 
L 86.541727 17.502676 
L 87.686584 17.50239 
L 88.831442 17.50654 
L 89.9763 17.506236 
L 91.121157 17.501157 
L 92.266015 16.830631 
L 93.410873 15.851276 
L 94.55573 15.002001 
L 95.700588 14.269649 
L 96.845446 13.663079 
L 97.990303 13.168938 
L 99.135161 12.797258 
L 100.280019 12.136113 
L 101.424876 11.487337 
L 102.569734 11.056662 
L 103.714592 10.845312 
L 104.859449 10.84756 
L 106.004307 11.061387 
L 107.149165 11.478618 
L 108.294022 12.09576 
L 109.43888 12.914116 
L 110.583738 13.930505 
L 111.728595 14.704464 
L 112.873453 15.736786 
L 114.018311 17.057026 
L 115.163168 18.669592 
L 116.308026 20.552594 
L 117.452884 22.477496 
L 118.597741 24.782715 
L 119.742599 27.466499 
L 120.887457 30.508978 
L 122.032314 33.911131 
L 123.177172 37.673175 
L 124.32203 41.77672 
L 125.466887 46.225927 
L 126.611745 50.999538 
L 127.756603 56.104154 
L 128.90146 61.530289 
L 130.046318 67.272167 
L 131.191176 73.320895 
L 132.336033 79.681648 
L 133.480891 86.329551 
L 134.625749 93.271027 
L 135.770606 100.500102 
L 136.915464 108.011529 
L 138.060322 115.791611 
L 139.205179 123.849059 
L 140.350037 132.169649 
L 141.494895 140.744572 
L 142.639752 149.577853 
L 143.78461 158.663835 
L 144.929468 167.983987 
L 145.092512 169.347187 
" style="fill:none;stroke:#e6ab02;stroke-linecap:square;"/>
   </g>
   <g id="line2d_21">
    <path clip-path="url(#p187c91c72a)" d="M 61.354858 10.845312 
L 62.499716 38.502592 
L 63.644573 67.088043 
L 64.789431 108.586784 
L 65.934289 152.138801 
L 66.389703 169.347187 
" style="fill:none;stroke:#a6761d;stroke-linecap:square;"/>
   </g>
   <g id="line2d_22">
    <path clip-path="url(#p187c91c72a)" d="M 61.354858 10.845312 
L 62.499716 11.812138 
L 63.644573 13.359485 
L 64.789431 14.762953 
L 65.934289 16.169777 
L 67.079146 18.039155 
L 68.224004 19.712983 
L 69.368862 21.72771 
L 70.513719 23.312382 
L 71.658577 25.403991 
L 72.803435 27.471094 
L 73.948292 29.639244 
L 75.09315 31.924515 
L 76.238008 34.431903 
L 77.382865 36.847044 
L 78.527723 39.48464 
L 79.672581 42.285544 
L 80.817438 45.081359 
L 81.962296 48.151837 
L 83.107154 51.374699 
L 84.252011 54.694557 
L 85.396869 58.090953 
L 86.541727 61.956985 
L 87.686584 65.659053 
L 88.831442 69.786495 
L 89.9763 73.766035 
L 91.121157 78.149897 
L 92.266015 82.7137 
L 93.410873 87.372832 
L 94.55573 92.372765 
L 95.700588 97.365052 
L 96.845446 102.692576 
L 97.990303 108.286331 
L 99.135161 114.068028 
L 100.280019 120.114505 
L 101.424876 126.204612 
L 102.569734 132.796726 
L 103.714592 139.564676 
L 104.859449 146.671639 
L 106.004307 153.898713 
L 107.149165 161.399335 
L 108.29216 169.347187 
" style="fill:none;stroke:#666666;stroke-linecap:square;"/>
   </g>
   <g id="line2d_23">
    <path clip-path="url(#p187c91c72a)" d="M 55.687813 22.881437 
L 180.362812 22.881437 
" style="fill:none;stroke:#000000;stroke-dasharray:1,1.65;stroke-dashoffset:0;"/>
   </g>
   <g id="patch_3">
    <path d="M 55.687813 131.206562 
L 55.687813 10.845312 
" style="fill:none;stroke:#000000;stroke-linecap:square;stroke-linejoin:miter;stroke-width:0.8;"/>
   </g>
   <g id="patch_4">
    <path d="M 180.362812 131.206562 
L 180.362812 10.845312 
" style="fill:none;stroke:#000000;stroke-linecap:square;stroke-linejoin:miter;stroke-width:0.8;"/>
   </g>
   <g id="patch_5">
    <path d="M 55.687813 131.206562 
L 180.362812 131.206562 
" style="fill:none;stroke:#000000;stroke-linecap:square;stroke-linejoin:miter;stroke-width:0.8;"/>
   </g>
   <g id="patch_6">
    <path d="M 55.687813 10.845312 
L 180.362812 10.845312 
" style="fill:none;stroke:#000000;stroke-linecap:square;stroke-linejoin:miter;stroke-width:0.8;"/>
   </g>
   <g id="legend_1">
    <g id="text_11">
     <!-- Dataset -->
     <g transform="translate(263.470625 51.757187)scale(0.1 -0.1)">
      <defs>
       <path d="M 53.5 4.90625 
C 52.59375 4.703125 52.203125 4.703125 51.703125 4.703125 
C 48.796875 4.703125 47.203125 6.203125 47.203125 8.796875 
L 47.203125 39.59375 
C 47.203125 48.90625 40.40625 53.90625 27.5 53.90625 
C 19.796875 53.90625 13.703125 51.703125 10.09375 47.796875 
C 7.703125 45.09375 6.703125 42.09375 6.5 36.90625 
L 14.90625 36.90625 
C 15.59375 43.296875 19.40625 46.203125 27.203125 46.203125 
C 34.796875 46.203125 38.90625 43.40625 38.90625 38.40625 
L 38.90625 36.203125 
C 38.796875 32.59375 37 31.296875 30.203125 30.40625 
C 18.40625 28.90625 16.59375 28.5 13.40625 27.203125 
C 7.296875 24.59375 4.203125 20 4.203125 13.203125 
C 4.203125 3.703125 10.796875 -2.296875 21.40625 -2.296875 
C 28 -2.296875 33.296875 0 39.203125 5.40625 
C 39.796875 0 42.40625 -2.296875 47.796875 -2.296875 
C 49.59375 -2.296875 50.703125 -2.09375 53.5 -1.40625 
z
M 38.90625 16.5 
C 38.90625 13.703125 38.09375 12 35.59375 9.703125 
C 32.203125 6.59375 28.09375 5 23.203125 5 
C 16.703125 5 12.90625 8.09375 12.90625 13.40625 
C 12.90625 18.90625 16.5 21.703125 25.5 23 
C 34.40625 24.203125 36.09375 24.59375 38.90625 25.90625 
z
" id="NimbusSans-Regular-97"/>
      </defs>
      <use xlink:href="#NimbusSans-Regular-68"/>
      <use x="72.199982" xlink:href="#NimbusSans-Regular-97"/>
      <use x="127.799973" xlink:href="#NimbusSans-Regular-116"/>
      <use x="155.59996" xlink:href="#NimbusSans-Regular-97"/>
      <use x="211.199951" xlink:href="#NimbusSans-Regular-115"/>
      <use x="261.199936" xlink:href="#NimbusSans-Regular-101"/>
      <use x="316.799927" xlink:href="#NimbusSans-Regular-116"/>
     </g>
    </g>
    <g id="line2d_24">
     <path d="M 189.362812 62.786875 
L 209.362812 62.786875 
" style="fill:none;stroke:#e7298a;stroke-linecap:square;"/>
    </g>
    <g id="line2d_25"/>
    <g id="text_12">
     <!-- Chromium (1) -->
     <g transform="translate(217.362812 66.286875)scale(0.1 -0.1)">
      <defs>
       <path d="M 66.203125 50.296875 
C 63.296875 66.296875 54.09375 74.09375 38.09375 74.09375 
C 28.296875 74.09375 20.40625 71 15 65 
C 8.40625 57.796875 4.796875 47.40625 4.796875 35.59375 
C 4.796875 23.59375 8.5 13.296875 15.296875 6.203125 
C 21 0.40625 28.203125 -2.296875 37.703125 -2.296875 
C 55.5 -2.296875 65.5 7.296875 67.703125 26.59375 
L 58.09375 26.59375 
C 57.296875 21.59375 56.296875 18.203125 54.796875 15.296875 
C 51.796875 9.296875 45.59375 5.90625 37.796875 5.90625 
C 23.296875 5.90625 14.09375 17.5 14.09375 35.703125 
C 14.09375 54.40625 22.796875 65.90625 37 65.90625 
C 42.90625 65.90625 48.40625 64.203125 51.40625 61.296875 
C 54.09375 58.796875 55.59375 55.796875 56.703125 50.296875 
z
" id="NimbusSans-Regular-67"/>
       <path d="M 23.59375 72.90625 
C 13.59375 59.796875 7.296875 41.59375 7.296875 25.90625 
C 7.296875 10.09375 13.59375 -8.09375 23.59375 -21.203125 
L 29.09375 -21.203125 
C 20.296875 -6.90625 15.40625 9.90625 15.40625 25.90625 
C 15.40625 41.796875 20.296875 58.703125 29.09375 72.90625 
z
" id="NimbusSans-Regular-40"/>
       <path d="M 9.296875 -21.203125 
C 19.296875 -8.09375 25.59375 10.09375 25.59375 25.796875 
C 25.59375 41.59375 19.296875 59.796875 9.296875 72.90625 
L 3.796875 72.90625 
C 12.59375 58.59375 17.5 41.796875 17.5 25.796875 
C 17.5 9.90625 12.59375 -7 3.796875 -21.203125 
z
" id="NimbusSans-Regular-41"/>
      </defs>
      <use xlink:href="#NimbusSans-Regular-67"/>
      <use x="72.199982" xlink:href="#NimbusSans-Regular-104"/>
      <use x="127.799973" xlink:href="#NimbusSans-Regular-114"/>
      <use x="161.09996" xlink:href="#NimbusSans-Regular-111"/>
      <use x="216.699951" xlink:href="#NimbusSans-Regular-109"/>
      <use x="299.999939" xlink:href="#NimbusSans-Regular-105"/>
      <use x="322.199936" xlink:href="#NimbusSans-Regular-117"/>
      <use x="377.799927" xlink:href="#NimbusSans-Regular-109"/>
      <use x="461.099915" xlink:href="#NimbusSans-Regular-32"/>
      <use x="488.899902" xlink:href="#NimbusSans-Regular-40"/>
      <use x="522.19989" xlink:href="#NimbusSans-Regular-49"/>
      <use x="577.799881" xlink:href="#NimbusSans-Regular-41"/>
     </g>
    </g>
    <g id="line2d_26">
     <path d="M 189.362812 77.316562 
L 209.362812 77.316562 
" style="fill:none;stroke:#66a61e;stroke-linecap:square;"/>
    </g>
    <g id="line2d_27"/>
    <g id="text_13">
     <!-- Chromium (2) -->
     <g transform="translate(217.362812 80.816562)scale(0.1 -0.1)">
      <use xlink:href="#NimbusSans-Regular-67"/>
      <use x="72.199982" xlink:href="#NimbusSans-Regular-104"/>
      <use x="127.799973" xlink:href="#NimbusSans-Regular-114"/>
      <use x="161.09996" xlink:href="#NimbusSans-Regular-111"/>
      <use x="216.699951" xlink:href="#NimbusSans-Regular-109"/>
      <use x="299.999939" xlink:href="#NimbusSans-Regular-105"/>
      <use x="322.199936" xlink:href="#NimbusSans-Regular-117"/>
      <use x="377.799927" xlink:href="#NimbusSans-Regular-109"/>
      <use x="461.099915" xlink:href="#NimbusSans-Regular-32"/>
      <use x="488.899902" xlink:href="#NimbusSans-Regular-40"/>
      <use x="522.19989" xlink:href="#NimbusSans-Regular-50"/>
      <use x="577.799881" xlink:href="#NimbusSans-Regular-41"/>
     </g>
    </g>
    <g id="line2d_28">
     <path d="M 189.362812 91.905625 
L 209.362812 91.905625 
" style="fill:none;stroke:#e6ab02;stroke-linecap:square;"/>
    </g>
    <g id="line2d_29"/>
    <g id="text_14">
     <!-- Drop-Seq -->
     <g transform="translate(217.362812 95.405625)scale(0.1 -0.1)">
      <defs>
       <path d="M 28.40625 31.203125 
L 4.59375 31.203125 
L 4.59375 24 
L 28.40625 24 
z
" id="NimbusSans-Regular-45"/>
       <path d="M 59.59375 51.5 
C 59.59375 56.5 59.296875 57.90625 57.703125 61.296875 
C 53.703125 69.703125 45.203125 74.09375 32.90625 74.09375 
C 16.90625 74.09375 7 65.90625 7 52.703125 
C 7 43.796875 11.703125 38.203125 21.296875 35.703125 
L 39.40625 30.90625 
C 48.703125 28.5 52.796875 24.796875 52.796875 19.09375 
C 52.796875 15.203125 50.703125 11.203125 47.59375 9 
C 44.703125 6.90625 40.09375 5.90625 34.203125 5.90625 
C 26.203125 5.90625 20.90625 7.796875 17.40625 12 
C 14.703125 15.203125 13.5 18.703125 13.59375 23.203125 
L 4.796875 23.203125 
C 4.90625 16.5 6.203125 12.09375 9.09375 8.09375 
C 14.09375 1.203125 22.5 -2.296875 33.59375 -2.296875 
C 42.296875 -2.296875 49.40625 -0.296875 54.09375 3.296875 
C 59 7.203125 62.09375 13.703125 62.09375 20 
C 62.09375 29 56.5 35.59375 46.59375 38.296875 
L 28.296875 43.203125 
C 19.5 45.59375 16.296875 48.40625 16.296875 54 
C 16.296875 61.40625 22.796875 66.296875 32.59375 66.296875 
C 44.203125 66.296875 50.703125 61.09375 50.796875 51.5 
z
" id="NimbusSans-Regular-83"/>
       <path d="M 49.5 -21.796875 
L 49.5 52.40625 
L 42.09375 52.40625 
L 42.09375 45.40625 
C 38.203125 50.90625 32.296875 53.90625 25.40625 53.90625 
C 11.59375 53.90625 2.59375 42.59375 2.59375 25.203125 
C 2.59375 8.203125 11.09375 -2.296875 25 -2.296875 
C 32.296875 -2.296875 37.296875 0.296875 41.203125 6 
L 41.203125 -21.796875 
z
M 26.59375 46.09375 
C 35.5 46.09375 41.203125 38.203125 41.203125 25.5 
C 41.203125 13.5 35.40625 5.5 26.59375 5.5 
C 17.40625 5.5 11.296875 13.59375 11.296875 25.796875 
C 11.296875 38 17.40625 46.09375 26.59375 46.09375 
z
" id="NimbusSans-Regular-113"/>
      </defs>
      <use xlink:href="#NimbusSans-Regular-68"/>
      <use x="72.199982" xlink:href="#NimbusSans-Regular-114"/>
      <use x="105.499969" xlink:href="#NimbusSans-Regular-111"/>
      <use x="161.09996" xlink:href="#NimbusSans-Regular-112"/>
      <use x="216.699951" xlink:href="#NimbusSans-Regular-45"/>
      <use x="249.999939" xlink:href="#NimbusSans-Regular-83"/>
      <use x="316.699936" xlink:href="#NimbusSans-Regular-101"/>
      <use x="372.299927" xlink:href="#NimbusSans-Regular-113"/>
     </g>
    </g>
    <g id="line2d_30">
     <path d="M 298.469062 62.786875 
L 318.469062 62.786875 
" style="fill:none;stroke:#a6761d;stroke-linecap:square;"/>
    </g>
    <g id="line2d_31"/>
    <g id="text_15">
     <!-- GemCode -->
     <g transform="translate(326.469062 66.286875)scale(0.1 -0.1)">
      <defs>
       <path d="M 70.90625 38.5 
L 40.5 38.5 
L 40.5 30.296875 
L 62.703125 30.296875 
L 62.703125 28.296875 
C 62.703125 15.296875 53.09375 5.90625 39.796875 5.90625 
C 32.40625 5.90625 25.703125 8.59375 21.40625 13.296875 
C 16.59375 18.5 13.703125 27.203125 13.703125 36.203125 
C 13.703125 54.09375 23.90625 65.90625 39.296875 65.90625 
C 50.40625 65.90625 58.40625 60.203125 60.40625 50.796875 
L 69.90625 50.796875 
C 67.296875 65.59375 56.09375 74.09375 39.40625 74.09375 
C 30.5 74.09375 23.296875 71.796875 17.59375 67.09375 
C 9.09375 60.09375 4.40625 48.796875 4.40625 35.703125 
C 4.40625 13.296875 18.09375 -2.296875 37.796875 -2.296875 
C 47.703125 -2.296875 55.5 1.40625 62.703125 9.296875 
L 65 -0.40625 
L 70.90625 -0.40625 
z
" id="NimbusSans-Regular-71"/>
      </defs>
      <use xlink:href="#NimbusSans-Regular-71"/>
      <use x="77.799988" xlink:href="#NimbusSans-Regular-101"/>
      <use x="133.399979" xlink:href="#NimbusSans-Regular-109"/>
      <use x="216.699966" xlink:href="#NimbusSans-Regular-67"/>
      <use x="288.899948" xlink:href="#NimbusSans-Regular-111"/>
      <use x="344.499939" xlink:href="#NimbusSans-Regular-100"/>
      <use x="400.09993" xlink:href="#NimbusSans-Regular-101"/>
     </g>
    </g>
    <g id="line2d_32">
     <path d="M 298.469062 77.257187 
L 318.469062 77.257187 
" style="fill:none;stroke:#666666;stroke-linecap:square;"/>
    </g>
    <g id="line2d_33"/>
    <g id="text_16">
     <!-- InDrops -->
     <g transform="translate(326.469062 80.757187)scale(0.1 -0.1)">
      <defs>
       <path d="M 19.40625 72.90625 
L 10 72.90625 
L 10 0 
L 19.40625 0 
z
" id="NimbusSans-Regular-73"/>
      </defs>
      <use xlink:href="#NimbusSans-Regular-73"/>
      <use x="27.799988" xlink:href="#NimbusSans-Regular-110"/>
      <use x="83.399979" xlink:href="#NimbusSans-Regular-68"/>
      <use x="155.59996" xlink:href="#NimbusSans-Regular-114"/>
      <use x="188.899948" xlink:href="#NimbusSans-Regular-111"/>
      <use x="244.499939" xlink:href="#NimbusSans-Regular-112"/>
      <use x="300.09993" xlink:href="#NimbusSans-Regular-115"/>
     </g>
    </g>
   </g>
  </g>
 </g>
 <defs>
  <clipPath id="p187c91c72a">
   <rect height="120.36125" width="124.675" x="55.687813" y="10.845312"/>
  </clipPath>
 </defs>
</svg>
